<svg width="164" height="162" viewBox="0 0 164 162" fill="none" xmlns="http://www.w3.org/2000/svg">
<g clip-path="url(#clip0_39_1753)">
<path d="M45.1118 3.87892H12.8369V57.4886H45.1118V3.87892Z" fill="#E1E1E1"/>
<path d="M44.0541 3.87892H11.7793V57.4886H44.0541V3.87892Z" fill="#ECECEC"/>
<path d="M42.7047 4.94014H13.165V56.3908H42.7047V4.94014Z" fill="#FAFAFA"/>
<path d="M36.9437 11.6368H18.7822V49.6941H36.9437V11.6368Z" fill="#ECECEC"/>
<path d="M18.7816 36.2277C18.7451 32.6781 21.9179 29.2017 25.4189 28.6894C27.0964 28.4698 28.8834 28.7992 30.4516 28.1405C33.2597 27.0061 34.1349 23.2735 36.943 22.1757L37.0889 49.6941H18.7816V36.2277Z" fill="#E1E1E1"/>
<path d="M164 5.89157H133.038V38.2769H164V5.89157Z" fill="#E1E1E1"/>
<path d="M161.885 5.89157H130.923V38.2769H161.885V5.89157Z" fill="#FAFAFA"/>
<path d="M161.885 38.2769H130.923V5.85498H161.885V38.2769ZM130.959 38.2403H161.885V5.89157H130.959V38.2403Z" fill="#E1E1E1"/>
<path d="M157.727 10.2462H135.08V33.9223H157.727V10.2462Z" fill="#FAFAFA"/>
<path d="M135.08 34.0687C135.08 34.1053 134.898 34.3248 134.533 34.7274C134.168 35.0933 133.658 35.6422 133.111 36.1911C132.527 36.74 132.017 37.2523 131.615 37.6183C131.214 37.9842 130.995 38.1672 130.959 38.1672C130.923 38.1306 131.141 37.911 131.506 37.5085C131.871 37.1425 132.381 36.5936 132.965 36.0447C133.548 35.4958 134.059 34.9835 134.46 34.6176C134.825 34.2516 135.08 34.0321 135.08 34.0687Z" fill="#E1E1E1"/>
<path d="M157.728 33.9955C157.764 33.9955 157.983 34.1785 158.384 34.5444C158.749 34.9103 159.296 35.4226 159.843 35.9715C160.39 36.557 160.9 37.0693 161.265 37.4719C161.63 37.8744 161.812 38.094 161.812 38.1306C161.776 38.1672 161.557 37.9476 161.156 37.5817C160.791 37.2157 160.244 36.7034 159.697 36.1179C159.15 35.5324 158.639 35.0201 158.275 34.6176C157.91 34.2882 157.691 34.0321 157.728 33.9955Z" fill="#E1E1E1"/>
<path d="M157.654 10.2828C157.654 10.2462 157.837 10.0267 158.201 9.62413C158.566 9.25819 159.077 8.70929 159.624 8.16038C160.207 7.61148 160.718 7.09917 161.119 6.73323C161.52 6.36729 161.739 6.18433 161.775 6.18433C161.812 6.22092 161.593 6.44048 161.228 6.84301C160.864 7.20895 160.353 7.75785 159.769 8.30676C159.186 8.85566 158.675 9.36797 158.274 9.73391C157.946 10.0998 157.691 10.3194 157.654 10.2828Z" fill="#E1E1E1"/>
<path d="M135.043 10.356C135.007 10.356 134.788 10.173 134.387 9.80709C134.022 9.44115 133.475 8.92884 132.928 8.37994C132.381 7.79444 131.871 7.28213 131.506 6.8796C131.141 6.47707 130.959 6.2575 130.959 6.22091C130.995 6.18432 131.214 6.40388 131.615 6.76982C131.98 7.13575 132.527 7.64806 133.074 8.23356C133.621 8.81906 134.132 9.33137 134.496 9.7339C134.861 10.0998 135.043 10.3194 135.043 10.356Z" fill="#E1E1E1"/>
<path d="M157.655 33.9223C157.655 33.9223 157.655 33.8857 157.655 33.8125C157.655 33.7393 157.655 33.6295 157.655 33.4832C157.655 33.1904 157.655 32.7513 157.655 32.2024C157.655 31.068 157.655 29.4579 157.618 27.372C157.618 23.2369 157.582 17.3088 157.582 10.2462L157.655 10.3194C151.054 10.3194 143.323 10.3194 135.081 10.3194L135.19 10.2096C135.19 18.8823 135.19 27.0427 135.19 33.8857L135.117 33.8125C141.864 33.8125 147.517 33.8491 151.455 33.8491C153.425 33.8491 154.993 33.8491 156.05 33.8857C156.561 33.8857 156.998 33.8857 157.254 33.8857C157.4 33.8857 157.473 33.8857 157.582 33.8857C157.618 33.9223 157.655 33.9223 157.655 33.9223C157.655 33.9223 157.618 33.9223 157.545 33.9223C157.473 33.9223 157.363 33.9223 157.254 33.9223C156.962 33.9223 156.561 33.9223 156.05 33.9223C154.993 33.9223 153.461 33.9223 151.492 33.9589C147.517 33.9589 141.864 33.9955 135.081 33.9955H135.008V33.9223C135.008 27.0793 135.008 18.9189 135.008 10.2462V10.1364H135.117C143.359 10.1364 151.091 10.1364 157.691 10.1364H157.764V10.2096C157.728 17.3088 157.728 23.2369 157.728 27.4086C157.728 29.4579 157.728 31.1046 157.691 32.2024C157.691 32.7513 157.691 33.1538 157.691 33.4466C157.691 33.5929 157.691 33.7027 157.691 33.7759C157.655 33.8857 157.655 33.9223 157.655 33.9223Z" fill="#E1E1E1"/>
<path d="M150.178 18.2968H142.629V25.8717H150.178V18.2968Z" fill="#ECECEC"/>
<path d="M117.248 157.609C116.591 157.06 115.169 155.303 116.263 153.254C116.664 152.522 117.539 152.12 118.305 151.79C119.071 151.461 119.91 151.168 120.566 150.619C121.77 149.595 122.135 147.838 122.937 146.484C123.849 144.911 125.599 143.703 127.423 143.776C129.501 143.886 131.252 145.606 132.054 147.546C132.856 149.485 132.856 151.681 132.893 153.803C132.893 154.974 132.856 156.291 131.981 157.096C131.179 157.828 130.012 157.828 128.954 157.792C125.125 157.682 121.332 157.572 117.503 157.426" fill="#F5F5F5"/>
<path d="M139.129 126.028H109.042L114.476 158.487C114.731 159.914 115.752 161.012 117.029 161.378C117.065 161.378 117.102 161.415 117.138 161.415C117.211 161.451 117.32 161.451 117.393 161.488C117.576 161.524 117.794 161.561 118.013 161.561V161.597L118.159 161.561H131.58C131.835 161.561 132.09 161.524 132.309 161.488C133.877 161.232 135.154 159.951 135.372 158.304L137.998 135.945L138.108 135.067L139.129 126.211V126.028ZM133.44 146.74H130.34L130.668 137.336H134.242L133.44 146.74ZM134.57 137.299H137.524L136.43 146.704H133.768L134.57 137.299ZM125.745 157.17L125.562 148.973H130.012L129.756 157.17H125.745ZM120.931 149.009H125.271L125.453 157.206H121.587L120.931 149.009ZM121.259 157.17H117.649C117.32 154.974 116.846 152.083 116.372 148.973H120.639L121.259 157.17ZM120.748 146.74L120.019 137.336H124.979L125.198 146.74H120.748ZM125.489 146.74L125.271 137.336H130.376L130.048 146.74H125.489ZM125.234 135.067L125.052 126.358H130.777L130.486 135.067H125.234ZM124.906 135.067H119.837L119.144 126.358H124.724L124.906 135.067ZM119.545 135.067H114.148C113.965 133.859 113.783 132.725 113.601 131.7C113.054 128.187 112.835 126.834 112.725 126.358H118.852L119.545 135.067ZM119.727 137.299L120.457 146.704H116.008C115.862 145.752 115.716 144.764 115.57 143.813C115.205 141.581 114.877 139.385 114.549 137.299H119.727ZM115.679 146.74H112.762L111.194 137.336H114.184C114.658 140.227 115.169 143.447 115.679 146.74ZM116.044 149.009C116.482 151.827 116.919 154.645 117.32 157.206H114.512L113.126 149.009H116.044ZM130.012 157.17L130.267 148.973H133.257L132.564 157.17H130.012ZM130.741 135.067L131.033 126.358H135.19L134.461 135.067H130.741ZM112.47 126.321C112.579 126.943 113.126 130.383 113.892 135.03H110.865L109.407 126.321H112.47ZM135.19 157.17H132.856L133.549 148.973H136.138L135.19 157.17ZM137.779 135.067H134.752L135.482 126.358H138.8L137.779 135.067Z" fill="#E1E1E1"/>
<path d="M156.269 161.89C156.269 161.927 121.295 162 78.1525 162C34.9735 162 0 161.927 0 161.89C0 161.854 34.9735 161.78 78.1525 161.78C121.295 161.78 156.269 161.854 156.269 161.89Z" fill="#1A2E35"/>
<path d="M114.439 122.259L73.0468 122.223C68.0506 122.223 64.0391 118.161 64.0391 113.184L64.0755 9.03863C64.0755 4.0253 68.1236 0 73.0833 0L114.475 0.0365936C119.472 0.0365936 123.483 4.09849 123.483 9.07522L123.447 113.221C123.447 118.197 119.399 122.259 114.439 122.259Z" fill="#375A64"/>
<path d="M114.402 3.69595H106.379C105.285 3.69595 104.446 4.61079 104.446 5.7452V7.20894C104.446 8.34334 103.571 9.25818 102.513 9.25818H86.8684C85.7743 9.25818 84.9355 8.34334 84.9355 7.20894V5.7452C84.9355 4.61079 84.0603 3.69595 83.0027 3.69595H80.1946H73.1561C69.6551 3.69595 66.847 6.51366 66.847 10.0267L66.8105 111.647C66.8105 115.16 69.6186 117.978 73.1196 117.978L114.439 118.014C117.94 118.014 120.748 115.197 120.748 111.684L120.711 10.0632C120.711 6.55026 117.903 3.69595 114.402 3.69595Z" fill="#FAFAFA"/>
<path d="M107.254 6.98938H106.78V7.64806H107.254V6.98938Z" fill="#1A2E35"/>
<path d="M107.984 6.73322H107.51V7.64806H107.984V6.73322Z" fill="#1A2E35"/>
<path d="M108.749 6.51366H108.275V7.64807H108.749V6.51366Z" fill="#1A2E35"/>
<path d="M109.479 6.07454H109.005V7.64807H109.479V6.07454Z" fill="#1A2E35"/>
<path d="M116.262 7.68466H113.965C113.892 7.68466 113.782 7.61147 113.782 7.50169V6.36729C113.782 6.2941 113.855 6.18432 113.928 6.18432H116.226H116.262V6.22091V6.58685H116.517C116.554 6.58685 116.554 6.62344 116.554 6.62344V7.17235C116.554 7.20894 116.517 7.20894 116.517 7.20894H116.262V7.57488C116.299 7.64806 116.262 7.68466 116.262 7.68466ZM116.226 6.2941H113.965C113.928 6.2941 113.892 6.33069 113.892 6.36729V7.50169C113.892 7.53828 113.928 7.57488 113.965 7.57488H116.226V7.20894C116.226 7.17235 116.262 7.17235 116.262 7.17235H116.517V6.69663H116.262C116.226 6.69663 116.226 6.66004 116.226 6.66004V6.2941Z" fill="#1A2E35"/>
<path d="M114.074 7.39191V6.47707H116.007V6.8796V6.98938V7.39191H114.074Z" fill="#1A2E35"/>
<path d="M111.521 7.79443C111.622 7.79443 111.704 7.71252 111.704 7.61147C111.704 7.51041 111.622 7.4285 111.521 7.4285C111.421 7.4285 111.339 7.51041 111.339 7.61147C111.339 7.71252 111.421 7.79443 111.521 7.79443Z" fill="#1A2E35"/>
<path d="M110.938 7.17235L111.157 7.39192C111.267 7.28214 111.376 7.24554 111.522 7.24554C111.668 7.24554 111.777 7.31873 111.887 7.39192L112.105 7.17235C111.96 7.02598 111.741 6.9162 111.522 6.9162C111.267 6.95279 111.084 7.02598 110.938 7.17235Z" fill="#1A2E35"/>
<path d="M111.521 6.47707C111.156 6.47707 110.828 6.62344 110.609 6.843L110.828 7.06256C111.011 6.8796 111.266 6.76981 111.521 6.76981C111.776 6.76981 112.032 6.8796 112.214 7.06256L112.433 6.843C112.178 6.62344 111.849 6.47707 111.521 6.47707Z" fill="#1A2E35"/>
<path d="M110.245 6.51366L110.464 6.73322C110.719 6.47707 111.12 6.2941 111.522 6.2941C111.923 6.2941 112.287 6.47707 112.579 6.73322L112.798 6.51366C112.47 6.18432 112.032 6.00135 111.522 6.00135C111.011 5.96476 110.573 6.18432 110.245 6.51366Z" fill="#1A2E35"/>
<path d="M96.4963 18.9555H93.7247C93.5424 18.9555 93.3965 18.8091 93.3965 18.6262V16.7233C93.3965 16.5403 93.5424 16.3939 93.7247 16.3939H96.4963C96.6787 16.3939 96.8245 16.5403 96.8245 16.7233V18.6262C96.861 18.7725 96.7151 18.9555 96.4963 18.9555Z" fill="#1A2E35"/>
<path d="M94.1625 16.5037H93.7979V16.1012C93.7979 15.3327 94.3813 14.7472 95.1472 14.7472C95.913 14.7472 96.4965 15.3327 96.4965 16.1012V16.3939H96.1318V16.1012C96.1318 15.5157 95.7307 15.1132 95.1472 15.1132C94.6002 15.1132 94.1625 15.5157 94.1625 16.1012V16.5037Z" fill="#1A2E35"/>
<path d="M67.2119 80.4694C67.2119 73.9191 71.0047 67.4786 76.7667 64.3682C80.7783 62.1726 85.4463 61.5871 89.9319 60.5625C94.4176 59.5378 99.0127 57.8545 101.784 54.1586C105.504 49.2184 104.811 42.1559 107.473 36.5936C109.917 31.5437 115.241 28.0307 120.857 27.8478V112.928C120.857 115.782 118.56 118.088 115.715 118.088H72.354C69.5094 118.088 67.2119 115.782 67.2119 112.928V80.4694Z" fill="#ECECEC"/>
<path d="M76.3291 36.1545C76.3291 33.0075 77.9702 31.1046 80.2677 31.1046C82.5653 31.1046 84.2063 32.9709 84.2063 36.1545C84.2063 39.3016 82.5288 41.2044 80.2677 41.2044C77.9702 41.1678 76.3291 39.3016 76.3291 36.1545ZM83.1488 36.1545C83.1488 33.5198 81.9818 32.056 80.2313 32.056C78.5172 32.056 77.3138 33.5198 77.3138 36.1545C77.3138 38.7893 78.4808 40.253 80.2313 40.253C81.9818 40.253 83.1488 38.7893 83.1488 36.1545Z" fill="#1A2E35"/>
<path d="M92.7762 36.0447C92.7762 39.4113 90.9528 41.1678 88.2541 41.1678C87.3788 41.1678 86.54 41.0215 85.9201 40.6189L86.3212 39.8139C86.8318 40.1432 87.4882 40.2896 88.2541 40.2896C90.3693 40.2896 91.7551 38.899 91.7551 36.2277C91.7551 36.0081 91.7551 35.7154 91.7186 35.4226C91.208 36.5204 90.0775 37.1059 88.6917 37.1059C86.7224 37.1059 85.373 35.9349 85.373 34.1419C85.373 32.2756 86.8318 31.1046 88.7282 31.1046C91.3539 31.1046 92.7762 32.9343 92.7762 36.0447ZM91.3904 34.1053C91.3904 33.0075 90.4787 31.9828 88.7646 31.9828C87.3424 31.9828 86.3577 32.8245 86.3577 34.1419C86.3577 35.4592 87.3059 36.2643 88.8376 36.2643C90.3693 36.2643 91.3904 35.3128 91.3904 34.1053Z" fill="#1A2E35"/>
<path d="M94.2715 34.3614C94.2715 33.9223 94.5997 33.593 95.0009 33.593C95.402 33.593 95.7667 33.9223 95.7667 34.3614C95.7667 34.8005 95.402 35.1299 95.0009 35.1299C94.5997 35.1299 94.2715 34.8005 94.2715 34.3614ZM94.2715 40.3994C94.2715 39.9602 94.5997 39.6309 95.0009 39.6309C95.402 39.6309 95.7667 39.9602 95.7667 40.3994C95.7667 40.8385 95.402 41.1678 95.0009 41.1678C94.5997 41.1678 94.2715 40.8385 94.2715 40.3994Z" fill="#1A2E35"/>
<path d="M103.973 40.1798V41.0946H97.0437V40.3628L101.165 36.3375C102.295 35.2397 102.478 34.581 102.478 33.8857C102.478 32.7513 101.675 32.0194 100.18 32.0194C99.013 32.0194 98.1378 32.3854 97.4813 33.1172L96.752 32.4951C97.5178 31.5803 98.7577 31.068 100.253 31.068C102.259 31.068 103.535 32.0926 103.535 33.7393C103.535 34.6908 103.243 35.5324 101.931 36.8498L98.5754 40.1432H103.973V40.1798Z" fill="#1A2E35"/>
<path d="M105.176 36.1545C105.176 33.0075 106.817 31.1046 109.114 31.1046C111.412 31.1046 113.053 32.9709 113.053 36.1545C113.053 39.3016 111.375 41.2044 109.114 41.2044C106.817 41.1678 105.176 39.3016 105.176 36.1545ZM112.032 36.1545C112.032 33.5198 110.865 32.056 109.114 32.056C107.4 32.056 106.197 33.5198 106.197 36.1545C106.197 38.7893 107.364 40.253 109.114 40.253C110.828 40.253 112.032 38.7893 112.032 36.1545Z" fill="#1A2E35"/>
<path d="M76.9122 29.2017C80.8397 29.2017 84.0236 26.0069 84.0236 22.066C84.0236 18.125 80.8397 14.9302 76.9122 14.9302C72.9847 14.9302 69.8008 18.125 69.8008 22.066C69.8008 26.0069 72.9847 29.2017 76.9122 29.2017Z" fill="#E1E1E1"/>
<path d="M38.2558 78.9691C37.7452 78.6031 37.0888 78.4567 36.5418 78.164C35.9583 77.9078 35.4112 77.4321 35.3748 76.7734C35.3018 75.822 36.3229 75.1267 36.3959 74.2119C36.4688 72.8945 34.7183 72.1626 34.4266 70.8819C34.2078 69.8206 35.1195 68.796 35.083 67.6982C35.0465 66.6004 34.0984 65.7953 33.6607 64.7707C32.6396 62.4287 34.4995 59.4281 33.1137 57.3056C32.749 56.7201 32.1655 56.3176 31.6914 55.8419C31.2173 55.3662 30.7797 54.7441 30.8526 54.0488L28.2269 52.8412C27.3516 51.4872 25.3459 51.4506 23.8506 51.9996C22.3554 52.5851 21.0425 53.6097 19.4744 54.0122C18.7085 54.1952 18.8179 53.0608 18.0521 53.2437C17.031 53.4633 15.791 54.6343 15.5358 55.6223C15.244 56.6835 15.0252 57.8545 14.624 58.8792C14.2229 60.0136 12.9829 60.8186 12.8735 62.0262C12.7277 63.4168 14.1864 64.5878 14.1864 65.9783C14.1864 67.5153 12.5088 68.8692 13.0559 70.2964C13.3476 71.1014 14.2958 71.5405 14.624 72.3456C15.0617 73.4434 14.1864 74.6876 14.2593 75.8586C14.3323 77.0296 15.3169 77.9444 16.2651 78.6397C19.8391 81.3842 23.8142 83.6896 28.081 85.1534C29.9409 85.7755 31.8738 86.2878 33.8066 86.1048C35.7394 85.9218 37.7088 85.007 38.7299 83.3237C39.5687 81.9331 39.5687 79.8839 38.2558 78.9691Z" fill="#1A2E35"/>
<path d="M30.7431 53.3901C30.269 51.4872 28.7008 49.8771 26.8044 49.3648C24.9081 48.8525 22.7564 49.438 21.3706 50.8286C20.8236 51.4141 20.3495 52.1093 19.693 52.5485C18.9272 53.0608 18.8178 52.9144 17.979 53.2437C17.1402 53.5731 15.6085 55.9151 15.6085 56.8299L15.1709 60.8186C15.2074 61.7335 16.4108 62.2824 17.2861 61.953C18.1613 61.6603 18.7448 60.8186 19.2189 60.0136C19.693 59.2085 20.1307 58.3302 20.86 57.8179C22.1364 56.9397 23.814 57.2324 25.3457 57.5618C26.8409 57.8545 28.5914 58.1107 29.7584 57.0861C30.816 56.2078 31.0713 54.6709 30.7431 53.3901Z" fill="#1A2E35"/>
<path d="M31.5453 59.0621C31.3629 56.464 29.6489 53.3169 27.0961 53.5731L19.073 55.6223C18.3071 55.6955 17.7236 56.3908 17.7236 57.1593L18.6354 76.5539C18.5989 76.5539 18.5989 76.5539 18.5624 76.5539C18.5624 76.5539 21.8081 83.5067 27.1326 81.8234C28.1902 81.494 27.242 78.8593 27.4243 77.6883H27.4608C27.4608 77.5419 27.4608 77.4321 27.4608 77.2857C27.6431 75.9318 27.4973 74.6144 27.4973 74.6144C27.4973 73.0409 27.4973 72.4188 27.4973 72.4188C27.4973 72.4188 30.7794 71.8699 31.4724 67.5518C31.8735 65.4294 31.7276 61.9164 31.5453 59.0621Z" fill="#FFBF9D"/>
<path d="M30.8893 62.3921C30.8893 62.6849 30.6705 62.9411 30.3423 62.9411C30.0505 62.9411 29.7953 62.7215 29.7588 62.4287C29.7588 62.136 29.9776 61.8798 30.3058 61.8798C30.634 61.8798 30.8893 62.0994 30.8893 62.3921Z" fill="#1A2E35"/>
<path d="M30.8164 60.8918C30.7434 60.965 30.3423 60.6722 29.7223 60.6722C29.1388 60.6722 28.7012 60.965 28.6283 60.8918C28.5918 60.8552 28.6647 60.7454 28.8471 60.5991C29.0294 60.4527 29.3576 60.3429 29.7223 60.3429C30.087 60.3429 30.4152 60.4893 30.5976 60.6357C30.7799 60.7088 30.8529 60.8552 30.8164 60.8918Z" fill="#1A2E35"/>
<path d="M25.3092 62.5751C25.3092 62.8679 25.0904 63.124 24.7622 63.124C24.4705 63.124 24.2152 62.9045 24.1787 62.6117C24.1787 62.319 24.3975 62.0628 24.7257 62.0628C25.0175 62.0628 25.2728 62.2824 25.3092 62.5751Z" fill="#1A2E35"/>
<path d="M24.9814 61.0016C24.9085 61.0748 24.5073 60.782 23.8874 60.782C23.3039 60.782 22.8662 61.0748 22.7933 61.0016C22.7568 60.965 22.8298 60.8552 23.0121 60.7088C23.1945 60.5625 23.5227 60.4527 23.8874 60.4527C24.252 60.4527 24.5803 60.5991 24.7626 60.7454C24.945 60.8552 25.0179 60.965 24.9814 61.0016Z" fill="#1A2E35"/>
<path d="M27.1332 65.4294C27.1332 65.3928 27.4978 65.3196 28.0813 65.2465C28.2272 65.2465 28.3731 65.2099 28.4096 65.1001C28.446 64.9903 28.3731 64.8439 28.3002 64.661C28.1543 64.295 28.0084 63.8925 27.8625 63.49C27.2426 61.8432 26.7685 60.4893 26.8414 60.4527C26.9143 60.4161 27.4614 61.7335 28.0813 63.3802C28.2272 63.7827 28.3731 64.1852 28.519 64.5512C28.5919 64.7341 28.6648 64.9171 28.5919 65.1367C28.5554 65.2465 28.446 65.3196 28.3366 65.3562C28.2272 65.3928 28.1543 65.3928 28.0813 65.3928C27.4978 65.4294 27.1332 65.466 27.1332 65.4294Z" fill="#1A2E35"/>
<path d="M27.5707 72.4554C27.5707 72.4554 24.6896 72.6384 21.8086 70.9185C21.8086 70.9185 23.1944 73.8825 27.4977 73.48L27.5707 72.4554Z" fill="#FF9A6C"/>
<path d="M26.8775 66.8566C26.6587 66.5638 26.294 66.4174 25.9293 66.454C25.674 66.4906 25.4188 66.6004 25.2729 66.82C25.127 67.0395 25.0905 67.3323 25.2364 67.5153C25.3823 67.7348 25.747 67.808 26.0023 67.6982C26.294 67.625 26.5128 67.4421 26.7681 67.2591C26.841 67.2225 26.914 67.1493 26.9505 67.0761C26.9505 67.0029 26.9504 66.9298 26.8775 66.8566Z" fill="#FF9A6C"/>
<path d="M25.3827 65.8319C25.4921 65.8319 25.4921 66.454 26.0391 66.9298C26.5862 67.4055 27.2791 67.3323 27.2791 67.4055C27.2791 67.4421 27.1332 67.5153 26.8414 67.5518C26.5497 67.5518 26.1485 67.4787 25.8203 67.1859C25.4921 66.8932 25.3462 66.5272 25.3097 66.2711C25.2733 65.9783 25.3462 65.8319 25.3827 65.8319Z" fill="#1A2E35"/>
<path d="M25.2368 59.977C25.1639 60.1233 24.5804 60.0502 23.8875 60.1599C23.1946 60.2331 22.6476 60.4527 22.5382 60.3063C22.5017 60.2331 22.6111 60.0867 22.8299 59.9404C23.0487 59.794 23.4134 59.6476 23.8146 59.5744C24.2157 59.5378 24.6169 59.611 24.8722 59.6842C25.1274 59.7574 25.2733 59.9038 25.2368 59.977Z" fill="#1A2E35"/>
<path d="M30.5973 59.1719C30.4879 59.3183 30.0867 59.1719 29.5761 59.1719C29.102 59.1353 28.6644 59.2817 28.555 59.1353C28.5185 59.0621 28.5915 58.9157 28.7738 58.806C28.9562 58.6962 29.2479 58.5864 29.5761 58.5864C29.9044 58.5864 30.1961 58.7328 30.3785 58.8426C30.5608 58.9523 30.6337 59.0987 30.5973 59.1719Z" fill="#1A2E35"/>
<path d="M26.9506 52.4753L26.5859 51.9996C24.1061 52.2923 21.6627 52.9144 19.3651 53.8658C18.4534 54.2318 17.5052 54.7075 16.8853 55.476C16.01 56.5372 15.8641 58.0009 15.7912 59.3915C15.4265 64.6244 15.0983 70.0036 16.7394 74.9804C17.1405 74.3583 17.9064 74.0655 18.6358 73.9191C19.3651 73.7728 20.131 73.7362 20.7874 73.3702C21.5168 73.0043 22.0638 72.2724 22.2462 71.4674C22.465 70.6623 22.3191 69.8207 21.9909 69.0522C21.5897 68.2105 20.8968 67.4055 21.0427 66.5272C21.225 65.5758 22.3191 65.0269 22.5744 64.112C23.012 62.5019 20.7509 61.0748 21.225 59.4647C21.4074 58.8792 21.9179 58.44 22.465 58.1839C23.012 57.9277 23.632 57.7448 24.179 57.4886C26.0024 56.6469 27.2059 54.5245 26.9506 52.4753Z" fill="#1A2E35"/>
<path d="M48.6499 85.3363L43.6172 93.1674C43.6172 93.1674 44.1642 94.0822 45.3677 94.0456C46.5712 94.009 48.2487 90.9718 48.4311 90.3497C48.6134 89.7276 48.3581 89.1421 48.5405 88.7395C48.7228 88.337 48.6499 87.2026 48.6499 87.2026C48.6499 87.3124 49.7804 85.8121 48.6499 85.3363Z" fill="#FFBF9D"/>
<path d="M42.2305 93.1674L44.8562 82.7748C44.9292 82.4454 45.148 82.1893 45.4032 82.0429L49.196 79.8839C49.4148 79.7375 49.7066 79.8107 49.8889 80.0303C49.9618 80.14 49.9983 80.323 49.9618 80.4694L47.1902 91.4109L42.2305 93.1674Z" fill="#1A2E35"/>
<path d="M40.918 101.218L47.0083 89.9837L44.7108 86.9831L36.1406 93.4967L38.4017 99.7176L40.918 101.218Z" fill="#25C883"/>
<path d="M47.0817 92.3989C47.0817 92.3989 47.1547 92.2525 47.1911 91.9232C47.2276 91.6304 47.1911 91.1547 47.0817 90.6058V90.5692V90.5326C47.1911 90.3497 47.2276 90.1667 47.1547 89.9471C47.0817 89.7276 46.9359 89.5446 46.7171 89.4348L46.6441 89.3982L46.6806 89.3251C46.8994 88.9957 47.1182 88.6664 47.3735 88.3004C47.4464 88.2272 47.5194 88.1175 47.5194 88.0443C47.5558 87.9711 47.5558 87.8613 47.4829 87.7881C47.41 87.6051 47.2276 87.4222 47.0453 87.3124L46.9723 87.2392L47.0453 87.166C47.2276 86.9465 47.4464 86.7269 47.6652 86.5073C48.0299 86.1048 48.3581 85.7389 48.6499 85.3363C48.7958 85.1534 48.9416 84.9338 49.0146 84.7509C49.051 84.6411 49.0875 84.5313 49.124 84.4581C49.124 84.3483 49.0875 84.3117 49.0146 84.3117H48.9781C48.9052 84.2751 48.7593 84.3117 48.6499 84.3483C48.5405 84.3849 48.4311 84.4581 48.2852 84.4947C48.0664 84.6045 47.8476 84.7508 47.6652 84.8606C47.2641 85.1168 46.9723 85.3363 46.6806 85.5193C46.4253 85.7023 46.243 85.8487 46.0606 85.9584C45.9147 86.0682 45.8418 86.1048 45.8418 86.1048C45.8418 86.1048 45.9147 86.0316 46.0241 85.9218C46.17 85.8121 46.3524 85.6291 46.6076 85.4095C46.8629 85.19 47.1911 84.9704 47.5558 84.7143C47.7382 84.5679 47.957 84.4581 48.1758 84.3117C48.2852 84.2385 48.3946 84.2019 48.5405 84.1288C48.6864 84.0922 48.7958 84.019 49.0146 84.0556H48.9781C49.1605 84.0556 49.2699 84.2751 49.2334 84.3849C49.2334 84.5313 49.1969 84.6411 49.124 84.7509C49.0146 84.9704 48.8687 85.19 48.7228 85.3729C48.4311 85.7755 48.0664 86.178 47.7017 86.5439C47.4829 86.7635 47.3006 86.9831 47.0817 87.166V87.0197C47.3006 87.166 47.4829 87.349 47.5558 87.6051C47.5923 87.7149 47.6288 87.8613 47.5923 88.0077C47.5558 88.1541 47.4829 88.2272 47.41 88.3004C47.1547 88.6664 46.9359 88.9957 46.7171 89.3251L46.6806 89.2153C46.8994 89.3982 47.0817 89.5812 47.1547 89.8374C47.2276 90.0935 47.1547 90.3497 47.0453 90.5326V90.496C47.1911 91.045 47.1911 91.5207 47.1182 91.85C47.0817 91.9964 47.0453 92.1062 47.0088 92.2159C47.1182 92.3623 47.0817 92.3989 47.0817 92.3989Z" fill="#FF9A6C"/>
<path d="M49.8896 80.0303C49.8896 80.0303 49.7802 80.1034 49.5614 80.2498C49.3426 80.3962 49.0508 80.5792 48.6862 80.7987C48.285 81.0183 47.8474 81.311 47.3368 81.5672C47.0815 81.7136 46.8262 81.8599 46.5345 82.0063C46.2427 82.1527 45.951 82.2991 45.7322 82.5186C45.5134 82.7382 45.404 83.0309 45.331 83.3603C45.2581 83.653 45.1852 83.9458 45.1122 84.2385C44.9663 84.7874 44.8205 85.2997 44.7111 85.7389C44.6017 86.178 44.4923 86.5073 44.4193 86.7269C44.3464 86.9465 44.3099 87.0928 44.2734 87.0928C44.2734 87.0928 44.2734 86.9465 44.3464 86.7269C44.3828 86.4707 44.4558 86.1414 44.5652 85.7023C44.6746 85.2631 44.784 84.7508 44.9299 84.2019C45.0028 83.9092 45.0758 83.6164 45.1487 83.3237C45.2216 83.0309 45.331 82.665 45.5863 82.4088C45.8416 82.1527 46.1333 82.0063 46.4251 81.8599C46.7168 81.7136 46.9721 81.5672 47.2274 81.4208C47.738 81.1281 48.1756 80.9085 48.5767 80.6889C48.9779 80.4694 49.2697 80.323 49.4885 80.2132C49.7802 80.0669 49.8896 80.0303 49.8896 80.0303Z" fill="#375A64"/>
<path d="M47.7117 83.2428C47.6374 83.2116 47.5014 83.3676 47.4079 83.5912C47.3145 83.8149 47.299 84.0215 47.3733 84.0528C47.4476 84.084 47.5836 83.928 47.677 83.7044C47.7704 83.4807 47.786 83.2741 47.7117 83.2428Z" fill="white"/>
<path d="M28.4453 77.2857C31.0711 78.2372 33.2227 80.2132 34.4262 82.7748L42.5952 100.193L49.6337 103.048L43.434 104.841L37.9272 100.779L28.4453 77.2857Z" fill="#25C883"/>
<path d="M43.4336 104.841L40.4796 107.146L25.7098 91.8866L17.249 76.5905L18.2337 73.7362L24.7616 76.4807L27.0956 79.9571L27.6061 75.5658L28.0073 76.1513L28.7002 78.0176C28.7002 78.0176 35.1187 83.3603 36.5045 87.6051C37.6715 91.1547 37.3068 98.4735 37.9997 100.45L43.4336 104.841Z" fill="#FAFAFA"/>
<path d="M15.6811 76.3709C15.5717 76.6636 9.37197 79.1886 9.08022 81.3476C8.78847 83.5433 13.5659 100.413 13.5659 100.413L21.1149 107.11H40.4798L34.3166 95.546C33.0037 93.0576 31.3262 90.7522 29.3204 88.7395C27.4969 86.8733 25.3088 84.6045 24.1783 83.2139C22.9383 81.7502 17.7233 74.7974 17.7233 74.7974L15.6811 76.3709Z" fill="#25C883"/>
<path d="M19.5469 77.0662C19.5469 77.0296 19.9845 77.2491 20.6409 77.5785C21.2974 77.9078 22.2091 78.3836 23.2302 78.8959C23.6314 79.1154 24.0325 79.2984 24.3608 79.4814L24.2149 79.5545C24.1784 78.7129 24.2513 78.0176 24.3243 77.5053C24.4337 76.993 24.5066 76.7368 24.5431 76.7368C24.5796 76.7368 24.5066 77.0296 24.4337 77.5419C24.3608 78.0176 24.3243 78.7495 24.3972 79.5545V79.7009L24.2513 79.6277C23.8867 79.4448 23.522 79.2618 23.1208 79.0422C22.0997 78.5299 21.2244 78.0542 20.568 77.6883C19.948 77.3223 19.5469 77.0662 19.5469 77.0662Z" fill="#1A2E35"/>
<path d="M34.4989 92.4721C34.4989 92.4721 34.3895 92.2891 34.1707 91.9598C33.9519 91.5939 33.6966 91.1547 33.3684 90.5692C32.712 89.3982 31.7638 87.7881 30.7426 86.0316C29.685 84.2751 28.7369 82.7016 28.0075 81.5672C27.6793 81.0183 27.3875 80.5792 27.1687 80.2132C26.9864 79.8839 26.877 79.7009 26.877 79.7009C26.877 79.7009 27.0228 79.8473 27.2416 80.1766C27.4605 80.4694 27.7522 80.9451 28.1169 81.494C28.8463 82.6284 29.8309 84.2019 30.8885 85.9584C31.9461 87.7149 32.8578 89.325 33.4778 90.5326C33.806 91.1181 34.0613 91.5939 34.2072 91.9232C34.426 92.2525 34.5354 92.4355 34.4989 92.4721Z" fill="#1A2E35"/>
<g opacity="0.3">
<path d="M31.5447 104.219C32.6752 104.402 33.8422 104.585 34.9363 104.402C36.0668 104.182 37.1609 103.487 37.5256 102.389C37.635 102.06 37.6715 101.657 37.9632 101.401C38.4008 100.998 39.0937 101.255 39.6772 101.181C40.3337 101.108 40.8807 100.632 41.2454 100.084C41.5736 99.5347 41.756 98.876 41.9018 98.2173C41.9748 97.888 42.0477 97.5586 42.0112 97.2659C41.9748 96.9365 41.7924 96.6072 41.5007 96.4608C41.0631 96.2778 40.5525 96.534 40.1513 96.8267C36.9421 99.1321 34.0246 101.803 31.1436 104.475" fill="black"/>
</g>
<path d="M38.7658 91.3377C38.7658 91.3377 39.8599 88.7761 40.4799 88.4102C41.0634 88.0443 44.0173 86.3244 44.0173 86.3244L43.6526 87.7149L46.5337 85.7023C46.8984 85.4461 48.9406 83.5798 49.3053 84.3117C49.5606 84.824 47.883 86.2146 47.6642 86.5439C47.1172 87.3124 47.2995 87.2392 47.2995 87.2392C47.2995 87.2392 47.9195 87.6051 47.5913 88.154C47.2995 88.7029 46.7525 89.3616 46.7525 89.3616C46.7525 89.3616 47.5548 89.6544 47.0807 90.679C47.0807 90.679 47.2995 91.2279 47.1536 92.033C47.0078 92.8014 45.622 94.3018 45.622 94.3018L38.62 97.6684L35.7754 92.838L38.7658 91.3377Z" fill="#FFBF9D"/>
<path d="M22.4283 86.5073L26.9139 96.1315L36.9063 91.7768C36.9063 91.7768 41.0638 94.192 40.4803 96.8633L31.4725 104.292C29.7585 105.682 27.5703 106.341 25.3822 106.085C23.0482 105.792 20.933 104.475 19.6202 102.499L13.1287 92.5453L9.48184 86.5805C8.31484 84.6777 8.31484 82.2259 9.62772 80.3962C9.99241 79.9205 10.43 79.4814 10.9041 79.1886C12.5817 78.2006 17.3956 77.7615 22.4283 86.5073Z" fill="#25C883"/>
<path d="M43.1001 88.0586C43.9399 87.5384 44.6035 87.0888 44.5823 87.0544C44.5611 87.02 43.8632 87.4138 43.0235 87.934C42.1837 88.4542 41.5201 88.9038 41.5412 88.9382C41.5624 88.9726 42.2603 88.5788 43.1001 88.0586Z" fill="#FF9A6C"/>
<path d="M46.0365 88.4046C46.7973 87.6532 47.3911 87.0207 47.3629 86.9919C47.3346 86.9631 46.695 87.5489 45.9342 88.3003C45.1734 89.0517 44.5795 89.6842 44.6078 89.713C44.6361 89.7418 45.2757 89.156 46.0365 88.4046Z" fill="#FF9A6C"/>
<path d="M46.3827 90.0285C46.7615 89.5824 47.0436 89.1994 47.013 89.1732C46.9823 89.147 46.6504 89.4874 46.2717 89.9336C45.893 90.3798 45.6108 90.7628 45.6415 90.789C45.6721 90.8152 46.004 90.4747 46.3827 90.0285Z" fill="#FF9A6C"/>
<path d="M47.1172 90.6424C47.1537 90.679 47.0078 90.8986 46.789 91.1913C46.6067 91.4841 46.4243 91.7036 46.3878 91.667C46.3514 91.6304 46.4608 91.3743 46.6431 91.0815C46.8619 90.7888 47.0808 90.6058 47.1172 90.6424Z" fill="#FF9A6C"/>
<path d="M29.9407 105.243C29.9407 105.243 29.9407 105.243 29.9772 105.207C30.0137 105.17 30.0501 105.133 30.1231 105.097C30.269 104.987 30.4513 104.841 30.7066 104.621C31.2171 104.219 31.9465 103.633 32.8582 102.901C34.7181 101.438 37.3804 99.3517 40.5531 96.8633L40.5167 96.9365C40.5167 96.4608 40.4437 95.9485 40.2249 95.4728C40.0061 94.9971 39.7508 94.5579 39.3861 94.1188C38.6932 93.2772 37.818 92.5453 36.8333 91.9232H36.9063C35.2652 92.6551 33.5147 93.3869 31.7277 94.192C30.0866 94.9239 28.482 95.6192 26.9138 96.2778L26.8409 96.3144L26.8044 96.2412C25.4916 93.6431 24.2516 91.1547 23.0117 89.0323C22.3917 87.9711 21.7717 86.9831 21.2247 86.0316C20.6412 85.1168 20.1306 84.2385 19.5836 83.5067C18.526 82.0063 17.359 81.0915 16.4838 80.6158C16.265 80.4694 16.0826 80.3962 15.9003 80.323C15.7179 80.2498 15.572 80.1766 15.4626 80.1034C15.3532 80.0669 15.2438 80.0303 15.2074 79.9937C15.1344 79.9571 15.098 79.9571 15.1344 79.9571C15.1344 79.9571 15.6815 80.1035 16.5567 80.5792C16.9943 80.7987 17.5414 81.1647 18.0884 81.6404C18.6354 82.1161 19.1825 82.7382 19.7295 83.4701C20.2765 84.2019 20.8236 85.0802 21.4071 85.995C21.9906 86.9099 22.6105 87.8979 23.2305 88.9957C24.4704 91.1181 25.7104 93.6065 27.0597 96.2046L26.9503 96.1681C28.5185 95.4728 30.1231 94.7775 31.7642 94.0822C33.5511 93.3138 35.2652 92.5453 36.9427 91.85L36.9792 91.8134L37.0157 91.85C38.0368 92.4721 38.9121 93.2406 39.605 94.0822C39.9332 94.5213 40.2249 94.9971 40.4437 95.4728C40.6626 95.9851 40.7355 96.4974 40.7355 97.0097V97.0463L40.699 97.0829C37.5262 99.5347 34.864 101.621 32.9676 103.084C32.0195 103.816 31.2901 104.365 30.7795 104.768C30.5242 104.951 30.3419 105.097 30.196 105.207C30.1231 105.243 30.0866 105.28 30.0501 105.316C29.9772 105.243 29.9407 105.243 29.9407 105.243Z" fill="#1A2E35"/>
<path d="M26.3307 99.2053C26.2942 99.1687 26.5495 98.5101 26.6954 97.5952C26.8412 96.717 26.8412 95.9485 26.9142 95.9485C26.9506 95.9485 27.06 96.717 26.9142 97.6318C26.7318 98.5466 26.3671 99.2053 26.3307 99.2053Z" fill="#1A2E35"/>
<path d="M81.2163 127.492L86.4313 134.042C86.4313 134.042 94.8556 130.932 95.9132 132.03L83.5868 142.642L75.0166 132.725L81.2163 127.492Z" fill="#25C883"/>
<g opacity="0.6">
<path d="M82.1648 136.824C81.9824 137.08 82.0554 137.519 82.3106 137.702C82.5659 137.885 83.0036 137.848 83.1859 137.555C83.3682 137.299 83.2953 136.787 83.04 136.641C82.7483 136.494 82.2742 136.567 82.1648 136.897" fill="white"/>
</g>
<g opacity="0.6">
<path d="M83.623 142.679L82.7842 141.654L94.9283 131.847C94.9283 131.847 95.6941 131.627 95.9494 132.066L83.623 142.679Z" fill="white"/>
</g>
<path d="M86.6136 133.823C86.6501 133.896 86.3948 134.189 86.249 134.628C86.1031 135.067 86.176 135.47 86.1031 135.506C86.0301 135.543 85.8113 135.104 85.9937 134.555C86.1396 134.006 86.5772 133.786 86.6136 133.823Z" fill="#1A2E35"/>
<path d="M88.364 133.274C88.437 133.311 88.2546 133.64 88.2546 134.079C88.2546 134.518 88.437 134.848 88.364 134.884C88.3276 134.957 87.9629 134.628 87.9629 134.079C87.9629 133.53 88.2911 133.201 88.364 133.274Z" fill="#1A2E35"/>
<path d="M90.4064 134.189C90.3699 134.262 90.0052 134.006 89.8958 133.567C89.7499 133.091 89.9323 132.725 90.0052 132.762C90.0782 132.798 90.0417 133.128 90.1511 133.494C90.2605 133.859 90.4793 134.116 90.4064 134.189Z" fill="#1A2E35"/>
<path d="M85.2282 132.469C85.2647 132.542 84.9 132.689 84.5718 133.018C84.2436 133.311 84.0612 133.677 83.9883 133.64C83.9154 133.64 83.9883 133.164 84.353 132.798C84.7906 132.469 85.2282 132.396 85.2282 132.469Z" fill="#1A2E35"/>
<g opacity="0.3">
<path d="M82.2739 128.81L83.1856 129.981L77.0953 135.14L76.1836 134.116L82.2739 128.81Z" fill="black"/>
</g>
<path d="M84.17 131.188C84.2065 131.225 83.9877 131.444 83.55 131.7C83.3312 131.847 83.0395 131.957 82.7477 132.066C82.6018 132.103 82.4195 132.14 82.2372 132.176C82.1642 132.176 82.0548 132.213 81.9089 132.176C81.7995 132.176 81.6172 132.03 81.6172 131.883C81.6172 131.737 81.6901 131.591 81.7631 131.518C81.836 131.444 81.9454 131.408 82.0183 131.335C82.2007 131.261 82.3466 131.188 82.5289 131.152C82.8571 131.042 83.1489 131.042 83.4042 131.042C83.9147 131.078 84.2065 131.188 84.2065 131.225C84.2065 131.261 83.8782 131.188 83.4042 131.225C83.1489 131.225 82.8936 131.298 82.6018 131.371C82.456 131.408 82.3101 131.481 82.1642 131.554C82.0183 131.627 81.9089 131.737 81.9089 131.81C81.9089 131.847 81.9089 131.847 81.9819 131.883C82.0548 131.883 82.1277 131.883 82.2007 131.883C82.383 131.847 82.5289 131.81 82.6748 131.774C82.9665 131.7 83.2583 131.591 83.4771 131.481C83.8782 131.335 84.1335 131.152 84.17 131.188Z" fill="#1A2E35"/>
<path d="M84.1705 131.335C84.1705 131.371 83.8423 131.261 83.4776 130.859C83.2952 130.676 83.1129 130.42 82.967 130.09C82.8941 129.944 82.8576 129.761 82.7847 129.578C82.7482 129.395 82.7117 129.139 82.8941 128.919C83.0035 128.81 83.1858 128.81 83.2952 128.883C83.4046 128.919 83.4776 128.993 83.5505 129.066C83.6964 129.176 83.8058 129.322 83.9152 129.468C84.0975 129.761 84.1705 130.09 84.2069 130.347C84.2434 130.859 84.0611 131.152 84.0246 131.152C83.9881 131.152 84.0975 130.859 84.0246 130.383C83.9881 130.164 83.8787 129.871 83.7328 129.615C83.6599 129.505 83.5505 129.358 83.4046 129.249C83.2588 129.139 83.1493 129.066 83.1129 129.139C83.0399 129.176 83.0399 129.395 83.0764 129.541C83.1129 129.724 83.1493 129.871 83.2223 130.017C83.3317 130.31 83.4776 130.566 83.6234 130.749C83.9152 131.115 84.1705 131.298 84.1705 131.335Z" fill="#1A2E35"/>
<path d="M75.5639 147.765L75.2357 156.365C75.2357 156.365 83.8423 159.585 83.9152 161.158L67.2855 161.122L67.249 147.728L75.5639 147.765Z" fill="#25C883"/>
<g opacity="0.6">
<path d="M70.0936 155.633C69.7654 155.706 69.5466 156.072 69.6195 156.401C69.6925 156.731 70.0572 156.95 70.3854 156.877C70.7136 156.804 71.0053 156.365 70.8959 156.035C70.7865 155.706 70.3489 155.486 70.0572 155.633" fill="white"/>
</g>
<g opacity="0.6">
<path d="M67.2852 161.122L67.3216 159.768L83.2585 160.317C83.2585 160.317 83.9878 160.646 83.9149 161.158L67.2852 161.122Z" fill="white"/>
</g>
<path d="M75.4912 156.255C75.4912 156.328 75.09 156.365 74.6889 156.621C74.2877 156.877 74.0689 157.206 73.996 157.206C73.923 157.206 74.0324 156.694 74.543 156.401C75.0171 156.108 75.4912 156.182 75.4912 156.255Z" fill="#1A2E35"/>
<path d="M77.2412 156.987C77.2776 157.06 76.913 157.206 76.6212 157.536C76.3295 157.865 76.2565 158.231 76.1836 158.231C76.1106 158.231 76.0377 157.755 76.4024 157.353C76.7671 156.95 77.2412 156.913 77.2412 156.987Z" fill="#1A2E35"/>
<path d="M78.2266 159.073C78.1537 159.073 78.0442 158.67 78.2631 158.231C78.4819 157.792 78.8466 157.609 78.883 157.682C78.9195 157.755 78.6642 157.975 78.5183 158.341C78.336 158.743 78.2995 159.073 78.2266 159.073Z" fill="#1A2E35"/>
<path d="M75.3451 154.315C75.3086 154.389 74.9439 154.279 74.4698 154.315C73.9957 154.352 73.6675 154.498 73.5946 154.425C73.5581 154.352 73.8863 154.059 74.4333 154.023C75.0168 153.986 75.3815 154.242 75.3451 154.315Z" fill="#1A2E35"/>
<g opacity="0.3">
<path d="M75.491 149.448L75.418 150.985L67.249 150.912V149.522L75.491 149.448Z" fill="black"/>
</g>
<path d="M75.3814 152.559C75.3814 152.595 75.0531 152.632 74.5426 152.559C74.2873 152.522 73.9956 152.412 73.6673 152.303C73.5215 152.229 73.3391 152.156 73.1932 152.047C73.1203 152.01 73.0109 151.937 72.938 151.864C72.865 151.79 72.7921 151.571 72.9015 151.424C72.9744 151.315 73.1203 151.241 73.2662 151.241C73.3756 151.241 73.485 151.278 73.5944 151.278C73.7767 151.315 73.9591 151.388 74.105 151.461C74.4332 151.607 74.6885 151.79 74.8708 151.973C75.272 152.339 75.3814 152.632 75.3449 152.669C75.3084 152.705 75.1261 152.449 74.7249 152.156C74.5426 152.01 74.2873 151.864 73.9956 151.717C73.8497 151.644 73.7038 151.607 73.5215 151.571C73.3391 151.534 73.1932 151.534 73.1568 151.607C73.1568 151.644 73.1203 151.644 73.1568 151.717C73.1932 151.754 73.2662 151.827 73.3391 151.864C73.485 151.973 73.6309 152.047 73.7767 152.12C74.0685 152.266 74.3602 152.376 74.5791 152.449C75.0532 152.486 75.3814 152.522 75.3814 152.559Z" fill="#1A2E35"/>
<path d="M75.2725 152.669C75.2361 152.669 75.0902 152.376 75.0537 151.864C75.0537 151.607 75.0537 151.278 75.1631 150.949C75.1996 150.766 75.2725 150.619 75.3819 150.436C75.4913 150.253 75.6007 150.034 75.929 149.997C76.1113 149.997 76.2207 150.107 76.2936 150.217C76.3666 150.327 76.3666 150.436 76.3666 150.51C76.4031 150.693 76.4031 150.912 76.3666 151.058C76.3301 151.424 76.1842 151.717 76.0019 151.937C75.6737 152.376 75.3455 152.449 75.3455 152.449C75.309 152.412 75.6007 152.266 75.856 151.827C75.9654 151.607 76.0748 151.351 76.1113 151.058C76.1113 150.912 76.1113 150.729 76.1113 150.583C76.0748 150.4 76.0019 150.253 75.9654 150.29C75.8925 150.29 75.7466 150.436 75.6737 150.546C75.6007 150.693 75.5278 150.839 75.4549 150.985C75.3455 151.278 75.309 151.571 75.309 151.827C75.2361 152.376 75.309 152.669 75.2725 152.669Z" fill="#1A2E35"/>
<path d="M67.1035 107.11L83.5874 129.066L75.856 135.689L67.9423 125.297L67.1035 107.11Z" fill="#1A2E35"/>
<path d="M32.2754 108.171C32.2754 108.171 58.7517 100.084 61.1586 100.193C63.5656 100.303 68.1971 109.086 68.1971 109.086L60.7575 108.829C58.8611 113.513 55.3236 118.344 51.3486 123.211L36.1411 122.515L32.2754 108.171Z" fill="#1A2E35"/>
<path d="M47.8442 103.705C51.223 102.698 53.9481 101.834 53.9309 101.776C53.9137 101.717 51.1607 102.487 47.7819 103.495C44.4031 104.502 41.678 105.366 41.6952 105.424C41.7124 105.483 44.4654 104.713 47.8442 103.705Z" fill="#1A2E35"/>
<path d="M60.0641 108.646H67.5038C71.2236 108.646 74.5058 110.988 75.7457 114.501C76.3292 116.148 76.5845 117.905 76.5116 119.661L75.9281 149.997H65.9356L65.7533 140.3L64.4769 121.857L55.7973 122.223L50.874 121.93L60.0641 108.646Z" fill="#1A2E35"/>
<path d="M60.2836 108.5C60.2836 108.5 60.2471 108.72 60.1377 109.159C60.0283 109.561 59.846 110.147 59.6272 110.879C59.3719 111.574 59.0072 112.416 58.5331 113.294C58.059 114.172 57.439 115.087 56.7097 116.002C55.2509 117.795 53.7557 119.222 52.6616 120.283C52.1511 120.796 51.7134 121.198 51.3852 121.527C51.0935 121.82 50.9111 121.967 50.9111 121.967C50.9111 121.967 51.057 121.784 51.3488 121.491C51.6405 121.198 52.0781 120.759 52.5887 120.21C53.6463 119.149 55.1415 117.685 56.5638 115.892C57.9861 114.099 58.9707 112.233 59.5178 110.842C59.773 110.147 59.9919 109.561 60.1013 109.159C60.2107 108.72 60.2836 108.5 60.2836 108.5Z" fill="#375A64"/>
<path d="M69.364 108.866C69.364 108.903 68.8534 108.829 68.0146 108.793C67.1758 108.756 66.0453 108.72 64.7689 108.72C63.4925 108.756 62.362 108.829 61.5232 108.866C60.6844 108.939 60.1738 108.976 60.1738 108.939C60.1738 108.939 60.2832 108.903 60.5385 108.866C60.7573 108.829 61.122 108.793 61.5232 108.756C62.362 108.683 63.4925 108.573 64.7689 108.537C66.0453 108.5 67.2123 108.573 68.0511 108.646C68.4522 108.683 68.8169 108.72 69.0357 108.756C69.2545 108.829 69.364 108.866 69.364 108.866Z" fill="#375A64"/>
<path d="M65.8627 144.472C65.8627 144.472 65.8627 144.398 65.8263 144.215C65.8263 144.033 65.7898 143.776 65.7898 143.484C65.7533 142.825 65.7169 141.91 65.6804 140.812C65.571 138.543 65.4616 135.433 65.2428 131.993C65.024 128.553 64.7687 125.443 64.5863 123.211C64.5134 122.113 64.4405 121.198 64.3675 120.539C64.3311 120.247 64.3311 119.991 64.3311 119.808C64.3311 119.625 64.3311 119.551 64.3311 119.551C64.3311 119.551 64.3675 119.625 64.3675 119.808C64.404 119.991 64.404 120.247 64.4405 120.539C64.5134 121.198 64.5863 122.076 64.7322 123.211C64.951 125.443 65.2428 128.553 65.4251 131.993C65.6439 135.433 65.7533 138.543 65.8263 140.812C65.8627 141.91 65.8627 142.825 65.8992 143.484C65.8992 143.776 65.8992 144.033 65.8992 144.215C65.8627 144.362 65.8627 144.472 65.8627 144.472Z" fill="#1A2E35"/>
<path d="M76.5125 118.49C76.5489 118.49 76.5125 125.443 76.4395 134.006C76.3301 142.569 76.2207 149.522 76.1842 149.522C76.1478 149.522 76.1842 142.569 76.2572 134.006C76.3301 125.443 76.476 118.49 76.5125 118.49Z" fill="#375A64"/>
<path d="M68.3426 117.356C68.3426 117.429 67.3215 117.685 66.191 118.38C65.0604 119.076 64.3675 119.881 64.3311 119.844C64.3311 119.844 64.4769 119.588 64.7687 119.295C65.0604 118.966 65.5345 118.6 66.0816 118.234C66.6651 117.868 67.2121 117.649 67.6132 117.539C68.0873 117.392 68.3426 117.356 68.3426 117.356Z" fill="#1A2E35"/>
<g opacity="0.3">
<path d="M50.9111 121.93C52.9169 122.296 55.1415 121.674 56.892 120.613C58.606 119.515 59.8824 117.795 60.393 115.855C60.6118 114.977 60.6848 114.062 60.9036 113.184C61.1224 112.306 61.5235 111.428 62.2529 110.879C63.0917 110.257 65.1704 109.854 65.7904 109.012C65.7904 108.903 63.3105 109.159 62.5082 109.232C61.5965 109.269 60.1013 109.525 60.1377 109.415C60.1377 109.415 59.5178 111.537 59.2625 112.013C57.4026 115.087 53.4639 119.661 50.9111 121.93Z" fill="black"/>
</g>
<path d="M9.62793 143.41L12.436 161.89H15.2441L13.8583 143.484L9.62793 143.41Z" fill="#1A2E35"/>
<path d="M59.1523 143.484V161.89H62.1063L63.2004 143.41L59.1523 143.484Z" fill="#1A2E35"/>
<path d="M9.15408 86.361C9.15408 86.361 5.21545 86.5073 4.01198 88.1907C1.89679 91.1181 3.06379 93.6431 2.95439 94.5213C2.84498 95.3996 9.66464 143.447 9.66464 143.447H12.4727L63.2372 143.923L65.6442 137.958L64.4772 121.893L50.9108 121.967C50.9108 121.967 45.3675 105.975 40.4807 104.877C37.1985 104.145 29.4672 104.402 24.7992 104.658C22.4652 104.768 20.277 103.633 19.0006 101.694L9.15408 86.361Z" fill="#375A64"/>
<path d="M54.1204 141.544C54.1204 141.544 53.8286 141.581 53.318 141.617C52.771 141.617 51.9687 141.654 50.9476 141.654C48.9053 141.691 45.9149 141.691 42.1951 141.691C34.7554 141.691 24.3619 141.617 12.6554 141.508H12.5824V141.434C12.3636 140.41 12.1448 139.385 11.926 138.324C11.7072 137.263 11.4884 136.202 11.2696 135.104C8.71676 122.076 7.22154 110.11 6.41923 101.474C6.01807 97.1561 5.76279 93.6431 5.61691 91.1913C5.54398 89.9837 5.50751 89.0323 5.47104 88.4102C5.47104 88.0809 5.43457 87.8613 5.43457 87.6783C5.43457 87.532 5.43457 87.4222 5.43457 87.4222C5.43457 87.4222 5.43457 87.4954 5.47104 87.6783C5.47104 87.8613 5.50751 88.0809 5.50751 88.4102C5.54398 89.0689 5.61691 89.9837 5.68985 91.1913C5.8722 93.6065 6.12748 97.1195 6.5651 101.438C7.40388 110.11 8.8991 122.04 11.4519 135.067C11.6707 136.128 11.8895 137.226 12.1084 138.287C12.3272 139.349 12.546 140.373 12.7648 141.398L12.6919 141.325C24.4348 141.398 34.7919 141.508 42.2315 141.544C45.9514 141.544 48.9418 141.544 50.984 141.581C52.0052 141.581 52.8075 141.581 53.3545 141.581C53.6098 141.581 53.8286 141.544 53.9745 141.544C54.0474 141.544 54.1204 141.544 54.1204 141.544Z" fill="#1A2E35"/>
<path d="M53.5726 143.813C53.5726 143.813 53.5726 143.74 53.6091 143.593C53.6456 143.41 53.6821 143.227 53.7185 142.935C53.755 142.642 53.8279 142.313 53.8644 141.91C53.9009 141.508 53.9738 141.068 54.0103 140.556C54.0467 140.044 54.1197 139.495 54.1197 138.909C54.1561 138.324 54.1561 137.665 54.1561 137.007C54.1561 135.653 54.0832 134.189 53.9009 132.652C53.7185 131.115 53.4632 129.651 53.135 128.334C52.8433 127.016 52.5151 125.845 52.1868 124.894C52.041 124.418 51.8951 123.979 51.7492 123.577C51.6033 123.211 51.4939 122.881 51.3845 122.589C51.2751 122.333 51.2022 122.15 51.1657 121.967C51.1292 121.82 51.0928 121.747 51.0928 121.747C51.0928 121.747 51.1292 121.82 51.2022 121.967C51.2751 122.113 51.3481 122.333 51.4575 122.552C51.5669 122.808 51.7127 123.138 51.8586 123.504C52.0045 123.869 52.1868 124.309 52.3327 124.784C52.6609 125.736 53.0256 126.907 53.3174 128.224C53.6091 129.541 53.9009 131.005 54.0832 132.542C54.2656 134.079 54.3385 135.579 54.3385 136.933C54.3385 137.592 54.302 138.251 54.2656 138.836C54.2291 139.422 54.1926 140.007 54.1197 140.483C54.0832 140.995 54.0103 141.434 53.9373 141.837C53.9009 142.239 53.8279 142.569 53.755 142.862C53.7185 143.118 53.6456 143.337 53.6091 143.52C53.6091 143.74 53.6091 143.813 53.5726 143.813Z" fill="#1A2E35"/>
<path d="M16.4111 109.378C16.4111 109.378 16.4841 109.305 16.6299 109.195C16.7758 109.086 16.9946 108.903 17.2499 108.72C17.3958 108.61 17.5417 108.5 17.6875 108.39C17.8699 108.281 18.0522 108.171 18.271 108.061C18.6722 107.805 19.1463 107.512 19.6933 107.256C19.9486 107.11 20.2404 107 20.5321 106.853C20.8239 106.707 21.1521 106.597 21.4803 106.451C21.8085 106.341 22.1367 106.158 22.5014 106.048C22.8661 105.939 23.2308 105.829 23.5955 105.682C25.1272 105.243 26.8047 104.841 28.6282 104.621C30.4516 104.402 32.1656 104.292 33.7703 104.292C34.5726 104.292 35.302 104.328 36.0313 104.365C36.7242 104.438 37.3807 104.475 37.9642 104.548C39.1676 104.694 40.1158 104.914 40.7358 105.06C41.0275 105.134 41.2828 105.207 41.4652 105.28C41.6475 105.316 41.7204 105.353 41.7204 105.353C41.7204 105.353 41.611 105.353 41.4652 105.316C41.2828 105.28 41.0275 105.207 40.6993 105.133C40.0429 104.987 39.0947 104.804 37.9277 104.694C37.3442 104.621 36.6878 104.585 35.9949 104.511C35.3019 104.475 34.5361 104.438 33.7703 104.438C32.2021 104.438 30.4516 104.548 28.6646 104.768C26.8412 104.987 25.1636 105.353 23.6684 105.792C23.3037 105.902 22.939 106.012 22.5744 106.122C22.2097 106.231 21.8814 106.378 21.5532 106.487C21.225 106.634 20.8968 106.707 20.605 106.853C20.3133 107 20.0215 107.11 19.7663 107.256C19.2192 107.475 18.7816 107.768 18.344 108.024C18.1252 108.134 17.9428 108.244 17.7605 108.354C17.5781 108.464 17.4323 108.573 17.3229 108.683C17.0676 108.866 16.8488 109.012 16.7029 109.122C16.4841 109.305 16.4111 109.378 16.4111 109.378Z" fill="#1A2E35"/>
<path d="M46.5707 111.977C46.5707 111.977 46.5707 112.013 46.5343 112.086C46.4978 112.159 46.4613 112.269 46.4249 112.416C46.279 112.708 46.0602 113.148 45.659 113.623C45.2579 114.099 44.6744 114.575 43.9085 115.014C43.5074 115.197 43.1062 115.416 42.6321 115.563C42.158 115.709 41.6474 115.819 41.1004 115.892C40.0064 116.002 38.8029 115.929 37.5265 115.672C36.2501 115.453 34.9372 115.087 33.5149 114.721C32.1291 114.392 30.6339 114.099 29.0657 114.136C28.2999 114.136 27.4976 114.245 26.7317 114.501C25.9659 114.721 25.2365 115.124 24.5801 115.599C23.2307 116.587 22.2461 117.905 21.4073 119.222C20.5685 120.539 19.9121 121.93 19.2192 123.211C18.5263 124.492 17.7969 125.663 16.9216 126.651C16.0829 127.639 15.1347 128.407 14.1135 128.883C13.1289 129.358 12.1078 129.541 11.2325 129.578C10.3573 129.578 9.59141 129.432 9.04438 129.176C8.75263 129.066 8.53382 128.919 8.31501 128.773C8.13266 128.627 7.95032 128.517 7.84091 128.407C7.73151 128.297 7.65857 128.224 7.58563 128.151C7.51269 128.078 7.5127 128.041 7.5127 128.041C7.5127 128.041 7.54916 128.078 7.6221 128.114C7.69504 128.187 7.76798 128.261 7.87738 128.37C7.98679 128.48 8.16913 128.59 8.35148 128.736C8.57029 128.846 8.7891 128.993 9.08085 129.102C9.62788 129.322 10.3937 129.505 11.2325 129.468C12.1078 129.432 13.0559 129.249 14.0406 128.773C15.0253 128.297 15.9734 127.529 16.7758 126.577C17.6145 125.589 18.3439 124.418 19.0368 123.174C19.7297 121.893 20.3862 120.539 21.2249 119.185C22.0637 117.868 23.0849 116.514 24.4342 115.526C25.1271 115.014 25.8565 114.648 26.6588 114.392C27.4611 114.136 28.2634 114.026 29.0293 114.026C30.6339 113.989 32.1291 114.282 33.5149 114.648C34.9372 114.977 36.2501 115.38 37.49 115.599C38.73 115.819 39.9334 115.929 41.0275 115.819C41.5745 115.782 42.0851 115.672 42.5592 115.526C43.0333 115.38 43.4344 115.197 43.8356 115.014C44.6014 114.611 45.1849 114.136 45.5861 113.66C46.3884 112.635 46.5343 111.94 46.5707 111.977Z" fill="white"/>
<path d="M65.0975 135.36C65.0975 135.36 65.061 135.36 64.9516 135.396C64.8422 135.433 64.6963 135.433 64.4775 135.506C64.2587 135.543 64.0399 135.653 63.7481 135.726C63.6022 135.762 63.4564 135.872 63.3105 135.909C63.1646 135.982 62.9823 136.055 62.7999 136.165C62.107 136.567 61.3047 137.153 60.4659 137.921C59.6272 138.69 58.7154 139.641 57.6214 140.556C57.0743 140.995 56.4544 141.471 55.7615 141.837C55.4332 142.02 55.0321 142.166 54.6674 142.313C54.4851 142.349 54.2662 142.422 54.0474 142.459C53.8286 142.532 53.6463 142.532 53.4275 142.569C52.5887 142.679 51.677 142.642 50.8017 142.422C49.9265 142.239 49.0512 141.874 48.176 141.434C46.4619 140.556 44.8573 139.312 43.3256 137.921C41.7939 136.531 40.2258 135.067 38.4023 133.86C37.4906 133.274 36.5424 132.762 35.5213 132.432C34.5002 132.103 33.4791 131.957 32.4579 131.993C31.4368 132.066 30.4521 132.323 29.5404 132.689C28.6287 133.054 27.7899 133.53 26.9876 134.042C25.383 135.03 23.9242 136.128 22.429 136.933C20.9338 137.738 19.4386 138.287 18.0528 138.617C15.2447 139.312 12.8742 139.239 11.2696 139.019C9.66495 138.8 8.82617 138.507 8.82617 138.507C8.82617 138.507 8.89911 138.507 8.97205 138.543C9.08145 138.58 9.22733 138.617 9.44614 138.653C9.8473 138.726 10.4673 138.836 11.2696 138.946C12.8742 139.129 15.2082 139.202 18.0163 138.47C19.4021 138.141 20.8973 137.555 22.3561 136.75C23.8148 135.945 25.3101 134.848 26.9147 133.86C27.717 133.347 28.5922 132.871 29.504 132.506C30.4157 132.14 31.4368 131.847 32.4944 131.774C33.552 131.7 34.6096 131.883 35.6307 132.213C36.6518 132.542 37.6365 133.054 38.5482 133.677C40.4081 134.884 41.9763 136.384 43.4715 137.775C45.0032 139.166 46.5713 140.41 48.2489 141.251C49.0877 141.691 49.9629 142.02 50.8382 142.203C51.7134 142.386 52.5887 142.459 53.4275 142.349C53.6463 142.313 53.8286 142.313 54.0474 142.239C54.2298 142.203 54.4486 142.13 54.6309 142.093C54.9956 141.947 55.3968 141.837 55.725 141.617C56.4179 141.251 57.0379 140.812 57.5849 140.373C58.679 139.458 59.5907 138.543 60.4659 137.775C61.3047 137.007 62.107 136.421 62.8364 136.019C63.0187 135.909 63.2011 135.836 63.347 135.762C63.5293 135.689 63.6752 135.616 63.8211 135.579C64.1128 135.506 64.3681 135.396 64.5869 135.36C64.8057 135.323 64.9516 135.287 65.061 135.287C65.061 135.36 65.0975 135.36 65.0975 135.36Z" fill="white"/>
<path d="M14.3689 95.3996C14.3689 95.3996 14.3689 95.5826 14.2595 95.8753C14.1866 96.1681 14.0407 96.5706 13.7854 97.0829C13.2748 98.0343 12.2902 99.2785 10.795 100.084C9.29974 100.852 7.73159 100.962 6.63752 100.815C6.09049 100.742 5.65287 100.632 5.39759 100.523C5.10584 100.413 4.95996 100.34 4.95996 100.34C4.95996 100.303 5.57993 100.559 6.67399 100.669C7.73159 100.779 9.26327 100.632 10.722 99.9006C12.1808 99.1321 13.1654 97.9612 13.676 97.0097C14.1866 96.0583 14.3324 95.3996 14.3689 95.3996Z" fill="white"/>
<path d="M128.479 71.138H59.5535C58.1676 71.138 57.0371 70.0036 57.0371 68.613V49.8771C57.0371 48.4865 58.1676 47.3521 59.5535 47.3521H128.516C129.902 47.3521 131.032 48.4865 131.032 49.8771V68.613C130.996 70.0036 129.865 71.138 128.479 71.138Z" fill="white"/>
<path d="M128.479 71.138C128.479 71.138 128.661 71.138 128.953 71.0648C129.281 70.9916 129.756 70.8453 130.193 70.4061C130.412 70.1866 130.631 69.8938 130.777 69.5279C130.923 69.162 130.959 68.7228 130.959 68.2837C130.959 67.3323 130.959 66.2711 130.959 65.0635C130.959 62.6483 130.959 59.6842 130.959 56.2078C130.959 54.4879 130.959 52.6582 130.959 50.6822C130.959 50.2065 130.995 49.6941 130.886 49.2184C130.777 48.7427 130.485 48.3036 130.12 47.9742C129.756 47.6449 129.245 47.4253 128.734 47.3887C128.224 47.3521 127.677 47.3887 127.13 47.3887C109.844 47.3887 85.9566 47.3887 59.5532 47.4253C59.152 47.4253 58.7509 47.5351 58.4226 47.7181C58.058 47.9011 57.7662 48.1938 57.5474 48.4866C57.3286 48.8159 57.1827 49.1818 57.1462 49.5844C57.1098 49.9869 57.1462 50.3894 57.1462 50.792C57.1462 52.4387 57.1462 54.0488 57.1462 55.6589C57.1462 58.8791 57.1462 62.0628 57.1462 65.1733C57.1462 65.9417 57.1462 66.7468 57.1462 67.5152C57.1462 67.9178 57.1462 68.2837 57.1462 68.6862C57.1462 69.0522 57.2557 69.4181 57.438 69.7475C57.8027 70.4061 58.4226 70.8819 59.152 70.9916C59.5167 71.0648 59.8814 71.0282 60.2461 71.0282C60.6108 71.0282 61.0119 71.0282 61.3766 71.0282C64.3671 71.0282 67.2846 71.0282 70.1656 71.0282C81.5803 71.0282 91.901 71.0282 100.544 71.0648C109.187 71.0648 116.189 71.1014 121.04 71.1014C123.446 71.1014 125.343 71.1014 126.619 71.1014C127.239 71.1014 127.75 71.1014 128.078 71.1014C128.297 71.1014 128.479 71.138 128.479 71.138C128.479 71.138 128.297 71.138 127.969 71.138C127.64 71.138 127.166 71.138 126.51 71.138C125.233 71.138 123.374 71.138 120.93 71.138C116.08 71.138 109.078 71.138 100.435 71.1746C91.7916 71.1746 81.5074 71.1746 70.0562 71.2112C67.2116 71.2112 64.2577 71.2112 61.2672 71.2112C60.9025 71.2112 60.5014 71.2112 60.1367 71.2112C59.772 71.2112 59.3708 71.2478 59.0062 71.1746C58.2403 71.0282 57.5474 70.5159 57.1462 69.8206C56.9639 69.4547 56.8545 69.0888 56.8545 68.6862C56.8545 68.2837 56.8545 67.9178 56.8545 67.5152C56.8545 66.7468 56.8545 65.9783 56.8545 65.1733C56.8545 62.0628 56.8545 58.8791 56.8545 55.6589C56.8545 54.0488 56.8545 52.4387 56.8545 50.792C56.8545 50.3894 56.8545 49.9869 56.8545 49.5478C56.891 49.1086 57.0368 48.7061 57.2921 48.3768C57.5474 48.0108 57.8756 47.7181 58.2403 47.5351C58.605 47.3521 59.0426 47.2424 59.4802 47.2424C85.8472 47.2424 109.734 47.279 127.057 47.279C127.604 47.279 128.114 47.279 128.661 47.279C129.209 47.3156 129.719 47.5351 130.12 47.9011C130.521 48.2304 130.813 48.7061 130.923 49.2184C130.995 49.4746 130.995 49.7307 130.995 49.9869C130.995 50.243 130.995 50.4626 130.995 50.7188C130.995 52.6582 130.995 54.5245 130.995 56.2444C130.995 59.6842 130.995 62.6483 130.995 65.1001C130.995 66.3076 130.995 67.4055 130.995 68.3203C130.995 68.796 130.959 69.2351 130.813 69.6011C130.667 69.967 130.448 70.2598 130.23 70.4793C129.756 70.9184 129.281 71.0648 128.953 71.138C128.807 71.1746 128.661 71.1746 128.589 71.1746C128.516 71.138 128.479 71.138 128.479 71.138Z" fill="#1A2E35"/>
<path d="M125.671 52.2191C125.634 52.2191 125.634 52.2191 125.598 52.1825C125.561 52.1459 125.561 52.0727 125.598 52.0361L127.421 50.2796C127.458 50.243 127.531 50.243 127.567 50.2796C127.603 50.3162 127.603 50.3894 127.567 50.426L125.744 52.1825C125.744 52.1825 125.707 52.2191 125.671 52.2191Z" fill="#1A2E35"/>
<path d="M127.494 52.2191C127.458 52.2191 127.458 52.2191 127.421 52.1825L125.598 50.426C125.561 50.3894 125.561 50.3162 125.598 50.2796C125.634 50.243 125.707 50.243 125.744 50.2796L127.567 52.0361C127.603 52.0727 127.603 52.1459 127.567 52.1825C127.531 52.2191 127.531 52.2191 127.494 52.2191Z" fill="#1A2E35"/>
<path d="M72.9376 63.8559L72.2082 62.7947C71.7706 62.1726 71.5153 61.4041 71.5153 60.599V58.2205C71.5153 56.281 70.093 54.6709 68.2331 54.3781V53.2437C68.2331 52.951 68.0143 52.7314 67.7226 52.7314C67.4308 52.7314 67.212 52.951 67.212 53.2437V54.3781C65.2792 54.5977 63.7839 56.2444 63.7839 58.2205V60.6722C63.7839 61.5139 63.4922 62.3555 62.9816 63.0142L62.3252 63.8193L72.9376 63.8559Z" fill="#FFCC47"/>
<path d="M67.1021 65.5758C67.6856 65.8319 68.3786 65.6856 68.8526 65.283C69.035 65.1001 69.2173 64.8805 69.2903 64.6243L66.1904 64.5878C66.3363 65.0269 66.6645 65.3928 67.1021 65.5758Z" fill="#FFCC47"/>
<path d="M114.584 55.3662C114.584 55.4027 106.306 55.4759 96.0583 55.4759C85.8471 55.4759 77.5322 55.4393 77.5322 55.3662C77.5322 55.293 85.8106 55.2564 96.0583 55.2564C106.306 55.2564 114.584 55.293 114.584 55.3662Z" fill="#1A2E35"/>
<path d="M123.3 59.8672C123.3 59.9038 113.052 59.9769 100.434 59.9769C87.7796 59.9769 77.5684 59.9404 77.5684 59.8672C77.5684 59.8306 87.8161 59.7574 100.434 59.7574C113.089 59.7574 123.3 59.794 123.3 59.8672Z" fill="#E1E1E1"/>
<path d="M123.3 62.5385C123.3 62.5751 113.052 62.6483 100.434 62.6483C87.7796 62.6483 77.5684 62.6117 77.5684 62.5385C77.5684 62.5019 87.8161 62.4287 100.434 62.4287C113.089 62.4653 123.3 62.5019 123.3 62.5385Z" fill="#E1E1E1"/>
<path d="M116.626 91.1913H70.8581C69.4723 91.1913 68.3418 90.0569 68.3418 88.6664V77.3955C68.3418 76.005 69.4723 74.8706 70.8581 74.8706H116.626C118.012 74.8706 119.143 76.005 119.143 77.3955V88.6664C119.179 90.0569 118.049 91.1913 116.626 91.1913Z" fill="#FAFAFA"/>
<path d="M116.627 91.1913C116.627 91.1913 116.736 91.1913 116.955 91.1547C117.174 91.1181 117.502 91.0449 117.867 90.8254C118.231 90.6058 118.669 90.2399 118.888 89.6544C118.997 89.3616 119.107 89.0323 119.107 88.6664C119.107 88.3004 119.107 87.8979 119.107 87.4954C119.107 85.8486 119.107 83.836 119.107 81.494C119.107 80.323 119.107 79.0788 119.107 77.7249C119.107 77.3955 119.107 77.0662 119.034 76.7368C118.961 76.4075 118.815 76.1147 118.596 75.822C118.195 75.2731 117.502 74.9072 116.809 74.8706C105.066 74.8706 88.8011 74.8706 70.8584 74.9072C70.3114 74.9072 69.7644 75.0901 69.3632 75.4195C68.9256 75.7488 68.6338 76.2245 68.488 76.7368C68.415 76.993 68.415 77.2491 68.415 77.5419V78.3835C68.415 78.9324 68.415 79.4814 68.415 80.0303C68.415 82.2259 68.415 84.3849 68.415 86.5073C68.415 87.0562 68.415 87.5685 68.415 88.0809C68.415 88.337 68.415 88.5932 68.415 88.8493C68.4515 89.1055 68.488 89.3616 68.5974 89.5812C68.8162 90.0569 69.1444 90.4228 69.5455 90.7156C69.9832 90.9718 70.4573 91.1181 70.9678 91.0815C73.0101 91.0815 74.9794 91.0815 76.9487 91.0815C84.7165 91.0815 91.7185 91.0815 97.59 91.1181C103.461 91.1181 108.239 91.1547 111.521 91.1547C113.162 91.1547 114.439 91.1547 115.314 91.1547C115.751 91.1547 116.08 91.1547 116.298 91.1547C116.517 91.1913 116.627 91.1913 116.627 91.1913C116.627 91.1913 116.517 91.1913 116.298 91.1913C116.08 91.1913 115.751 91.1913 115.314 91.1913C114.439 91.1913 113.162 91.1913 111.521 91.1913C108.239 91.1913 103.461 91.1913 97.59 91.2279C91.7185 91.2279 84.7165 91.2279 76.9487 91.2645C75.0159 91.2645 73.0101 91.2645 70.9678 91.2645C70.4573 91.2645 69.9102 91.1547 69.4726 90.862C69.035 90.5692 68.6703 90.1667 68.4515 89.6544C68.3421 89.3982 68.2691 89.1421 68.2691 88.8859C68.2327 88.5932 68.2691 88.337 68.2691 88.0809C68.2691 87.5685 68.2691 87.0196 68.2691 86.5073C68.2691 84.3849 68.2691 82.2259 68.2691 80.0303C68.2691 79.4814 68.2691 78.9324 68.2691 78.3835V77.5419C68.2691 77.2857 68.2691 76.9564 68.3421 76.7002C68.4879 76.1513 68.8162 75.639 69.2903 75.2731C69.7279 74.9072 70.3114 74.7242 70.8949 74.7242C88.8375 74.7242 105.066 74.7608 116.846 74.7608C117.611 74.7974 118.304 75.1999 118.742 75.7854C118.961 76.0781 119.107 76.4075 119.216 76.7368C119.289 77.0662 119.289 77.4321 119.289 77.7615C119.289 79.0788 119.289 80.3596 119.289 81.5306C119.289 83.8726 119.289 85.8852 119.289 87.532C119.289 87.9345 119.289 88.337 119.289 88.7029C119.289 89.0689 119.18 89.3982 119.07 89.691C118.815 90.2765 118.377 90.6424 118.013 90.862C117.648 91.0815 117.283 91.1547 117.064 91.1547C116.773 91.1913 116.627 91.1913 116.627 91.1913Z" fill="#1A2E35"/>
<path d="M115.496 78.2372C115.459 78.2372 115.459 78.2372 115.423 78.2006C115.386 78.164 115.386 78.0908 115.423 78.0542L116.663 76.8466C116.699 76.81 116.772 76.81 116.809 76.8466C116.845 76.8832 116.845 76.9564 116.809 76.993L115.569 78.2006C115.569 78.2372 115.532 78.2372 115.496 78.2372Z" fill="#1A2E35"/>
<path d="M116.772 78.2372C116.735 78.2372 116.735 78.2372 116.699 78.2006L115.459 76.993C115.423 76.9564 115.423 76.8832 115.459 76.8466C115.495 76.81 115.568 76.81 115.605 76.8466L116.845 78.0542C116.881 78.0908 116.881 78.164 116.845 78.2006C116.808 78.2372 116.772 78.2372 116.772 78.2372Z" fill="#1A2E35"/>
<path d="M79.283 86.2146L78.7724 85.4827C78.4807 85.0436 78.2984 84.5313 78.2984 83.9824V82.3357C78.2984 81.0183 77.3137 79.8839 76.0373 79.7009V78.9324C76.0373 78.7495 75.8914 78.5665 75.6726 78.5665C75.4903 78.5665 75.3079 78.7129 75.3079 78.9324V79.7009C73.995 79.8473 72.9739 80.9817 72.9739 82.3357V84.019C72.9739 84.6045 72.7916 85.1534 72.4269 85.6291L71.9893 86.178L79.283 86.2146Z" fill="#375A64"/>
<path d="M75.2713 87.3856C75.6725 87.5685 76.1466 87.4588 76.4748 87.166C76.6207 87.0562 76.7301 86.8733 76.7666 86.6903H74.6514C74.7243 87.0196 74.9431 87.2758 75.2713 87.3856Z" fill="#375A64"/>
<path d="M107.874 80.3596C107.874 80.3962 102.185 80.4694 95.1465 80.4694C88.1081 80.4694 82.4189 80.4328 82.4189 80.3596C82.4189 80.323 88.1081 80.2498 95.1465 80.2498C102.185 80.2864 107.874 80.323 107.874 80.3596Z" fill="#1A2E35"/>
<path d="M113.891 83.4701C113.891 83.5067 106.853 83.5798 98.1731 83.5798C89.4936 83.5798 82.4551 83.5432 82.4551 83.4701C82.4551 83.4335 89.4936 83.3603 98.1731 83.3603C106.853 83.3603 113.891 83.3969 113.891 83.4701Z" fill="#E1E1E1"/>
<path d="M113.891 85.2997C113.891 85.3363 106.853 85.4095 98.1731 85.4095C89.4936 85.4095 82.4551 85.3729 82.4551 85.2997C82.4551 85.2266 89.4936 85.19 98.1731 85.19C106.853 85.2266 113.891 85.2631 113.891 85.2997Z" fill="#E1E1E1"/>
<path d="M116.444 109.964H71.0408C69.6549 109.964 68.5244 108.829 68.5244 107.439V96.2778C68.5244 94.8873 69.6549 93.7529 71.0408 93.7529H116.444C117.83 93.7529 118.961 94.8873 118.961 96.2778V107.439C118.997 108.829 117.83 109.964 116.444 109.964Z" fill="#FAFAFA"/>
<path d="M116.445 109.964C116.445 109.964 116.554 109.964 116.773 109.927C116.992 109.891 117.32 109.817 117.685 109.598C118.049 109.378 118.45 109.012 118.706 108.427C118.815 108.134 118.925 107.805 118.925 107.439C118.925 107.073 118.925 106.707 118.925 106.268C118.925 104.621 118.925 102.645 118.925 100.303C118.925 99.1321 118.925 97.888 118.925 96.5706C118.925 96.2412 118.925 95.9119 118.852 95.5826C118.779 95.2532 118.633 94.9605 118.414 94.7043C118.013 94.1554 117.356 93.7895 116.627 93.7529C104.957 93.7529 88.8378 93.7529 71.041 93.7895C69.947 93.7895 68.9259 94.5579 68.6706 95.6191C68.5976 95.8753 68.5976 96.1315 68.5976 96.4242V97.2293C68.5976 97.7782 68.5976 98.3271 68.5976 98.876C68.5976 101.035 68.5976 103.194 68.5976 105.316C68.5976 105.829 68.5976 106.378 68.5976 106.89C68.5976 107.146 68.5976 107.402 68.5976 107.658C68.6341 107.915 68.6706 108.134 68.78 108.39C68.9623 108.829 69.327 109.232 69.7282 109.488C70.1293 109.744 70.6399 109.891 71.114 109.854C73.1198 109.854 75.1255 109.854 77.0219 109.854C84.7168 109.854 91.6824 109.854 97.5174 109.891C103.352 109.891 108.057 109.927 111.339 109.927C112.98 109.927 114.22 109.927 115.095 109.927C115.533 109.927 115.861 109.927 116.08 109.927C116.335 109.964 116.445 109.964 116.445 109.964C116.445 109.964 116.335 109.964 116.116 109.964C115.898 109.964 115.569 109.964 115.132 109.964C114.257 109.964 113.017 109.964 111.375 109.964C108.093 109.964 103.389 109.964 97.5538 110C91.7188 110 84.7898 110 77.0584 110.037C75.1255 110.037 73.1562 110.037 71.1504 110.037C70.6399 110.037 70.0929 109.927 69.6552 109.635C69.2176 109.342 68.8529 108.939 68.6341 108.427C68.5247 108.171 68.4518 107.915 68.4518 107.658C68.4153 107.402 68.4518 107.146 68.4518 106.853C68.4518 106.341 68.4518 105.792 68.4518 105.28C68.4518 103.157 68.4518 101.035 68.4518 98.8394C68.4518 98.2905 68.4518 97.7416 68.4518 97.1927V96.3876C68.4518 96.1315 68.4518 95.8021 68.5612 95.546C68.8529 94.4116 69.947 93.5699 71.114 93.6065C88.9107 93.6065 105.03 93.6431 116.7 93.6431C117.466 93.6797 118.159 94.0822 118.56 94.6677C118.779 94.9605 118.925 95.2898 118.997 95.6191C119.07 95.9485 119.07 96.3144 119.07 96.6438C119.07 97.9611 119.07 99.2053 119.07 100.376C119.07 102.718 119.07 104.694 119.07 106.341C119.07 106.744 119.07 107.146 119.07 107.512C119.07 107.878 118.961 108.207 118.852 108.5C118.596 109.086 118.159 109.452 117.794 109.671C117.429 109.891 117.101 109.964 116.882 109.964C116.554 110 116.445 109.964 116.445 109.964Z" fill="#1A2E35"/>
<path d="M115.35 97.1195C115.314 97.1195 115.314 97.1195 115.277 97.0829C115.241 97.0463 115.241 96.9731 115.277 96.9365L116.517 95.7289C116.554 95.6923 116.627 95.6923 116.663 95.7289C116.7 95.7655 116.7 95.8387 116.663 95.8753L115.423 97.0829C115.387 97.0829 115.387 97.1195 115.35 97.1195Z" fill="#1A2E35"/>
<path d="M116.59 97.1195C116.554 97.1195 116.554 97.1195 116.517 97.0829L115.277 95.8753C115.241 95.8387 115.241 95.7655 115.277 95.7289C115.314 95.6923 115.387 95.6923 115.423 95.7289L116.663 96.9365C116.7 96.9731 116.7 97.0463 116.663 97.0829C116.627 97.1195 116.59 97.1195 116.59 97.1195Z" fill="#1A2E35"/>
<path d="M79.392 105.024L78.8815 104.292C78.5897 103.853 78.4074 103.34 78.4074 102.792V101.181C78.4074 99.864 77.4227 98.7662 76.1828 98.5832V97.8148C76.1828 97.6318 76.0369 97.4488 75.8181 97.4488C75.6358 97.4488 75.4534 97.5952 75.4534 97.8148V98.5832C74.1405 98.7296 73.1194 99.864 73.1194 101.218V102.901C73.1194 103.487 72.9371 104.036 72.5724 104.475L72.1348 105.024H79.392Z" fill="#E1E1E1"/>
<path d="M75.3801 106.195C75.7812 106.341 76.2553 106.268 76.5471 105.975C76.6929 105.865 76.8024 105.682 76.8388 105.499H74.7236C74.8695 105.829 75.0883 106.085 75.3801 106.195Z" fill="#E1E1E1"/>
<path d="M107.765 99.2419C107.765 99.2785 102.112 99.3517 95.1465 99.3517C88.181 99.3517 82.5283 99.3151 82.5283 99.2419C82.5283 99.1687 88.181 99.1321 95.1465 99.1321C102.112 99.1321 107.765 99.1687 107.765 99.2419Z" fill="#1A2E35"/>
<path d="M113.746 102.279C113.746 102.316 106.744 102.389 98.1369 102.389C89.5303 102.389 82.5283 102.352 82.5283 102.279C82.5283 102.243 89.5303 102.169 98.1369 102.169C106.744 102.206 113.746 102.243 113.746 102.279Z" fill="#E1E1E1"/>
<path d="M113.746 104.145C113.746 104.182 106.744 104.255 98.1369 104.255C89.5303 104.255 82.5283 104.219 82.5283 104.145C82.5283 104.109 89.5303 104.036 98.1369 104.036C106.744 104.036 113.746 104.072 113.746 104.145Z" fill="#E1E1E1"/>
<path d="M153.788 89.1787C149.996 91.1547 147.115 94.5213 145.036 98.2539C142.957 101.986 141.608 106.048 140.295 110.11L139.128 131.005C143.504 123.503 147.042 114.684 147.99 106.048C147.005 105.975 146.057 105.865 145.072 105.792C147.042 105.499 148.683 104.072 149.74 102.389C150.798 100.706 151.308 98.7662 151.856 96.8267C150.652 97.0097 149.485 97.1927 148.282 97.3756C151.053 95.4728 153.095 92.4721 153.788 89.1787Z" fill="#375A64"/>
<path d="M153.788 89.1787C149.996 91.1547 147.115 94.5213 145.036 98.2539C142.957 101.986 141.608 106.048 140.295 110.11L139.128 131.005C143.504 123.503 147.042 114.684 147.99 106.048C147.005 105.975 146.057 105.865 145.072 105.792C147.042 105.499 148.683 104.072 149.74 102.389C150.798 100.706 151.308 98.7662 151.856 96.8267C150.652 97.0097 149.485 97.1927 148.282 97.3756C151.053 95.4728 153.095 92.4721 153.788 89.1787Z" fill="#FFCC47"/>
<g opacity="0.3">
<path d="M153.788 89.1787C149.996 91.1547 147.115 94.5213 145.036 98.2539C142.957 101.986 141.608 106.048 140.295 110.11L139.128 131.005C143.504 123.503 147.042 114.684 147.99 106.048C147.005 105.975 146.057 105.865 145.072 105.792C147.042 105.499 148.683 104.072 149.74 102.389C150.798 100.706 151.308 98.7662 151.856 96.8267C150.652 97.0097 149.485 97.1927 148.282 97.3756C151.053 95.4728 153.095 92.4721 153.788 89.1787Z" fill="black"/>
</g>
<path d="M138.471 135.909C138.471 135.909 128.953 124.455 129.062 113.513H132.928C132.928 113.513 128.734 110.769 129.062 109.195C129.39 107.658 129.5 101.803 129.5 101.803L133.037 102.682C133.037 102.682 130.412 101.364 130.083 99.2419C129.755 97.1561 130.849 87.4222 130.849 87.4222C130.849 87.4222 135.153 91.9598 136.465 96.5706C137.778 101.218 141.243 106.634 140.222 120.759C139.164 134.957 138.471 135.909 138.471 135.909Z" fill="#FFCC47"/>
<path d="M143.322 136.97C143.322 136.97 153.643 130.054 155.94 121.235L152.84 120.393C152.84 120.393 156.815 119.076 156.888 117.758C156.961 116.441 158.165 111.72 158.165 111.72L155.138 111.647C155.138 111.647 157.545 111.171 158.274 109.561C159.003 107.951 160.243 99.9006 160.243 99.9006C160.243 99.9006 155.794 102.609 153.715 106.048C151.637 109.488 147.662 113.074 145.401 124.675C143.14 136.275 143.322 136.97 143.322 136.97Z" fill="#FFCC47"/>
<path d="M133.403 97.4488C133.403 97.4488 133.403 97.4854 133.439 97.5586C133.476 97.6318 133.476 97.7782 133.512 97.9245C133.585 98.2539 133.694 98.693 133.804 99.2785C133.95 99.864 134.096 100.596 134.241 101.438C134.424 102.279 134.606 103.231 134.789 104.292C135.19 106.414 135.627 108.939 136.065 111.794C136.503 114.611 136.94 117.722 137.305 121.015C137.67 124.309 137.961 127.419 138.18 130.273C138.399 133.128 138.545 135.689 138.618 137.848C138.654 138.946 138.691 139.897 138.727 140.776C138.764 141.617 138.764 142.386 138.764 142.971C138.764 143.557 138.764 144.033 138.764 144.362C138.764 144.508 138.764 144.618 138.764 144.728C138.764 144.801 138.764 144.838 138.764 144.838C138.764 144.838 138.764 144.801 138.764 144.728C138.764 144.618 138.764 144.508 138.727 144.362C138.727 144.033 138.691 143.557 138.691 142.971C138.691 142.349 138.654 141.617 138.618 140.776C138.581 139.934 138.545 138.946 138.472 137.848C138.362 135.689 138.18 133.128 137.961 130.273C137.742 127.419 137.414 124.309 137.05 121.015C136.685 117.758 136.247 114.611 135.81 111.794C135.372 108.976 134.971 106.414 134.57 104.292C134.387 103.231 134.205 102.279 134.023 101.438C133.877 100.596 133.731 99.864 133.585 99.2785C133.476 98.693 133.366 98.2539 133.33 97.9245C133.293 97.7782 133.293 97.6684 133.257 97.5586C133.439 97.4854 133.403 97.4488 133.403 97.4488Z" fill="#1A2E35"/>
<path d="M137.159 142.898C137.159 142.898 128.443 132.981 125.707 126.943L127.75 126.065C126.254 126.321 124.759 125.663 123.592 124.711C122.425 123.723 121.586 122.479 120.784 121.198L123.483 120.759C121.039 120.064 118.888 118.38 117.611 116.185C120.784 116.697 123.665 118.454 126.036 120.649C127.968 122.406 129.573 124.492 131.141 126.577C131.907 127.602 132.564 128.7 133.111 129.834C134.569 132.908 137.159 139.275 137.159 142.898Z" fill="#FFCC47"/>
<path d="M156.086 105.719C156.086 105.719 156.086 105.756 156.049 105.829C156.013 105.902 155.976 106.012 155.903 106.122C155.794 106.378 155.612 106.744 155.356 107.219C154.882 108.171 154.226 109.561 153.423 111.281C151.819 114.721 149.704 119.515 147.625 124.931C145.546 130.347 143.869 135.323 142.775 138.946C142.228 140.776 141.753 142.239 141.462 143.264C141.316 143.776 141.206 144.142 141.097 144.435C141.061 144.545 141.024 144.655 140.988 144.728C140.951 144.801 140.951 144.838 140.951 144.838C140.951 144.838 140.951 144.801 140.988 144.728C141.024 144.655 141.024 144.545 141.061 144.435C141.134 144.142 141.243 143.74 141.389 143.264C141.644 142.239 142.082 140.739 142.629 138.946C143.723 135.287 145.364 130.31 147.443 124.894C149.521 119.478 151.673 114.684 153.314 111.245C154.116 109.525 154.809 108.134 155.32 107.219C155.575 106.744 155.757 106.378 155.867 106.122C155.94 106.012 155.976 105.902 156.013 105.829C156.049 105.719 156.086 105.719 156.086 105.719Z" fill="#1A2E35"/>
<path d="M137.888 147.18C137.888 147.18 137.851 147.106 137.851 146.997C137.815 146.85 137.815 146.667 137.778 146.484C137.706 146.009 137.596 145.35 137.45 144.545C137.304 143.74 137.049 142.788 136.794 141.727C136.502 140.666 136.137 139.532 135.7 138.361C135.262 137.19 134.752 136.092 134.314 135.104C133.84 134.116 133.366 133.237 132.965 132.542C132.563 131.81 132.199 131.261 131.943 130.859C131.834 130.676 131.725 130.529 131.652 130.42C131.579 130.31 131.542 130.273 131.579 130.237C131.579 130.237 131.615 130.273 131.688 130.383C131.761 130.493 131.871 130.639 132.016 130.822C132.272 131.188 132.673 131.774 133.074 132.469C133.512 133.164 133.986 134.042 134.496 135.03C134.97 136.019 135.481 137.116 135.919 138.324C136.356 139.495 136.721 140.666 137.013 141.727C137.304 142.788 137.487 143.776 137.633 144.581C137.778 145.386 137.851 146.082 137.924 146.521C137.961 146.74 137.961 146.923 137.961 147.07C137.888 147.106 137.888 147.18 137.888 147.18Z" fill="#1A2E35"/>
<path d="M149.412 144.838H130.303V148.753H149.412V144.838Z" fill="#375A64"/>
<path d="M132.126 148.753L134.205 161.89H145.729L147.662 148.753H132.126Z" fill="#375A64"/>
<path d="M140.186 148.863C144.637 148.863 148.245 148.814 148.245 148.753C148.245 148.692 144.637 148.643 140.186 148.643C135.734 148.643 132.126 148.692 132.126 148.753C132.126 148.814 135.734 148.863 140.186 148.863Z" fill="#1A2E35"/>
</g>
<defs>
<clipPath id="clip0_39_1753">
<rect width="164" height="162" fill="white"/>
</clipPath>
</defs>
</svg>
