<svg width="165" height="165" viewBox="0 0 165 165" fill="none" xmlns="http://www.w3.org/2000/svg">
<g clip-path="url(#clip0_39_2437)">
<path d="M158.122 4.60997V34.4826H115.346L113.801 4.83125L158.122 4.60997Z" fill="#E1E1E1"/>
<path d="M156.577 4.83125H113.801V34.4088H156.577V4.83125Z" fill="white"/>
<path d="M156.761 34.6301H113.617V4.60997H156.798V34.6301H156.761ZM114.022 34.2244H156.394V5.01565H114.022V34.2244Z" fill="#E1E1E1"/>
<path d="M151.943 8.51923H118.436V30.7577H151.943V8.51923Z" fill="white"/>
<path d="M151.943 8.51922C151.943 8.51922 151.87 8.51922 151.796 8.51922C151.686 8.51922 151.539 8.51922 151.318 8.51922C150.876 8.51922 150.288 8.51922 149.479 8.51922C147.86 8.51922 145.543 8.51922 142.564 8.5561C136.642 8.5561 128.293 8.59298 118.436 8.59298L118.546 8.48234C118.546 15.2682 118.546 22.7917 118.546 30.7208L118.436 30.6102C131.088 30.6102 142.711 30.6102 151.943 30.6471L151.87 30.7208C151.87 23.9718 151.906 18.4399 151.906 14.5675C151.906 12.6498 151.906 11.1377 151.943 10.1051C151.943 9.58874 151.943 9.21994 151.943 8.9249C151.943 8.62986 151.943 8.51922 151.943 8.51922C151.943 8.51922 151.943 8.66674 151.943 8.9249C151.943 9.18306 151.943 9.58874 151.943 10.0682C151.943 11.1008 151.943 12.6129 151.98 14.5306C151.98 18.403 152.017 23.9718 152.017 30.7577V30.8315H151.943C142.748 30.8315 131.088 30.8315 118.436 30.8684H118.325V30.7577C118.325 22.8286 118.325 15.3051 118.325 8.51922V8.40858H118.436C128.293 8.44546 136.679 8.44546 142.601 8.44546C145.543 8.44546 147.897 8.48234 149.479 8.48234C150.288 8.48234 150.876 8.48234 151.318 8.48234C151.502 8.48234 151.686 8.48234 151.796 8.48234C151.906 8.48234 151.943 8.51922 151.943 8.51922Z" fill="#E1E1E1"/>
<path d="M113.801 4.75749C113.801 4.72061 114.095 4.90501 114.536 5.23693C114.978 5.56885 115.566 6.0114 116.228 6.52772C116.854 7.04404 117.442 7.52347 117.847 7.89227C118.251 8.26107 118.472 8.48235 118.472 8.51923C118.435 8.55611 117.405 7.70787 116.118 6.67524C114.794 5.64261 113.764 4.79437 113.801 4.75749Z" fill="#E1E1E1"/>
<path d="M154.328 6.7553C155.602 5.74407 156.604 4.88546 156.567 4.83754C156.529 4.78963 155.465 5.57056 154.191 6.5818C152.917 7.59303 151.914 8.45164 151.952 8.49956C151.99 8.54747 153.054 7.76654 154.328 6.7553Z" fill="#E1E1E1"/>
<path d="M156.541 34.4088C154.96 33.118 153.378 31.8272 151.76 30.5364L156.541 34.4088Z" fill="white"/>
<path d="M154.233 32.3823C152.923 31.3178 151.83 30.4933 151.792 30.5408C151.753 30.5882 152.784 31.4897 154.094 32.5542C155.404 33.6188 156.497 34.4433 156.535 34.3958C156.574 34.3483 155.543 33.4469 154.233 32.3823Z" fill="#E1E1E1"/>
<path d="M116.04 32.4936C114.782 33.4917 113.792 34.3397 113.83 34.3876C113.868 34.4355 114.918 33.6653 116.177 32.6672C117.436 31.669 118.425 30.8211 118.388 30.7731C118.35 30.7252 117.299 31.4955 116.04 32.4936Z" fill="#E1E1E1"/>
<path d="M146.316 15.4157H125.24V22.8654H146.316V15.4157Z" fill="#E1E1E1"/>
<path d="M164.999 54.287H127.078V164.631H164.999V54.287Z" fill="#E1E1E1"/>
<path d="M148.264 54.287H106.738V164.631H148.264V54.287Z" fill="#F5F5F5"/>
<path d="M121.12 138.889H132.228C132.669 138.889 133.037 138.52 133.037 138.078V137.414H120.347V138.078C120.31 138.52 120.678 138.889 121.12 138.889Z" fill="#E1E1E1"/>
<path d="M108.54 137.414C108.54 137.414 108.54 137.561 108.54 137.82C108.54 138.078 108.54 138.483 108.54 139C108.54 140.032 108.54 141.581 108.504 143.536C108.504 147.519 108.467 153.198 108.467 160.169V160.243H108.54C118.582 160.243 131.492 160.243 145.542 160.279H145.579H145.689V160.169C145.689 152.092 145.689 144.421 145.689 137.414V137.303H145.579C134.692 137.303 125.423 137.303 118.876 137.34C115.602 137.34 113.028 137.34 111.262 137.377C110.379 137.377 109.717 137.377 109.239 137.377C109.019 137.377 108.835 137.377 108.724 137.377C108.614 137.414 108.54 137.414 108.54 137.414C108.54 137.414 108.614 137.414 108.724 137.414C108.835 137.414 109.019 137.414 109.239 137.414C109.717 137.414 110.379 137.414 111.262 137.414C113.028 137.414 115.639 137.451 118.913 137.451C125.46 137.451 134.692 137.488 145.542 137.525L145.432 137.414C145.432 144.421 145.432 152.092 145.432 160.169L145.542 160.058H145.505C131.455 160.058 118.545 160.058 108.504 160.095L108.577 160.169C108.54 153.198 108.54 147.519 108.54 143.573C108.54 141.581 108.54 140.069 108.504 139C108.504 138.483 108.504 138.078 108.504 137.783C108.54 137.561 108.54 137.414 108.54 137.414Z" fill="#E1E1E1"/>
<path d="M131.86 142.983H120.825V145.97H131.86V142.983Z" fill="#E1E1E1"/>
<path d="M121.634 112.336H132.742C133.184 112.336 133.551 111.967 133.551 111.524V110.861H120.862V111.524C120.825 111.967 121.193 112.336 121.634 112.336Z" fill="#E1E1E1"/>
<path d="M108.651 110.861C108.651 110.861 108.651 111.008 108.651 111.266C108.651 111.524 108.651 111.93 108.651 112.446C108.651 113.479 108.651 115.028 108.614 116.983C108.614 120.966 108.577 126.645 108.577 133.615V133.689H108.651C118.692 133.689 131.602 133.689 145.652 133.726H145.689H145.8V133.615C145.8 125.539 145.8 117.868 145.8 110.861V110.75H145.689C134.802 110.75 125.533 110.75 118.986 110.787C115.713 110.787 113.138 110.787 111.373 110.824C110.49 110.824 109.828 110.824 109.35 110.824C109.129 110.824 108.945 110.824 108.835 110.824C108.724 110.861 108.651 110.861 108.651 110.861C108.651 110.861 108.724 110.861 108.835 110.861C108.945 110.861 109.129 110.861 109.35 110.861C109.828 110.861 110.49 110.861 111.373 110.861C113.138 110.861 115.749 110.897 119.023 110.897C125.57 110.897 134.802 110.934 145.652 110.971L145.542 110.861C145.542 117.868 145.542 125.539 145.542 133.615L145.652 133.505C131.602 133.505 118.692 133.505 108.651 133.542L108.724 133.615C108.724 126.645 108.687 120.966 108.687 117.019C108.687 115.028 108.687 113.516 108.651 112.446C108.651 111.93 108.651 111.524 108.651 111.229C108.651 111.008 108.651 110.861 108.651 110.861Z" fill="#E1E1E1"/>
<path d="M132.705 116.282H121.671V119.269H132.705V116.282Z" fill="#E1E1E1"/>
<path d="M121.12 58.7494H132.228C132.669 58.7494 133.037 58.3806 133.037 57.9381V57.2742H120.348V57.9381C120.348 58.3806 120.715 58.7494 121.12 58.7494Z" fill="#E1E1E1"/>
<path d="M108.577 57.2742C108.577 57.2742 108.577 57.4218 108.577 57.6799C108.577 57.9381 108.577 58.3438 108.577 58.8601C108.577 59.8927 108.577 61.4417 108.541 63.3963C108.541 67.3793 108.504 73.0588 108.504 80.0291V80.1028H108.577C118.619 80.1028 131.529 80.1028 145.579 80.1397H145.616H145.726V80.0291C145.726 71.9524 145.726 64.2814 145.726 57.2742V57.1636H145.616C134.729 57.1636 125.46 57.1636 118.913 57.2005C115.639 57.2005 113.065 57.2005 111.299 57.2374C110.417 57.2374 109.754 57.2374 109.276 57.2374C109.056 57.2374 108.872 57.2374 108.761 57.2374C108.614 57.2742 108.577 57.2742 108.577 57.2742C108.577 57.2742 108.651 57.2742 108.761 57.2742C108.872 57.2742 109.056 57.2742 109.276 57.2742C109.754 57.2742 110.417 57.2742 111.299 57.2742C113.065 57.2742 115.676 57.3111 118.95 57.3111C125.497 57.3111 134.729 57.348 145.579 57.3849L145.469 57.2742C145.469 64.2814 145.469 71.9524 145.469 80.0291L145.579 79.9184H145.542C131.492 79.9184 118.582 79.9184 108.541 79.9553L108.614 80.0291C108.614 73.0588 108.577 67.3793 108.577 63.4332C108.577 61.4417 108.577 59.9296 108.541 58.8601C108.541 58.3438 108.541 57.9381 108.541 57.643C108.577 57.4218 108.577 57.2742 108.577 57.2742Z" fill="#E1E1E1"/>
<path d="M132.411 62.1424H121.377V65.1296H132.411V62.1424Z" fill="#E1E1E1"/>
<path d="M121.12 85.5241H132.228C132.669 85.5241 133.037 85.1553 133.037 84.7128V84.0489H120.348V84.7128C120.348 85.1553 120.715 85.5241 121.12 85.5241Z" fill="#E1E1E1"/>
<path d="M108.577 84.0489C108.577 84.0489 108.577 84.1965 108.577 84.4546C108.577 84.7128 108.577 85.1185 108.577 85.6348C108.577 86.6674 108.577 88.2164 108.541 90.171C108.541 94.154 108.504 99.8335 108.504 106.804V106.878H108.577C118.619 106.878 131.529 106.878 145.579 106.914H145.616H145.726V106.804C145.726 98.7271 145.726 91.0561 145.726 84.0489V83.9383H145.616C134.729 83.9383 125.46 83.9383 118.913 83.9752C115.639 83.9752 113.065 83.9752 111.299 84.0121C110.417 84.0121 109.754 84.0121 109.276 84.0121C109.056 84.0121 108.872 84.0121 108.761 84.0121C108.614 84.0489 108.577 84.0489 108.577 84.0489C108.577 84.0489 108.651 84.0489 108.761 84.0489C108.872 84.0489 109.056 84.0489 109.276 84.0489C109.754 84.0489 110.417 84.0489 111.299 84.0489C113.065 84.0489 115.676 84.0858 118.95 84.0858C125.497 84.0858 134.729 84.1227 145.579 84.1596L145.469 84.0489C145.469 91.0561 145.469 98.7271 145.469 106.804L145.579 106.693H145.542C131.492 106.693 118.582 106.693 108.541 106.73L108.614 106.804C108.614 99.8335 108.577 94.154 108.577 90.2079C108.577 88.2164 108.577 86.7043 108.541 85.6348C108.541 85.1185 108.541 84.7128 108.541 84.4177C108.577 84.1965 108.577 84.0489 108.577 84.0489Z" fill="#E1E1E1"/>
<path d="M132.411 88.9171H121.377V91.9043H132.411V88.9171Z" fill="#E1E1E1"/>
<path d="M48.3307 3.87238H8.57031V39.5351H48.3307V3.87238Z" fill="#FAFAFA"/>
<path d="M48.3307 39.5351C48.3307 39.5351 48.3307 39.3138 48.3307 38.8713C48.3307 38.4287 48.3307 37.8017 48.3307 36.9535C48.3307 35.2939 48.3307 32.823 48.2939 29.7251C48.2939 23.4924 48.2571 14.6044 48.2571 3.87237L48.3307 3.94613C36.8917 3.94613 23.2092 3.94613 8.5703 3.94613L8.68065 3.83549C8.68065 16.8172 8.68065 29.0244 8.68065 39.4982L8.5703 39.3876C20.4138 39.4245 30.3447 39.4245 37.3331 39.4245C40.8273 39.4245 43.5491 39.4613 45.425 39.4613C46.3445 39.4613 47.0801 39.4613 47.5583 39.4613C47.8157 39.4613 47.9996 39.4613 48.11 39.4613C48.2939 39.5351 48.3307 39.5351 48.3307 39.5351C48.3307 39.5351 48.2571 39.5351 48.1468 39.5351C48.0364 39.5351 47.8525 39.5351 47.595 39.5351C47.1169 39.5351 46.3813 39.5351 45.4617 39.5351C43.5859 39.5351 40.8641 39.5351 37.3699 39.572C30.3815 39.572 20.4506 39.6089 8.5703 39.6089H8.45996V39.4982C8.45996 29.0244 8.45996 16.8172 8.45996 3.83549V3.72485H8.5703C23.2092 3.72485 36.855 3.72485 48.3307 3.72485H48.4042V3.79861C48.3675 14.5306 48.3674 23.4555 48.3674 29.7251C48.3674 32.823 48.3674 35.257 48.3307 36.9535C48.3307 37.7649 48.3307 38.4287 48.3307 38.8344C48.3674 39.3138 48.3307 39.5351 48.3307 39.5351Z" fill="#E1E1E1"/>
<path d="M19.1634 10.3263C21.7432 10.3263 23.8346 10.2768 23.8346 10.2157C23.8346 10.1546 21.7432 10.105 19.1634 10.105C16.5836 10.105 14.4922 10.1546 14.4922 10.2157C14.4922 10.2768 16.5836 10.3263 19.1634 10.3263Z" fill="#E1E1E1"/>
<path d="M40.68 12.871C40.68 12.9448 34.9422 12.9817 27.8434 12.9817C20.7447 12.9817 15.0068 12.9448 15.0068 12.871C15.0068 12.7973 20.7447 12.7604 27.8434 12.7604C34.9422 12.7973 40.68 12.8342 40.68 12.871Z" fill="#E1E1E1"/>
<path d="M16.2574 17.4072H14.5654V19.1037H16.2574V17.4072Z" fill="#E1E1E1"/>
<path d="M20.3775 17.4072H18.6855V19.1037H20.3775V17.4072Z" fill="#E1E1E1"/>
<path d="M24.5699 17.3335H22.8779V19.0299H24.5699V17.3335Z" fill="#E1E1E1"/>
<path d="M28.6158 17.4072H26.9238V19.1037H28.6158V17.4072Z" fill="#E1E1E1"/>
<path d="M32.7359 17.4072H31.0439V19.1037H32.7359V17.4072Z" fill="#E1E1E1"/>
<path d="M36.855 17.4072H35.1631V19.1037H36.855V17.4072Z" fill="#E1E1E1"/>
<path d="M40.9742 17.4072H39.2822V19.1037H40.9742V17.4072Z" fill="#ECECEC"/>
<path d="M16.2574 20.9846H14.5654V22.681H16.2574V20.9846Z" fill="#ECECEC"/>
<path d="M20.3775 20.9846H18.6855V22.681H20.3775V20.9846Z" fill="#E1E1E1"/>
<path d="M24.4966 20.9846H22.8047V22.681H24.4966V20.9846Z" fill="#ECECEC"/>
<path d="M28.6158 20.9846H26.9238V22.681H28.6158V20.9846Z" fill="#E1E1E1"/>
<path d="M32.7359 20.9846H31.0439V22.681H32.7359V20.9846Z" fill="#E1E1E1"/>
<path d="M36.9283 20.9108H35.2363V22.6073H36.9283V20.9108Z" fill="#E1E1E1"/>
<path d="M40.9742 20.9846H39.2822V22.681H40.9742V20.9846Z" fill="#E1E1E1"/>
<path d="M16.2574 24.5619H14.5654V26.2584H16.2574V24.5619Z" fill="#E1E1E1"/>
<path d="M20.4507 24.4882H18.7588V26.1846H20.4507V24.4882Z" fill="#E1E1E1"/>
<path d="M24.4966 24.5619H22.8047V26.2584H24.4966V24.5619Z" fill="#E1E1E1"/>
<path d="M28.6158 24.5619H26.9238V26.2584H28.6158V24.5619Z" fill="#ECECEC"/>
<path d="M32.7359 24.5619H31.0439V26.2584H32.7359V24.5619Z" fill="#E1E1E1"/>
<path d="M36.855 24.5619H35.1631V26.2584H36.855V24.5619Z" fill="#E1E1E1"/>
<path d="M40.9742 24.5619H39.2822V26.2584H40.9742V24.5619Z" fill="#E1E1E1"/>
<path d="M16.2574 28.1393H14.5654V29.8357H16.2574V28.1393Z" fill="#E1E1E1"/>
<path d="M20.3775 28.1393H18.6855V29.8357H20.3775V28.1393Z" fill="#E1E1E1"/>
<path d="M24.4966 28.1393H22.8047V29.8357H24.4966V28.1393Z" fill="#E1E1E1"/>
<path d="M28.69 28.0655H26.998V29.762H28.69V28.0655Z" fill="#E1E1E1"/>
<path d="M32.7359 28.1393H31.0439V29.8357H32.7359V28.1393Z" fill="#E1E1E1"/>
<path d="M36.855 28.1393H35.1631V29.8357H36.855V28.1393Z" fill="#ECECEC"/>
<path d="M40.9742 28.1393H39.2822V29.8357H40.9742V28.1393Z" fill="#E1E1E1"/>
<path d="M16.2574 31.7166H14.5654V33.4131H16.2574V31.7166Z" fill="#E1E1E1"/>
<path d="M20.3775 31.7166H18.6855V33.4131H20.3775V31.7166Z" fill="#ECECEC"/>
<path d="M24.4966 31.7166H22.8047V33.4131H24.4966V31.7166Z" fill="#E1E1E1"/>
<path d="M28.6158 31.7166H26.9238V33.4131H28.6158V31.7166Z" fill="#E1E1E1"/>
<path d="M32.7359 31.7166H31.0439V33.4131H32.7359V31.7166Z" fill="#E1E1E1"/>
<path d="M36.9283 31.6428H35.2363V33.3393H36.9283V31.6428Z" fill="#E1E1E1"/>
<path d="M40.9742 31.7166H39.2822V33.4131H40.9742V31.7166Z" fill="#E1E1E1"/>
<path d="M81.7689 56.9911L68.0684 62.1622L71.5411 71.4124L85.2416 66.2413L81.7689 56.9911Z" fill="#ECECEC"/>
<path d="M81.8378 57.0899C81.8378 57.0899 81.8011 57.1636 81.7643 57.2743C81.6907 57.3849 81.6172 57.5693 81.5068 57.7537C81.2861 58.1962 80.9551 58.7863 80.5505 59.5239C79.7045 60.9991 78.5643 63.0275 77.3138 65.314L77.277 65.3509H77.2402C77.2034 65.3509 77.1666 65.314 77.1299 65.314C74.6655 64.5027 72.4219 63.7651 70.7667 63.2119C69.9575 62.9537 69.2955 62.7325 68.8541 62.5481C68.6334 62.4743 68.4495 62.4005 68.3392 62.3637C68.2288 62.3268 68.1553 62.2899 68.1553 62.2899C68.1553 62.2899 68.2288 62.2899 68.3392 62.3268C68.4863 62.3637 68.6334 62.4374 68.8541 62.4743C69.3323 62.6218 69.9943 62.8431 70.8035 63.0644C72.4587 63.5807 74.7023 64.3183 77.1666 65.1296C77.2034 65.1296 77.2402 65.1665 77.277 65.1665L77.2034 65.2034C78.4908 62.9537 79.631 60.9253 80.4769 59.4502C80.8815 58.7126 81.2493 58.1225 81.47 57.7168C81.5804 57.5324 81.6907 57.3849 81.7643 57.2374C81.8011 57.1267 81.8378 57.0899 81.8378 57.0899Z" fill="#E1E1E1"/>
<path d="M72.864 67.8041C72.1454 69.8394 71.594 71.5004 71.6323 71.514C71.6706 71.5276 72.2841 69.8886 73.0027 67.8533C73.7212 65.818 74.2727 64.1571 74.2344 64.1435C74.1961 64.1299 73.5825 65.7688 72.864 67.8041Z" fill="#E1E1E1"/>
<path d="M82.0645 64.2865C80.243 63.1739 78.7492 62.3002 78.7281 62.335C78.7069 62.3698 80.1664 63.2999 81.988 64.4124C83.8095 65.525 85.3033 66.3986 85.3244 66.3639C85.3455 66.3291 83.886 65.399 82.0645 64.2865Z" fill="#E1E1E1"/>
<path d="M99.5304 27.7336C99.8982 27.5123 100.266 27.3648 100.671 27.2541L100.891 26.1477L102.767 26.1109L103.025 27.2173C103.429 27.3279 103.797 27.4754 104.165 27.6598L105.121 27.0329L106.482 28.3237L105.893 29.2825C106.114 29.6513 106.261 30.0201 106.372 30.4258L107.475 30.6471L107.512 32.5279L106.408 32.7861C106.298 33.1918 106.151 33.5606 105.967 33.9294L106.592 34.8882L105.305 36.2528L104.349 35.6627C103.981 35.884 103.613 36.0315 103.208 36.1422L102.988 37.2486L101.112 37.2854L100.854 36.179C100.45 36.0684 100.082 35.9209 99.7143 35.7365L98.758 36.3634L97.3971 35.0726L97.9856 34.1138C97.7649 33.745 97.6177 33.3762 97.5074 32.9705L96.404 32.7492L96.3672 30.8684L97.4706 30.6102C97.581 30.2045 97.7281 29.8357 97.912 29.4669L97.2867 28.5081L98.5741 27.1435L99.5304 27.7336ZM100.523 30.2414C99.751 31.0528 99.7878 32.3067 100.56 33.0811C101.369 33.8556 102.62 33.8187 103.392 33.0443C104.165 32.2329 104.128 30.979 103.356 30.2045C102.583 29.43 101.296 29.43 100.523 30.2414Z" fill="#E1E1E1"/>
<path d="M100.523 30.2414C100.523 30.2414 100.634 30.0939 100.891 29.9095C101.148 29.7251 101.627 29.5407 102.215 29.6144C102.509 29.6513 102.804 29.7251 103.098 29.9464C103.392 30.1308 103.65 30.4258 103.834 30.7577C103.907 30.9421 103.981 31.1265 104.017 31.3109C104.054 31.4953 104.054 31.7166 104.017 31.9379C103.981 32.3435 103.76 32.7861 103.466 33.118C103.135 33.4499 102.73 33.6712 102.325 33.7081C102.105 33.745 101.921 33.745 101.7 33.7081C101.516 33.6712 101.296 33.6343 101.112 33.5606C100.744 33.4131 100.486 33.1549 100.266 32.8599C100.082 32.5648 99.9715 32.2698 99.9347 31.9747C99.8612 31.3847 100.045 30.9052 100.192 30.6471C100.376 30.352 100.523 30.2414 100.523 30.2414C100.523 30.2414 100.413 30.3889 100.229 30.6471C100.082 30.9052 99.9347 31.3847 100.008 31.9379C100.045 32.196 100.155 32.5279 100.339 32.7861C100.523 33.0443 100.817 33.3024 101.148 33.4499C101.332 33.5237 101.516 33.5606 101.7 33.5975C101.884 33.6343 102.105 33.6343 102.289 33.5975C102.693 33.5237 103.061 33.3393 103.355 33.0443C103.65 32.7492 103.834 32.3435 103.87 31.9379C103.907 31.7535 103.907 31.5322 103.87 31.3478C103.834 31.1634 103.797 30.979 103.686 30.7946C103.539 30.4627 103.282 30.2045 103.024 30.0201C102.767 29.8357 102.436 29.7251 102.178 29.6882C101.627 29.6144 101.148 29.7988 100.891 29.9464C100.634 30.0939 100.523 30.2414 100.523 30.2414Z" fill="#E1E1E1"/>
<path d="M99.53 27.7336C99.53 27.7336 99.4933 27.7336 99.4565 27.6967C99.4197 27.6598 99.3461 27.6229 99.2726 27.5861C99.0887 27.4754 98.868 27.3279 98.5369 27.1435H98.5737C98.2427 27.4754 97.8013 27.9549 97.2864 28.5081V28.4712C97.4703 28.7662 97.691 29.0612 97.9117 29.43C97.7278 29.762 97.5806 30.1308 97.4703 30.5733V30.6102H97.4335C97.1025 30.684 96.7347 30.7946 96.3301 30.8684L96.3669 30.8315C96.3669 31.4216 96.4036 32.0485 96.4036 32.7123L96.3669 32.6755C96.6979 32.7492 97.1025 32.823 97.4703 32.8967H97.5071V32.9336C97.6174 33.3024 97.7645 33.6712 97.9852 34.04V34.0769V34.1138C97.8013 34.4088 97.6174 34.7407 97.3967 35.0726V34.9989C97.8381 35.4046 98.2795 35.8471 98.7576 36.2897H98.6841C98.9783 36.1053 99.3093 35.884 99.6404 35.6627H99.6772H99.7139C100.045 35.8471 100.45 35.9946 100.854 36.1053H100.891V36.1422C100.964 36.4741 101.075 36.8798 101.148 37.2486L101.075 37.2117C101.663 37.2117 102.289 37.1748 102.951 37.1748L102.914 37.2117C102.987 36.8429 103.061 36.4741 103.135 36.1053V36.0684H103.171C103.539 35.9578 103.907 35.8102 104.275 35.589H104.312H104.348C104.679 35.7734 105.01 35.9946 105.305 36.179H105.231C105.672 35.7365 106.114 35.257 106.518 34.8145V34.8882C106.298 34.5563 106.114 34.2613 105.893 33.9294L105.856 33.8925V33.8556C106.04 33.4868 106.187 33.118 106.298 32.7123V32.6755H106.335C106.702 32.6017 107.07 32.4911 107.438 32.4173L107.401 32.4542C107.401 31.8272 107.364 31.2003 107.364 30.5733L107.401 30.6102C107.033 30.5364 106.666 30.4627 106.298 30.3889H106.261V30.352C106.151 29.9464 105.967 29.5776 105.783 29.2456V29.2088V29.1719C105.967 28.84 106.187 28.5081 106.371 28.213V28.2868C105.893 27.8442 105.452 27.4017 105.01 26.9591H105.047C104.716 27.1804 104.385 27.3648 104.091 27.5861H104.054H104.017C103.65 27.3648 103.245 27.2173 102.877 27.1435H102.84V27.1066C102.73 26.7009 102.656 26.3321 102.583 26.0002L102.62 26.0371C101.884 26.0371 101.259 26.0371 100.744 26.074L100.781 26.0371C100.67 26.4797 100.597 26.8485 100.56 27.1435C100.155 27.2541 99.8978 27.4017 99.7139 27.4754C99.6404 27.5123 99.5668 27.5492 99.53 27.5861C99.53 27.6967 99.53 27.7336 99.53 27.7336C99.53 27.7336 99.5668 27.7336 99.6036 27.6967C99.6404 27.6598 99.7139 27.6229 99.7875 27.5861C99.9714 27.4754 100.229 27.3648 100.633 27.2541C100.707 26.9591 100.781 26.5903 100.854 26.1477V26.1109H100.891C101.406 26.1109 102.031 26.074 102.767 26.074H102.804V26.1109C102.877 26.4428 102.987 26.8116 103.061 27.2173L103.024 27.1804C103.392 27.291 103.797 27.4017 104.164 27.6229H104.128C104.422 27.4385 104.753 27.2173 105.084 26.996L105.121 26.9591L105.158 26.996C105.599 27.4017 106.04 27.8442 106.518 28.2868L106.555 28.3237L106.518 28.3605C106.335 28.6925 106.151 28.9875 105.93 29.3194V29.2825C106.151 29.6144 106.298 30.0201 106.408 30.4258L106.371 30.3889C106.739 30.4627 107.107 30.5364 107.475 30.6102H107.512V30.6471C107.512 31.274 107.548 31.901 107.548 32.5279V32.5648H107.512C107.144 32.6386 106.776 32.7492 106.408 32.823L106.445 32.7861C106.335 33.1918 106.187 33.5606 106.004 33.9294V33.8556C106.224 34.1875 106.408 34.4826 106.629 34.8145L106.666 34.8514L106.629 34.8882C106.187 35.3308 105.783 35.7734 105.341 36.2528L105.305 36.2897L105.268 36.2528C104.937 36.0684 104.606 35.8471 104.312 35.6627H104.385C104.017 35.884 103.613 36.0315 103.245 36.1422L103.282 36.1053C103.208 36.4741 103.135 36.8798 103.061 37.2117V37.2486H103.024C102.362 37.2486 101.737 37.2854 101.148 37.2854H101.112V37.2486C101.001 36.8798 100.928 36.4741 100.854 36.1422L100.891 36.179C100.486 36.0684 100.082 35.9209 99.7507 35.7365H99.8243C99.4933 35.9578 99.1622 36.179 98.868 36.3634L98.8312 36.4003L98.7944 36.3634C98.3163 35.9209 97.8749 35.4783 97.4335 35.0726L97.3967 35.0358L97.4335 34.9989C97.6542 34.667 97.8381 34.3351 98.022 34.04V34.0769C97.8013 33.7081 97.6174 33.3024 97.5439 32.9336L97.5806 32.9705C97.176 32.8967 96.8082 32.823 96.4772 32.7492H96.4404V32.7123C96.4404 32.0485 96.4036 31.4216 96.4036 30.8315V30.7946H96.4404C96.845 30.684 97.2128 30.6102 97.5439 30.5364L97.5071 30.5733C97.6174 30.1308 97.7645 29.762 97.9484 29.43V29.4669C97.7278 29.135 97.5071 28.8031 97.3232 28.5081V28.4712C97.8749 27.918 98.3163 27.4754 98.6473 27.1066C98.9415 27.291 99.199 27.4385 99.3461 27.5492C99.4197 27.5861 99.4933 27.6229 99.53 27.6598C99.4933 27.6967 99.53 27.7336 99.53 27.7336Z" fill="#E1E1E1"/>
<path d="M8.56957 160.869C7.90751 160.279 6.39948 158.472 7.53969 156.333C7.98107 155.559 8.86381 155.153 9.673 154.821C10.4822 154.489 11.3281 154.194 12.027 153.604C13.3143 152.535 13.6454 150.728 14.4913 149.289C15.4476 147.63 17.2499 146.376 19.1625 146.486C21.3326 146.597 23.1717 148.367 24.0176 150.432C24.8268 152.461 24.8636 154.747 24.9004 156.96C24.9004 158.177 24.8636 159.542 23.9808 160.39C23.1717 161.165 21.9211 161.165 20.8177 161.128C16.8453 161.017 12.8362 160.869 8.86381 160.759" fill="#F5F5F5"/>
<path d="M31.4111 127.936H0L5.66429 161.791C5.92176 163.267 6.98841 164.41 8.34931 164.816C8.38609 164.816 8.42287 164.852 8.45965 164.852C8.57 164.889 8.64356 164.926 8.7539 164.926C8.97459 164.963 9.15849 165 9.37918 165V165.037L9.5263 165H23.5399C23.7974 165 24.0548 164.963 24.3123 164.926C25.9675 164.668 27.2916 163.34 27.4755 161.607L30.1973 138.299L30.3076 137.377L31.3743 128.157L31.4111 127.936ZM25.4893 149.511H22.2526L22.5836 139.7H26.3353L25.4893 149.511ZM26.6295 139.7H29.7191L28.5789 149.511H25.8203L26.6295 139.7ZM17.4342 160.427L17.2503 151.908H21.8848L21.5905 160.427H17.4342ZM12.3952 151.871H16.9193L17.1032 160.39H13.0573L12.3952 151.871ZM12.763 160.427H8.97459C8.60678 158.14 8.1654 155.116 7.65047 151.908H12.101L12.763 160.427ZM12.2481 149.511L11.4757 139.7H16.6618L16.8825 149.511H12.2481ZM17.1768 149.511L16.9561 139.7H22.2893L21.9583 149.511H17.1768ZM16.9193 137.34L16.6986 128.231H22.6572L22.3629 137.34H16.9193ZM16.5883 137.34H11.2918L10.593 128.231H16.4044L16.5883 137.34ZM10.9608 137.34H5.37004C5.18613 136.086 4.96545 134.906 4.81832 133.837C4.22983 130.149 4.00914 128.784 3.8988 128.268H10.2987L10.9608 137.34ZM11.1447 139.7L11.9171 149.511H7.28266C7.13553 148.515 6.95163 147.519 6.8045 146.486C6.43669 144.163 6.06888 141.84 5.73785 139.664H11.1447V139.7ZM6.95163 149.511H3.93558L2.28043 139.7H5.40682C5.88498 142.725 6.43669 146.118 6.95163 149.511ZM7.31944 151.871C7.79759 154.821 8.23897 157.735 8.64356 160.39H5.73785L4.30339 151.871H7.31944ZM21.9215 160.427L22.2158 151.908H25.3054L24.5698 160.427H21.9215ZM22.6572 137.34L22.9514 128.231H27.2916L26.5192 137.34H22.6572ZM3.56777 128.268C3.67811 128.932 4.26661 132.509 5.03901 137.377H1.87584L0.367811 128.268H3.56777ZM27.3284 160.427H24.9008L25.6364 151.908H28.3214L27.3284 160.427ZM30.0134 137.34H26.8502L27.6226 128.231H31.08L30.0134 137.34Z" fill="#E1E1E1"/>
<path d="M159.372 164.631C159.372 164.668 125.681 164.742 84.1548 164.742C42.5922 164.742 8.9375 164.705 8.9375 164.631C8.9375 164.594 42.5922 164.521 84.1548 164.521C125.681 164.557 159.372 164.594 159.372 164.631Z" fill="#1A2E35"/>
<path d="M127.336 80.6929C127.336 80.6929 131.676 75.6773 133.331 70.6616C134.987 65.646 134.177 66.236 134.177 66.236C134.177 66.236 131.971 71.1042 130.279 73.4645C128.587 75.8248 125.607 79.2546 125.607 79.2546L127.336 80.6929Z" fill="#375A64"/>
<path d="M126.453 66.9736C126.6 66.7155 126.968 66.863 126.931 67.1211C126.673 68.8914 126.085 73.0219 126.122 75.6772C126.158 79.1439 126.122 80.5085 126.122 80.5085H124.319C124.319 80.5085 124.65 73.3169 125.055 71.1042C125.349 69.629 125.938 67.9325 126.453 66.9736Z" fill="#375A64"/>
<path d="M125.497 79.9553C125.497 79.9553 124.357 77.5581 124.026 74.534C123.879 73.2432 124.136 71.5098 124.541 69.2233C124.725 68.1169 124.761 67.2687 124.761 66.6786C124.761 66.236 124.173 66.0885 123.952 66.4573C123.732 66.863 123.106 68.1907 122.959 69.002C122.518 71.2886 122.04 72.4318 122.407 74.6077C122.775 76.7836 124.173 80.1028 124.173 80.1028L125.497 79.9553Z" fill="#375A64"/>
<path d="M123.842 80.1028C123.842 80.1028 119.06 69.8134 118.729 68.3013C118.398 66.7892 117.258 63.2488 117.147 63.47C117 63.6544 116.816 65.5353 117.662 67.6375C118.508 69.7765 122.187 80.4347 122.187 80.4347H123.805" fill="#375A64"/>
<path d="M126.012 79.6603C126.012 79.6603 126.048 79.6234 126.159 79.5865C126.232 79.5127 126.38 79.439 126.527 79.2915C126.858 79.0333 127.299 78.6645 127.814 78.1482C128.844 77.1524 130.168 75.6035 131.271 73.6857C132.412 71.768 133.147 69.924 133.625 68.5594C133.883 67.8587 134.03 67.3055 134.14 66.9367C134.214 66.7523 134.251 66.6048 134.251 66.4942C134.287 66.3835 134.287 66.3467 134.287 66.3467C134.287 66.3467 134.251 66.3835 134.214 66.4942C134.177 66.6048 134.14 66.7523 134.067 66.9367C133.956 67.3055 133.773 67.8587 133.515 68.5594C133.037 69.924 132.265 71.768 131.124 73.6489C130.021 75.5297 128.734 77.0787 127.704 78.1113C127.189 78.6276 126.747 78.9964 126.453 79.2546C126.306 79.4021 126.159 79.4759 126.085 79.5496C126.048 79.6234 126.012 79.6603 126.012 79.6603Z" fill="#1A2E35"/>
<path d="M125.497 74.7184C125.497 74.7184 125.534 74.6077 125.534 74.4233C125.57 74.2021 125.57 73.9439 125.607 73.612C125.681 72.9113 125.791 71.9524 125.975 70.9198C126.159 69.8502 126.343 68.9282 126.49 68.2275C126.563 67.8956 126.637 67.6375 126.674 67.4162C126.711 67.2318 126.747 67.1211 126.711 67.1211C126.711 67.1211 126.674 67.2318 126.6 67.4162C126.563 67.6006 126.49 67.8956 126.379 68.2275C126.232 68.8914 126.012 69.8502 125.865 70.9198C125.681 71.9893 125.607 72.9481 125.534 73.6489C125.497 73.9808 125.497 74.2758 125.46 74.4602C125.46 74.6077 125.46 74.7184 125.497 74.7184Z" fill="#1A2E35"/>
<path d="M124.357 66.3835C124.357 66.3835 124.32 66.4204 124.283 66.5311C124.246 66.6417 124.21 66.7523 124.136 66.8999C124.063 67.0474 123.989 67.2687 123.915 67.5268C123.842 67.785 123.768 68.0431 123.695 68.3382C123.658 68.4857 123.621 68.6701 123.584 68.8176C123.548 69.002 123.511 69.1495 123.474 69.3339C123.401 69.7027 123.364 70.1084 123.29 70.5141C123.18 71.3623 123.143 72.2843 123.18 73.2432C123.217 74.2021 123.327 75.124 123.474 75.9354C123.548 76.3411 123.621 76.7468 123.732 77.0787C123.768 77.2631 123.805 77.4475 123.879 77.595C123.915 77.7425 123.989 77.9269 124.026 78.0744C124.099 78.3695 124.21 78.6276 124.32 78.8858C124.394 79.1071 124.504 79.3283 124.577 79.4759C124.651 79.6234 124.688 79.7709 124.761 79.8447C124.798 79.9184 124.835 79.9553 124.835 79.9553C124.835 79.9553 124.835 79.9184 124.798 79.8078C124.761 79.6971 124.725 79.5865 124.651 79.439C124.577 79.2915 124.504 79.0702 124.43 78.8489C124.357 78.6276 124.246 78.3326 124.173 78.0375C124.136 77.89 124.063 77.7425 124.026 77.5581C123.989 77.4106 123.952 77.2262 123.879 77.0418C123.768 76.673 123.695 76.3042 123.621 75.8985C123.474 75.0872 123.364 74.1652 123.327 73.2063C123.29 72.2474 123.327 71.3254 123.437 70.5141C123.474 70.1084 123.548 69.7027 123.621 69.3339C123.658 69.1495 123.695 68.9651 123.732 68.8176C123.768 68.6332 123.805 68.4857 123.842 68.3382C123.915 68.0431 123.989 67.7481 124.063 67.5268C124.136 67.2687 124.21 67.0843 124.246 66.8999C124.283 66.7523 124.357 66.6048 124.357 66.4942C124.357 66.4204 124.357 66.3835 124.357 66.3835Z" fill="#1A2E35"/>
<path d="M117.221 63.6913C117.221 63.6913 117.221 63.6913 117.221 63.7282C117.221 63.7651 117.221 63.802 117.257 63.8757C117.294 63.9864 117.294 64.1708 117.368 64.392C117.478 64.8346 117.625 65.4616 117.846 66.236C118.067 67.0105 118.398 67.8956 118.802 68.8914C119.17 69.8871 119.648 70.9566 120.053 72.1368C120.494 73.2801 120.825 74.4233 121.119 75.4191C121.414 76.4517 121.708 77.3737 122.002 78.1113C122.296 78.8858 122.554 79.4759 122.738 79.8815C122.848 80.1028 122.922 80.2503 122.995 80.3241C123.032 80.361 123.032 80.3979 123.069 80.4347C123.069 80.4716 123.106 80.4716 123.106 80.4716C123.106 80.4716 123.106 80.4716 123.106 80.4347C123.106 80.3979 123.069 80.361 123.032 80.3241C122.995 80.2135 122.885 80.0659 122.811 79.8447C122.628 79.439 122.37 78.8489 122.076 78.0744C121.818 77.3 121.524 76.4148 121.23 75.3822C120.936 74.3496 120.605 73.2432 120.163 72.063C119.722 70.9198 119.28 69.8134 118.913 68.8176C118.508 67.8219 118.177 66.9367 117.956 66.1623C117.699 65.3878 117.552 64.7608 117.441 64.3183C117.405 64.097 117.368 63.9126 117.331 63.802C117.331 63.7651 117.294 63.6913 117.294 63.6544C117.221 63.6913 117.221 63.6913 117.221 63.6913Z" fill="#1A2E35"/>
<path d="M131.933 61.4048C132.227 61.1097 132.742 61.4048 132.595 61.8105C132.485 62.2161 132.264 62.7693 132.007 63.3594C131.345 64.7608 129.432 69.7765 128.512 72.5056C127.593 75.2716 126.342 80.3979 126.342 80.3979L124.43 80.1028C124.43 80.1028 126.195 71.6574 127.924 68.6332C129.285 66.1992 130.682 62.6587 131.933 61.4048Z" fill="#375A64"/>
<path d="M127.998 74.2758C127.998 74.2758 127.961 74.3496 127.888 74.4971C127.814 74.6446 127.74 74.8659 127.667 75.1609C127.483 75.7141 127.262 76.4886 127.042 77.3368C126.821 78.1851 126.637 78.9595 126.527 79.5496C126.453 79.8078 126.416 80.029 126.38 80.2134C126.343 80.361 126.343 80.4716 126.343 80.4716C126.343 80.4716 126.38 80.3978 126.416 80.2503C126.453 80.0659 126.527 79.8446 126.6 79.5865C126.747 78.9964 126.931 78.2588 127.152 77.4106C127.373 76.5623 127.593 75.7879 127.74 75.2347C127.814 74.9765 127.888 74.7552 127.924 74.5708C127.998 74.3496 127.998 74.2758 127.998 74.2758Z" fill="#1A2E35"/>
<path d="M125.386 80.2872C125.386 80.2872 125.386 80.2872 125.386 80.2503C125.386 80.2135 125.386 80.1766 125.423 80.1028C125.46 79.9553 125.46 79.7709 125.497 79.5127C125.57 78.9964 125.681 78.2588 125.901 77.3737C126.122 76.4886 126.416 75.4191 126.821 74.2758C127.225 73.1325 127.704 71.8786 128.255 70.6247C129.396 68.08 130.536 65.7935 131.271 64.1339C131.639 63.2857 131.933 62.6218 132.117 62.1424C132.228 61.9211 132.301 61.7367 132.338 61.5892C132.375 61.5154 132.375 61.4785 132.375 61.4417C132.375 61.4048 132.375 61.4048 132.375 61.4048C132.375 61.4048 132.375 61.4048 132.338 61.4417C132.338 61.4785 132.301 61.5154 132.264 61.5892C132.191 61.7367 132.117 61.8842 132.044 62.1424C131.823 62.6218 131.529 63.2857 131.161 64.1339C130.389 65.7935 129.248 68.0431 128.108 70.6247C127.556 71.9155 127.042 73.1325 126.674 74.2758C126.269 75.4191 125.975 76.4886 125.791 77.3737C125.607 78.2588 125.46 78.9964 125.423 79.5127C125.386 79.7709 125.386 79.9553 125.35 80.1028C125.35 80.1766 125.35 80.2135 125.35 80.2503C125.386 80.2503 125.386 80.2872 125.386 80.2872Z" fill="#1A2E35"/>
<path d="M124.43 80.1028C124.43 80.1028 124.466 79.9922 124.503 79.7709C124.54 79.5496 124.577 79.2546 124.65 78.8858C124.798 78.1482 124.981 77.1156 125.276 75.9723C125.57 74.8659 125.901 73.8333 126.122 73.1325C126.232 72.8006 126.342 72.5056 126.416 72.2843C126.489 72.0999 126.526 71.9893 126.526 71.9524C126.526 71.9524 126.453 72.063 126.379 72.2474C126.306 72.4318 126.195 72.7269 126.048 73.0957C125.791 73.7964 125.46 74.7921 125.165 75.9354C124.871 77.0787 124.687 78.1113 124.577 78.8489C124.54 79.2177 124.466 79.5127 124.466 79.734C124.43 79.9922 124.43 80.1028 124.43 80.1028Z" fill="#1A2E35"/>
<path d="M127.961 79.8447H120.458V89.0277H127.961V79.8447Z" fill="#25C883"/>
<g opacity="0.3">
<path d="M127.961 79.8447H120.458V89.0277H127.961V79.8447Z" fill="black"/>
</g>
<path d="M129.543 79.8447H122.886V89.0277H129.543V79.8447Z" fill="#25C883"/>
<path d="M60.4499 4.19409L46.5078 8.66946L49.5133 18.0828L63.4554 13.6074L60.4499 4.19409Z" fill="#FFCC47"/>
<path d="M60.5413 4.31493C60.5413 4.31493 60.5045 4.38869 60.4677 4.49932C60.3941 4.60996 60.3206 4.75748 60.1735 4.97876C59.916 5.38444 59.5482 5.97452 59.1068 6.67523C58.1873 8.11354 56.9735 10.105 55.5758 12.281L55.539 12.3178L55.5023 12.281C55.4655 12.281 55.4287 12.2441 55.3919 12.2441C52.9644 11.3221 50.7575 10.4738 49.1391 9.84689C48.3667 9.55185 47.7047 9.29369 47.2633 9.10929C47.0426 9.03553 46.8955 8.96177 46.7484 8.88802C46.638 8.85114 46.5645 8.81426 46.5645 8.81426C46.5645 8.81426 46.638 8.81426 46.7484 8.88802C46.8955 8.92489 47.0426 8.99865 47.2633 9.07241C47.7414 9.25681 48.3667 9.47809 49.1759 9.77313C50.7943 10.4001 53.0011 11.2114 55.4287 12.1334C55.4655 12.1334 55.5023 12.1703 55.539 12.1703L55.4655 12.2072C56.8632 10.0313 58.1137 8.07666 58.9965 6.63835C59.4378 5.93764 59.8056 5.38444 60.0999 4.94188C60.2102 4.75748 60.3206 4.60996 60.3941 4.49932C60.5045 4.35181 60.5413 4.31493 60.5413 4.31493Z" fill="#1A2E35"/>
<path d="M50.9996 14.5828C50.1803 16.5794 49.5466 18.2106 49.5841 18.2261C49.6217 18.2416 50.3163 16.6356 51.1357 14.6389C51.955 12.6422 52.5887 11.0111 52.5511 10.9956C52.5135 10.9801 51.8189 12.5861 50.9996 14.5828Z" fill="#1A2E35"/>
<path d="M60.3814 11.5015C58.6177 10.2988 57.1694 9.35102 57.1466 9.38471C57.1237 9.41839 58.535 10.4207 60.2987 11.6235C62.0624 12.8263 63.5107 13.774 63.5336 13.7404C63.5564 13.7067 62.1452 12.7043 60.3814 11.5015Z" fill="#1A2E35"/>
<path d="M122.113 24.6726L111.741 20.247C111.005 19.952 110.674 19.1037 111.005 18.403L117.111 3.98302C117.405 3.24542 118.251 2.9135 118.95 3.24542L125.534 6.04828L128.403 13.498L123.989 23.935C123.658 24.6357 122.812 24.9676 122.113 24.6726Z" fill="#FFCC47"/>
<path d="M125.497 6.0114L123.768 10.0682C123.474 10.732 123.805 11.5065 124.467 11.8015L128.366 13.4611L125.497 6.0114Z" fill="#FFCC47"/>
<g opacity="0.2">
<path d="M123.695 10.4739C123.695 10.4739 123.217 11.4327 124.21 12.2441C124.247 12.281 124.284 12.3178 124.32 12.3178C124.799 12.6129 127.888 14.6413 127.925 14.5675C127.962 14.4937 128.403 13.4611 128.403 13.4611L124.468 11.8015C124.468 11.8015 123.511 11.359 123.695 10.4739Z" fill="black"/>
</g>
<g opacity="0.3">
<path d="M125.497 6.0114L123.768 10.0682C123.474 10.732 123.805 11.5065 124.467 11.8015L128.366 13.4611L125.497 6.0114Z" fill="white"/>
</g>
<path d="M120.528 8.62186C121.857 9.186 122.952 9.59772 122.976 9.54145C123 9.48519 121.943 8.98225 120.615 8.41811C119.287 7.85397 118.191 7.44226 118.167 7.49853C118.143 7.55479 119.2 8.05773 120.528 8.62186Z" fill="#FAFAFA"/>
<path d="M121.118 11.5747C123.306 12.5043 125.1 13.2123 125.123 13.1561C125.147 13.0998 123.392 12.3006 121.204 11.3709C119.015 10.4413 117.222 9.7333 117.198 9.78957C117.174 9.84583 118.929 10.6451 121.118 11.5747Z" fill="#FAFAFA"/>
<path d="M120.676 13.6448C123.052 14.6539 124.997 15.4263 125.02 15.37C125.044 15.3138 123.138 14.4501 120.762 13.441C118.387 12.4319 116.442 11.6595 116.418 11.7158C116.394 11.772 118.301 12.6357 120.676 13.6448Z" fill="#FAFAFA"/>
<path d="M119.904 15.4482C122.279 16.4573 124.224 17.2297 124.248 17.1734C124.272 17.1172 122.365 16.2535 119.99 15.2445C117.614 14.2354 115.669 13.4629 115.645 13.5192C115.622 13.5755 117.528 14.4391 119.904 15.4482Z" fill="#FAFAFA"/>
<path d="M119.132 17.252C121.508 18.2611 123.453 19.0335 123.476 18.9772C123.5 18.9209 121.594 18.0573 119.218 17.0482C116.843 16.0391 114.898 15.2667 114.874 15.323C114.85 15.3792 116.757 16.2429 119.132 17.252Z" fill="#FAFAFA"/>
<path d="M118.361 19.0555C120.736 20.0646 122.681 20.837 122.705 20.7808C122.729 20.7245 120.822 19.8609 118.447 18.8518C116.071 17.8427 114.126 17.0703 114.102 17.1265C114.079 17.1828 115.985 18.0464 118.361 19.0555Z" fill="#FAFAFA"/>
<path d="M87.1715 27.6967C94.7485 27.6967 100.891 21.5379 100.891 13.9405C100.891 6.34324 94.7485 0.184402 87.1715 0.184402C79.5945 0.184402 73.4521 6.34324 73.4521 13.9405C73.4521 21.5379 79.5945 27.6967 87.1715 27.6967Z" fill="white"/>
<path d="M100.927 13.9405C100.927 13.9405 100.927 13.8668 100.891 13.7193C100.891 13.5717 100.854 13.3505 100.854 13.0554C100.854 12.9079 100.854 12.7604 100.817 12.576C100.78 12.3916 100.743 12.2072 100.743 11.9859C100.67 11.5802 100.633 11.1008 100.449 10.5476C100.192 9.4781 99.7135 8.22419 98.9411 6.89652C98.1687 5.56884 97.0285 4.16741 95.4469 3.02414C93.9021 1.84399 91.9527 0.885116 89.7091 0.479439C89.1573 0.405679 88.5688 0.29504 87.9803 0.29504C87.6861 0.29504 87.3918 0.25816 87.0976 0.25816C86.8033 0.25816 86.5091 0.29504 86.1781 0.29504C86.0309 0.29504 85.8838 0.29504 85.7367 0.33192L85.2953 0.405679C85.0011 0.442559 84.67 0.479439 84.3758 0.553198C83.7873 0.700717 83.162 0.848236 82.5735 1.10639C81.9482 1.29079 81.3965 1.62271 80.808 1.88087C80.5138 2.02839 80.2563 2.21279 79.9621 2.39719C79.8149 2.47095 79.6678 2.58158 79.5575 2.65534L79.0793 2.95038C78.5276 3.31918 78.0494 3.79862 77.5345 4.27805C77.0931 4.79437 76.5782 5.27381 76.2104 5.86388L75.8794 6.26956L75.6219 6.71212L75.3644 7.15467C75.2541 7.30219 75.1805 7.44971 75.107 7.63411C74.9598 7.96603 74.8127 8.26107 74.6288 8.59298C74.5185 8.9249 74.3713 9.25682 74.261 9.58874C73.8196 10.9533 73.5622 12.4285 73.5622 13.9037C73.5989 15.3789 73.8196 16.854 74.261 18.2186C74.3713 18.5505 74.5185 18.8824 74.6288 19.2144C74.7759 19.5463 74.9231 19.8413 75.107 20.1732C75.1805 20.3207 75.2541 20.5051 75.3644 20.6527L75.6219 21.0952L75.8794 21.5378L76.2104 21.9435C76.615 22.5335 77.0931 23.013 77.5345 23.5293C78.0494 23.9718 78.5276 24.4513 79.0793 24.857L79.4839 25.152C79.631 25.2626 79.7782 25.3364 79.8885 25.4101C80.1828 25.5945 80.4402 25.7789 80.7345 25.9265C81.323 26.2215 81.9115 26.5165 82.5 26.7009C83.0885 26.9591 83.7137 27.0697 84.3022 27.2541C84.5965 27.3279 84.9275 27.3648 85.2218 27.4017L85.6631 27.4754C85.8103 27.5123 85.9574 27.5123 86.1045 27.5123C86.3988 27.5123 86.693 27.5492 87.024 27.5492C87.3183 27.5492 87.6125 27.5123 87.9068 27.5123C88.4953 27.5123 89.0838 27.4017 89.6355 27.3279C91.8791 26.9222 93.8285 25.9265 95.3733 24.7832C96.9181 23.603 98.0584 22.2385 98.8675 20.9108C99.6399 19.5831 100.155 18.3292 100.376 17.2597C100.523 16.7434 100.596 16.264 100.67 15.8214C100.707 15.6001 100.743 15.4157 100.743 15.2313C100.743 15.0469 100.78 14.8994 100.78 14.7519C100.78 14.4569 100.817 14.2356 100.817 14.0881C100.891 14.0143 100.927 13.9405 100.927 13.9405C100.927 13.9405 100.927 14.0143 100.927 14.1618C100.927 14.3093 100.927 14.5306 100.891 14.8257C100.891 14.9732 100.891 15.1207 100.854 15.3051C100.854 15.4895 100.817 15.6739 100.78 15.8952C100.707 16.3008 100.67 16.7803 100.523 17.3335C100.302 18.403 99.7871 19.6569 99.0147 21.0215C98.2423 22.3491 97.1021 23.7506 95.5205 24.9676C93.9757 26.1477 91.9895 27.1435 89.7091 27.5861C89.1206 27.6598 88.5688 27.7705 87.9803 27.8073C87.6861 27.8073 87.3918 27.8442 87.0976 27.8442C86.8033 27.8442 86.4723 27.8073 86.1781 27.8073C86.0309 27.8073 85.8838 27.8073 85.6999 27.7705L85.2218 27.6967C84.9275 27.6598 84.5965 27.6229 84.3022 27.5492C83.677 27.4017 83.0517 27.2541 82.4632 26.996C81.8379 26.8116 81.2494 26.4797 80.6609 26.2215C80.3667 26.074 80.0724 25.8896 79.8149 25.7052C79.6678 25.6314 79.5207 25.5208 79.3736 25.447L78.969 25.152C78.4173 24.7832 77.9023 24.2669 77.3874 23.8243C76.9092 23.308 76.4311 22.7917 76.0265 22.2016L75.6955 21.7591L75.4012 21.3165L75.107 20.8739C74.9966 20.7264 74.9231 20.5789 74.8495 20.3945C74.7024 20.0626 74.5185 19.7307 74.3713 19.3988C74.261 19.0668 74.1139 18.698 74.0035 18.3661C73.5622 16.9647 73.3047 15.4895 73.3047 13.9774C73.3415 12.4654 73.5622 10.9902 74.0035 9.58874C74.1139 9.25682 74.261 8.88802 74.3713 8.5561C74.5185 8.22419 74.7024 7.89227 74.8495 7.56035C74.9231 7.41283 74.9966 7.22843 75.107 7.08091L75.4012 6.63836L75.6955 6.1958L76.0265 5.75324C76.4311 5.16317 76.9092 4.64685 77.3874 4.13053C77.9023 3.6511 78.3805 3.17166 78.969 2.80286L79.3736 2.50783C79.5207 2.39719 79.6678 2.32343 79.8149 2.24967C80.1092 2.06527 80.3667 1.88087 80.6609 1.73335C81.2494 1.43831 81.8379 1.14327 82.4632 0.958876C83.0517 0.700717 83.7137 0.590078 84.3022 0.405679C84.5965 0.33192 84.9275 0.29504 85.2218 0.25816L85.6999 0.184401C85.847 0.147521 85.9942 0.147521 86.1781 0.147521C86.4723 0.147521 86.8033 0.110641 87.0976 0.110641C87.3918 0.110641 87.6861 0.147521 87.9803 0.147521C88.5688 0.147521 89.1573 0.25816 89.7091 0.3688C91.9895 0.774477 93.9389 1.80711 95.5205 2.98726C97.0653 4.16741 98.2055 5.56884 99.0147 6.93339C99.7871 8.29795 100.302 9.55186 100.523 10.6214C100.67 11.1377 100.743 11.6171 100.78 12.0597C100.817 12.281 100.854 12.4654 100.854 12.6498C100.854 12.8342 100.854 12.9817 100.891 13.1292C100.891 13.4242 100.891 13.6455 100.927 13.793C100.927 13.8668 100.927 13.9405 100.927 13.9405Z" fill="#1A2E35"/>
<path d="M93.6808 13.5349C93.6808 13.5349 93.4969 13.6086 93.129 13.6824C92.7245 13.793 92.2095 13.9037 91.5842 14.0512C90.2969 14.3462 88.4946 14.7519 86.4717 15.1945L86.3613 15.2313V15.1207C86.3613 15.0101 86.3613 14.8625 86.3613 14.715C86.3613 12.5391 86.3613 10.6214 86.3981 9.18306C86.3981 8.51922 86.4349 7.92915 86.4349 7.52347C86.4349 7.11779 86.4717 6.89651 86.4717 6.89651C86.4717 6.89651 86.5085 7.11779 86.5085 7.52347C86.5085 7.96603 86.5085 8.51922 86.5452 9.18306C86.5452 10.5845 86.582 12.5391 86.582 14.715C86.582 14.8625 86.582 14.9732 86.582 15.1207L86.4717 15.0101C88.4946 14.5675 90.2969 14.1987 91.5842 13.9037C92.2095 13.793 92.7245 13.6824 93.129 13.6086C93.4969 13.5717 93.6808 13.5349 93.6808 13.5349Z" fill="#1A2E35"/>
<path d="M101.883 19.62C101.883 19.62 101.883 19.5463 101.957 19.3987C101.993 19.2512 102.067 19.03 102.141 18.7718C102.324 18.2186 102.508 17.4072 102.692 16.4115C103.023 14.42 103.023 11.5065 101.957 8.5561C100.89 5.60572 99.0509 3.35606 97.5429 1.99151C96.7705 1.32767 96.1084 0.811355 95.6303 0.516317C95.4096 0.368798 95.1889 0.258158 95.0786 0.147519C94.9682 0.0368797 94.8947 0 94.9314 0C94.9314 0 95.005 0.0368798 95.1521 0.110639C95.2993 0.184399 95.4832 0.295038 95.7406 0.442557C96.2188 0.737595 96.9176 1.21703 97.69 1.88087C99.2348 3.20854 101.111 5.49508 102.177 8.48234C103.244 11.4696 103.207 14.42 102.839 16.4484C102.655 17.481 102.435 18.2555 102.251 18.8087C102.177 19.0668 102.067 19.2881 102.03 19.4356C101.957 19.5463 101.92 19.62 101.883 19.62Z" fill="#1A2E35"/>
<path d="M104.532 12.8342C104.495 12.8342 104.495 12.281 104.385 11.3958C104.274 10.5107 104.054 9.33057 103.612 8.03978C103.171 6.74899 102.619 5.67948 102.178 4.905C101.736 4.13053 101.405 3.68797 101.442 3.68797C101.442 3.68797 101.553 3.79861 101.7 3.98301C101.847 4.16741 102.068 4.46245 102.288 4.83125C102.766 5.56884 103.355 6.67523 103.796 7.96602C104.238 9.25681 104.458 10.4738 104.532 11.359C104.569 11.8015 104.569 12.1703 104.569 12.4285C104.569 12.6866 104.532 12.8342 104.532 12.8342Z" fill="#1A2E35"/>
<path d="M73.4515 5.97452C73.4515 5.97452 73.4148 6.04828 73.3412 6.1958C73.2676 6.34331 73.1573 6.52771 73.047 6.78587C72.7895 7.30219 72.4585 8.07666 72.1274 9.03554C71.5021 10.9533 71.024 13.8299 71.6125 16.9278C72.1642 20.0257 73.6354 22.5335 74.9228 24.0825C75.5481 24.8938 76.1366 25.4839 76.5779 25.8527C76.7986 26.0371 76.9457 26.1846 77.0561 26.2953C77.1664 26.4059 77.24 26.4428 77.2032 26.4428C77.2032 26.4428 77.1297 26.4059 77.0193 26.2953C76.909 26.1846 76.7251 26.074 76.5044 25.8896C76.063 25.5208 75.4745 24.9307 74.8124 24.1562C73.4883 22.6073 71.9803 20.0626 71.4286 16.9278C70.8401 13.793 71.355 10.9164 72.0171 8.96178C72.3481 8.0029 72.7159 7.22843 72.9734 6.71211C73.1205 6.45395 73.2309 6.26956 73.3044 6.12204C73.4148 6.0114 73.4515 5.97452 73.4515 5.97452Z" fill="#1A2E35"/>
<path d="M69.7733 12.2441C69.8101 12.2441 69.7366 12.7973 69.6998 13.6824C69.663 14.5675 69.6998 15.7845 69.9205 17.1122C70.1412 18.4399 70.509 19.62 70.84 20.4314C71.171 21.2427 71.3917 21.7591 71.3917 21.7591C71.3917 21.7591 71.3181 21.6484 71.171 21.4271C71.0607 21.2059 70.8768 20.8739 70.6929 20.4683C70.3251 19.6569 69.9205 18.4768 69.6998 17.1491C69.4791 15.8214 69.4423 14.5675 69.5159 13.6824C69.5527 13.2398 69.5894 12.871 69.6262 12.6498C69.7366 12.3547 69.7733 12.2441 69.7733 12.2441Z" fill="#1A2E35"/>
<path d="M105.488 11.2114C105.525 11.2483 105.194 12.0228 104.716 13.0185C104.716 13.0185 104.716 13.0554 104.679 13.0554L104.605 13.2029L104.532 13.0554C103.943 12.1703 103.539 11.4327 103.576 11.3958C103.612 11.359 104.127 12.0597 104.716 12.9448H104.532C104.532 12.9448 104.532 12.9079 104.569 12.9079C105.047 11.949 105.451 11.1746 105.488 11.2114Z" fill="#1A2E35"/>
<path d="M111.741 42.338H68.5235C66.3902 42.338 64.6982 44.0713 64.6982 46.1734C64.6982 48.2756 66.427 50.0089 68.5235 50.0089H88.7531L93.2772 54.3239V50.0089H111.778C113.911 50.0089 115.603 48.2756 115.603 46.1734C115.603 44.0713 113.838 42.338 111.741 42.338Z" fill="#FAFAFA"/>
<path d="M111.741 42.338C111.741 42.338 111.778 42.338 111.888 42.338C111.999 42.338 112.109 42.338 112.293 42.3748C112.661 42.4117 113.212 42.5592 113.838 42.928C114.426 43.2968 115.125 43.9975 115.419 44.9933C115.75 45.989 115.677 47.3167 114.867 48.4231C114.463 48.9763 113.911 49.4557 113.212 49.7508C112.881 49.8983 112.477 49.9721 112.109 50.0458C111.704 50.0827 111.337 50.0458 110.932 50.0827C109.314 50.0827 107.585 50.0827 105.709 50.0827C101.994 50.0827 97.8011 50.0827 93.2402 50.0827L93.3138 50.0089C93.3138 51.3735 93.3138 52.8487 93.3138 54.3239V54.5451L93.1666 54.3976C91.7322 53.0331 90.1874 51.5579 88.6426 50.0827L88.7161 50.1196C83.3461 50.1196 77.5347 50.1196 71.5394 50.1196C70.5463 50.1196 69.5164 50.1196 68.5233 50.1196C67.4934 50.1196 66.5003 49.7139 65.7647 49.0132C65.0291 48.3125 64.5877 47.3536 64.5877 46.3578C64.5509 45.3621 64.882 44.3663 65.5073 43.6287C66.1325 42.8912 67.0521 42.4117 68.0084 42.3011C68.4865 42.2642 68.9647 42.2642 69.406 42.2642C69.8842 42.2642 70.3256 42.2642 70.7669 42.2642C72.606 42.2642 74.3715 42.2642 76.137 42.2642C83.1254 42.2642 89.3782 42.2642 94.6747 42.3011C99.9344 42.3011 104.201 42.338 107.18 42.338C108.651 42.338 109.792 42.338 110.564 42.338C110.932 42.338 111.226 42.338 111.447 42.338C111.631 42.338 111.741 42.338 111.741 42.338C111.741 42.338 111.631 42.338 111.447 42.338C111.226 42.338 110.932 42.338 110.564 42.338C109.792 42.338 108.651 42.338 107.18 42.338C104.238 42.338 99.9711 42.338 94.6747 42.3748C89.415 42.3748 83.1254 42.3748 76.137 42.4117C74.4083 42.4117 72.606 42.4117 70.7669 42.4117C70.3256 42.4117 69.8474 42.4117 69.406 42.4117C68.9647 42.4117 68.4865 42.4117 68.0451 42.4486C67.1256 42.5592 66.2797 43.0387 65.6912 43.7394C65.1027 44.4401 64.7716 45.399 64.8084 46.321C64.8452 47.2798 65.2498 48.2018 65.9486 48.8657C66.6475 49.5295 67.6038 49.9352 68.5601 49.8983C69.5532 49.8983 70.5463 49.8983 71.5761 49.8983C77.6082 49.8983 83.4196 49.8983 88.7529 49.8983H88.7897L88.8265 49.9352C90.4081 51.4473 91.9161 52.8856 93.3505 54.2501L93.2034 54.3239C93.2034 52.8118 93.2034 51.3366 93.2034 50.0089V49.9352H93.277C97.8378 49.9352 102.031 49.9352 105.746 49.9352C107.622 49.9352 109.35 49.9352 110.969 49.9352C111.373 49.9352 111.778 49.9352 112.146 49.9352C112.513 49.8983 112.881 49.7877 113.212 49.677C113.874 49.382 114.426 48.9394 114.831 48.3862C115.603 47.3167 115.677 45.989 115.382 45.0302C115.088 44.0344 114.426 43.3706 113.838 42.9649C113.249 42.5592 112.697 42.4486 112.33 42.3748C111.925 42.3748 111.741 42.3748 111.741 42.338Z" fill="#1A2E35"/>
<path d="M87.4287 48.9026H68.4864C66.9784 48.9026 65.7646 47.6855 65.7646 46.1734C65.7646 44.6614 66.9784 43.4443 68.4864 43.4443H87.4287C88.9367 43.4443 90.1505 44.6614 90.1505 46.1734C90.1137 47.6855 88.9 48.9026 87.4287 48.9026Z" fill="#FFCC47"/>
<path d="M106.775 46.911H106.223L106.076 47.6118H105.672L105.819 46.911H104.237L104.274 46.616L106.076 44.7351H106.555L104.826 46.5422H105.892L106.003 45.9153H106.371L106.26 46.5422H106.812L106.775 46.911Z" fill="#1A2E35"/>
<path d="M107.952 45.1039L107.732 45.8784H108.026C108.762 45.8784 109.093 46.1734 109.093 46.6529C109.093 47.243 108.614 47.6486 107.879 47.6486C107.437 47.6486 107.07 47.5011 106.886 47.2798L107.106 46.9479C107.254 47.1323 107.548 47.243 107.916 47.243C108.394 47.243 108.688 47.0217 108.688 46.6529C108.688 46.3578 108.467 46.2103 107.952 46.2103H107.254L107.695 44.6983H109.313L109.24 45.0671H107.952V45.1039Z" fill="#1A2E35"/>
<path d="M109.534 45.6571C109.534 45.1408 109.828 44.7351 110.307 44.7351C110.674 44.7351 110.895 44.9564 110.895 45.3621C110.895 45.8784 110.601 46.2841 110.123 46.2841C109.755 46.2841 109.534 46.0628 109.534 45.6571ZM112.072 44.7351H112.403L109.902 47.6118H109.571L112.072 44.7351ZM110.638 45.3621C110.638 45.1039 110.527 44.9564 110.307 44.9564C109.976 44.9564 109.828 45.3252 109.828 45.6571C109.828 45.9153 109.939 46.0628 110.159 46.0628C110.49 46.0628 110.638 45.694 110.638 45.3621ZM111.079 47.0217C111.079 46.5054 111.373 46.0997 111.851 46.0997C112.182 46.0997 112.44 46.321 112.44 46.7266C112.44 47.243 112.146 47.6486 111.667 47.6486C111.3 47.6486 111.079 47.4274 111.079 47.0217ZM112.182 46.7266C112.182 46.4685 112.072 46.321 111.851 46.321C111.52 46.321 111.373 46.6898 111.373 47.0217C111.373 47.2798 111.52 47.4274 111.704 47.4274C111.999 47.4274 112.182 47.0586 112.182 46.7266Z" fill="#1A2E35"/>
<g opacity="0.3">
<path d="M69.2225 43.4812L67.457 48.9026H69.2225L70.8777 43.4812H69.2225Z" fill="white"/>
</g>
<g opacity="0.3">
<path d="M73.5624 43.4812L71.7969 48.9026H73.5624L75.2175 43.4812H73.5624Z" fill="white"/>
</g>
<g opacity="0.3">
<path d="M77.8654 43.4812L76.1367 48.9026H77.8654L79.5206 43.4812H77.8654Z" fill="white"/>
</g>
<g opacity="0.3">
<path d="M82.2062 43.4812L80.4775 48.9026H82.2062L83.8614 43.4812H82.2062Z" fill="white"/>
</g>
<g opacity="0.3">
<path d="M86.5458 43.4812L84.7803 48.9026H86.5458L88.2009 43.4812H86.5458Z" fill="white"/>
</g>
<path d="M20.8916 120.265C20.8916 120.265 30.1972 124.469 39.9074 124.469C48.882 124.469 58.4083 119.933 58.4083 119.933L20.8916 120.265Z" fill="#E1E1E1"/>
<path d="M40.9372 120.339H37.0752V160.759H40.9372V120.339Z" fill="#E1E1E1"/>
<path d="M56.0547 158.399H21.9219V160.759H56.0547V158.399Z" fill="#E1E1E1"/>
<path d="M23.5031 164.152C24.9453 164.152 26.1145 162.979 26.1145 161.533C26.1145 160.087 24.9453 158.915 23.5031 158.915C22.0608 158.915 20.8916 160.087 20.8916 161.533C20.8916 162.979 22.0608 164.152 23.5031 164.152Z" fill="#1A2E35"/>
<path d="M38.6574 164.152C40.0996 164.152 41.2688 162.979 41.2688 161.533C41.2688 160.087 40.0996 158.915 38.6574 158.915C37.2151 158.915 36.0459 160.087 36.0459 161.533C36.0459 162.979 37.2151 164.152 38.6574 164.152Z" fill="#1A2E35"/>
<path d="M56.2384 164.152C57.6807 164.152 58.8499 162.979 58.8499 161.533C58.8499 160.087 57.6807 158.915 56.2384 158.915C54.7961 158.915 53.627 160.087 53.627 161.533C53.627 162.979 54.7961 164.152 56.2384 164.152Z" fill="#1A2E35"/>
<path d="M39.9075 134.906H34.6846V137.082H39.9075V134.906Z" fill="#E1E1E1"/>
<path d="M35.6411 133.357H33.7285V138.557H35.6411V133.357Z" fill="#E1E1E1"/>
<path d="M35.6037 115.139H15.7051V63.0275C15.7051 60.6672 17.6177 58.7494 19.9717 58.7494H35.5669V115.139H35.6037Z" fill="#375A64"/>
<path d="M20.1191 114.253C20.0824 114.253 20.0088 102.009 20.0088 86.9256C20.0088 71.8417 20.0456 59.5977 20.1191 59.5977C20.1559 59.5977 20.2295 71.8417 20.2295 86.9256C20.1927 102.046 20.1559 114.253 20.1191 114.253Z" fill="#1A2E35"/>
<path d="M64.9182 121.15H18.6476C17.0292 121.15 15.7051 119.822 15.7051 118.2V114.991H64.9182V121.15Z" fill="#375A64"/>
<path d="M43.5847 36.4741L41.4514 56.8686C41.0836 60.3353 41.2675 65.4984 46.7479 65.8303C51.5295 65.7566 53.2214 61.3679 53.5524 58.1225C53.6995 56.5735 53.8467 55.3196 53.8834 55.1352C53.8834 55.1352 59.1064 55.209 60.0259 50.0827C60.4673 47.6117 60.9454 42.4855 61.35 37.8017C61.7546 32.7861 58.2972 28.2868 53.3317 27.4754L52.8536 27.4016C47.4835 26.8485 43.9893 31.0896 43.5847 36.4741Z" fill="#FFBF9D"/>
<path d="M53.8469 55.1721C53.8469 55.1721 50.6101 54.8402 47.5205 52.1111C47.5205 52.1111 48.5136 56.131 53.6629 56.4998L53.8469 55.1721Z" fill="#FF9A6C"/>
<path d="M52.3754 39.1294C52.2651 39.24 51.7134 38.6868 50.8674 38.5762C50.0214 38.4656 49.3226 38.8344 49.249 38.7237C49.2122 38.6868 49.3226 38.5025 49.6168 38.3181C49.9111 38.1337 50.3892 38.023 50.9409 38.0599C51.4559 38.1337 51.8973 38.3918 52.1179 38.6131C52.3754 38.8712 52.4122 39.0925 52.3754 39.1294Z" fill="#1A2E35"/>
<path d="M52.3019 41.1209C52.2652 41.4897 51.8973 41.7479 51.5295 41.711C51.1617 41.6741 50.8675 41.3422 50.941 40.9734C50.9778 40.6046 51.3456 40.3464 51.7134 40.3833C52.0813 40.4202 52.3387 40.7521 52.3019 41.1209Z" fill="#1A2E35"/>
<path d="M53.957 45.3252C53.957 45.2883 54.472 45.2883 55.2812 45.3252C55.5018 45.3252 55.6857 45.3252 55.7225 45.2146C55.7961 45.067 55.7593 44.8458 55.6857 44.5876C55.5754 44.0713 55.4651 43.5181 55.3547 42.9649C54.8766 40.6415 54.5823 38.7606 54.6927 38.7606C54.803 38.7606 55.2444 40.6046 55.6857 42.928C55.7961 43.4812 55.9064 44.0344 55.98 44.5507C56.0168 44.8089 56.0903 45.067 55.9432 45.3621C55.8697 45.5096 55.6857 45.5834 55.5754 45.5834C55.4283 45.5834 55.3179 45.5834 55.2444 45.5834C54.472 45.4358 53.957 45.3621 53.957 45.3252Z" fill="#1A2E35"/>
<path d="M52.3022 35.8471C52.1918 36.0315 51.5298 35.8102 50.6838 35.7734C49.8746 35.7365 49.1758 35.8471 49.1022 35.6627C49.0655 35.589 49.2126 35.4046 49.5068 35.257C49.8011 35.1095 50.2424 34.9989 50.7574 35.0358C51.2355 35.0726 51.6769 35.2202 51.9712 35.4046C52.2286 35.589 52.339 35.7734 52.3022 35.8471Z" fill="#1A2E35"/>
<path d="M60.3201 38.2074C60.2098 38.3549 59.5477 38.1337 58.7385 38.023C57.9293 37.9124 57.2305 37.9493 57.1569 37.8017C57.1201 37.728 57.2673 37.5805 57.5615 37.5067C57.8558 37.3961 58.2971 37.3592 58.7753 37.4329C59.2534 37.5067 59.6948 37.6542 59.9523 37.8386C60.2465 37.9861 60.3569 38.1337 60.3201 38.2074Z" fill="#1A2E35"/>
<path d="M43.3644 40.3096C43.2908 40.2727 40.0173 38.6868 39.5759 42.1904C39.0978 45.694 42.7023 45.4358 42.7391 45.3621C42.7391 45.2883 43.3644 40.3096 43.3644 40.3096Z" fill="#FFBF9D"/>
<path d="M41.8196 43.8869C41.8196 43.8869 41.746 43.9238 41.6356 43.9606C41.5253 43.9975 41.3414 43.9975 41.1943 43.9238C40.8265 43.7394 40.6058 43.1124 40.6793 42.4855C40.7161 42.1535 40.8265 41.8585 40.9736 41.6372C41.1207 41.3791 41.3046 41.2315 41.4885 41.2315C41.6724 41.2315 41.7828 41.3422 41.8196 41.4528C41.8563 41.5635 41.8196 41.6372 41.8563 41.6372C41.8563 41.6372 41.9299 41.6003 41.9299 41.4528C41.9299 41.3791 41.8931 41.3053 41.8196 41.2315C41.746 41.1578 41.6356 41.084 41.4885 41.084C41.2311 41.084 40.9368 41.2684 40.7897 41.5266C40.6058 41.7847 40.4954 42.1167 40.4587 42.4855C40.3851 43.1862 40.6426 43.9238 41.1575 44.1082C41.3782 44.2188 41.5989 44.145 41.746 44.1082C41.8196 43.9975 41.8563 43.9238 41.8196 43.8869Z" fill="#FF9A6C"/>
<path d="M52.9272 47.6855C52.964 47.6118 52.3019 47.3167 51.8973 46.6529C51.6766 46.321 51.5663 45.9522 51.4927 45.694C51.4192 45.4358 51.3456 45.2514 51.3088 45.2514C51.2721 45.2514 51.2721 45.4358 51.3088 45.7309C51.3456 46.0259 51.4192 46.4316 51.6766 46.8004C51.8973 47.2061 52.2651 47.4274 52.5226 47.5749C52.7433 47.6855 52.8904 47.7224 52.9272 47.6855Z" fill="#1A2E35"/>
<path d="M39.2078 34.1875C40.0537 33.0074 40.348 31.5322 40.8997 30.2045C41.4146 28.84 42.3342 27.4754 43.7318 27.1435H43.7686C45.0192 26.7747 46.5272 26.8853 47.4467 27.8442C47.8513 26.0371 49.58 24.7463 51.4191 24.4144C53.2582 24.1193 56.0903 24.6725 57.7454 25.5208C59.0328 26.1846 60.2098 27.4016 61.6075 29.135C62.196 29.8726 62.7477 30.6471 63.189 31.4953L64.2925 36.4372L62.7477 38.8344C62.6373 38.9819 62.5638 39.1663 62.4534 39.3138L60.7615 44.5138C60.8351 43.0755 61.3868 38.023 61.4603 36.5847C59.2535 36.2897 57.3041 35.1833 55.9799 33.413C55.2811 32.4542 54.7662 31.3109 53.7363 30.6839C52.449 29.8726 50.757 30.2414 49.2858 30.5733L49.3594 30.5364C48.587 30.7946 47.8513 31.2371 47.226 31.7903C47.2996 34.667 46.7111 37.5436 45.5709 40.1989C45.387 40.6046 44.9456 41.416 44.541 41.5266C43.7318 41.7479 43.5847 40.9365 43.1434 40.4571C42.8123 40.1252 42.2974 40.0145 41.7457 39.9776C41.4882 39.0556 41.3043 37.5436 41.1204 36.2159C40.6422 36.3265 40.1273 36.3265 39.6491 36.179C39.8331 35.8471 40.017 35.4783 40.2009 35.1464C39.9802 35.257 39.7595 35.3677 39.5388 35.3677C39.3181 35.3677 39.0606 35.257 38.9503 35.0358C38.84 34.7407 39.0239 34.4457 39.2078 34.1875Z" fill="#1A2E35"/>
<path d="M48.9912 28.5818C48.9912 28.5818 48.7706 28.6924 48.4395 28.9875C48.1085 29.2825 47.7407 29.8357 47.4832 30.6102C47.3729 30.979 47.2625 31.4215 47.2257 31.901C47.189 32.3804 47.189 32.8967 47.1522 33.413C47.1522 33.9662 47.1154 34.5194 47.0418 35.1095C47.0051 35.4046 46.9315 35.6996 46.8579 35.9946C46.7844 36.2897 46.674 36.5847 46.4166 36.806C46.2327 36.9904 45.9384 37.0641 45.6809 36.9904C45.4235 36.9166 45.2028 36.7691 45.0557 36.5478C44.7614 36.1422 44.7246 35.6258 44.6879 35.1833L44.7982 35.2202C44.5775 35.589 44.3568 35.9578 44.0626 36.2528C43.7683 36.5478 43.4005 36.6953 43.0327 36.6953C42.8488 36.6953 42.6649 36.6585 42.5178 36.5478C42.3706 36.4372 42.2603 36.3266 42.1867 36.1422C42.1132 35.9946 42.1132 35.8102 42.1132 35.6627C42.15 35.5152 42.2235 35.3677 42.2971 35.2939L42.3339 35.3308C41.8925 35.7365 41.4511 35.9578 41.1569 36.0684C41.0097 36.1053 40.8994 36.1422 40.7891 36.179C40.7155 36.179 40.6787 36.2159 40.6787 36.2159C40.6787 36.2159 40.7155 36.2159 40.7891 36.179C40.8626 36.1422 40.973 36.1053 41.1201 36.0684C41.4143 35.9578 41.8557 35.7365 42.2603 35.3308L42.2971 35.3677C42.1132 35.5521 42.0764 35.8471 42.1867 36.1422C42.2603 36.2897 42.3339 36.4003 42.481 36.4741C42.6281 36.5478 42.7752 36.5847 42.9591 36.5847C43.2902 36.5847 43.658 36.4372 43.9154 36.1422C44.2097 35.884 44.3936 35.5152 44.6143 35.1464L44.6879 34.9989V35.1833C44.7246 35.6258 44.7614 36.1053 45.0557 36.4741C45.2028 36.6585 45.3867 36.806 45.6074 36.8429C45.8281 36.9166 46.0855 36.8429 46.2327 36.6953C46.4533 36.5109 46.5637 36.2159 46.6373 35.9209C46.7108 35.6258 46.7844 35.3308 46.8212 35.0726C46.8947 34.4826 46.9315 33.9294 46.9315 33.413C46.9315 32.8599 46.9683 32.3804 47.0051 31.901C47.0418 31.4215 47.1522 30.979 47.2625 30.5733C47.52 29.7988 47.9246 29.2456 48.2556 28.9137C48.7706 28.6556 48.9912 28.5818 48.9912 28.5818Z" fill="#375A64"/>
<path d="M64.4032 35.0358C64.4032 35.0358 64.4032 35.0358 64.3664 35.0726C64.3296 35.1095 64.2928 35.1095 64.2193 35.1464C64.1457 35.1833 64.0721 35.2201 63.9986 35.257C63.8882 35.2939 63.8147 35.3677 63.6675 35.4045C63.1526 35.5889 62.3802 35.7365 61.4239 35.5889C60.4676 35.4414 59.3641 34.9989 58.4446 34.1506C57.4883 33.3024 56.6791 32.1591 56.0538 30.8315C55.7228 30.1676 55.5021 29.5038 55.2079 28.8768C54.9136 28.2499 54.6194 27.6598 54.2148 27.2172C53.8102 26.7378 53.332 26.369 52.8171 26.1846C52.5596 26.074 52.3022 26.0371 52.0447 26.0371C51.7872 26.0371 51.5298 26.074 51.3091 26.1109C50.8677 26.2215 50.4631 26.4428 50.1689 26.664C49.8746 26.8853 49.6539 27.1435 49.5068 27.3648C49.2126 27.8073 49.1758 28.1024 49.1758 28.1024V28.0655C49.1758 28.0286 49.2126 27.9548 49.2126 27.918C49.2493 27.7704 49.3229 27.586 49.47 27.3648C49.6172 27.1435 49.8011 26.8853 50.1321 26.6272C50.4263 26.4059 50.8309 26.1846 51.2723 26.0371C51.493 25.9633 51.7505 25.9633 52.0079 25.9633C52.2654 25.9633 52.5596 26.0371 52.8171 26.1109C53.332 26.2953 53.847 26.7009 54.2516 27.1804C54.6562 27.6598 54.9872 28.2499 55.2814 28.8768C55.5757 29.5038 55.7964 30.1676 56.1274 30.8315C56.7527 32.1223 57.5251 33.3024 58.4814 34.1138C59.4009 34.962 60.4676 35.4045 61.4239 35.5521C62.3434 35.6996 63.1158 35.5521 63.6308 35.4045C64.1457 35.1833 64.4032 35.0358 64.4032 35.0358Z" fill="#375A64"/>
<path d="M60.1733 40.162C60.0629 40.2727 59.5112 39.7195 58.6652 39.6088C57.8193 39.4982 57.1204 39.867 57.0469 39.7564C57.0101 39.7195 57.1204 39.5351 57.4147 39.3507C57.7089 39.1663 58.1871 39.0557 58.7388 39.0925C59.2537 39.1663 59.6951 39.4244 59.9158 39.6457C60.1733 39.9408 60.21 40.1252 60.1733 40.162Z" fill="#1A2E35"/>
<path d="M59.4377 41.7848C59.4009 42.1536 59.0331 42.4117 58.6653 42.3748C58.2975 42.3379 58.0032 42.006 58.0768 41.6372C58.1136 41.2684 58.4814 41.0103 58.8492 41.0472C59.217 41.084 59.4745 41.416 59.4377 41.7848Z" fill="#1A2E35"/>
<path d="M62.8213 30.8315C63.1892 31.4584 63.8144 32.0485 64.5501 32.0485C64.7707 32.0485 65.3225 31.901 65.3225 31.901C65.5431 32.0854 65.396 32.9336 65.2121 33.1549C65.0282 33.3762 64.6236 33.6712 64.6236 33.6712C65.4328 34.2244 66.2052 34.0769 67.1247 33.8187C66.7937 35.3308 65.6167 36.6216 64.1455 37.101C63.6673 37.2485 63.1156 37.2854 62.711 36.9904C62.38 36.7322 62.2696 36.2528 62.1961 35.8102C61.9386 34.2244 61.9018 32.6017 62.0489 31.0159L62.8213 30.8315Z" fill="#1A2E35"/>
<path d="M53.3322 59.9296C53.3322 59.9296 56.569 61.2573 58.408 65.7566C59.6954 68.9283 66.9045 78.8858 66.9045 78.8858L86.0674 83.1638L86.7295 89.2859L56.0908 89.0277L51.8242 75.456L53.3322 59.9296Z" fill="#25C883"/>
<path d="M40.4223 54.287L37.0385 55.7253C33.9121 57.053 29.8661 60.0771 28.5052 63.2488C25.2685 70.8091 22.326 80.5454 21.2226 89.1384C20.0824 97.8051 22.3628 110.639 22.3628 110.639L51.0888 94.1909L49.3969 93.0107L54.8405 63.2857L53.8106 59.6714L54.4727 56.6473C54.4727 56.6473 46.859 53.5863 41.3051 51.3735L40.4223 54.287Z" fill="#25C883"/>
<g opacity="0.3">
<path d="M37.6637 102.046C37.774 100.571 37.8844 99.0959 37.9947 97.5838C37.6637 97.9157 37.2223 98.1001 36.7442 98.1001C37.4798 97.3994 38.1051 96.6249 38.6568 95.8136C38.2154 95.998 37.774 96.1824 37.3327 96.3668C37.8108 95.998 38.1786 95.5554 38.4361 95.0391C37.7373 94.4859 36.7442 94.5966 35.8614 94.6703C31.3006 95.1498 26.7397 94.8178 22.1789 94.5228C21.811 94.4859 21.149 94.3384 20.8547 94.154C20.8547 94.154 20.7444 92.9001 20.9651 92.4207C21.1858 91.9412 21.48 92.0887 21.9582 91.9043C22.4363 91.7199 22.9513 91.6831 23.4662 91.6831C29.0201 91.388 34.5741 91.8306 40.128 92.31C40.4591 92.3469 40.8269 92.3838 41.0843 92.6051C41.5257 92.9738 41.4889 93.6746 41.4154 94.2278C41.1211 96.293 40.8637 98.3952 40.5694 100.46" fill="black"/>
</g>
<path d="M54.5097 62.0686C54.5097 62.0686 54.5097 62.1793 54.4729 62.3637C54.4361 62.5481 54.3993 62.8431 54.3626 63.175C54.2522 63.8757 54.1051 64.8715 53.8844 66.0885C53.443 68.5226 52.8177 71.9155 52.0086 75.6404C51.2362 79.3652 50.5005 82.7213 49.9488 85.1553C49.6914 86.3355 49.4339 87.3312 49.2868 88.032C49.2132 88.3639 49.1396 88.622 49.1029 88.8064C49.0661 88.9908 49.0293 89.0646 49.0293 89.0646C49.0293 89.0646 49.0293 88.954 49.0661 88.7696C49.1029 88.5852 49.1396 88.327 49.2132 87.9951C49.3603 87.2944 49.581 86.2986 49.8017 85.1185C50.3166 82.6844 51.0155 79.3283 51.8247 75.6035C52.5971 71.8786 53.2591 68.5226 53.7373 66.0885C53.958 64.8715 54.1419 63.9126 54.289 63.175C54.3626 62.8431 54.3993 62.5849 54.4361 62.4005C54.4729 62.1793 54.5097 62.0686 54.5097 62.0686Z" fill="#1A2E35"/>
<path d="M28.5049 104.259C28.5049 104.259 28.5417 104.185 28.6888 104.075C28.8359 103.964 28.983 103.78 29.2037 103.595C29.4244 103.374 29.7187 103.153 30.0497 102.858C30.3807 102.599 30.7485 102.268 31.1899 101.936C32.0359 101.272 33.1025 100.497 34.2795 99.686C35.4933 98.9115 36.8542 98.0633 38.2887 97.2888C39.7599 96.5143 41.1944 95.8505 42.5185 95.2973C43.8426 94.7441 45.0564 94.3384 46.123 94.0065C46.638 93.8221 47.1161 93.7114 47.5207 93.6008C47.9253 93.4902 48.2931 93.3795 48.5874 93.3058C48.8816 93.232 49.1023 93.1951 49.2862 93.1583C49.4333 93.1214 49.5069 93.1214 49.5437 93.1214C49.5437 93.1214 49.4701 93.1582 49.323 93.1951C49.1391 93.232 48.9184 93.3058 48.6609 93.3795C48.3667 93.4533 47.9989 93.5639 47.5943 93.6746C47.1897 93.7852 46.7115 93.9327 46.1966 94.1171C45.1667 94.449 43.9529 94.8916 42.6288 95.4448C41.3047 95.998 39.8702 96.6618 38.399 97.4363C36.9278 98.2108 35.6036 99.0221 34.3899 99.7966C33.1761 100.571 32.1462 101.346 31.3002 102.009C30.8589 102.341 30.4911 102.636 30.16 102.931C29.829 103.19 29.5348 103.448 29.3141 103.632C29.0934 103.816 28.9095 103.964 28.7623 104.075C28.5784 104.222 28.5049 104.259 28.5049 104.259Z" fill="#1A2E35"/>
<path d="M37.0087 96.9113C40.4874 95.012 43.2838 93.4288 43.2547 93.3751C43.2256 93.3215 40.3819 94.8177 36.9032 96.717C33.4245 98.6163 30.6281 100.199 30.6573 100.253C30.6864 100.307 33.5301 98.8106 37.0087 96.9113Z" fill="#1A2E35"/>
<g opacity="0.3">
<path d="M33.1768 70.6247C34.979 78.3695 40.4226 85.266 47.6685 88.4376C42.8502 83.3114 37.5905 76.8574 33.1768 70.6247Z" fill="black"/>
</g>
<g opacity="0.3">
<path d="M54.0311 64.724C54.7299 68.0063 54.215 72.0999 52.5599 75.0134L52.1553 74.1652C52.7438 71.6942 53.5897 67.3424 54.0311 64.724Z" fill="black"/>
</g>
<path d="M69.3312 142.872L65.8738 153.272C65.8738 153.272 75.253 160.279 74.8116 162.271L54.4717 156.296L59.1797 139.885L69.3312 142.872Z" fill="#375A64"/>
<g opacity="0.3">
<path d="M69.3312 142.872L65.8738 153.272C65.8738 153.272 75.253 160.279 74.8116 162.271L54.4717 156.296L59.1797 139.885L69.3312 142.872Z" fill="black"/>
</g>
<path d="M59.8417 150.543C59.4003 150.543 59.0325 150.912 58.9957 151.318C58.9589 151.76 59.3267 152.166 59.7681 152.166C60.2095 152.166 60.6876 151.76 60.6509 151.318C60.6141 150.875 60.1727 150.432 59.7681 150.506" fill="#E1E1E1"/>
<g opacity="0.6">
<path d="M54.4717 156.296L55.0234 154.674L74.3335 161.017C74.3335 161.017 75.1059 161.681 74.8484 162.271L54.4717 156.296Z" fill="white"/>
</g>
<path d="M66.2416 153.272C66.2048 153.383 65.6899 153.272 65.1014 153.457C64.5129 153.604 64.1451 153.973 64.0715 153.899C63.9979 153.862 64.2922 153.309 65.0278 153.088C65.7267 152.903 66.2784 153.198 66.2416 153.272Z" fill="#1A2E35"/>
<path d="M68.1173 154.784C68.1173 154.895 67.6392 154.932 67.161 155.264C66.6829 155.559 66.4622 156.001 66.3886 155.964C66.2783 155.964 66.3886 155.337 66.9771 154.969C67.5288 154.563 68.1541 154.674 68.1173 154.784Z" fill="#1A2E35"/>
<path d="M68.5956 157.698C68.4853 157.698 68.5221 157.145 68.9267 156.702C69.3313 156.223 69.883 156.149 69.883 156.259C69.9198 156.37 69.5152 156.555 69.1841 156.96C68.8163 157.292 68.6692 157.735 68.5956 157.698Z" fill="#1A2E35"/>
<path d="M66.7568 150.801C66.6832 150.875 66.2786 150.617 65.6901 150.469C65.1384 150.322 64.6235 150.396 64.5867 150.285C64.5499 150.211 65.1016 149.953 65.7637 150.101C66.4625 150.285 66.8303 150.764 66.7568 150.801Z" fill="#1A2E35"/>
<path d="M75.2531 147.519L74.8117 158.472C74.8117 158.472 85.7725 162.603 85.8828 164.631L64.6969 164.557L64.6602 147.482L75.2531 147.519Z" fill="#375A64"/>
<path d="M68.2642 157.513C67.8596 157.624 67.5654 158.103 67.6757 158.509C67.7861 158.915 68.2274 159.21 68.632 159.099C69.0366 158.989 69.4044 158.435 69.2573 158.067C69.1102 157.661 68.5585 157.366 68.1907 157.55" fill="#E1E1E1"/>
<g opacity="0.6">
<path d="M64.6973 164.557L64.7708 162.824L85.074 163.525C85.074 163.525 86.0303 163.93 85.92 164.594L64.6973 164.557Z" fill="white"/>
</g>
<path d="M75.1791 158.362C75.1791 158.472 74.6641 158.509 74.1492 158.841C73.6343 159.173 73.3768 159.616 73.2665 159.579C73.1561 159.542 73.34 158.952 73.9653 158.546C74.5538 158.14 75.1791 158.251 75.1791 158.362Z" fill="#1A2E35"/>
<path d="M77.3864 159.284C77.4232 159.394 76.945 159.542 76.614 159.984C76.2462 160.427 76.1726 160.869 76.0623 160.869C75.9519 160.869 75.8784 160.279 76.3565 159.726C76.7979 159.247 77.3864 159.21 77.3864 159.284Z" fill="#1A2E35"/>
<path d="M78.6365 161.976C78.5262 162.013 78.4158 161.496 78.6733 160.906C78.9307 160.353 79.4089 160.132 79.4825 160.206C79.556 160.279 79.225 160.611 79.0043 161.054C78.7836 161.533 78.7468 161.939 78.6365 161.976Z" fill="#1A2E35"/>
<path d="M74.9961 155.854C74.9593 155.964 74.4812 155.817 73.8927 155.854C73.3042 155.891 72.8628 156.075 72.7892 156.001C72.7157 155.928 73.157 155.559 73.8559 155.522C74.5547 155.448 75.0329 155.78 74.9961 155.854Z" fill="#1A2E35"/>
<path d="M49.874 93.9327C49.874 93.9327 75.2897 100.571 78.4161 104.96C81.0644 108.685 67.0876 146.781 67.0876 146.781L56.0532 145.823L60.798 113.958L32.3662 104.886L36.6696 93.9327H49.874Z" fill="#1A2E35"/>
<path d="M51.6765 99.9072C51.6765 99.9072 77.644 106.251 80.2554 110.713C81.4692 112.815 80.66 119.712 80.2186 122.957C79.9244 125.133 75.3268 155.817 75.3268 155.817H64.1085L64.366 121.187L37.3687 115.729C37.3687 115.729 22.8769 116.835 22.3252 110.639L28.3573 102.415L42.6284 95.3341L51.6765 99.9072Z" fill="#1A2E35"/>
<path d="M49.727 99.0959C49.727 99.0959 49.8373 99.1328 50.0948 99.2065C50.3523 99.2803 50.7201 99.3909 51.1982 99.5015C52.1545 99.7597 53.589 100.165 55.4281 100.682C57.2671 101.198 59.5108 101.825 62.1222 102.599C64.7337 103.374 67.6762 104.296 70.8761 105.513C72.4945 106.103 74.1496 106.804 75.8416 107.578C76.2829 107.763 76.6875 107.984 77.1289 108.168C77.5703 108.39 77.9749 108.611 78.3795 108.869C78.7841 109.127 79.1887 109.422 79.5565 109.754C79.9243 110.086 80.2553 110.492 80.5128 110.934C81.3955 114.917 80.8438 119.269 80.2185 123.732C79.9243 125.981 79.5565 128.268 79.2254 130.628C78.8944 132.988 78.5266 135.349 78.1588 137.783C77.4232 142.651 76.6875 147.703 75.9151 152.867C75.768 153.862 75.6209 154.821 75.4738 155.78V155.854H75.4002C71.575 155.854 67.8233 155.854 64.182 155.854H64.0716V155.743C64.182 142.614 64.2555 130.739 64.3291 121.113L64.4027 121.187C56.3476 119.527 49.7638 118.2 45.2397 117.278C42.9593 116.798 41.1938 116.429 40.0168 116.208C39.4283 116.097 38.9501 115.987 38.6559 115.913C38.3616 115.839 38.1777 115.802 38.1777 115.802C38.1777 115.802 38.3249 115.839 38.6559 115.876C38.9501 115.95 39.4283 116.024 40.0168 116.134C41.2306 116.356 42.9961 116.724 45.2765 117.167C49.8373 118.089 56.3844 119.38 64.4762 121.002H64.5498V121.076C64.4762 130.702 64.4027 142.577 64.3291 155.706L64.2188 155.596C67.8601 155.596 71.6118 155.596 75.437 155.596L75.3266 155.669C75.4738 154.711 75.6209 153.715 75.768 152.756C76.5404 147.593 77.3128 142.54 78.0117 137.672C78.3795 135.238 78.7473 132.841 79.0783 130.517C79.4093 128.157 79.7772 125.871 80.0714 123.621C80.2185 122.515 80.3657 121.408 80.5128 120.302C80.6599 119.195 80.7702 118.126 80.807 117.056C80.8438 115.987 80.8438 114.917 80.807 113.885C80.7702 113.368 80.7702 112.852 80.6967 112.336C80.6599 111.819 80.6231 111.303 80.4024 110.897C80.1817 110.455 79.8507 110.086 79.4829 109.754C79.1151 109.422 78.7473 109.127 78.3427 108.869C77.9381 108.611 77.5335 108.39 77.0921 108.168C76.6508 107.984 76.2462 107.763 75.8048 107.578C74.1129 106.804 72.4577 106.14 70.8761 105.513C67.6762 104.296 64.7337 103.374 62.159 102.563C59.5476 101.788 57.3039 101.124 55.4648 100.608C53.6258 100.092 52.1913 99.6491 51.235 99.3909C50.7569 99.2434 50.3891 99.1328 50.1316 99.059C49.8373 99.1328 49.727 99.0959 49.727 99.0959Z" fill="#375A64"/>
<path d="M85.6631 83.422C85.8103 83.1638 87.9804 80.6929 88.5689 80.6929C89.1574 80.6929 89.8194 81.3567 89.8194 81.3567C89.8194 81.3567 90.555 81.0248 91.07 81.2092C91.5481 81.3567 93.8653 83.3482 93.8653 84.1227C93.8653 84.8972 93.8653 85.3766 93.8653 85.3766C93.8653 85.3766 93.9389 85.7823 93.8653 86.3724C93.7918 86.9624 92.3941 87.9582 92.3941 87.9582H84.4862C84.4862 87.9582 82.9781 86.9256 83.162 85.9667C83.3092 84.9709 85.6631 83.422 85.6631 83.422Z" fill="#FFBF9D"/>
<path d="M89.819 81.3567C89.819 81.3567 90.0029 81.4305 90.2972 81.6518C90.6282 81.873 91.0696 82.1312 91.6213 82.4631C91.7684 82.5738 91.9155 82.6475 92.0627 82.7581C92.2098 82.8688 92.3201 83.0532 92.3937 83.2376C92.4672 83.422 92.4672 83.6433 92.4672 83.8645C92.4672 84.0858 92.504 84.2702 92.504 84.4915C92.5408 85.3766 92.5776 86.2986 92.6511 87.2944C92.6511 87.4419 92.6511 87.5894 92.6879 87.7369V87.8107L92.6144 87.8476C92.4672 87.8844 92.2833 87.9213 92.1362 87.9582C91.9155 87.9582 91.6948 87.8476 91.5109 87.7369C91.327 87.5894 91.2167 87.4419 91.1063 87.2575C90.8857 86.8887 90.7753 86.5568 90.7018 86.188C90.5178 85.4872 90.4443 84.8234 90.4443 84.2702L90.4811 84.344C89.9293 84.1227 89.4512 83.9383 89.0834 83.7908C88.7524 83.6433 88.5684 83.5695 88.6052 83.5695C88.6052 83.5695 88.7891 83.6064 89.1202 83.717C89.488 83.8277 89.9661 84.0121 90.5178 84.1965H90.5546V84.2333C90.5914 84.7865 90.665 85.4135 90.8489 86.1142C90.9592 86.4461 91.0696 86.8149 91.2535 87.1468C91.4374 87.4788 91.7316 87.7738 92.1362 87.7738H92.0994C92.2466 87.7369 92.4305 87.7 92.5776 87.6632L92.504 87.7738C92.504 87.6263 92.504 87.4788 92.4672 87.3312C92.4305 86.3355 92.3937 85.3766 92.3569 84.5284C92.3569 84.3071 92.3569 84.0858 92.3201 83.9014C92.3201 83.6801 92.3201 83.4957 92.2833 83.3482C92.2466 83.1638 92.1362 83.0163 92.0259 82.9057C91.9155 82.795 91.7684 82.7213 91.6213 82.6106C91.1063 82.2418 90.665 81.9468 90.3339 81.7255C89.9661 81.5042 89.7822 81.3936 89.819 81.3567Z" fill="#FF9A6C"/>
<path d="M84.4492 87.6263C84.4492 87.6263 84.6331 87.5894 84.9642 87.5525C85.332 87.5156 85.8469 87.4788 86.3986 87.4419C86.8768 87.5525 87.4285 87.6632 88.017 87.7369C88.3112 87.7738 88.6423 87.8107 88.9733 87.8107C89.3043 87.8107 89.6354 87.8107 89.856 87.5525C89.9664 87.4419 90.0032 87.2575 90.0032 87.0731C90.0032 86.8887 89.9664 86.7043 89.9664 86.5199C89.9664 86.3724 89.856 86.2248 89.7457 86.1142C89.6354 86.0036 89.4882 85.8929 89.3411 85.8192C88.7526 85.4873 88.1641 85.4873 87.6492 85.5241C87.1342 85.5241 86.6929 85.3397 86.509 85.0816C86.3251 84.8234 86.3618 84.639 86.3618 84.639C86.3618 84.639 86.3986 84.7865 86.5825 85.0078C86.7664 85.2291 87.1342 85.4135 87.6492 85.3766C88.1273 85.3397 88.8262 85.3029 89.4514 85.6717C89.5986 85.7454 89.7457 85.856 89.8928 86.0036C90.0032 86.1511 90.1503 86.2986 90.1503 86.5199C90.1503 86.7043 90.1871 86.8887 90.1871 87.0731C90.1871 87.2575 90.1503 87.4788 90.0032 87.6632C89.8928 87.8107 89.6721 87.9213 89.4882 87.9582C89.3043 87.9951 89.1204 87.9951 88.9733 87.9951C88.6423 87.9951 88.3112 87.9582 88.017 87.9213C87.3917 87.8476 86.84 87.7 86.3618 87.5894H86.3986C85.8101 87.6263 85.332 87.6263 84.9642 87.6263C84.6331 87.6263 84.4492 87.6263 84.4492 87.6263Z" fill="#FF9A6C"/>
<path d="M92.5048 87.5894C92.468 87.5525 92.799 86.9256 93.13 86.1511C93.4978 85.3766 93.7921 84.7128 93.8657 84.7497C93.9024 84.7865 93.6818 85.4504 93.3139 86.2248C92.9829 87.0362 92.5783 87.6263 92.5048 87.5894Z" fill="#FF9A6C"/>
<path d="M75.3271 89.249L103.906 89.6178L113.101 63.7651C113.322 63.2119 113.064 62.6218 112.513 62.4005C111.924 62.1424 111.262 62.4374 111.042 63.0275L101.993 87.5156L75.2903 87.7738C74.8857 87.7738 74.5547 88.1057 74.5547 88.5114C74.5915 88.9171 74.9225 89.249 75.3271 89.249Z" fill="#1A2E35"/>
<path d="M32.7344 70.0715C32.7344 70.0715 46.7112 89.1384 48.8813 89.1384C51.0513 89.1384 69.2948 89.1384 69.2948 89.1384V81.3936L53.8835 77.7425C53.8835 77.7425 46.2698 61.9949 44.6147 59.9665C42.9227 57.9381 38.4354 55.2459 35.0884 58.27C31.7045 61.2573 32.7344 70.0715 32.7344 70.0715Z" fill="#25C883"/>
<path d="M69.2578 82.1312L72.6049 81.873C72.6049 81.873 72.6785 80.6191 73.4141 80.1766C74.1497 79.734 74.0761 78.7751 74.5175 78.8489C74.9589 78.9227 75.2531 78.8489 75.2531 78.8489L78.0117 76.5255L80.3289 74.9765L82.168 74.6077C82.168 74.6077 83.2714 74.9028 82.168 75.9354L80.991 76.5992L79.9611 77.6319L82.2783 76.4886C82.499 76.378 82.7565 76.378 82.9772 76.4886C83.5289 76.7468 84.522 77.2262 84.7794 77.4844C85.1472 77.8532 84.7794 78.222 84.7794 78.222L85.8093 79.1071C85.8093 79.1071 86.03 80.2872 84.853 79.9922L83.8967 79.7709L82.6461 81.0248C82.6461 81.0248 86.876 80.1397 87.1702 80.2872C87.4645 80.4347 87.8323 81.0986 87.1702 81.6886C86.5081 82.2787 83.9702 82.1312 83.3818 82.7213C82.7933 83.3114 78.9312 86.8518 77.9749 87.0731C77.0186 87.2944 69.2578 89.2121 69.2578 89.2121V82.1312Z" fill="#FFBF9D"/>
<path d="M85.8093 79.0702C85.8093 79.0702 85.5886 78.9227 85.2208 78.6645C85.0369 78.5539 84.853 78.3695 84.5955 78.222C84.4851 78.1482 84.338 78.0744 84.2277 77.9638C84.0806 77.89 83.9702 77.7794 83.8231 77.8163C83.5288 77.8163 83.2714 78.0375 83.0139 78.1482C82.7564 78.2957 82.5357 78.4063 82.3518 78.517C81.984 78.7383 81.7633 78.8858 81.7266 78.8489C81.7266 78.812 81.9105 78.6645 82.2783 78.4064C82.4622 78.2957 82.6829 78.1482 82.9403 78.0007C83.0507 77.9269 83.1978 77.8532 83.3449 77.7794C83.4921 77.7056 83.6392 77.6319 83.8599 77.6319C83.8966 77.6319 83.9702 77.6319 84.007 77.6319C84.0438 77.6319 84.0806 77.6688 84.1173 77.6688C84.1909 77.7056 84.2645 77.7425 84.338 77.7794C84.4851 77.8532 84.5955 77.9638 84.7058 78.0376C84.9265 78.222 85.1472 78.3695 85.2943 78.517C85.6621 78.8489 85.846 79.0333 85.8093 79.0702Z" fill="#FF9A6C"/>
<path d="M75.5838 78.5539C75.6205 78.5907 75.2527 78.8858 74.8481 79.2915C74.4436 79.6971 74.1125 79.9922 74.0757 79.9553C74.039 79.9184 74.2964 79.5496 74.7378 79.1439C75.1424 78.7751 75.547 78.517 75.5838 78.5539Z" fill="#FF9A6C"/>
<path d="M44.5779 59.9296C44.5779 59.9296 44.9089 60.2984 45.3871 61.1097C45.8652 61.9211 46.5641 63.1013 47.3733 64.6502C49.0284 67.7481 51.2721 72.2106 53.9203 77.6688L53.8835 77.6319C58.4444 78.7014 63.6673 79.9553 69.2948 81.283H69.3684V81.3567C69.3684 83.8646 69.3684 86.4461 69.3684 89.1015V89.2121H69.258C68.9638 89.2121 68.6327 89.2121 68.3385 89.2121C62.196 89.2121 56.3478 89.2121 51.0146 89.2121C50.3525 89.2121 49.6905 89.2121 49.0284 89.2121C48.9548 89.2121 48.8813 89.2121 48.7709 89.2121C48.6974 89.2121 48.587 89.1752 48.5135 89.1384C48.3663 89.0646 48.2192 88.9908 48.0721 88.8802C47.8146 88.6958 47.5572 88.4745 47.3365 88.2532C46.4169 87.405 45.571 86.483 44.7986 85.5979C43.217 83.8277 41.8561 82.0943 40.6055 80.5085C38.1044 77.3368 36.155 74.7184 34.7941 72.9113C34.1321 71.9893 33.6171 71.2886 33.2493 70.8091C33.0654 70.5878 32.9551 70.4034 32.8447 70.2559C32.7712 70.1453 32.7344 70.0715 32.7344 70.0715C32.7344 70.0715 32.7712 70.1453 32.8815 70.2559C32.9918 70.3666 33.1022 70.551 33.2861 70.8091C33.6539 71.2886 34.1688 71.9893 34.8677 72.8744C36.2286 74.6815 38.2148 77.2631 40.7159 80.4347C41.9664 82.0206 43.3641 83.717 44.9457 85.4873C45.7181 86.3724 46.5641 87.2944 47.4836 88.1426C47.7043 88.3639 47.9618 88.5483 48.2192 88.7327C48.3663 88.8064 48.4767 88.9171 48.6238 88.954C48.7709 89.0277 48.8813 89.0277 49.0652 89.0277C49.7272 89.0277 50.3893 89.0277 51.0514 89.0277C56.3846 89.0277 62.2328 89.0277 68.3753 89.0277C68.7063 89.0277 69.0005 89.0277 69.2948 89.0277L69.1844 89.1384C69.1844 86.483 69.1844 83.9014 69.1844 81.3936L69.258 81.4674C63.6305 80.1397 58.3708 78.8858 53.8467 77.8163H53.8099V77.7794C51.1617 72.3212 48.9181 67.8219 47.2997 64.724C46.4905 63.175 45.8284 61.958 45.3503 61.1835C45.0928 60.7778 44.9457 60.4828 44.7986 60.2984C44.6515 60.0402 44.5779 59.9296 44.5779 59.9296Z" fill="#1A2E35"/>
<path d="M42.5553 58.6757C42.5553 58.7126 42.0772 58.5282 41.3048 58.3438C40.9002 58.27 40.4588 58.1963 39.9071 58.1225C39.3922 58.0856 38.8037 58.0856 38.1784 58.1225C37.5531 58.1963 37.0014 58.3069 36.4865 58.4175C35.9715 58.565 35.5302 58.7126 35.1623 58.897C34.4267 59.2289 34.0221 59.487 33.9854 59.4502C33.9854 59.4502 34.0957 59.3764 34.2796 59.2289C34.4635 59.0814 34.7578 58.9338 35.1256 58.7494C35.4934 58.565 35.9347 58.3806 36.4497 58.2331C36.9646 58.0856 37.5531 57.975 38.1784 57.9012C38.8037 57.8275 39.3922 57.8643 39.9439 57.9012C40.4956 57.975 40.9738 58.0487 41.3416 58.1594C41.7462 58.27 42.0404 58.3806 42.2611 58.4544C42.445 58.6388 42.5553 58.6757 42.5553 58.6757Z" fill="#1A2E35"/>
<path d="M51.0513 81.2461C51.0146 81.2461 51.3824 80.361 52.0812 79.439C52.8168 78.517 53.5892 77.9638 53.5892 78.0376C53.626 78.0744 52.9272 78.7014 52.2283 79.5865C51.5295 80.4347 51.1249 81.283 51.0513 81.2461Z" fill="#1A2E35"/>
<path d="M50.573 78.8489C50.5362 78.812 51.088 78.3326 51.8971 78.0744C52.7063 77.7794 53.4052 77.7794 53.4052 77.8532C53.4052 77.9269 52.7431 78.0007 51.9339 78.2588C51.1983 78.5539 50.6098 78.9227 50.573 78.8489Z" fill="#1A2E35"/>
<path d="M63.7048 118.642C63.4106 118.015 62.7117 117.757 62.0497 117.536C49.213 113.368 35.4201 111.377 22.1422 113.811C20.5606 114.106 18.9054 114.475 17.6181 115.507C16.3675 116.54 15.5951 118.347 16.2572 119.822L18.979 120.707C32.5512 119.195 46.3073 119.269 59.8796 121.002C60.7991 121.113 61.7554 121.224 62.6014 120.855C63.4473 120.486 64.1094 119.454 63.7048 118.642Z" fill="#375A64"/>
<path d="M48.7717 114.364C48.7717 114.364 48.7349 114.364 48.6981 114.364C48.6246 114.364 48.551 114.327 48.4406 114.327C48.22 114.29 47.8889 114.253 47.4843 114.18C46.6752 114.032 45.4614 113.848 43.9901 113.7C41.0109 113.331 36.8914 113.036 32.3305 113.147C31.1903 113.184 30.0869 113.221 29.0202 113.295C27.9536 113.368 26.9237 113.442 25.9306 113.516C25.8203 113.516 25.6731 113.516 25.5628 113.516C25.4525 113.516 25.3421 113.479 25.2318 113.516C25.0111 113.516 24.7536 113.59 24.5329 113.627C24.0916 113.737 23.6134 113.811 23.2088 113.922C22.3629 114.106 21.5537 114.327 20.8548 114.548C19.4204 115.028 18.3537 115.581 17.6549 116.024C17.2871 116.245 17.0296 116.429 16.8825 116.577C16.8089 116.651 16.7353 116.688 16.6986 116.724C16.6618 116.761 16.625 116.761 16.625 116.761C16.625 116.761 16.625 116.724 16.6986 116.688C16.7353 116.651 16.8089 116.577 16.8825 116.503C17.0296 116.356 17.2871 116.134 17.6549 115.913C18.3537 115.434 19.4204 114.844 20.8548 114.364C21.5537 114.106 22.3629 113.885 23.2088 113.7C23.6502 113.59 24.0916 113.516 24.5329 113.405C24.7536 113.368 25.0111 113.295 25.2318 113.295C25.3421 113.295 25.4892 113.295 25.5996 113.295C25.7099 113.295 25.8203 113.295 25.9674 113.295C26.9605 113.184 27.9904 113.147 29.057 113.036C30.1237 112.963 31.2271 112.889 32.4041 112.852C36.9649 112.741 41.1212 113.073 44.0637 113.479C45.5349 113.663 46.7487 113.885 47.5579 114.032C47.9625 114.106 48.2567 114.18 48.5142 114.217C48.6246 114.253 48.6981 114.253 48.7717 114.253C48.7717 114.364 48.7717 114.364 48.7717 114.364Z" fill="#1A2E35"/>
<path d="M16.5882 93.3795L38.4729 94.154C38.804 94.154 39.0246 94.449 38.9879 94.781L35.8247 121.113H40.7533L43.2912 92.1256C43.4016 91.1299 42.666 90.2447 41.6729 90.2079L15.9629 89.2859L16.5882 93.3795Z" fill="#375A64"/>
<path d="M132.964 91.4618H129.543V92.2363L137.083 164.631H140.614L132.964 91.4618Z" fill="#375A64"/>
<path d="M56.3484 91.4618H59.8058V92.2363L52.7439 164.631H49.2129L56.3484 91.4618Z" fill="#375A64"/>
<path d="M56.3487 91.4618C56.3487 91.4618 56.3487 91.6093 56.312 91.8306C56.2752 92.0887 56.2384 92.4575 56.2016 92.937C56.1281 93.8958 55.9809 95.3342 55.797 97.1781C55.4292 100.866 54.9511 106.177 54.289 112.778C53.0017 125.981 51.2362 144.237 49.2868 164.594L49.1764 164.484C50.2799 164.484 51.4569 164.484 52.6339 164.484H52.6706L52.5603 164.557C55.9074 130.554 58.7395 101.751 59.659 92.1994C59.659 91.8306 59.659 91.6093 59.659 91.4249L59.6958 91.4618C58.5188 91.4618 57.6729 91.4618 57.1211 91.4618C56.8269 91.4618 56.643 91.4618 56.4959 91.4618C56.4223 91.4618 56.3487 91.4618 56.3487 91.4618C56.3487 91.4618 56.4223 91.4618 56.5326 91.4618C56.6798 91.4618 56.8637 91.4618 57.1579 91.4618C57.7096 91.4618 58.5924 91.4618 59.7694 91.4618H59.8062V91.4987C59.8062 91.7199 59.8062 91.9043 59.8062 92.2731C58.8866 101.825 56.0913 130.628 52.8178 164.631V164.705H52.7442H52.7074C51.5304 164.705 50.3534 164.705 49.25 164.705H49.1396V164.594C51.1258 144.2 52.9281 125.907 54.2522 112.705C54.9143 106.103 55.4292 100.792 55.797 97.1044C55.9809 95.2604 56.1281 93.859 56.2384 92.9001C56.2752 92.4206 56.312 92.0519 56.3487 91.7937C56.3487 91.5724 56.3487 91.4618 56.3487 91.4618Z" fill="#1A2E35"/>
<path d="M146.315 89.1015H48.1094V92.2362H146.315V89.1015Z" fill="#375A64"/>
<path d="M135.869 92.2363C135.869 92.2731 116.301 92.3469 92.136 92.3469C67.9709 92.3469 48.4033 92.31 48.4033 92.2363C48.4033 92.1625 67.9709 92.1256 92.136 92.1256C116.264 92.1256 135.869 92.1625 135.869 92.2363Z" fill="#1A2E35"/>
</g>
<defs>
<clipPath id="clip0_39_2437">
<rect width="165" height="165" fill="white"/>
</clipPath>
</defs>
</svg>
