<svg width="220" height="138" viewBox="0 0 220 138" fill="none" xmlns="http://www.w3.org/2000/svg">
<g clip-path="url(#clip0_39_840)">
<path d="M169.983 123.479C170.886 123.092 171.499 122.191 171.499 121.128C171.499 119.712 170.434 118.552 169.112 118.552C167.79 118.552 166.694 119.679 166.694 121.096C166.694 122.191 167.338 123.125 168.209 123.479C164.501 124.026 164.694 128.051 164.694 128.051L173.433 128.083C173.433 128.083 173.627 124.026 169.983 123.479Z" fill="#EBEBEB"/>
<path d="M15.0603 32.713C15.7375 32.4232 16.189 31.7471 16.2212 30.9421C16.2212 29.8796 15.415 29.0103 14.4153 29.0103C13.4156 29.0103 12.6094 29.8474 12.6094 30.9099C12.6094 31.7149 13.0931 32.4232 13.7703 32.713C10.9969 33.1316 11.1259 36.126 11.1259 36.126L17.6724 36.1582C17.6402 36.1904 17.8014 33.1316 15.0603 32.713Z" fill="#EBEBEB"/>
<path d="M162.92 30.4914C167.337 30.4914 170.917 26.9163 170.917 22.5063C170.917 18.0963 167.337 14.5212 162.92 14.5212C158.503 14.5212 154.922 18.0963 154.922 22.5063C154.922 26.9163 158.503 30.4914 162.92 30.4914Z" fill="#F5F5F5"/>
<path d="M161.21 20.3812C160.92 19.9949 160.34 19.9949 159.985 20.2524C159.598 20.5422 159.437 20.8642 159.372 21.3794C159.275 20.8964 159.082 20.5422 158.663 20.2846C158.276 20.0271 157.695 20.0593 157.437 20.4456C157.276 20.671 157.244 20.993 157.276 21.2828C157.308 21.5726 157.405 21.8945 157.598 22.0877C158.276 22.8605 158.598 22.9893 159.437 23.5366C160.243 22.9571 160.501 22.8283 161.113 22.0233C161.275 21.7979 161.371 21.476 161.404 21.1862C161.436 20.9286 161.404 20.6066 161.21 20.3812Z" fill="#E0E0E0"/>
<path d="M168.305 20.2202C168.015 19.8339 167.434 19.8339 167.079 20.0915C166.693 20.3812 166.531 20.7032 166.467 21.2184C166.37 20.7354 166.177 20.3812 165.757 20.1237C165.37 19.8661 164.79 19.8983 164.532 20.2846C164.371 20.51 164.338 20.832 164.371 21.1218C164.403 21.4116 164.5 21.7335 164.693 21.9267C165.37 22.6995 165.693 22.8283 166.531 23.3756C167.337 22.7961 167.595 22.6673 168.208 21.8623C168.369 21.637 168.466 21.315 168.498 21.0252C168.531 20.7676 168.466 20.4456 168.305 20.2202Z" fill="#E0E0E0"/>
<path d="M165.596 24.3094C165.5 25.6295 164.274 26.7564 162.984 26.7564C161.662 26.7564 160.437 25.6617 160.34 24.3416L165.596 24.3094Z" fill="white"/>
<path d="M199.877 118.778C204.401 118.778 208.068 115.116 208.068 110.6C208.068 106.083 204.401 102.421 199.877 102.421C195.353 102.421 191.686 106.083 191.686 110.6C191.686 115.116 195.353 118.778 199.877 118.778Z" fill="#F5F5F5"/>
<path d="M197.77 109.01C197.743 108.567 197.461 108.223 197.141 108.243C196.821 108.262 196.584 108.638 196.611 109.082C196.639 109.525 196.921 109.869 197.241 109.849C197.56 109.83 197.798 109.454 197.77 109.01Z" fill="#E0E0E0"/>
<path d="M197.909 106.189C197.877 106.317 197.232 106.285 196.458 106.543C195.716 106.8 195.2 107.251 195.104 107.154C195.007 107.09 195.458 106.446 196.329 106.156C197.2 105.834 197.942 106.092 197.909 106.189Z" fill="#E0E0E0"/>
<path d="M203.844 109.505C203.747 109.569 203.328 109.119 202.618 109.022C201.909 108.958 201.393 109.312 201.296 109.215C201.264 109.183 201.361 109.022 201.586 108.861C201.812 108.7 202.199 108.571 202.651 108.603C203.102 108.636 203.457 108.861 203.65 109.086C203.844 109.312 203.908 109.505 203.844 109.505Z" fill="#E0E0E0"/>
<path d="M204.553 108.153C204.489 108.249 203.811 107.895 202.941 107.895C202.038 107.863 201.361 108.153 201.296 108.024C201.232 107.927 201.941 107.412 202.941 107.476C203.973 107.509 204.618 108.088 204.553 108.153Z" fill="#E0E0E0"/>
<path d="M203.972 110.439C204.004 110.439 204.004 111.115 203.456 112.016C202.94 112.886 201.682 113.948 200.038 114.013C198.361 114.045 197.071 113.079 196.49 112.242C195.878 111.372 195.845 110.696 195.878 110.696C195.942 110.664 196.103 111.308 196.716 112.049C197.329 112.789 198.522 113.626 200.005 113.594C201.489 113.53 202.65 112.628 203.198 111.855C203.811 111.05 203.907 110.406 203.972 110.439Z" fill="#E0E0E0"/>
<path d="M8.12665 70.8353C12.6149 70.8353 16.2533 67.2026 16.2533 62.7214C16.2533 58.2403 12.6149 54.6076 8.12665 54.6076C3.63842 54.6076 0 58.2403 0 62.7214C0 67.2026 3.63842 70.8353 8.12665 70.8353Z" fill="#F5F5F5"/>
<path d="M5.95807 61.4518C5.92146 61.0087 5.64717 60.6697 5.34542 60.6946C5.04367 60.7194 4.82874 61.0987 4.86535 61.5418C4.90196 61.9848 5.17625 62.3238 5.478 62.299C5.77975 62.2741 5.99468 61.8948 5.95807 61.4518Z" fill="#E0E0E0"/>
<path d="M6.06264 58.6323C6.06264 58.6967 5.38542 58.6323 4.61145 58.9221C3.83749 59.2118 3.35376 59.6948 3.32151 59.6304C3.25701 59.5982 3.70849 58.9865 4.54696 58.6967C5.35317 58.3747 6.06264 58.5679 6.06264 58.6323Z" fill="#E0E0E0"/>
<path d="M11.0143 61.3957C11.0326 60.9515 10.8021 60.5814 10.4996 60.569C10.197 60.5566 9.93699 60.9067 9.91876 61.3509C9.90052 61.7951 10.131 62.1652 10.4335 62.1776C10.7361 62.19 10.9961 61.8399 11.0143 61.3957Z" fill="#E0E0E0"/>
<path d="M9.70711 58.5357C9.67486 58.4713 10.3843 58.2781 11.255 58.5357C12.0935 58.7933 12.545 59.405 12.5127 59.405C12.4805 59.4694 11.9645 58.9865 11.1905 58.7289C10.3843 58.5357 9.70711 58.6001 9.70711 58.5357Z" fill="#E0E0E0"/>
<path d="M12.1582 62.657C12.1582 62.657 12.1582 62.818 12.0937 63.1078C12.0292 63.3976 11.9002 63.7839 11.61 64.2025C11.352 64.6211 10.9327 65.1041 10.3845 65.4904C9.83629 65.8768 9.09457 66.1666 8.3206 66.1988C7.51439 66.231 6.77267 66.0378 6.19219 65.7158C5.57947 65.3938 5.12799 64.9753 4.83775 64.5567C4.51527 64.1381 4.35402 63.7839 4.25728 63.4942C4.16053 63.2366 4.12828 63.0756 4.16053 63.0756C4.22503 63.0434 4.32177 63.6874 4.96675 64.4601C5.28923 64.8465 5.74071 65.2329 6.32119 65.5226C6.90166 65.8124 7.61113 66.0056 8.35285 65.9734C9.09457 65.9412 9.77179 65.6514 10.32 65.2972C10.8682 64.9431 11.2552 64.5245 11.5455 64.1059C12.0614 63.2688 12.0937 62.6248 12.1582 62.657Z" fill="#E0E0E0"/>
<path d="M78.3315 73.6043C77.9445 73.1213 77.2028 73.1535 76.7513 73.5399C76.2998 73.9263 76.0741 74.377 76.0418 75.021C75.9128 74.377 75.5903 73.9907 75.0743 73.6687C74.5584 73.3467 73.8167 73.4111 73.4942 73.9585C73.3007 74.2804 73.2684 74.6668 73.3329 75.0532C73.3974 75.4396 73.5264 75.8259 73.7844 76.0835C74.6874 77.0173 75.1388 77.1782 76.2353 77.8222C77.235 77.0495 77.5575 76.8241 78.3315 75.7937C78.5572 75.504 78.6217 75.0854 78.6539 74.7312C78.6862 74.2804 78.5894 73.8941 78.3315 73.6043Z" fill="#E0E0E0"/>
<path d="M195.975 11.3336C195.588 10.8507 194.846 10.8829 194.395 11.2693C193.943 11.6556 193.718 12.1064 193.685 12.7504C193.556 12.1064 193.234 11.72 192.718 11.398C192.202 11.0761 191.46 11.1405 191.138 11.6878C190.944 12.0098 190.912 12.3962 190.976 12.7826C191.041 13.1689 191.17 13.5553 191.428 13.8129C192.331 14.7466 192.782 14.9076 193.879 15.5516C194.879 14.7788 195.201 14.5534 195.975 13.5231C196.201 13.2333 196.265 12.8147 196.297 12.4606C196.33 12.0098 196.233 11.6234 195.975 11.3336Z" fill="#E0E0E0"/>
<path d="M164.178 101.23C163.791 100.747 163.049 100.779 162.598 101.166C162.146 101.552 161.921 102.003 161.888 102.647C161.759 102.003 161.437 101.616 160.921 101.294C160.405 100.972 159.663 101.037 159.341 101.584C159.147 101.906 159.115 102.293 159.18 102.679C159.244 103.065 159.373 103.452 159.631 103.709C160.534 104.643 160.986 104.804 162.082 105.448C163.082 104.675 163.404 104.45 164.178 103.42C164.404 103.13 164.468 102.711 164.501 102.357C164.533 101.906 164.436 101.488 164.178 101.23Z" fill="#EBEBEB"/>
<path d="M186.913 43.9179C178.754 43.9179 171.53 47.9426 167.145 54.0924L158.502 55.3159L163.339 62.2063C162.856 64.1381 162.598 66.1344 162.598 68.2272C162.598 81.6538 173.498 92.5044 186.913 92.5044C200.361 92.5044 211.228 81.6216 211.228 68.2272C211.228 54.8329 200.361 43.9179 186.913 43.9179Z" fill="#E0E0E0"/>
<path d="M182.43 33.8077C186.009 29.1069 189.75 29.783 192.362 30.9099C194.974 32.0369 196.716 34.9025 196.555 37.7359C196.522 38.4764 196.361 39.2814 196.651 39.9575C197.135 41.0523 198.554 41.3742 199.393 42.2436C200.521 43.4349 200.263 45.3668 199.876 46.9445C199.489 48.5544 199.102 50.3896 200.037 51.7419C200.908 52.9655 202.553 53.3196 203.907 53.9636C205.713 54.8329 207.164 56.475 207.68 58.3747C208.196 60.3066 207.745 62.496 206.39 63.9771C205.068 65.426 203.069 66.07 201.134 66.3276C195.49 67.1647 189.524 65.3294 185.3 61.5301C181.075 57.6986 178.721 51.9351 178.979 46.2683" fill="#263238"/>
<path d="M204.391 64.4923C204.391 64.4923 204.52 64.3635 204.713 64.1381C204.907 63.8805 205.197 63.4942 205.358 62.9146C205.52 62.335 205.552 61.5945 205.391 60.7573C205.229 59.9202 204.81 59.0187 204.069 58.2459C203.714 57.8595 203.262 57.5054 202.779 57.1834C202.295 56.8614 201.714 56.636 201.134 56.3784C200.553 56.1209 199.941 55.8955 199.328 55.5413C198.748 55.1871 198.199 54.672 197.78 54.0924C196.909 52.9333 196.426 51.3878 196.393 49.8101C196.361 49.0373 196.458 48.2324 196.587 47.4274C196.748 46.6225 196.942 45.8497 197.103 45.0448C197.2 44.4652 197.296 43.8857 197.296 43.3383C197.296 42.7909 197.135 42.2436 196.909 41.7284C196.716 41.2133 196.458 40.6981 196.264 40.1829C196.071 39.6356 196.006 39.0882 195.942 38.573C195.877 38.0257 195.877 37.5105 195.813 36.9953C195.748 36.4802 195.652 35.9972 195.523 35.5142C195.265 34.5805 194.845 33.679 194.329 32.9706C193.426 31.5539 191.975 30.7811 190.653 30.588C189.299 30.3948 188.138 30.7811 187.299 31.2963C186.461 31.8115 185.945 32.391 185.655 32.8096C185.364 33.2282 185.235 33.4858 185.235 33.4858C185.235 33.4858 185.332 33.2282 185.622 32.7774C185.913 32.3266 186.396 31.7149 187.267 31.1997C188.105 30.6846 189.299 30.2338 190.685 30.427C192.04 30.6202 193.588 31.3929 194.523 32.8418C195.103 33.5824 195.49 34.4839 195.781 35.4498C195.91 35.9328 196.039 36.448 196.071 36.9631C196.135 37.4783 196.135 38.0257 196.2 38.5408C196.264 39.056 196.361 39.6034 196.522 40.0863C196.716 40.6015 196.942 41.0845 197.167 41.6318C197.393 42.147 197.554 42.7266 197.554 43.3383C197.554 43.9501 197.458 44.4974 197.361 45.077C197.2 45.8819 197.006 46.6869 196.845 47.4596C196.684 48.2324 196.619 49.0373 196.651 49.8101C196.684 51.3556 197.135 52.8367 197.974 53.9636C198.393 54.5432 198.909 54.9939 199.457 55.3481C200.037 55.7023 200.618 55.9599 201.231 56.1853C201.811 56.4428 202.392 56.6682 202.908 56.9902C203.424 57.3122 203.843 57.6986 204.23 58.0849C204.971 58.8899 205.391 59.8236 205.552 60.693C205.713 61.5301 205.681 62.3028 205.487 62.9146C205.294 63.4942 205.004 63.8805 204.81 64.1381C204.52 64.3957 204.391 64.4923 204.391 64.4923Z" fill="#455A64"/>
<path d="M192.17 58.1482C191.686 58.5689 191.323 58.9425 191.358 58.9827C191.393 59.0229 191.813 58.7145 192.297 58.2939C192.78 57.8732 193.143 57.4996 193.108 57.4594C193.073 57.4192 192.653 57.7276 192.17 58.1482Z" fill="#FAFAFA"/>
<path d="M190.17 56.2175L179.431 57.5376C179.431 57.5376 170.788 59.1153 169.047 65.587C167.854 70.0625 165.371 78.3696 163.952 83.1027C163.339 85.1311 164.274 87.3206 166.145 88.3187C168.434 89.51 171.24 88.5119 172.239 86.1615L176.948 75.343C176.948 75.343 178.592 79.1101 178.496 80.9132C178.399 82.6841 174.658 89.2524 174.658 89.2524C182.591 93.7923 190.653 93.2128 196.942 90.3794L196.652 73.3145C196.652 73.3145 199.619 88.5441 205.585 87.385C210.615 86.419 207.294 76.6631 205.585 72.9281C203.392 68.1629 200.554 61.3691 198.748 59.727C193.943 55.2837 190.17 56.2175 190.17 56.2175Z" fill="#25C883"/>
<g opacity="0.2">
<path d="M180.237 58.3747C179.592 59.3728 178.689 60.21 177.786 61.0149C177.173 61.5623 176.528 62.0775 175.787 62.3672C175.045 62.657 174.11 62.657 173.465 62.2063C172.82 61.7233 172.562 60.693 173.046 60.0812C173.4 59.6626 173.949 59.5016 174.464 59.3728C176.206 58.9543 177.947 58.5035 179.689 58.0849" fill="black"/>
</g>
<path d="M166.532 78.273C166.499 78.2408 167.08 77.7256 168.015 77.5002C168.918 77.2748 169.692 77.4358 169.692 77.468C169.692 77.5324 168.95 77.4358 168.079 77.6612C167.177 77.8866 166.564 78.3052 166.532 78.273Z" fill="#263238"/>
<path d="M167.951 76.7919C167.918 76.7597 168.434 76.5021 169.079 76.5665C169.757 76.6309 170.176 76.9851 170.176 77.0173C170.144 77.0495 169.692 76.7919 169.079 76.7597C168.467 76.6631 167.983 76.8241 167.951 76.7919Z" fill="#263238"/>
<g opacity="0.2">
<path d="M170.078 77.5968C169.143 77.1461 167.95 77.2105 167.112 77.79C166.918 77.9188 166.692 78.0476 166.531 77.951C166.338 77.8544 166.37 77.5646 166.467 77.4036C166.692 76.9529 167.241 76.7919 167.757 76.7597C168.659 76.6631 169.562 76.8241 170.401 77.1783" fill="black"/>
</g>
<g opacity="0.2">
<path d="M187.558 70.3845C186.977 71.5114 185.365 72.2198 184.591 73.4755C183.946 74.538 183.72 75.7615 183.333 76.9207C182.269 80.1405 179.98 82.9417 177.013 84.616C177.593 83.489 178.077 82.3299 178.432 81.1064C178.593 79.9795 178.109 78.9491 178.109 78.9491C178.464 77.8222 180.109 76.2445 180.85 75.3108C181.721 74.1839 182.624 73.0569 183.72 72.1554C184.817 71.2217 186.139 70.5133 187.558 70.3845Z" fill="black"/>
</g>
<path d="M193.014 80.6332C192.489 81.542 192.101 82.3004 192.147 82.3271C192.194 82.3537 192.657 81.6385 193.181 80.7297C193.706 79.8208 194.094 79.0624 194.048 79.0357C194.002 79.0091 193.539 79.7243 193.014 80.6332Z" fill="#FAFAFA"/>
<path d="M200.876 77.7578C200.908 77.7578 200.876 78.112 200.844 78.6916C200.811 79.2711 200.747 80.0439 200.779 80.881C200.844 82.6197 201.521 83.8754 201.456 83.9076C201.456 83.9076 201.392 83.8432 201.327 83.6822C201.263 83.5534 201.166 83.328 201.069 83.0705C200.876 82.5231 200.682 81.7503 200.618 80.881C200.586 80.0117 200.65 79.2389 200.715 78.6594C200.779 78.112 200.844 77.7578 200.876 77.7578Z" fill="#263238"/>
<path d="M186.268 85.0023C186.3 84.9701 186.849 85.5175 187.397 86.258C187.945 87.0308 188.3 87.7069 188.267 87.7391C188.235 87.7713 187.816 87.1274 187.268 86.3546C186.752 85.6141 186.236 85.0345 186.268 85.0023Z" fill="#FAFAFA"/>
<path d="M192.96 86.7582C192.322 86.4413 191.785 86.2232 191.762 86.271C191.738 86.3188 192.236 86.6143 192.873 86.9311C193.511 87.2479 194.048 87.466 194.071 87.4183C194.095 87.3705 193.597 87.075 192.96 86.7582Z" fill="#FAFAFA"/>
<path d="M188.17 81.1064C188.138 81.1386 187.686 80.7844 187.202 80.2693C186.719 79.7219 186.461 79.2389 186.493 79.2067C186.525 79.1745 186.88 79.6253 187.331 80.1727C187.783 80.6556 188.202 81.0742 188.17 81.1064Z" fill="#FAFAFA"/>
<path d="M181.495 85.5175C181.462 85.4853 181.946 85.0989 182.494 84.5516C183.043 84.0042 183.397 83.5212 183.462 83.5534C183.494 83.5856 183.172 84.133 182.623 84.6804C182.043 85.1955 181.495 85.5497 181.495 85.5175Z" fill="#FAFAFA"/>
<path d="M178.927 88.0799C178.427 87.6254 177.991 87.2889 177.956 87.3284C177.92 87.3679 178.296 87.7683 178.797 88.2228C179.298 88.6773 179.733 89.0138 179.769 88.9743C179.805 88.9348 179.428 88.5344 178.927 88.0799Z" fill="#FAFAFA"/>
<path d="M185.855 74.1108C185.157 74.5393 184.614 74.9236 184.642 74.969C184.67 75.0144 185.258 74.7039 185.956 74.2753C186.654 73.8468 187.197 73.4625 187.169 73.4171C187.141 73.3717 186.553 73.6823 185.855 74.1108Z" fill="#FAFAFA"/>
<path d="M191.073 74.1749C190.732 73.4701 190.417 72.9175 190.369 72.9407C190.321 72.9639 190.558 73.554 190.898 74.2588C191.239 74.9636 191.554 75.5162 191.602 75.493C191.65 75.4699 191.413 74.8797 191.073 74.1749Z" fill="#FAFAFA"/>
<path d="M194.888 70.8952C194.514 71.5211 194.248 72.0507 194.294 72.078C194.339 72.1054 194.68 71.6201 195.055 70.9942C195.429 70.3683 195.695 69.8387 195.649 69.8114C195.603 69.784 195.263 70.2693 194.888 70.8952Z" fill="#FAFAFA"/>
<path d="M189.686 68.1629C189.718 68.1307 190.234 68.356 190.943 68.517C191.653 68.678 192.233 68.7102 192.233 68.7746C192.233 68.8068 191.62 68.8712 190.911 68.678C190.202 68.517 189.686 68.195 189.686 68.1629Z" fill="#FAFAFA"/>
<path d="M192.209 62.468C192.256 63.1421 192.338 63.6856 192.391 63.6818C192.444 63.6781 192.449 63.1286 192.402 62.4545C192.355 61.7804 192.273 61.2369 192.22 61.2407C192.167 61.2444 192.162 61.7939 192.209 62.468Z" fill="#FAFAFA"/>
<path d="M198.853 71.2603C198.567 72.0078 198.376 72.6293 198.426 72.6483C198.476 72.6673 198.748 72.0767 199.034 71.3292C199.32 70.5816 199.511 69.9602 199.461 69.9412C199.411 69.9221 199.139 70.5127 198.853 71.2603Z" fill="#FAFAFA"/>
<path d="M199.263 75.8903C199.296 75.8581 199.65 76.3411 199.876 77.0495C200.134 77.7256 200.166 78.3374 200.134 78.3374C200.07 78.3374 199.973 77.79 199.715 77.1139C199.489 76.4377 199.231 75.9225 199.263 75.8903Z" fill="#FAFAFA"/>
<path d="M180.539 64.6431C179.948 64.2795 179.446 64.0215 179.418 64.0669C179.39 64.1123 179.847 64.4439 180.438 64.8076C181.029 65.1713 181.532 65.4293 181.56 65.3839C181.588 65.3385 181.131 65.0068 180.539 64.6431Z" fill="#FAFAFA"/>
<path d="M176.302 69.322C176.27 69.2898 176.722 68.8712 177.141 68.2273C177.592 67.6155 177.85 67.0359 177.883 67.0681C177.915 67.0681 177.721 67.6799 177.27 68.3238C176.818 68.9678 176.302 69.3542 176.302 69.322Z" fill="#FAFAFA"/>
<path d="M171.659 69.5474C171.691 69.5152 172.239 69.9015 172.82 70.4489C173.4 70.9963 173.787 71.5436 173.755 71.5436C173.723 71.5758 173.271 71.0929 172.691 70.5455C172.11 69.9981 171.627 69.5796 171.659 69.5474Z" fill="#FAFAFA"/>
<path d="M173.883 63.7935C173.23 64.4238 172.731 64.9658 172.768 65.0042C172.805 65.0425 173.365 64.5627 174.018 63.9324C174.671 63.3021 175.17 62.76 175.133 62.7216C175.096 62.6833 174.536 63.1632 173.883 63.7935Z" fill="#FAFAFA"/>
<path d="M169.385 72.2751C169.619 73.0218 169.85 73.6142 169.901 73.5983C169.952 73.5823 169.803 72.9641 169.569 72.2174C169.335 71.4708 169.104 70.8784 169.053 70.8943C169.002 70.9103 169.151 71.5285 169.385 72.2751Z" fill="#FAFAFA"/>
<path d="M172.154 74.8292C172.076 75.6614 172.057 76.34 172.11 76.345C172.163 76.3499 172.269 75.6793 172.346 74.8471C172.424 74.0149 172.443 73.3363 172.39 73.3314C172.337 73.3265 172.231 73.9971 172.154 74.8292Z" fill="#FAFAFA"/>
<path d="M188.17 63.6874C187.493 63.2044 186.622 63.0112 185.784 63.1722C185.01 63.3332 184.3 63.7839 183.849 64.4279L181.043 68.4204L165.854 80.4946C163.5 82.3621 163.726 86.0327 166.305 87.6104C168.111 88.7051 170.465 88.3831 171.852 86.7732L184.268 72.7671L185.88 71.5436L187.751 70.1913L188.17 66.1022C188.17 66.1022 189.299 66.6174 190.202 67.0037C191.588 67.6477 192.072 66.4886 192.072 66.4886L188.17 63.6874Z" fill="#B78876"/>
<path d="M188.202 66.2954C188.17 66.2954 188.105 66.1988 187.944 66.0378C187.783 65.8768 187.589 65.6514 187.267 65.5548C186.976 65.4582 186.654 65.5548 186.493 65.6514C186.331 65.7802 186.299 65.909 186.267 65.909C186.235 65.909 186.235 65.748 186.428 65.5548C186.589 65.3938 186.976 65.265 187.331 65.3938C187.686 65.5226 187.912 65.7802 188.041 65.9734C188.17 66.1666 188.202 66.2954 188.202 66.2954Z" fill="#AA6550"/>
<path d="M186.203 67.3901C186.203 67.3901 186.235 67.2613 186.397 67.1325C186.558 67.0037 186.816 66.8749 187.106 66.9071C187.396 66.9071 187.654 67.0359 187.816 67.1647C187.977 67.2935 188.009 67.3901 188.009 67.4223C187.977 67.4545 187.912 67.3579 187.751 67.2613C187.59 67.1647 187.364 67.1003 187.106 67.1003C186.848 67.1003 186.622 67.1969 186.461 67.2613C186.3 67.3579 186.235 67.4223 186.203 67.3901Z" fill="#AA6550"/>
<path d="M199.199 62.8502L200.263 64.0093C200.263 64.0093 200.618 80.3336 201.231 82.5553C201.844 84.7769 205.488 88.5119 207.455 85.4853C209.422 82.4587 204.52 63.2044 204.52 63.2044C204.52 63.2044 203.198 58.7611 203.101 57.6985L199.199 62.8502Z" fill="#B78876"/>
<path d="M201.65 53.4162L201.231 64.6855C201.199 65.4904 200.747 66.231 200.07 66.6174L196.684 68.5814C195.749 69.1288 194.556 68.4526 194.556 67.3579V56.9258C194.556 56.3462 194.878 55.7989 195.394 55.5091L200.489 52.6757C201.005 52.3859 201.65 52.8045 201.65 53.4162Z" fill="#455A64"/>
<path d="M198.393 57.441C198.803 57.441 199.135 57.1094 199.135 56.7004C199.135 56.2914 198.803 55.9599 198.393 55.9599C197.983 55.9599 197.651 56.2914 197.651 56.7004C197.651 57.1094 197.983 57.441 198.393 57.441Z" fill="#FAFAFA"/>
<path d="M203.102 57.7308C203.102 57.7308 200.586 54.2534 200.038 54.2856C199.49 54.3178 196.781 55.9277 196.878 56.2818C197.007 56.636 197.555 56.8292 198.038 56.6038C198.554 56.3784 199.425 55.5091 199.619 55.7023C199.812 55.8633 200.425 56.5072 200.425 56.5072C200.425 56.5072 197.942 57.7629 197.748 58.2781C197.555 58.7933 197.103 59.6626 197.684 59.9846C198.071 60.21 198.683 59.9524 198.909 58.9543C198.909 58.9543 198.425 60.4032 199.167 60.7573C199.941 61.1437 200.199 60.3388 200.812 59.566C201.328 58.8899 201.586 59.7592 201.586 59.7592L203.102 57.7308Z" fill="#B78876"/>
<path d="M201.199 57.7629C201.199 57.7951 201.005 57.7629 200.747 57.7951C200.457 57.8273 200.102 57.9239 199.748 58.1493C199.393 58.3747 199.135 58.6967 199.006 58.9221C198.877 59.1475 198.812 59.3406 198.78 59.3406C198.748 59.3406 198.78 59.1475 198.909 58.8899C199.038 58.6323 199.264 58.2781 199.651 58.0205C200.038 57.7629 200.457 57.6664 200.747 57.6664C201.038 57.6664 201.199 57.7307 201.199 57.7629Z" fill="#AA6550"/>
<path d="M179.98 34.8381V36.287L179.883 58.0527C179.883 60.5642 182.043 62.5926 184.752 62.5926C187.493 62.5926 189.751 60.4998 189.815 57.9561C189.88 55.2837 189.977 52.4503 189.977 52.4503C189.977 52.4503 193.427 51.9351 194.233 47.4596C194.62 45.238 194.588 41.5674 194.459 38.5408C194.33 35.8362 191.976 33.7755 189.299 34.0331L179.98 34.8381Z" fill="#B78876"/>
<path d="M193.363 41.2777C193.363 41.5674 193.105 41.825 192.783 41.8572C192.46 41.8572 192.202 41.6318 192.202 41.342C192.202 41.0523 192.46 40.7947 192.783 40.7625C193.105 40.7303 193.363 40.9879 193.363 41.2777Z" fill="#263238"/>
<path d="M193.621 40.4405C193.556 40.5049 193.105 40.1829 192.492 40.1829C191.879 40.1507 191.396 40.4727 191.331 40.4083C191.299 40.3761 191.363 40.2473 191.589 40.0863C191.783 39.9575 192.137 39.7965 192.524 39.8287C192.911 39.8287 193.234 39.9897 193.427 40.1507C193.588 40.2795 193.653 40.4083 193.621 40.4405Z" fill="#263238"/>
<path d="M187.494 41.1811C187.494 41.4708 187.236 41.7284 186.913 41.7606C186.591 41.7606 186.333 41.5352 186.333 41.2455C186.333 40.9557 186.591 40.6981 186.913 40.6659C187.204 40.6337 187.494 40.8591 187.494 41.1811Z" fill="#263238"/>
<path d="M187.494 40.4405C187.429 40.5049 186.978 40.1829 186.365 40.1829C185.752 40.1507 185.269 40.4727 185.204 40.4083C185.172 40.3761 185.236 40.2473 185.462 40.0863C185.656 39.9575 186.01 39.7966 186.397 39.8288C186.784 39.8288 187.107 39.9897 187.3 40.1507C187.461 40.2795 187.526 40.4083 187.494 40.4405Z" fill="#263238"/>
<path d="M189.654 45.077C189.654 45.0448 190.041 44.9804 190.653 44.916C190.815 44.916 190.976 44.8838 191.008 44.755C191.04 44.6262 190.976 44.4652 190.911 44.2721C190.782 43.8857 190.621 43.4671 190.46 43.0485C189.847 41.3098 189.396 39.8931 189.46 39.8609C189.525 39.8287 190.105 41.2133 190.718 42.9519C190.879 43.3705 191.008 43.7891 191.137 44.1755C191.202 44.3686 191.298 44.5618 191.202 44.7872C191.169 44.916 191.04 44.9804 190.944 45.0126C190.847 45.0448 190.75 45.0448 190.686 45.0448C190.041 45.1414 189.654 45.1414 189.654 45.077Z" fill="#263238"/>
<path d="M189.977 52.4503C189.977 52.4503 186.945 52.5791 183.979 50.7438C183.979 50.7438 185.397 53.867 189.912 53.5128L189.977 52.4503Z" fill="#AA6550"/>
<path d="M189.364 46.5903C189.138 46.3005 188.751 46.1073 188.364 46.1717C188.106 46.2039 187.816 46.3327 187.655 46.5259C187.494 46.7513 187.461 47.0411 187.59 47.2664C187.752 47.4918 188.106 47.5562 188.397 47.4918C188.687 47.4274 188.945 47.2343 189.203 47.0411C189.267 46.9767 189.332 46.9445 189.396 46.8479C189.428 46.7513 189.461 46.6547 189.364 46.5903Z" fill="#AA6550"/>
<path d="M187.816 45.4956C187.913 45.4956 187.913 46.1717 188.461 46.6547C189.042 47.1377 189.751 47.0733 189.751 47.1699C189.751 47.2021 189.59 47.2986 189.3 47.2986C189.009 47.2986 188.558 47.2021 188.235 46.9123C187.881 46.6225 187.752 46.2039 187.719 45.9463C187.687 45.6566 187.784 45.4956 187.816 45.4956Z" fill="#263238"/>
<path d="M174.562 60.21C178.27 60.4998 181.559 57.8595 182.108 54.189C182.172 53.8026 182.237 53.4806 182.301 53.2874C182.817 51.9673 182.817 50.4862 182.462 49.1339C182.301 48.49 182.043 47.8138 182.333 47.2343C182.527 46.8157 182.978 46.5581 183.333 46.2361C184.139 45.5278 184.559 44.4652 184.655 43.4349C184.752 42.3724 184.494 41.3098 184.139 40.3117C183.946 39.7643 183.688 39.1526 183.881 38.6052C184.043 38.2189 184.365 37.9613 184.688 37.6715C185.333 37.0919 185.881 36.3836 186.3 35.6108C186.719 34.8059 186.977 33.8077 185.913 33.1638C185.687 33.035 185.429 32.9384 185.171 32.9062C183.269 32.6164 181.011 32.9062 179.721 34.3873C178.689 35.6108 178.528 37.3173 178.431 38.9272C178.109 43.9501 169.756 53.3196 172.981 60.21H174.562Z" fill="#263238"/>
<path d="M187.687 38.0257C187.622 38.1867 187.009 38.0901 186.268 38.1867C185.526 38.251 184.946 38.4442 184.849 38.2832C184.817 38.2189 184.913 38.0579 185.139 37.8969C185.365 37.7359 185.752 37.5749 186.203 37.5427C186.655 37.5105 187.042 37.5749 187.3 37.7037C187.59 37.8003 187.719 37.9291 187.687 38.0257Z" fill="#263238"/>
<path d="M193.395 38.6374C193.298 38.7662 192.847 38.6374 192.331 38.6052C191.815 38.573 191.363 38.6696 191.267 38.5408C191.234 38.4764 191.299 38.3154 191.492 38.1867C191.686 38.0579 192.008 37.9613 192.363 37.9613C192.718 37.9935 193.008 38.1223 193.202 38.2511C193.395 38.412 193.46 38.573 193.395 38.6374Z" fill="#263238"/>
<path d="M209.97 42.4046C210.326 42.4046 210.615 42.1163 210.615 41.7606C210.615 41.405 210.326 41.1167 209.97 41.1167C209.614 41.1167 209.325 41.405 209.325 41.7606C209.325 42.1163 209.614 42.4046 209.97 42.4046Z" fill="#455A64"/>
<path d="M212.518 42.4046C212.874 42.4046 213.163 42.1163 213.163 41.7606C213.163 41.405 212.874 41.1167 212.518 41.1167C212.162 41.1167 211.873 41.405 211.873 41.7606C211.873 42.1163 212.162 42.4046 212.518 42.4046Z" fill="#455A64"/>
<path d="M215.13 42.4046C215.487 42.4046 215.775 42.1163 215.775 41.7606C215.775 41.405 215.487 41.1167 215.13 41.1167C214.774 41.1167 214.485 41.405 214.485 41.7606C214.485 42.1163 214.774 42.4046 215.13 42.4046Z" fill="#455A64"/>
<path d="M212.55 34.3873C212.55 34.3873 212.583 34.3873 212.679 34.3873C212.776 34.3873 212.905 34.3873 213.066 34.3873C213.163 34.3873 213.228 34.3873 213.357 34.3873C213.453 34.3873 213.582 34.4195 213.679 34.4195C213.808 34.4517 213.937 34.4517 214.066 34.4839C214.195 34.5161 214.356 34.5483 214.485 34.5805C215.098 34.7415 215.84 34.9991 216.581 35.482C217.323 35.965 218.129 36.6412 218.742 37.5749C219.355 38.5086 219.839 39.7 219.968 41.0201C219.968 41.342 220.032 41.6962 220 42.0182C220 42.1792 220 42.3724 219.968 42.5334C219.935 42.6944 219.903 42.8875 219.903 43.0485C219.774 43.7247 219.548 44.433 219.194 45.1092C218.839 45.7853 218.387 46.3971 217.839 46.9445C217.291 47.4918 216.614 47.9748 215.904 48.329C215.195 48.6832 214.389 48.9407 213.55 49.0373C213.357 49.0695 213.131 49.0695 212.905 49.1017C212.679 49.1017 212.486 49.1339 212.26 49.1017C211.841 49.0695 211.422 49.0373 210.97 48.9407C210.067 48.7476 209.197 48.3612 208.423 47.8782H208.487C207.616 48.2324 206.746 48.5866 205.907 48.9085L205.746 48.9729L205.778 48.8119C206.036 47.8782 206.294 46.9445 206.552 46.0429V46.1073C205.81 45.1414 205.359 44.0467 205.165 42.9519C205.069 42.4046 205.036 41.8572 205.069 41.342C205.069 41.0845 205.101 40.8269 205.133 40.5693C205.165 40.4405 205.165 40.3117 205.198 40.1829C205.23 40.0541 205.262 39.9253 205.294 39.8287C205.81 37.8969 207.004 36.448 208.197 35.6108C208.777 35.1923 209.39 34.9025 209.906 34.7093C210.035 34.6771 210.164 34.6127 210.293 34.5805C210.422 34.5483 210.551 34.5161 210.648 34.4839C210.777 34.4517 210.873 34.4195 210.97 34.3873C211.067 34.3551 211.196 34.3551 211.293 34.3551C211.486 34.3229 211.647 34.2907 211.809 34.2907C211.97 34.2907 212.099 34.2907 212.196 34.2907C212.292 34.2907 212.357 34.2907 212.421 34.2907C212.518 34.3873 212.55 34.3873 212.55 34.3873C212.55 34.3873 212.518 34.3873 212.486 34.3873C212.421 34.3873 212.357 34.3873 212.26 34.4195C212.163 34.4195 212.034 34.4195 211.873 34.4517C211.712 34.4517 211.551 34.5161 211.357 34.5161C210.583 34.6449 209.455 34.9669 208.294 35.804C207.133 36.6412 205.972 38.0579 205.488 39.9575C205.456 40.0863 205.423 40.1829 205.391 40.3117C205.359 40.4405 205.359 40.5693 205.327 40.6981C205.294 40.9557 205.262 41.2133 205.262 41.4708C205.23 41.986 205.262 42.5334 205.359 43.0485C205.552 44.1111 206.004 45.2058 206.713 46.1395L206.746 46.1717V46.2039C206.488 47.1055 206.262 48.007 206.004 48.9729L205.907 48.8763C206.746 48.5222 207.616 48.2002 208.487 47.846L208.519 47.8138L208.552 47.846C209.293 48.329 210.132 48.6832 211.035 48.8763C211.454 48.9729 211.873 49.0051 212.292 49.0373C212.486 49.0373 212.712 49.0373 212.905 49.0373C213.099 49.0373 213.324 49.0373 213.518 48.9729C214.324 48.8763 215.13 48.6188 215.84 48.2646C216.549 47.9104 217.194 47.4274 217.742 46.9123C218.291 46.3649 218.71 45.7532 219.065 45.1092C219.419 44.4652 219.613 43.7569 219.774 43.0807C219.806 42.9197 219.839 42.7266 219.839 42.5656C219.871 42.4046 219.871 42.2114 219.871 42.0504C219.903 41.7284 219.871 41.3742 219.871 41.0523C219.742 39.7643 219.29 38.6052 218.678 37.6715C218.065 36.7378 217.291 36.0616 216.549 35.5786C215.808 35.0957 215.098 34.8059 214.485 34.6449C214.324 34.6127 214.195 34.5805 214.066 34.5161C213.937 34.4839 213.808 34.4839 213.679 34.4517C213.55 34.4195 213.453 34.4195 213.357 34.3873C213.26 34.3873 213.163 34.3873 213.066 34.3551C212.905 34.3551 212.776 34.3229 212.679 34.3229C212.583 34.3873 212.55 34.3873 212.55 34.3873Z" fill="#455A64"/>
<path d="M68.7862 93.3416L57.4025 95.2734C53.1457 91.6029 47.5989 89.3812 41.5362 89.3812C28.0885 89.3812 17.2207 100.264 17.2207 113.658C17.2207 127.085 28.1207 137.936 41.5362 137.936C54.9516 137.936 65.8516 127.053 65.8516 113.658C65.8516 109.891 64.9809 106.35 63.4652 103.162L68.7862 93.3416Z" fill="#E0E0E0"/>
<path d="M19.5112 88.7695C19.8674 88.7695 20.1562 88.4812 20.1562 88.1255C20.1562 87.7699 19.8674 87.4816 19.5112 87.4816C19.155 87.4816 18.8662 87.7699 18.8662 88.1255C18.8662 88.4812 19.155 88.7695 19.5112 88.7695Z" fill="#263238"/>
<path d="M16.9633 88.7695C17.3195 88.7695 17.6083 88.4812 17.6083 88.1255C17.6083 87.7699 17.3195 87.4816 16.9633 87.4816C16.6071 87.4816 16.3184 87.7699 16.3184 88.1255C16.3184 88.4812 16.6071 88.7695 16.9633 88.7695Z" fill="#263238"/>
<path d="M14.3833 88.7695C14.7395 88.7695 15.0282 88.4812 15.0282 88.1255C15.0282 87.7699 14.7395 87.4816 14.3833 87.4816C14.027 87.4816 13.7383 87.7699 13.7383 88.1255C13.7383 88.4812 14.027 88.7695 14.3833 88.7695Z" fill="#263238"/>
<path d="M16.9306 80.7522C16.9306 80.7522 16.8984 80.7522 16.8016 80.7522C16.7049 80.7522 16.5759 80.7522 16.4146 80.7844C16.3179 80.7844 16.2534 80.7844 16.1244 80.8166C16.0276 80.8488 15.8986 80.8488 15.8019 80.881C15.6729 80.9132 15.5439 80.9132 15.4149 80.9454C15.2859 80.9776 15.1247 81.0098 14.9957 81.0742C14.383 81.2352 13.6735 81.525 12.9318 82.0079C12.1901 82.4909 11.4161 83.1671 10.8034 84.1008C10.1906 85.0345 9.73916 86.1937 9.61017 87.4816C9.61017 87.8035 9.54567 88.1255 9.61017 88.4797C9.61017 88.6407 9.61017 88.8017 9.64242 88.9949C9.67467 89.1559 9.70692 89.349 9.70692 89.51C9.83591 90.1862 10.0616 90.8945 10.4164 91.5385C10.7711 92.1824 11.1904 92.7942 11.7386 93.3416C12.2868 93.8889 12.9318 94.3397 13.6412 94.6939C14.3507 95.0481 15.1247 95.3056 15.9631 95.4022C16.1566 95.4344 16.3824 95.4344 16.5759 95.4666C16.7694 95.4666 16.9951 95.4988 17.1886 95.4666C17.6078 95.4344 18.0271 95.4022 18.4463 95.3056C19.3492 95.1125 20.1877 94.7583 20.9294 94.2753L20.9617 94.2431L20.9939 94.2753C21.8646 94.6295 22.7354 94.9837 23.5738 95.3056L23.4771 95.4022C23.2191 94.4685 22.9611 93.5348 22.7354 92.6332V92.601L22.7676 92.5688C23.4771 91.6351 23.9286 90.5404 24.122 89.4778C24.2188 88.9305 24.251 88.4153 24.2188 87.9001C24.2188 87.6426 24.1865 87.385 24.1543 87.1274C24.122 86.9986 24.122 86.8698 24.0898 86.741C24.0575 86.6122 24.0253 86.5156 23.993 86.3868C23.5093 84.4872 22.3484 83.0383 21.1874 82.2333C20.0265 81.3962 18.8655 81.0742 18.1238 80.9454C17.9303 80.9132 17.7691 80.881 17.6078 80.881C17.4466 80.881 17.3498 80.8488 17.2208 80.8488C17.1241 80.8488 17.0596 80.8488 16.9951 80.8166C16.9629 80.7844 16.9306 80.7844 16.9306 80.7522C16.9306 80.7522 16.9629 80.7522 16.9951 80.7522C17.0596 80.7522 17.1241 80.7522 17.2208 80.7522C17.3176 80.7522 17.4466 80.7522 17.6078 80.7522C17.7691 80.7522 17.9303 80.7844 18.1238 80.8166C18.2205 80.8166 18.3173 80.8488 18.4463 80.8488C18.543 80.881 18.672 80.9132 18.7688 80.9454C18.8978 80.9776 18.9945 81.0098 19.1235 81.042C19.2525 81.0742 19.3815 81.1386 19.5105 81.1708C20.0587 81.364 20.6392 81.6538 21.2197 82.0723C22.4129 82.9095 23.6061 84.3262 24.122 86.2902C24.1543 86.419 24.1865 86.5478 24.2188 86.6444C24.251 86.7732 24.251 86.902 24.2833 87.0308C24.3478 87.2884 24.3478 87.546 24.3478 87.8035C24.38 88.3187 24.3478 88.8661 24.251 89.4134C24.0575 90.5082 23.6061 91.6029 22.8643 92.5688V92.5044C23.1223 93.406 23.3481 94.3075 23.6383 95.2734L23.6706 95.4344L23.5093 95.37C22.6709 95.0481 21.8001 94.6939 20.9294 94.3397H20.9939C20.22 94.8549 19.3815 95.209 18.4463 95.4022C18.0271 95.4988 17.6078 95.531 17.1563 95.5632C16.9306 95.5632 16.7371 95.5632 16.5114 95.5632C16.2856 95.5632 16.0921 95.5632 15.8664 95.4988C15.0279 95.4022 14.2217 95.1447 13.5123 94.7905C12.7705 94.4363 12.1256 93.9533 11.5773 93.406C11.0291 92.8586 10.5776 92.2146 10.2229 91.5707C9.86816 90.9267 9.67467 90.2184 9.51342 89.51C9.48118 89.349 9.44893 89.1559 9.44893 88.9949C9.41668 88.8339 9.41668 88.6407 9.41668 88.4797C9.38443 88.1255 9.41668 87.8035 9.44893 87.4816C9.57792 86.1615 10.0616 84.9701 10.6744 84.0364C11.3193 83.1027 12.0933 82.4265 12.835 81.9435C13.5767 81.4606 14.3185 81.203 14.9312 81.042C15.0924 81.0098 15.2214 80.9776 15.3504 80.9454C15.4794 80.9132 15.6084 80.9132 15.7374 80.881C15.8664 80.8488 15.9631 80.8488 16.0599 80.8488C16.1566 80.8488 16.2534 80.8488 16.3501 80.8488C16.5114 80.8488 16.6404 80.8488 16.7371 80.8488C16.8984 80.7522 16.9306 80.7522 16.9306 80.7522Z" fill="#263238"/>
<path d="M44.1807 76.3089C44.7611 74.9888 46.1478 74.0873 47.599 74.0229C49.0502 73.9907 50.4691 74.7956 51.1464 76.0835C51.5333 76.8241 51.6946 77.7256 52.2751 78.3696C52.9845 79.1423 54.339 79.2711 55.2097 78.6272C55.4354 79.5287 54.8872 80.5912 53.9842 80.9132C54.468 80.9776 54.9195 81.0098 55.4032 81.0742C54.6292 82.7485 52.5331 83.5212 50.6949 83.1992C48.889 82.8773 47.341 81.6538 46.0833 80.3014" fill="#263238"/>
<path d="M44.1807 76.3411L48.5665 77.79C50.1145 78.8203 51.3399 80.3014 51.9526 82.0723C52.1461 82.6519 52.3074 83.2958 52.5653 83.8432C52.8233 84.4228 53.2426 84.9379 53.7908 85.1955C54.21 85.3887 54.6937 85.4209 55.113 85.5497C55.8547 85.8073 56.4029 86.4834 56.5964 87.2562C56.7899 88.0289 56.6287 88.8339 56.2094 89.51C56.0159 89.832 55.7257 90.154 55.6935 90.5404C55.6935 90.7979 55.7902 91.0555 55.8547 91.3131C56.0804 92.1825 55.6612 93.1806 54.8872 93.6314C54.1133 94.0821 53.0491 93.9855 52.3718 93.3738C52.0816 94.0177 51.7269 94.6939 51.0819 94.9837C50.4369 95.2734 49.5017 95.0159 49.3727 94.3397C49.0502 95.0159 48.2763 95.4022 47.5346 95.2734C46.8251 95.1447 46.2124 94.4685 46.1801 93.728L34.1191 80.5912C35.9251 75.7937 42.9553 76.2123 44.1807 76.3411Z" fill="#263238"/>
<path d="M46.2125 80.881C46.9865 80.9776 47.5669 81.6216 47.5669 82.3943L46.7285 102.615C46.6962 104.997 42.3427 107.831 39.795 107.766C37.2151 107.702 37.9569 104.965 37.9246 102.711C37.8601 98.9118 37.8601 97.4951 37.8601 97.5273C37.8601 97.5273 34.5708 96.9799 33.8935 92.7298C33.571 90.6048 33.6678 87.1274 33.829 84.294C33.9903 81.7503 35.6995 78.595 38.2471 78.8847L46.2125 80.881Z" fill="#FFBE9D"/>
<path d="M34.958 87.063C34.958 87.3528 35.1837 87.6104 35.474 87.6104C35.7642 87.6104 36.0222 87.4172 36.0545 87.1274C36.0545 86.8376 35.8287 86.58 35.5385 86.58C35.216 86.5478 34.958 86.7732 34.958 87.063Z" fill="#263238"/>
<path d="M34.6034 86.097C34.6679 86.1614 35.0871 85.8717 35.6676 85.8717C36.248 85.8717 36.6995 86.1614 36.764 86.097C36.7963 86.0649 36.7318 85.9361 36.5383 85.8073C36.3448 85.6785 36.0223 85.5497 35.6676 85.5497C35.3128 85.5497 34.9903 85.6785 34.8291 85.8395C34.6034 85.9361 34.5711 86.0649 34.6034 86.097Z" fill="#263238"/>
<path d="M40.6973 87.063C40.6973 87.3528 40.923 87.6104 41.2132 87.6104C41.5035 87.6104 41.7615 87.4172 41.7937 87.1274C41.7937 86.8376 41.568 86.58 41.2777 86.58C40.9875 86.5478 40.7295 86.7732 40.6973 87.063Z" fill="#263238"/>
<path d="M40.3751 86.2258C40.4396 86.2902 40.8588 86.0005 41.4393 86.0005C42.0198 86.0005 42.4713 86.2902 42.5358 86.2258C42.568 86.1937 42.5035 86.0649 42.31 85.9361C42.1165 85.8073 41.794 85.6785 41.4393 85.6785C41.0846 85.6785 40.7621 85.8073 40.6008 85.9683C40.4074 86.0649 40.3429 86.1937 40.3751 86.2258Z" fill="#263238"/>
<path d="M38.247 90.5726C38.247 90.5404 37.8923 90.476 37.2795 90.4116C37.1183 90.4116 36.9893 90.3794 36.9571 90.2506C36.9248 90.154 36.9893 89.993 37.0538 89.7998C37.1828 89.4456 37.344 89.0593 37.5053 88.6729C38.118 87.063 38.5695 85.7107 38.505 85.6785C38.4405 85.6463 37.8923 86.9664 37.2795 88.5763C37.1183 88.9627 36.9893 89.349 36.8603 89.7354C36.7958 89.8964 36.6991 90.0896 36.7958 90.315C36.8281 90.4116 36.9571 90.5082 37.0538 90.5404C37.1505 90.5726 37.2473 90.5726 37.3118 90.5726C37.86 90.6048 38.247 90.6048 38.247 90.5726Z" fill="#263238"/>
<path d="M37.8281 97.5273C37.8281 97.5273 40.6983 97.7205 43.5361 96.014C43.5361 96.014 42.1494 98.944 37.8604 98.5254L37.8281 97.5273Z" fill="#EB996E"/>
<path d="M38.5054 91.9893C38.7311 91.6995 39.0859 91.5707 39.4729 91.6029C39.7308 91.6351 39.9888 91.7639 40.1501 91.9571C40.3113 92.1503 40.3436 92.4722 40.1823 92.6654C40.0211 92.8908 39.6986 92.9552 39.4084 92.8586C39.1181 92.7942 38.8924 92.601 38.6666 92.4078C38.6021 92.3434 38.5376 92.3112 38.5054 92.2468C38.4409 92.1503 38.4086 92.0537 38.5054 91.9893Z" fill="#EB996E"/>
<path d="M39.9886 90.9911C39.8918 90.9911 39.8918 91.6351 39.3436 92.0859C38.7954 92.5366 38.1182 92.4722 38.1182 92.5688C38.1182 92.601 38.2794 92.6976 38.5696 92.6976C38.8599 92.6976 39.2791 92.601 39.6016 92.3434C39.9241 92.0537 40.0853 91.6995 40.0853 91.4419C40.0853 91.1199 40.0208 90.9911 39.9886 90.9911Z" fill="#263238"/>
<path d="M40.1171 85.1955C40.1816 85.3565 40.7621 85.2921 41.4716 85.3565C42.1811 85.4209 42.7293 85.6141 42.826 85.4853C42.8583 85.4209 42.7615 85.2599 42.5358 85.0989C42.31 84.9379 41.9553 84.8092 41.5361 84.7448C41.1168 84.7126 40.7299 84.777 40.5041 84.8735C40.2139 85.0023 40.0849 85.0989 40.1171 85.1955Z" fill="#263238"/>
<path d="M34.7961 84.4228C34.8929 84.5516 35.3121 84.4228 35.7959 84.4228C36.2796 84.3906 36.6988 84.5194 36.7956 84.3584C36.8278 84.294 36.7633 84.1652 36.6021 84.0364C36.4086 83.9076 36.1183 83.811 35.7959 83.811C35.4734 83.811 35.1831 83.9398 34.9896 84.0686C34.8284 84.1974 34.7639 84.3584 34.7961 84.4228Z" fill="#263238"/>
<path d="M47.0831 87.707C47.4056 87.4816 47.8571 87.5782 48.2118 87.7714C48.9858 88.2221 49.3727 89.2524 49.0825 90.1218C48.7923 90.9911 47.8571 91.5707 46.9541 91.4419" fill="#FFBE9D"/>
<path d="M40.3755 77.468C38.8275 77.5324 37.6343 77.9832 36.2799 78.7237C34.9255 79.4643 33.7645 80.6878 33.3453 82.2011C33.2485 82.5231 33.2163 82.8773 33.3775 83.167C33.6033 83.5212 34.1515 83.5856 34.5385 83.4246C34.9255 83.2315 35.2157 82.8773 35.5059 82.5553C35.6994 83.328 36.4734 83.9398 37.2796 83.9076C38.0858 83.9076 38.8598 83.2958 39.0533 82.4909C39.0533 83.2958 39.8917 83.972 40.698 83.9398C41.5042 83.9076 42.2459 83.2958 42.5039 82.5231C42.6651 83.2636 42.8264 84.0042 43.2456 84.616C43.6971 85.2277 44.471 85.6463 45.1805 85.3887C45.0838 86.0327 44.987 86.6766 45.2128 87.2884C45.4385 87.9001 46.1157 88.3831 46.7284 88.1577C47.3089 87.9645 47.5347 87.2562 47.6959 86.6444C47.9539 85.4853 48.1796 84.294 48.1474 83.0705C48.1151 81.8791 47.7926 80.6556 47.0509 79.6897C46.277 78.6916 45.116 78.0798 43.9228 77.7578C42.7296 77.4358 41.4397 77.4036 40.2142 77.4358" fill="#263238"/>
<path d="M47.4053 90.154C47.4053 90.1218 47.5666 90.1862 47.7923 90.0896C47.9858 90.0252 48.1793 89.7032 48.1471 89.349C48.1471 88.9949 47.9213 88.7373 47.6956 88.6729C47.4698 88.5763 47.3086 88.6407 47.3086 88.6085C47.3086 88.5763 47.4698 88.4797 47.7278 88.5441C47.8568 88.5763 48.0181 88.6407 48.1471 88.8017C48.2761 88.9627 48.3406 89.1559 48.3728 89.349C48.405 89.7676 48.1471 90.154 47.8246 90.2184C47.5343 90.315 47.3731 90.154 47.4053 90.154Z" fill="#EB996E"/>
<path d="M47.5346 91.9249C47.8373 91.9249 48.0828 91.6798 48.0828 91.3775C48.0828 91.0752 47.8373 90.8301 47.5346 90.8301C47.2318 90.8301 46.9863 91.0752 46.9863 91.3775C46.9863 91.6798 47.2318 91.9249 47.5346 91.9249Z" fill="#25C883"/>
<path d="M44.2451 76.1157C44.2451 76.1157 44.5031 76.0191 44.9546 76.0513C45.3738 76.0513 45.9865 76.1801 46.567 76.5343C47.1475 76.8563 47.5667 77.3392 47.7925 77.6934C48.0182 78.0798 48.0827 78.3374 48.0827 78.3374C48.0505 78.3374 47.9537 78.112 47.6957 77.7578C47.4377 77.4036 47.0507 76.9851 46.5025 76.6631C45.9543 76.3411 45.3738 76.2123 44.9546 76.1479C44.5031 76.1157 44.2451 76.1479 44.2451 76.1157Z" fill="#25C883"/>
<path d="M46.4707 76.1157C46.4707 76.1157 46.4707 76.0835 46.4707 75.9869C46.4707 75.8903 46.4707 75.7616 46.5674 75.6006C46.6964 75.2786 47.0834 74.8922 47.6639 74.7634C48.2766 74.6024 49.0506 74.9244 49.5666 75.504C49.8568 75.7938 50.0825 76.1479 50.276 76.5343C50.4695 76.9207 50.6308 77.3392 50.792 77.7578C50.9533 78.1764 51.1145 78.595 51.3402 78.9491C51.566 79.3033 51.824 79.6253 52.1142 79.8507C52.4044 80.0761 52.7592 80.2371 53.0817 80.3014C53.4042 80.3658 53.7266 80.3015 53.9846 80.1727C54.5006 79.9473 54.8231 79.5287 54.9521 79.2389C55.0811 78.9491 55.0811 78.756 55.1133 78.756C55.1133 78.756 55.1133 78.7882 55.1133 78.8847C55.1133 78.9813 55.0811 79.1101 55.0166 79.2711C54.8876 79.5931 54.5974 80.0117 54.0491 80.3014C53.7589 80.4302 53.4364 80.5268 53.0817 80.4624C52.7269 80.4302 52.3722 80.2693 52.0497 80.0117C51.7272 79.7541 51.4692 79.4321 51.2435 79.0779C51.0178 78.6916 50.8565 78.3052 50.6953 77.8866C50.3728 77.0495 50.0503 76.2445 49.5343 75.665C49.0183 75.0854 48.3089 74.7956 47.7606 74.9566C47.1802 75.0854 46.8254 75.4396 46.6964 75.7294C46.4707 75.9225 46.503 76.1157 46.4707 76.1157Z" fill="#455A64"/>
<path d="M38.408 82.6841C38.408 82.6841 38.408 82.6519 38.3758 82.5553C38.3758 82.4909 38.3435 82.3621 38.3435 82.2011C38.3113 81.9113 38.3113 81.4606 38.408 80.9454C38.5047 80.4302 38.6982 79.8185 39.053 79.1745C39.4077 78.5628 39.9237 77.951 40.6009 77.468C41.2781 76.9851 42.0198 76.6953 42.6971 76.5343C43.3743 76.3733 44.0193 76.3089 44.5675 76.3411C45.1157 76.3733 45.5349 76.4699 45.8252 76.5665C45.9542 76.5987 46.0832 76.6631 46.1477 76.6953C46.2122 76.7275 46.2444 76.7597 46.2444 76.7597C46.2444 76.7919 45.6317 76.5021 44.5675 76.4699C44.0515 76.4699 43.4065 76.5021 42.7293 76.6953C42.0521 76.8563 41.3426 77.1783 40.6977 77.629C40.0527 78.0798 39.5367 78.6916 39.182 79.2711C38.8272 79.8829 38.6337 80.4624 38.5047 80.9776C38.3435 82.0079 38.4725 82.6841 38.408 82.6841Z" fill="#455A64"/>
<path d="M41.1169 82.3943C41.1169 82.3943 41.0846 82.2655 41.1169 82.0723C41.1169 81.8469 41.1491 81.5572 41.2459 81.1708C41.4071 80.4302 41.8263 79.3999 42.6326 78.5628C43.4388 77.6934 44.4062 77.2105 45.1479 76.9851C45.5027 76.8885 45.8252 76.8241 46.0187 76.7919C46.2444 76.7597 46.3411 76.7597 46.3411 76.7919C46.3411 76.8241 45.8574 76.8563 45.1479 77.1139C44.4385 77.3714 43.5033 77.8544 42.7293 78.6916C41.9553 79.5287 41.5361 80.4946 41.3426 81.2352C41.1491 81.9435 41.1491 82.3943 41.1169 82.3943Z" fill="#455A64"/>
<path d="M40.3753 107.541C39.4401 104.675 37.1504 101.777 34.6673 102.84C31.8617 103.999 31.0877 105.48 29.572 107.766C28.0241 110.052 27.0889 112.692 26.1859 115.268C25.8312 116.299 25.4764 117.458 26.0247 118.392C26.5084 119.196 27.4758 119.518 28.3788 119.744C30.7007 120.356 33.0548 120.903 35.409 121.322C36.3442 121.482 37.4084 121.643 38.2469 121.161C39.3111 120.549 39.6336 119.196 39.8593 118.005C40.6333 113.787 41.4072 109.569 42.1812 105.351" fill="#25C883"/>
<path d="M37.6985 101.455L34.0222 103.033C32.1517 104.482 31.6358 106.993 31.7003 109.344L30.1846 135.134C30.1846 135.134 40.8911 141.735 53.4036 134.845C53.7261 134.651 51.3074 128.759 51.3074 128.759L54.7258 115.88C54.9837 114.013 55.145 110.181 54.6613 108.378C53.4036 103.709 50.082 102.293 46.6959 101.359C46.6959 101.359 43.2775 104.224 39.9559 103.613C39.9237 103.613 37.892 103.42 37.6985 101.455Z" fill="#25C883"/>
<g opacity="0.2">
<path d="M32.7646 122.931C34.8931 125.99 36.9892 129.049 39.1176 132.108C39.9561 133.299 40.7946 134.523 42.02 135.328C43.7937 136.454 46.2768 136.454 48.0182 135.263C49.7919 134.072 50.7594 131.818 50.3724 129.757C50.3401 129.5 50.2756 129.242 50.0822 129.081C49.8242 128.791 49.3727 128.759 48.9857 128.888C48.5987 129.017 48.2762 129.21 47.9537 129.403C45.9543 130.466 43.4389 129.886 41.5685 128.63C39.6981 127.375 38.3114 125.507 36.8925 123.769C36.3765 123.125 35.796 122.448 34.9898 122.191C34.2158 121.901 33.1516 122.126 32.8291 122.899" fill="black"/>
</g>
<path d="M43.4712 110.31C44.6823 110.31 45.6641 109.33 45.6641 108.12C45.6641 106.911 44.6823 105.931 43.4712 105.931C42.2601 105.931 41.2783 106.911 41.2783 108.12C41.2783 109.33 42.2601 110.31 43.4712 110.31Z" fill="white"/>
<path d="M35.441 108.442C36.6521 108.442 37.6339 107.462 37.6339 106.253C37.6339 105.044 36.6521 104.063 35.441 104.063C34.2298 104.063 33.248 105.044 33.248 106.253C33.248 107.462 34.2298 108.442 35.441 108.442Z" fill="white"/>
<path d="M33.6675 129.339C34.8786 129.339 35.8604 128.359 35.8604 127.149C35.8604 125.94 34.8786 124.96 33.6675 124.96C32.4564 124.96 31.4746 125.94 31.4746 127.149C31.4746 128.359 32.4564 129.339 33.6675 129.339Z" fill="white"/>
<path d="M37.6343 135.65C38.8454 135.65 39.8272 134.669 39.8272 133.46C39.8272 132.251 38.8454 131.271 37.6343 131.271C36.4232 131.271 35.4414 132.251 35.4414 133.46C35.4414 134.669 36.4232 135.65 37.6343 135.65Z" fill="white"/>
<path d="M47.857 136.165C49.0681 136.165 50.0499 135.184 50.0499 133.975C50.0499 132.766 49.0681 131.786 47.857 131.786C46.6459 131.786 45.6641 132.766 45.6641 133.975C45.6641 135.184 46.6459 136.165 47.857 136.165Z" fill="white"/>
<path d="M39.1822 122.706C40.3933 122.706 41.3751 121.726 41.3751 120.517C41.3751 119.307 40.3933 118.327 39.1822 118.327C37.9711 118.327 36.9893 119.307 36.9893 120.517C36.9893 121.726 37.9711 122.706 39.1822 122.706Z" fill="white"/>
<path d="M36.9888 115.848C38.1999 115.848 39.1817 114.868 39.1817 113.658C39.1817 112.449 38.1999 111.469 36.9888 111.469C35.7777 111.469 34.7959 112.449 34.7959 113.658C34.7959 114.868 35.7777 115.848 36.9888 115.848Z" fill="white"/>
<path d="M36.9893 101.971C37.0215 101.938 37.2472 102.647 38.118 103.355C38.5372 103.709 39.1177 104.031 39.8271 104.289C40.5366 104.514 41.3428 104.611 42.1813 104.514C43.0197 104.418 43.7937 104.16 44.4709 103.838C45.1482 103.516 45.6964 103.13 46.1156 102.808C46.5671 102.454 46.8896 102.164 47.1153 101.938C47.3411 101.713 47.4701 101.616 47.4701 101.616C47.4701 101.616 47.3733 101.745 47.1476 102.003C46.9218 102.228 46.5993 102.55 46.1801 102.904C45.7286 103.259 45.1804 103.645 44.5354 103.999C43.8582 104.353 43.0842 104.611 42.2135 104.707C41.3428 104.804 40.5044 104.675 39.7949 104.45C39.0854 104.192 38.4727 103.838 38.0535 103.484C37.6342 103.098 37.344 102.743 37.215 102.454C37.1183 102.325 37.086 102.196 37.0538 102.132C37.0215 102.035 36.9893 101.971 36.9893 101.971Z" fill="#263238"/>
<path d="M48.0503 101.842C50.5657 102.904 53.1779 103.999 54.8871 106.092C56.6607 108.217 57.2734 111.083 57.1445 113.852C57.0155 116.588 56.2092 119.261 55.403 121.901C55.0805 122.931 54.6613 124.091 53.6939 124.509C52.8231 124.863 51.8557 124.541 50.985 124.219C48.7598 123.35 46.5347 122.384 44.374 121.354C43.5033 120.935 42.5681 120.452 42.1811 119.551C41.6651 118.424 42.2134 117.168 42.7616 116.041C44.632 112.177 46.5024 108.314 48.3728 104.482" fill="#25C883"/>
<path d="M53.4038 117.361C54.615 117.361 55.5967 116.381 55.5967 115.172C55.5967 113.963 54.615 112.982 53.4038 112.982C52.1927 112.982 51.2109 113.963 51.2109 115.172C51.2109 116.381 52.1927 117.361 53.4038 117.361Z" fill="white"/>
<path d="M47.5992 121.354C48.8103 121.354 49.7921 120.373 49.7921 119.164C49.7921 117.955 48.8103 116.975 47.5992 116.975C46.388 116.975 45.4062 117.955 45.4062 119.164C45.4062 120.373 46.388 121.354 47.5992 121.354Z" fill="white"/>
<path d="M50.3081 110.6C51.5014 110.6 52.4688 109.634 52.4688 108.442C52.4688 107.251 51.5014 106.285 50.3081 106.285C49.1148 106.285 48.1475 107.251 48.1475 108.442C48.1475 109.634 49.1148 110.6 50.3081 110.6Z" fill="white"/>
<path d="M43.6971 121L43.1489 123.157L31.9908 115.043L28.5725 110.213C28.121 109.569 27.4115 109.119 26.6376 108.958C25.7991 108.797 24.9607 108.99 24.2512 109.473L21.0908 111.727C21.0908 111.727 21.1876 113.433 21.9615 113.079C22.7355 112.725 24.2834 111.888 24.2834 111.888L24.7027 115.977L26.5731 117.329L28.4435 118.778L41.0205 131.238C43.7293 133.911 48.2764 133.17 49.9856 129.79L51.856 124.509L43.6971 121Z" fill="#FFBE9D"/>
<path d="M42.8584 122.835C42.8584 122.803 43.0841 122.899 43.3421 123.125C43.6001 123.35 43.8581 123.769 43.9871 124.284C44.1161 124.799 44.1161 125.25 44.1161 125.604C44.1161 125.926 44.0838 126.151 44.0516 126.151C44.0194 126.151 44.0193 125.958 43.9871 125.604C43.9549 125.282 43.9549 124.831 43.8259 124.348C43.6969 123.865 43.4711 123.479 43.2454 123.221C43.0519 122.964 42.8584 122.867 42.8584 122.835Z" fill="#EB996E"/>
<path d="M24.2836 112.081C24.2514 112.081 24.3159 111.952 24.4449 111.759C24.5738 111.566 24.7996 111.308 25.1543 111.179C25.5091 111.05 25.8638 111.179 26.0573 111.34C26.2508 111.501 26.2185 111.694 26.2185 111.694C26.1863 111.694 26.154 111.566 25.9928 111.437C25.8315 111.308 25.5091 111.244 25.2188 111.34C24.9286 111.437 24.7028 111.662 24.5416 111.823C24.3804 112.016 24.2836 112.113 24.2836 112.081Z" fill="#EB996E"/>
<path d="M26.2827 113.175C26.2505 113.208 26.186 113.111 26.0247 113.047C25.8635 112.95 25.6378 112.886 25.3798 112.886C25.1218 112.886 24.896 112.982 24.7348 113.047C24.5736 113.143 24.5091 113.208 24.4768 113.208C24.4446 113.208 24.5091 113.079 24.6703 112.95C24.8315 112.821 25.0573 112.692 25.3798 112.692C25.67 112.692 25.928 112.821 26.0892 112.918C26.2182 113.079 26.2827 113.175 26.2827 113.175Z" fill="#EB996E"/>
<path d="M43.6974 121C43.6974 121 43.6329 121 43.4716 120.935C43.3426 120.871 43.1491 120.774 42.9556 120.549C42.7944 120.323 42.6332 120.001 42.6009 119.615C42.5687 119.229 42.6654 118.778 42.8266 118.327C43.0201 117.876 43.2781 117.426 43.5039 116.91C43.7296 116.395 43.9553 115.816 44.1488 115.204C44.5358 113.98 44.7938 112.596 45.1808 111.179C45.5678 109.762 46.0838 108.41 46.7932 107.315C47.5027 106.221 48.4702 105.48 49.3409 105.062C50.2438 104.643 51.05 104.579 51.5983 104.611C52.1465 104.643 52.4367 104.772 52.4367 104.772C52.4367 104.804 52.1465 104.707 51.5983 104.675C51.05 104.643 50.2761 104.74 49.4054 105.158C48.5346 105.577 47.6317 106.317 46.9222 107.38C46.2127 108.442 45.6968 109.762 45.342 111.179C44.9551 112.596 44.6648 113.98 44.2778 115.236C44.0843 115.848 43.8586 116.427 43.6329 116.943C43.3749 117.458 43.1169 117.909 42.9234 118.359C42.7299 118.81 42.6332 119.229 42.6654 119.615C42.6977 120.001 42.8266 120.291 42.9879 120.517C43.1491 120.742 43.3104 120.839 43.4394 120.903C43.6329 120.967 43.7296 121 43.6974 121Z" fill="#263238"/>
<path d="M31.5916 111.208C31.3932 112.742 31.2754 113.992 31.3284 113.998C31.3814 114.005 31.5851 112.767 31.7835 111.232C31.9818 109.698 32.0996 108.449 32.0466 108.442C31.9936 108.435 31.7899 109.673 31.5916 111.208Z" fill="#263238"/>
<path d="M26.3468 118.778L25.7663 123.414L18.6716 117.361L14.8018 118.295C14.8018 118.295 18.8006 126.699 21.9609 130.015C25.1213 133.331 26.8305 133.814 28.0237 133.879C29.6684 133.943 30.4101 131.947 30.4101 131.947L31.1196 120.388L26.3468 118.778Z" fill="#FFBE9D"/>
<path d="M25.7662 123.318C25.7985 123.286 26.0887 123.801 26.2822 124.477C26.4757 125.153 26.508 125.733 26.4435 125.733C26.4112 125.733 26.3145 125.185 26.121 124.541C25.9275 123.865 25.734 123.35 25.7662 123.318Z" fill="#EB996E"/>
<path d="M17.9624 105.609H12.6091C11.8029 105.609 11.0934 106.543 11.3837 107.315L16.7692 117.78C16.9627 118.198 17.3819 118.424 17.8656 118.424H24.3798C25.1216 118.327 25.4118 117.49 25.0893 117.039L19.8973 106.8C19.5103 106.092 18.7686 105.609 17.9624 105.609Z" fill="#455A64"/>
<path d="M17.6073 106.253H12.2541C11.5768 106.253 11.1576 106.961 11.4478 107.541L16.7044 117.78C16.8979 118.198 17.3171 118.424 17.8008 118.424H24.2505C24.6375 118.424 24.8955 118.005 24.7343 117.651L19.5422 107.412C19.1553 106.704 18.4135 106.253 17.6073 106.253Z" fill="#263238"/>
<path d="M17.1238 110.535L13.8667 111.823L13.1572 114.431L14.7374 118.327L20.4777 119.164L18.8007 117.458L19.0265 115.977C19.0265 115.977 20.6389 115.461 20.6712 115.236C20.7034 114.979 20.4777 114.174 20.2197 114.141C19.9617 114.109 18.2848 114.721 18.2848 114.721C18.2848 114.721 20.2842 113.143 20.2197 112.886C20.1552 112.628 19.9617 111.984 19.5425 111.92C19.1555 111.855 15.9306 113.369 15.9306 113.369L15.4146 114.56L14.9631 112.66C14.9954 112.628 17.8333 111.823 17.1238 110.535Z" fill="#FFBE9D"/>
<path d="M17.5434 116.653C17.5112 116.653 17.4789 116.556 17.4467 116.331C17.4144 116.105 17.4467 115.816 17.5434 115.526C17.6724 115.204 17.8336 114.979 17.9949 114.85C18.1561 114.721 18.2851 114.657 18.2851 114.689C18.3174 114.721 17.8981 115.043 17.6724 115.622C17.4789 116.138 17.6079 116.653 17.5434 116.653Z" fill="#EB996E"/>
<path d="M15.9954 116.105C15.9631 116.105 16.0921 115.783 16.1244 115.268C16.1566 115.011 16.1566 114.689 16.2856 114.335C16.3501 114.174 16.4468 113.98 16.5758 113.819C16.7048 113.658 16.8983 113.562 17.0918 113.497C17.8658 113.208 18.5753 112.982 19.0912 112.821C19.6072 112.66 19.9297 112.564 19.9297 112.596C19.9297 112.628 19.6395 112.757 19.1235 112.95C18.6398 113.143 17.9303 113.401 17.1563 113.658C16.9628 113.723 16.8016 113.819 16.6726 113.948C16.5436 114.077 16.4468 114.238 16.4146 114.399C16.2856 114.721 16.2534 115.043 16.2211 115.301C16.1889 115.783 16.0276 116.105 15.9954 116.105Z" fill="#EB996E"/>
<path d="M15.2704 114.85C15.2124 115.201 15.2081 115.493 15.2608 115.501C15.3135 115.51 15.4033 115.233 15.4613 114.882C15.5194 114.531 15.5237 114.239 15.471 114.231C15.4182 114.222 15.3285 114.499 15.2704 114.85Z" fill="#EB996E"/>
<path d="M15.8344 108.893C16.2085 108.893 16.5117 108.59 16.5117 108.217C16.5117 107.844 16.2085 107.541 15.8344 107.541C15.4604 107.541 15.1572 107.844 15.1572 108.217C15.1572 108.59 15.4604 108.893 15.8344 108.893Z" fill="#FAFAFA"/>
<path d="M28.5079 118.81C28.5079 118.81 28.5724 118.874 28.7014 118.971C28.8304 119.1 29.0239 119.261 29.2496 119.454C29.7334 119.905 30.3783 120.484 31.1201 121.193L31.1523 121.225V121.257C31.0556 122.352 30.9588 123.608 30.8621 124.992C30.7008 126.988 30.6041 128.791 30.5396 130.112C30.5073 130.755 30.4751 131.271 30.4751 131.657C30.4751 132.011 30.4428 132.237 30.4428 132.237C30.4428 132.237 30.4106 132.043 30.4106 131.657C30.4106 131.303 30.4106 130.755 30.4428 130.112C30.4751 128.791 30.5718 126.988 30.7331 124.992C30.8298 123.608 30.9588 122.352 31.0556 121.257L31.0878 121.322C30.3461 120.613 29.7011 120.001 29.2496 119.551C29.0561 119.357 28.8627 119.164 28.7337 119.035C28.5402 118.874 28.4757 118.81 28.5079 118.81Z" fill="#EB996E"/>
<path d="M82.395 36.9309L70.9468 31.2641C67.1092 22.8927 58.6601 17.0971 48.8242 17.0971C35.3766 17.0971 24.5088 27.9799 24.5088 41.3742C24.5088 54.7686 35.4088 65.6514 48.8242 65.6514C61.9172 65.6514 72.5915 55.3159 73.1397 42.3724L82.395 36.9309Z" fill="#E0E0E0"/>
<path d="M70.1723 15.5838C70.5285 15.5838 70.8173 15.2954 70.8173 14.9398C70.8173 14.5842 70.5285 14.2958 70.1723 14.2958C69.8161 14.2958 69.5273 14.5842 69.5273 14.9398C69.5273 15.2954 69.8161 15.5838 70.1723 15.5838Z" fill="#263238"/>
<path d="M72.6879 15.5838C73.0441 15.5838 73.3329 15.2954 73.3329 14.9398C73.3329 14.5842 73.0441 14.2958 72.6879 14.2958C72.3317 14.2958 72.043 14.5842 72.043 14.9398C72.043 15.2954 72.3317 15.5838 72.6879 15.5838Z" fill="#263238"/>
<path d="M75.3002 15.5838C75.6565 15.5838 75.9452 15.2954 75.9452 14.9398C75.9452 14.5842 75.6565 14.2958 75.3002 14.2958C74.944 14.2958 74.6553 14.5842 74.6553 14.9398C74.6553 15.2954 74.944 15.5838 75.3002 15.5838Z" fill="#263238"/>
<path d="M72.7526 7.5665C72.7526 7.5665 72.7848 7.5665 72.8816 7.5665C72.9783 7.5665 73.1073 7.5665 73.2685 7.5665C73.3653 7.5665 73.4298 7.5665 73.5588 7.5665C73.6555 7.5665 73.7845 7.59869 73.8813 7.59869C74.0103 7.63089 74.1393 7.63089 74.2682 7.66309C74.3972 7.69529 74.5585 7.72748 74.6875 7.75968C75.3002 7.92067 76.0419 8.17825 76.7836 8.66122C77.5254 9.14419 78.3316 9.82035 78.9443 10.7541C79.557 11.6878 80.0407 12.8791 80.1697 14.1993C80.1697 14.5212 80.2342 14.8754 80.202 15.1974C80.202 15.3584 80.202 15.5516 80.1697 15.7126C80.1375 15.8735 80.1052 16.0667 80.1052 16.2277C79.9762 16.9039 79.7505 17.6122 79.3958 18.2884C79.041 18.9645 78.5896 19.5763 78.0413 20.1237C77.4931 20.671 76.8159 21.154 76.1064 21.5082C75.3969 21.8623 74.5907 22.1199 73.7523 22.2165C73.5588 22.2487 73.333 22.2487 73.1073 22.2809C72.8816 22.2809 72.6881 22.3131 72.4623 22.2809C72.0431 22.2487 71.6239 22.2165 71.1724 22.1199C70.2694 21.9267 69.3987 21.5404 68.6247 21.0574H68.6892C67.8185 21.4116 66.9478 21.7657 66.1093 22.0877L65.9481 22.1521L65.9804 21.9911C66.2383 21.0574 66.4963 20.1237 66.7543 19.2221V19.2865C66.0126 18.3206 65.5611 17.2259 65.3676 16.1311C65.2709 15.5838 65.2386 15.0364 65.2709 14.5212C65.2709 14.2636 65.3031 14.0061 65.3354 13.7485C65.3676 13.6197 65.3676 13.4909 65.3999 13.3621C65.4321 13.2333 65.4644 13.1045 65.4966 13.0079C66.0126 11.0761 67.2058 9.62716 68.399 8.79001C68.9795 8.37144 69.5922 8.08166 70.1082 7.88847C70.2372 7.85628 70.3662 7.79188 70.4952 7.75968C70.6242 7.72748 70.7531 7.69529 70.8499 7.66309C70.9789 7.63089 71.0756 7.59869 71.1724 7.5665C71.2691 7.5343 71.3981 7.5343 71.4949 7.5343C71.6884 7.5021 71.8496 7.4699 72.0108 7.4699C72.1721 7.4699 72.3011 7.4699 72.3978 7.4699C72.4946 7.4699 72.5591 7.4699 72.6236 7.4699C72.7203 7.5665 72.7526 7.5665 72.7526 7.5665C72.7526 7.5665 72.7203 7.5665 72.6881 7.5665C72.6236 7.5665 72.5591 7.5665 72.4623 7.59869C72.3656 7.59869 72.2366 7.59869 72.0753 7.63089C71.9141 7.63089 71.7529 7.69529 71.5594 7.69529C70.7854 7.82408 69.6567 8.14606 68.4957 8.9832C67.3348 9.82034 66.1738 11.2371 65.6901 13.1367C65.6579 13.2655 65.6256 13.3621 65.5934 13.4909C65.5611 13.6197 65.5611 13.7485 65.5289 13.8773C65.4966 14.1349 65.4644 14.3924 65.4644 14.65C65.4321 15.1652 65.4644 15.7126 65.5611 16.2277C65.7546 17.2902 66.2061 18.385 66.9156 19.3187L66.9478 19.3509V19.3831C66.6898 20.2846 66.4641 21.1862 66.2061 22.1521L66.1093 22.0555C66.9478 21.7014 67.8185 21.3794 68.6892 21.0252L68.7215 20.993L68.7537 21.0252C69.4955 21.5082 70.3339 21.8623 71.2369 22.0555C71.6561 22.1521 72.0753 22.1843 72.4946 22.2165C72.6881 22.2165 72.9138 22.2165 73.1073 22.2165C73.3008 22.2165 73.5265 22.2165 73.72 22.1521C74.5262 22.0555 75.3324 21.7979 76.0419 21.4438C76.7514 21.0896 77.3964 20.6066 77.9446 20.0915C78.4928 19.5441 78.912 18.9323 79.2668 18.2884C79.6215 17.6444 79.815 16.9361 79.9762 16.2599C80.0085 16.0989 80.0407 15.9057 80.0407 15.7448C80.073 15.5838 80.073 15.3906 80.073 15.2296C80.1052 14.9076 80.073 14.5534 80.073 14.2315C79.944 12.9435 79.4925 11.7844 78.8798 10.8507C78.2671 9.91694 77.4931 9.24078 76.7514 8.75782C76.0097 8.27485 75.3002 7.98507 74.6875 7.82408C74.5262 7.79188 74.3972 7.75968 74.2682 7.69529C74.1393 7.66309 74.0103 7.66309 73.8813 7.63089C73.7523 7.59869 73.6555 7.59869 73.5588 7.5665C73.462 7.5665 73.3653 7.5665 73.2685 7.5343C73.1073 7.5343 72.9783 7.5021 72.8816 7.5021C72.7848 7.59869 72.7526 7.5665 72.7526 7.5665Z" fill="#263238"/>
<path d="M63.5716 43.8747C63.6155 41.0653 63.6077 38.7872 63.5542 38.7864C63.5008 38.7856 63.422 41.0623 63.3782 43.8717C63.3343 46.681 63.3421 48.9591 63.3956 48.9599C63.449 48.9607 63.5278 46.684 63.5716 43.8747Z" fill="#263238"/>
<path d="M54.1776 26.7242C54.1776 26.7242 54.1776 26.7886 54.1776 26.8852C54.1776 26.9818 54.1453 27.1428 54.0808 27.3682C53.9841 27.7867 53.7906 28.3663 53.4036 29.0103C53.0166 29.6542 52.4039 30.3626 51.5332 30.8777C50.6947 31.4251 49.566 31.7149 48.4051 31.6827C47.2441 31.6505 46.1477 31.2641 45.3415 30.6846C44.503 30.105 43.9548 29.3644 43.6001 28.7205C43.2453 28.0443 43.0841 27.4648 43.0196 27.0462C42.9873 26.853 42.9551 26.692 42.9551 26.5632C42.9551 26.4666 42.9551 26.4022 42.9551 26.4022C42.9873 26.4022 42.9873 26.6276 43.0841 27.0462C43.1808 27.4648 43.3421 28.0443 43.6968 28.6883C44.0515 29.3322 44.632 30.0406 45.4382 30.588C46.2444 31.1353 47.3086 31.5217 48.4373 31.5539C49.566 31.5861 50.6302 31.2963 51.4687 30.7811C52.3072 30.266 52.9199 29.5898 53.3069 28.9781C53.6939 28.3663 53.9196 27.7867 54.0164 27.3682C54.1131 26.9496 54.1453 26.7242 54.1776 26.7242Z" fill="#263238"/>
<path d="M34.5759 44.4473C34.5746 41.7088 34.5302 39.4889 34.4768 39.4889C34.4234 39.4889 34.3811 41.7089 34.3824 44.4474C34.3837 47.1859 34.4281 49.4059 34.4815 49.4058C34.5349 49.4058 34.5772 47.1858 34.5759 44.4473Z" fill="#263238"/>
<path d="M44.019 25.8227H53.5968C53.5968 25.8227 62.2717 28.8815 65.0773 31.0387C67.8829 33.196 72.2043 48.3612 72.2043 48.3612L63.5616 48.1036L62.9167 61.1437C54.0483 67.4545 43.4385 66.9715 35.2151 61.4657L34.5701 49.1339C34.5701 49.1339 29.7973 49.0051 27.3787 48.9085C24.9278 48.8441 24.8311 48.168 24.8311 48.168C24.8311 48.168 30.3778 33.6468 32.0547 30.8455C33.5059 28.4307 42.0518 26.2412 44.019 25.8227Z" fill="#263238"/>
<path d="M67.0445 34.5483C67.0445 34.5483 66.9478 34.6449 66.6898 34.7415C66.4641 34.8703 66.0771 34.9991 65.5934 35.0313C65.1096 35.0957 64.4969 35.0635 63.7874 34.9025C63.1102 34.7415 62.3685 34.4195 61.5623 34.0653C60.7561 33.679 59.9176 33.2604 58.9179 32.9706C57.9182 32.713 56.7895 32.713 55.693 33.0028C54.5643 33.2926 53.4679 33.8077 52.3714 34.4195C51.275 35.0313 50.1463 35.7074 48.9208 36.2548C47.6954 36.8021 46.3732 37.1563 45.0833 37.0919C43.7933 37.0275 42.6001 36.6412 41.5359 36.1904C40.4717 35.7396 39.5042 35.1923 38.569 34.7415C37.6338 34.2585 36.7631 33.8721 35.9246 33.6146C34.2477 33.0672 32.7965 33.0994 31.8613 33.357C31.3776 33.4858 31.0229 33.6146 30.7971 33.7434C30.6681 33.8077 30.6036 33.8399 30.5391 33.8721C30.4746 33.9043 30.4424 33.9043 30.4424 33.9043C30.4424 33.9043 30.4746 33.8721 30.5391 33.8399C30.6036 33.8077 30.6681 33.7434 30.7971 33.679C31.0229 33.5502 31.3776 33.3892 31.8613 33.2604C32.7965 33.0028 34.3122 32.9384 35.9891 33.4858C36.8276 33.7434 37.7306 34.1619 38.6335 34.6127C39.5687 35.0635 40.5362 35.6108 41.6004 36.0616C42.6646 36.5124 43.8256 36.8987 45.0833 36.9309C46.3409 36.9953 47.6309 36.6412 48.8241 36.0938C50.0495 35.5464 51.146 34.8703 52.2747 34.2585C53.4034 33.6468 54.4998 33.1316 55.6608 32.8418C56.7895 32.552 57.9504 32.552 58.9502 32.8096C59.9499 33.0994 60.8206 33.5502 61.6268 33.9043C62.4008 34.2907 63.1425 34.6127 63.8197 34.7737C64.4969 34.9347 65.1096 34.9991 65.5934 34.9347C66.0771 34.9025 66.4318 34.7737 66.6898 34.6771C66.9156 34.6127 67.0445 34.5161 67.0445 34.5483Z" fill="#FAFAFA"/>
<path d="M70.1722 41.825C70.1722 41.825 70.0432 41.7284 69.753 41.6318C69.495 41.503 69.0435 41.342 68.4953 41.2776C67.9148 41.2133 67.2054 41.2454 66.4314 41.4386C65.6574 41.6318 64.7867 42.0182 63.916 42.5334C63.013 43.0485 62.1101 43.6925 61.0459 44.272C59.9817 44.8516 58.7562 45.399 57.3695 45.4312C55.9828 45.4956 54.5962 45.0126 53.2417 44.4008C51.8873 43.8213 50.5328 43.0807 49.0171 42.7587C47.5015 42.4046 45.9535 42.5012 44.5023 42.7587C43.0512 43.0163 41.6645 43.4027 40.3745 43.7569C39.0523 44.1111 37.7946 44.4008 36.6014 44.5618C35.4082 44.6906 34.2473 44.6906 33.2476 44.4974C31.2159 44.1111 29.7647 43.0485 29.0553 42.147C28.7005 41.6962 28.507 41.2776 28.378 41.0201C28.3135 40.8913 28.2813 40.7625 28.249 40.6981C28.2168 40.6337 28.2168 40.6015 28.2168 40.6015C28.249 40.5693 28.378 41.2454 29.1198 42.1148C29.8292 42.9841 31.2482 44.0145 33.2798 44.4008C34.2795 44.594 35.4082 44.594 36.6014 44.433C37.7946 44.272 39.0523 43.9823 40.3745 43.6281C41.6967 43.2739 43.0512 42.8875 44.5346 42.63C45.9858 42.3724 47.566 42.2758 49.1139 42.63C50.6618 42.9841 52.0485 43.7247 53.3707 44.3042C54.7252 44.8838 56.0796 45.3668 57.434 45.3346C58.7885 45.3024 59.9817 44.7872 61.0459 44.2077C62.1101 43.6281 63.013 42.9841 63.916 42.5012C64.819 41.986 65.6897 41.5996 66.4636 41.4386C67.2699 41.2454 67.9793 41.2454 68.5598 41.3098C69.1403 41.3742 69.5595 41.5674 69.8175 41.6962C70.0755 41.6962 70.1722 41.825 70.1722 41.825Z" fill="#FAFAFA"/>
<path d="M63.2393 53.7382C63.2393 53.7382 63.1425 53.8026 62.9813 53.867C62.7878 53.9314 62.4975 53.9958 62.1106 53.9958C61.7236 53.9958 61.2721 53.8992 60.7561 53.706C60.2401 53.5128 59.7242 53.2231 59.1114 52.9011C58.531 52.5791 57.8215 52.3215 57.0475 52.1927C56.2736 52.0639 55.4351 52.0961 54.5644 52.2249C52.823 52.4825 51.017 53.2874 49.0821 54.028C48.1147 54.3822 47.1472 54.672 46.1797 54.8651C45.2123 55.0583 44.2771 55.1549 43.4064 55.1871C41.6327 55.2515 40.0203 54.9939 38.6981 54.672C37.3759 54.35 36.3762 53.8992 35.6989 53.5772C35.3442 53.4162 35.1185 53.2552 34.925 53.1909C34.8605 53.1587 34.796 53.0943 34.7315 53.0943C34.6992 53.0621 34.667 53.0621 34.667 53.0621C34.667 53.0621 34.6992 53.0621 34.7315 53.0943C34.796 53.1265 34.8605 53.1587 34.925 53.1909C35.1185 53.2874 35.3442 53.4162 35.6989 53.5772C36.3762 53.8992 37.4081 54.2856 38.6981 54.6076C39.988 54.9295 41.6004 55.1549 43.3741 55.0905C44.2448 55.0583 45.18 54.9617 46.1475 54.7686C47.0827 54.5754 48.0502 54.2856 49.0176 53.9314C50.9203 53.2231 52.7585 52.3859 54.5321 52.1283C55.4028 51.9995 56.2736 51.9673 57.0798 52.0961C57.886 52.2249 58.5632 52.5147 59.1759 52.8367C59.7887 53.1587 60.3046 53.4484 60.7884 53.6416C61.2721 53.8348 61.7236 53.9314 62.1106 53.9314C62.8845 53.9636 63.2393 53.706 63.2393 53.7382Z" fill="#FAFAFA"/>
<path d="M62.9809 60.4998C62.9487 60.4998 62.7229 60.1456 62.1425 59.6626C61.562 59.2119 60.5623 58.6323 59.1756 58.5035C58.4984 58.4391 57.7566 58.5035 56.9827 58.7611C56.241 59.0187 55.4992 59.5016 54.7898 60.049C54.0803 60.5964 53.4031 61.2725 52.6291 61.8843C51.8551 62.496 50.9844 63.1078 49.9525 63.3976C48.9205 63.6874 47.8886 63.7196 46.8889 63.5908C45.8892 63.462 44.9862 63.2044 44.1155 62.9468C42.3741 62.4316 40.8584 61.7877 39.5362 61.4013C38.214 61.0149 37.0853 60.9505 36.3436 61.0793C35.6018 61.2081 35.2149 61.4013 35.1826 61.3691C35.1826 61.3691 35.2149 61.3691 35.2471 61.3369C35.3116 61.3047 35.3761 61.2725 35.4729 61.2403C35.5696 61.2081 35.6986 61.1437 35.8276 61.1115C35.9566 61.0793 36.1501 61.0149 36.3113 60.9827C37.0853 60.8217 38.214 60.8861 39.5362 61.2725C40.8584 61.6267 42.3741 62.2385 44.1155 62.7858C44.9862 63.0434 45.8892 63.301 46.8889 63.3976C47.8563 63.5264 48.8883 63.4942 49.888 63.2044C50.8877 62.9146 51.7262 62.335 52.5001 61.7233C53.2741 61.1115 53.9513 60.4354 54.6608 59.888C55.3702 59.3084 56.112 58.8577 56.8859 58.6001C57.6599 58.3425 58.4339 58.2781 59.1111 58.3425C60.4978 58.4713 61.4975 59.0831 62.1102 59.566C62.7552 60.1134 62.9809 60.4998 62.9809 60.4998Z" fill="#FAFAFA"/>
<g opacity="0.2">
<path d="M34.248 59.2118C36.183 59.3728 37.9244 58.0527 39.3756 56.7648C40.8268 55.4447 42.3424 53.9958 44.2451 53.706C46.2768 53.4162 48.3084 54.511 50.3401 54.1246C51.2431 53.9314 52.0815 53.4806 53.0167 53.4162C54.5324 53.3518 55.7901 54.4788 56.8866 55.5413C58.3055 56.8936 59.7244 58.2781 61.1434 59.6304C61.5626 60.049 62.4011 60.6608 62.9493 60.4032L63.0461 58.2781C62.3688 54.4788 61.6271 50.5506 58.6925 48.0392C56.4996 46.1717 53.5327 45.5278 50.6948 45.2058C47.2442 44.8194 43.5034 44.8516 40.5688 46.7835C38.6339 48.0714 37.2794 50.0677 36.3765 52.1927C35.4735 54.3178 35.022 56.636 34.5705 58.8899" fill="black"/>
</g>
<path d="M71.4943 48.3612C71.591 48.8763 72.9777 56.8936 72.7197 58.5035C72.4617 60.0812 72.0425 62.1741 70.2043 62.9468C68.3662 63.6874 65.6895 62.6892 64.1739 60.1134C62.6582 57.5054 56.144 48.3934 56.144 48.3934L51.2744 47.8138V39.7L60.562 45.6244L64.8511 49.4881L64.5286 48.2002L71.4943 48.3612Z" fill="#EB996E"/>
<path d="M53.3388 50.776H45.9861C45.3734 50.776 44.8896 50.293 44.8896 49.6813V36.448C44.8896 35.8362 45.3734 35.3532 45.9861 35.3532H53.3388C53.9515 35.3532 54.4352 35.8362 54.4352 36.448V49.6813C54.4352 50.293 53.9515 50.776 53.3388 50.776Z" fill="#455A64"/>
<path d="M64.6868 49.2799C62.2245 47.0939 60.1996 45.3541 60.1641 45.394C60.1286 45.4338 62.0959 47.2383 64.5582 49.4243C67.0205 51.6103 69.0454 53.3501 69.0809 53.3103C69.1164 53.2704 67.1491 51.466 64.6868 49.2799Z" fill="#E07646"/>
<path d="M26.0565 48.8441C26.0565 48.8441 24.8955 58.8577 24.8955 59.9846C24.8955 61.1115 25.9275 63.8483 28.7653 64.0737C31.6032 64.2991 35.2796 57.9239 35.2796 57.9239L41.2133 48.9407L38.6012 44.0467L33.4736 49.1661L26.0565 48.8441Z" fill="#EB996E"/>
<path d="M52.533 41.3742L44.8578 41.1489L38.5693 43.9823L41.1815 48.8763L45.7608 48.2002C45.7608 48.2002 48.4374 47.7494 48.5987 47.5884C48.9211 47.2664 49.1791 46.3327 49.3726 45.4956C49.5661 44.6584 49.4694 43.7891 49.1146 42.9841L48.9534 42.8231C48.9534 42.8231 51.4688 42.308 51.888 42.1148C52.92 41.7606 52.533 41.3742 52.533 41.3742Z" fill="#EB996E"/>
<path d="M38.6014 44.0145C38.6014 44.0145 38.5047 44.1433 38.3112 44.3686C38.1177 44.594 37.8275 44.916 37.4405 45.3024C36.6988 46.0751 35.6346 47.1377 34.4736 48.2968C33.3127 49.4559 32.2485 50.4862 31.4745 51.259C31.1198 51.6132 30.7973 51.9351 30.5715 52.1605C30.3458 52.3859 30.249 52.4825 30.2168 52.4825C30.2168 52.4825 30.3135 52.3537 30.507 52.1283C30.7005 51.9029 30.9908 51.581 31.3777 51.1946C32.1195 50.4218 33.1837 49.3593 34.3446 48.2002C35.5056 47.0411 36.5698 46.0107 37.3437 45.238C37.6985 44.8838 38.021 44.5618 38.2467 44.3364C38.4724 44.1432 38.5692 44.0145 38.6014 44.0145Z" fill="#E07646"/>
<path d="M46.1478 43.6603C46.1155 43.6281 46.696 43.1451 47.5667 42.9841C48.4374 42.7909 49.1791 43.0163 49.1469 43.0485C49.1469 43.1129 48.4374 42.9519 47.599 43.1451C46.7927 43.3061 46.18 43.6925 46.1478 43.6603Z" fill="#E07646"/>
<path d="M49.6302 44.5296C49.6302 44.594 49.0175 44.3364 48.2435 44.4008C47.4695 44.4652 46.9213 44.8194 46.889 44.755C46.8568 44.7228 47.405 44.3042 48.2112 44.2398C49.0497 44.1755 49.6302 44.4974 49.6302 44.5296Z" fill="#E07646"/>
<path d="M49.1465 45.9463C49.1143 45.9785 49.0498 45.9141 48.8885 45.8497C48.7595 45.7853 48.5338 45.7531 48.3081 45.7853C48.0823 45.8175 47.8888 45.9141 47.7598 46.0107C47.6308 46.1073 47.5663 46.1717 47.5341 46.1717C47.5018 46.1717 47.5341 46.0429 47.6631 45.9463C47.7921 45.8175 47.9856 45.6888 48.2758 45.6566C48.5338 45.6244 48.7918 45.6888 48.9208 45.7853C49.082 45.8175 49.1465 45.9141 49.1465 45.9463Z" fill="#E07646"/>
<path d="M49.0815 30.6524C51.6291 30.4914 53.5963 28.3985 53.5963 25.8549C53.5963 24.3094 53.564 23.0215 53.564 23.0215C53.564 23.0215 57.4339 22.4097 57.4984 18.546C57.5306 14.6822 56.8857 5.76342 56.8857 5.76342C52.4031 3.83155 47.2111 4.4755 43.309 7.4699L42.7285 7.92067L44.0507 26.2734C44.212 28.8171 46.4694 30.7811 49.0815 30.6524Z" fill="#EB996E"/>
<path d="M53.564 22.9249C53.564 22.9249 51.1131 23.1181 48.501 21.476C48.501 21.476 49.6942 24.2772 53.564 23.923V22.9249Z" fill="#E07646"/>
<path d="M43.1802 11.881C43.1157 11.8488 40.5035 11.1083 40.6003 13.7485C40.697 16.3887 43.3414 15.7769 43.3414 15.6804C43.3414 15.616 43.1802 11.881 43.1802 11.881Z" fill="#EB996E"/>
<path d="M42.5034 14.7144C42.5034 14.7144 42.4711 14.7466 42.3744 14.7788C42.3099 14.811 42.1809 14.8432 42.0196 14.811C41.7294 14.7144 41.4714 14.2958 41.4714 13.8129C41.4714 13.5875 41.5037 13.3299 41.5682 13.1367C41.6327 12.9435 41.7616 12.8147 41.8906 12.7825C42.0196 12.7503 42.1486 12.8147 42.1809 12.9113C42.2131 12.9757 42.2131 13.0401 42.2131 13.0401C42.2131 13.0401 42.2776 13.0079 42.2454 12.8791C42.2454 12.8147 42.2131 12.7503 42.1486 12.7181C42.0841 12.6538 41.9874 12.6538 41.8906 12.6538C41.6972 12.6859 41.5037 12.8791 41.4069 13.0723C41.3102 13.2977 41.2457 13.5553 41.2779 13.8129C41.3102 14.3602 41.6004 14.8432 41.9874 14.9398C42.1809 14.972 42.3421 14.9076 42.4066 14.8432C42.5034 14.7788 42.5034 14.7144 42.5034 14.7144Z" fill="#E07646"/>
<path d="M55.5945 12.2674C55.5945 12.5572 55.3688 12.8147 55.0463 12.8147C54.7561 12.8469 54.4981 12.6216 54.4658 12.2996C54.4658 12.0098 54.6916 11.7522 55.0141 11.7522C55.3043 11.7522 55.5623 11.9776 55.5945 12.2674Z" fill="#263238"/>
<path d="M56.111 11.1727C56.0465 11.237 55.6273 10.9473 55.0145 10.9473C54.4341 10.9473 53.9826 11.237 53.9181 11.1727C53.8858 11.1405 53.9503 11.0117 54.1438 10.8829C54.3373 10.7541 54.6598 10.6253 55.0145 10.6253C55.4015 10.6253 55.6918 10.7541 55.8852 10.9151C56.0787 11.0117 56.1432 11.1405 56.111 11.1727Z" fill="#263238"/>
<path d="M49.5965 12.3318C49.5965 12.6216 49.3707 12.8791 49.0482 12.8791C48.758 12.9113 48.5 12.686 48.4678 12.364C48.4678 12.0742 48.6935 11.8166 49.016 11.8166C49.3385 11.8166 49.5965 12.042 49.5965 12.3318Z" fill="#263238"/>
<path d="M50.2418 11.3014C50.1773 11.3658 49.7581 11.0761 49.1454 11.0761C48.5649 11.0761 48.1134 11.3658 48.0489 11.3014C48.0167 11.2692 48.0812 11.1405 48.2747 11.0117C48.4682 10.8829 48.7907 10.7541 49.1454 10.7541C49.5324 10.7541 49.8226 10.8829 50.0161 11.0439C50.2096 11.1405 50.2741 11.2692 50.2418 11.3014Z" fill="#263238"/>
<path d="M52.435 15.7126C52.435 15.6804 52.7898 15.616 53.4025 15.5516C53.5637 15.5516 53.6927 15.5194 53.725 15.3906C53.7572 15.294 53.6927 15.1008 53.6282 14.9398C53.4992 14.5856 53.338 14.1993 53.1767 13.7807C52.564 12.1386 52.1125 10.7863 52.177 10.7541C52.2415 10.7219 52.7898 12.042 53.4347 13.6841C53.596 14.1027 53.725 14.489 53.854 14.8432C53.9185 15.0042 54.0152 15.1974 53.9185 15.455C53.8862 15.5838 53.7572 15.6482 53.6605 15.6804C53.5637 15.7126 53.467 15.7126 53.4025 15.7126C52.7898 15.7448 52.435 15.7448 52.435 15.7126Z" fill="#263238"/>
<path d="M50.6609 16.1311C50.7576 16.1311 50.7576 16.7751 51.3058 17.2259C51.8541 17.6766 52.5635 17.6122 52.5635 17.7088C52.5635 17.741 52.4023 17.8376 52.112 17.8376C51.8218 17.8376 51.4026 17.741 51.0801 17.4834C50.7576 17.1937 50.5964 16.8395 50.5641 16.5497C50.5319 16.2921 50.6286 16.1311 50.6609 16.1311Z" fill="#263238"/>
<path d="M50.4034 8.951C50.3389 9.11199 49.7584 9.04759 49.049 9.11199C48.3395 9.17638 47.7913 9.40177 47.6945 9.24078C47.6623 9.17638 47.759 9.01539 47.9848 8.8544C48.2105 8.69341 48.5652 8.56462 48.9845 8.50023C49.4037 8.46803 49.7907 8.53243 50.0487 8.62902C50.3067 8.75781 50.4357 8.8866 50.4034 8.951Z" fill="#263238"/>
<path d="M55.9176 9.46616C55.8209 9.59495 55.4017 9.46616 54.9179 9.46616C54.4342 9.43396 54.015 9.56275 53.9182 9.40176C53.886 9.33737 53.9505 9.20858 54.1117 9.07979C54.3052 8.95099 54.5954 8.8544 54.9179 8.8544C55.2727 8.8544 55.5629 8.98319 55.7241 9.11198C55.8854 9.24077 55.9499 9.40176 55.9176 9.46616Z" fill="#263238"/>
<path d="M58.7564 3.28418C58.7887 2.80121 58.6274 2.28605 58.2404 1.99627C57.8535 1.70649 57.2407 1.73869 56.9182 2.09286C57.1117 1.4489 56.5635 0.708354 55.8863 0.643958C55.2413 0.61176 54.7253 1.09473 54.1126 1.25572C53.4999 1.41671 52.8872 1.28792 52.3067 1.06253C51.7262 0.837145 51.2102 0.515167 50.5975 0.289782C49.3721 -0.160988 47.9854 -0.0965924 46.8244 0.450771C45.6635 0.998135 44.696 1.99627 44.2445 3.21979C43.4061 2.9622 42.4386 3.38078 41.8904 4.08913C41.3744 4.79748 41.2454 5.76342 41.3422 6.63276C41.4067 7.24452 41.6002 7.79188 41.7937 8.37144C41.7937 8.43584 41.7937 8.46804 41.7937 8.53243C41.8259 10.6575 42.0839 13.1689 42.9868 13.1689C44.567 13.2011 44.2123 10.2067 44.2123 10.2067C46.1472 9.46617 45.4377 6.53617 45.9215 6.0854C46.4052 5.63463 47.4372 4.60429 51.5005 6.69715C53.0807 7.5021 55.1768 7.4699 56.3378 7.21232C56.37 7.21232 56.4023 7.21232 56.4345 7.18012H56.4668H56.499C56.8537 7.08353 57.2085 6.95474 57.531 6.72935C57.8857 6.50397 58.2404 6.18199 58.4017 5.76342C58.5629 5.34484 58.4984 4.86188 58.1759 4.5399C58.4662 4.21792 58.6919 3.76715 58.7564 3.28418Z" fill="#263238"/>
<path d="M138.443 132.011L96.6167 131.818C91.586 131.786 87.5226 127.697 87.5549 122.674L88.0064 17.9664C88.0386 12.9435 92.1342 8.88661 97.165 8.91881L138.991 9.11199C144.022 9.14419 148.086 13.2333 148.053 18.2562L147.602 122.964C147.57 127.954 143.474 132.011 138.443 132.011Z" fill="#263238"/>
<path d="M138.895 12.7182L130.8 12.686C129.704 12.686 128.833 13.5875 128.833 14.7466V16.2277C128.833 17.3546 127.93 18.2884 126.866 18.2884L111.064 18.224C109.968 18.224 109.097 17.2902 109.097 16.1633V14.6822C109.097 13.5553 108.226 12.6216 107.13 12.6216H104.292L97.1971 12.5894C93.682 12.5572 90.8119 15.4228 90.7796 18.9323L90.3281 121.064C90.3281 124.573 93.166 127.439 96.6811 127.471L138.443 127.664C141.958 127.697 144.828 124.831 144.861 121.322L145.28 19.1255C145.28 15.5838 142.442 12.7182 138.895 12.7182Z" fill="#FAFAFA"/>
<path d="M98.5189 30.8777C99.6232 30.8777 100.518 29.984 100.518 28.8815C100.518 27.779 99.6232 26.8852 98.5189 26.8852C97.4147 26.8852 96.5195 27.779 96.5195 28.8815C96.5195 29.984 97.4147 30.8777 98.5189 30.8777Z" fill="#FFCC47"/>
<path d="M104.259 27.3682H137.926C138.958 27.3682 139.797 28.2053 139.797 29.2357V34.3229C139.797 35.3533 138.958 36.1904 137.926 36.1904H107.774C106.742 36.1904 105.903 35.3533 105.903 34.3229V28.8493L104.259 27.3682Z" fill="#FFCC47"/>
<path d="M134.411 30.5236C134.411 30.5558 129.252 30.6202 122.866 30.6202C116.481 30.6202 111.321 30.588 111.321 30.5236C111.321 30.4592 116.481 30.427 122.866 30.427C129.219 30.427 134.411 30.4914 134.411 30.5236Z" fill="white"/>
<path d="M134.411 32.5842C134.411 32.6164 129.252 32.6808 122.866 32.6808C116.481 32.6808 111.321 32.6486 111.321 32.5842C111.321 32.5198 116.481 32.4876 122.866 32.4876C129.219 32.5198 134.411 32.552 134.411 32.5842Z" fill="white"/>
<path d="M98.5189 80.1405C99.6232 80.1405 100.518 79.2467 100.518 78.1442C100.518 77.0417 99.6232 76.1479 98.5189 76.1479C97.4147 76.1479 96.5195 77.0417 96.5195 78.1442C96.5195 79.2467 97.4147 80.1405 98.5189 80.1405Z" fill="#FFCC47"/>
<path d="M104.259 76.6309H137.926C138.958 76.6309 139.797 77.468 139.797 78.4984V83.5856C139.797 84.616 138.958 85.4531 137.926 85.4531H107.774C106.742 85.4531 105.903 84.616 105.903 83.5856V78.112L104.259 76.6309Z" fill="#FFCC47"/>
<path d="M134.411 79.8185C134.411 79.8507 129.252 79.9151 122.866 79.9151C116.481 79.9151 111.321 79.8829 111.321 79.8185C111.321 79.7541 116.481 79.7219 122.866 79.7219C129.219 79.7219 134.411 79.7541 134.411 79.8185Z" fill="white"/>
<path d="M134.411 81.8791C134.411 81.9113 129.252 81.9757 122.866 81.9757C116.481 81.9757 111.321 81.9435 111.321 81.8791C111.321 81.847 116.481 81.7826 122.866 81.7826C129.219 81.7826 134.411 81.847 134.411 81.8791Z" fill="white"/>
<path d="M135.766 46.2361C136.852 46.2361 137.733 45.3568 137.733 44.272C137.733 43.1873 136.852 42.308 135.766 42.308C134.68 42.308 133.799 43.1873 133.799 44.272C133.799 45.3568 134.68 46.2361 135.766 46.2361Z" fill="#455A64"/>
<path d="M130.993 41.503H99.4543C98.4869 41.503 97.7129 42.2758 97.7129 43.2417V48.007C97.7129 48.9729 98.4869 49.7457 99.4543 49.7457H127.704C128.672 49.7457 129.446 48.9729 129.446 48.007V42.8875L130.993 41.503Z" fill="#455A64"/>
<path d="M102.776 44.4652C102.776 44.433 107.614 44.3686 113.58 44.3686C119.546 44.3686 124.383 44.4008 124.383 44.4652C124.383 44.4974 119.546 44.5618 113.58 44.5618C107.646 44.5618 102.776 44.4974 102.776 44.4652Z" fill="white"/>
<path d="M102.776 46.3971C102.776 46.3649 107.614 46.3005 113.58 46.3005C119.546 46.3005 124.383 46.3327 124.383 46.3971C124.383 46.4615 119.546 46.4937 113.58 46.4937C107.646 46.4937 102.776 46.4615 102.776 46.3971Z" fill="white"/>
<path d="M98.5189 60.1456C99.6232 60.1456 100.518 59.2518 100.518 58.1493C100.518 57.0468 99.6232 56.1531 98.5189 56.1531C97.4147 56.1531 96.5195 57.0468 96.5195 58.1493C96.5195 59.2518 97.4147 60.1456 98.5189 60.1456Z" fill="#263238"/>
<path d="M105.517 55.2515H137.056C138.023 55.2515 138.797 56.0243 138.797 56.9902V61.7555C138.797 62.7214 138.023 63.4942 137.056 63.4942H108.806C107.838 63.4942 107.065 62.7214 107.065 61.7555V56.636L105.517 55.2515Z" fill="#263238"/>
<path d="M133.734 58.2137C133.734 58.2459 128.897 58.3103 122.931 58.3103C116.965 58.3103 112.128 58.2781 112.128 58.2137C112.128 58.1815 116.965 58.1171 122.931 58.1171C128.897 58.1171 133.734 58.1493 133.734 58.2137Z" fill="white"/>
<path d="M133.734 60.1456C133.734 60.1778 128.897 60.2422 122.931 60.2422C116.965 60.2422 112.128 60.21 112.128 60.1456C112.128 60.1134 116.965 60.049 122.931 60.049C128.897 60.049 133.734 60.0812 133.734 60.1456Z" fill="white"/>
<path d="M136.25 72.7028H128.64C127.93 72.7028 127.35 72.1232 127.35 71.4148V68.678C127.35 67.9697 127.93 67.3901 128.64 67.3901H136.25C136.96 67.3901 137.54 67.9697 137.54 68.678V71.4148C137.54 72.1554 136.96 72.7028 136.25 72.7028Z" fill="#263238"/>
<path d="M132.735 70.1591C134.392 70.1591 135.735 70.1159 135.735 70.0625C135.735 70.0092 134.392 69.9659 132.735 69.9659C131.079 69.9659 129.736 70.0092 129.736 70.0625C129.736 70.1159 131.079 70.1591 132.735 70.1591Z" fill="white"/>
<path d="M99.1645 102.743H94.166V107.734H99.1645V102.743Z" fill="#E0E0E0"/>
<path d="M105.098 102.743H100.1V107.734H105.098V102.743Z" fill="#E0E0E0"/>
<path d="M111.032 102.743H106.033V107.734H111.032V102.743Z" fill="#E0E0E0"/>
<path d="M116.966 102.743H111.968V107.734H116.966V102.743Z" fill="#E0E0E0"/>
<path d="M122.9 102.743H117.901V107.734H122.9V102.743Z" fill="#E0E0E0"/>
<path d="M99.3903 115.011H94.166V120.227H99.3903V115.011Z" fill="#E0E0E0"/>
<path d="M125.511 115.043H100.357V120.259H125.511V115.043Z" fill="#E0E0E0"/>
<path d="M140.733 101.294C140.733 101.294 140.733 101.166 140.733 100.908C140.733 100.65 140.733 100.296 140.733 99.8134C140.733 98.8474 140.733 97.4307 140.701 95.5632L140.733 95.5954C132.316 95.5954 114.612 95.6276 94.1661 95.6276L94.2628 95.531C94.2628 97.4951 94.2628 99.427 94.2628 101.262L94.1661 101.166C107.259 101.166 118.901 101.198 127.253 101.198C131.445 101.198 134.799 101.23 137.121 101.23C138.282 101.23 139.185 101.23 139.798 101.23C140.088 101.23 140.346 101.23 140.507 101.23C140.636 101.294 140.733 101.294 140.733 101.294C140.733 101.294 140.669 101.294 140.507 101.294C140.346 101.294 140.12 101.294 139.83 101.294C139.217 101.294 138.314 101.294 137.186 101.294C134.864 101.294 131.51 101.294 127.35 101.327C118.965 101.327 107.323 101.359 94.1983 101.359H94.1016V101.262C94.1016 99.427 94.1016 97.4951 94.1016 95.531V95.4344H94.1983C114.644 95.4666 132.316 95.4666 140.765 95.4666H140.798V95.4988C140.798 97.3663 140.765 98.8152 140.765 99.7812C140.765 100.264 140.765 100.618 140.765 100.876C140.733 101.166 140.733 101.294 140.733 101.294Z" fill="#263238"/>
<path d="M137.508 98.944H137.283C137.025 98.944 136.799 98.7186 136.799 98.461V97.0443C136.799 96.7867 137.025 96.5614 137.283 96.5614H137.508C137.766 96.5614 137.992 96.7867 137.992 97.0443V98.461C137.96 98.7508 137.766 98.944 137.508 98.944Z" fill="#FFCC47"/>
<path d="M138.83 98.4932C138.83 98.5254 138.701 98.5254 138.443 98.5254L138.475 98.4932C138.475 98.6864 138.411 98.9762 138.25 99.2338C138.153 99.3626 138.024 99.4914 137.863 99.588C137.702 99.6846 137.508 99.7168 137.315 99.6846C136.928 99.6846 136.605 99.4592 136.444 99.2016C136.25 98.944 136.186 98.6864 136.154 98.4932L136.218 98.5254C135.928 98.5254 135.767 98.4932 135.767 98.461C135.767 98.4288 135.928 98.4288 136.218 98.3966H136.25V98.4288C136.315 98.5898 136.379 98.8474 136.573 99.0406C136.734 99.266 137.024 99.427 137.347 99.4592C137.508 99.4592 137.669 99.4592 137.831 99.3626C137.96 99.2982 138.088 99.2016 138.153 99.0728C138.314 98.8474 138.379 98.5898 138.411 98.4288V98.3966H138.443C138.669 98.461 138.83 98.461 138.83 98.4932Z" fill="#FFCC47"/>
<path d="M137.379 100.329C137.432 100.329 137.476 100.17 137.476 99.9743C137.476 99.7787 137.432 99.6202 137.379 99.6202C137.326 99.6202 137.282 99.7787 137.282 99.9743C137.282 100.17 137.326 100.329 137.379 100.329Z" fill="#FFCC47"/>
<path d="M131.575 115.011H126.351V120.227H131.575V115.011Z" fill="#E0E0E0"/>
<path d="M140.733 115.011H132.574V120.227H140.733V115.011Z" fill="#FFCC47"/>
<path d="M128.898 102.743H123.899V107.734H128.898V102.743Z" fill="#E0E0E0"/>
<path d="M134.832 102.743H129.833V107.734H134.832V102.743Z" fill="#E0E0E0"/>
<path d="M140.733 102.743H135.734V107.734H140.733V102.743Z" fill="#E0E0E0"/>
<path d="M99.1645 108.893H94.166V113.884H99.1645V108.893Z" fill="#E0E0E0"/>
<path d="M105.098 108.893H100.1V113.884H105.098V108.893Z" fill="#E0E0E0"/>
<path d="M111.032 108.893H106.033V113.884H111.032V108.893Z" fill="#E0E0E0"/>
<path d="M116.966 108.893H111.968V113.884H116.966V108.893Z" fill="#E0E0E0"/>
<path d="M122.9 108.893H117.901V113.884H122.9V108.893Z" fill="#E0E0E0"/>
<path d="M128.898 108.893H123.899V113.884H128.898V108.893Z" fill="#E0E0E0"/>
<path d="M134.832 108.893H129.833V113.884H134.832V108.893Z" fill="#E0E0E0"/>
<path d="M140.733 108.893H135.734V113.884H140.733V108.893Z" fill="#E0E0E0"/>
<path d="M115.641 92.0869C116.122 92.0891 116.514 91.7162 116.516 91.2538C116.518 90.7915 116.13 90.4149 115.649 90.4126C115.168 90.4103 114.777 90.7833 114.774 91.2456C114.772 91.708 115.16 92.0846 115.641 92.0869Z" fill="#FFCC47"/>
<path d="M118.318 92.1191C118.799 92.1214 119.19 91.7484 119.193 91.2861C119.195 90.8237 118.807 90.4471 118.326 90.4448C117.845 90.4426 117.453 90.8155 117.451 91.2779C117.449 91.7402 117.837 92.1169 118.318 92.1191Z" fill="#FFCC47"/>
<path d="M120.995 92.1192C121.475 92.1214 121.867 91.7485 121.869 91.2861C121.871 90.8238 121.483 90.4471 121.003 90.4449C120.522 90.4426 120.13 90.8156 120.128 91.2779C120.126 91.7402 120.514 92.1169 120.995 92.1192Z" fill="#FFCC47"/>
</g>
<defs>
<clipPath id="clip0_39_840">
<rect width="220" height="138" fill="white"/>
</clipPath>
</defs>
</svg>
