<svg width="203" height="145" viewBox="0 0 203 145" fill="none" xmlns="http://www.w3.org/2000/svg">
<g clip-path="url(#clip0_39_384)">
<path d="M83.7493 86.0049L29.2148 67.1429L16.4487 103.771L70.9832 122.633L83.7493 86.0049Z" fill="#ECECEC"/>
<path d="M83.7489 85.9769C83.7489 85.9769 83.5364 86.118 83.076 86.2944C82.5802 86.5061 81.9073 86.753 81.0928 87.1058C79.322 87.8114 76.8075 88.764 73.7618 89.9635C67.4933 92.3625 58.9583 95.6083 49.467 99.2068L49.2545 99.2774L49.1483 99.101C49.0774 98.9599 48.9712 98.8187 48.8649 98.6776C43.411 89.9988 38.4883 82.1667 34.8759 76.4161C33.1406 73.5937 31.6886 71.3005 30.6969 69.6423C30.2365 68.8662 29.847 68.2664 29.5636 67.7725C29.3157 67.3491 29.1741 67.1022 29.2095 67.1022C29.2095 67.1022 29.3866 67.3139 29.6699 67.7019C29.9886 68.1606 30.3782 68.7603 30.874 69.5012C31.9365 71.1241 33.3885 73.382 35.1947 76.1691C38.8424 81.8844 43.836 89.7166 49.3253 98.3248C49.4316 98.4659 49.5024 98.6071 49.6086 98.7482L49.2899 98.6423C58.7812 95.0791 67.3517 91.8686 73.6202 89.5401C76.7013 88.4112 79.2158 87.4939 80.9865 86.8236C81.8365 86.5414 82.5094 86.2944 83.0052 86.118C83.501 86.0474 83.7489 85.9769 83.7489 85.9769Z" fill="#E1E1E1"/>
<path d="M16.4596 103.723C16.3888 103.582 22.2323 99.983 29.5278 95.6788C36.8234 91.3747 42.7731 87.9526 42.844 88.0937C42.9148 88.2348 37.0713 91.8333 29.7757 96.1375C22.4802 100.477 16.5305 103.864 16.4596 103.723Z" fill="#E1E1E1"/>
<path d="M61.1191 93.9148C61.2608 93.8796 63.5628 100.265 66.2897 108.168C69.0167 116.106 71.1062 122.562 70.9645 122.597C70.8229 122.633 68.5209 116.247 65.7939 108.344C63.1024 100.406 61.0129 93.9501 61.1191 93.9148Z" fill="#E1E1E1"/>
<g opacity="0.3">
<path d="M190.1 83.0007L136.155 92.1089L142.322 128.352L196.267 119.244L190.1 83.0007Z" fill="#E1E1E1"/>
<path d="M190.136 83C190.136 83 189.994 83.2117 189.711 83.5645C189.392 83.9526 188.967 84.4818 188.436 85.1168C187.267 86.4927 185.638 88.4331 183.655 90.8321C179.546 95.6654 173.915 102.263 167.718 109.566L167.576 109.707L167.399 109.601C167.257 109.53 167.116 109.46 166.974 109.354C158.474 104.627 150.789 100.358 145.158 97.2178C142.396 95.6655 140.165 94.3954 138.571 93.4781C137.827 93.0547 137.225 92.7019 136.8 92.455C136.411 92.208 136.198 92.0669 136.198 92.0669C136.198 92.0669 136.446 92.1727 136.836 92.3844C137.296 92.6314 137.898 92.9489 138.642 93.337C140.271 94.219 142.538 95.4185 145.3 96.9355C150.931 100.04 158.651 104.274 167.187 108.931C167.328 109.001 167.47 109.107 167.612 109.178L167.293 109.248C173.561 101.981 179.228 95.4185 183.336 90.6204C185.39 88.292 187.054 86.3869 188.223 85.0109C188.79 84.3759 189.25 83.882 189.569 83.4939C189.959 83.1764 190.1 83 190.136 83Z" fill="#ECECEC"/>
<path d="M142.326 128.335C142.22 128.264 145.407 122.619 149.515 115.704C153.588 108.79 156.988 103.251 157.129 103.321C157.236 103.392 154.048 109.036 149.94 115.951C145.867 122.866 142.467 128.405 142.326 128.335Z" fill="#ECECEC"/>
<path d="M174.978 99.8637C175.085 99.7579 179.901 104.027 185.815 109.354C191.694 114.717 196.405 119.127 196.298 119.232C196.192 119.338 191.376 115.069 185.461 109.742C179.582 104.38 174.872 99.9696 174.978 99.8637Z" fill="#ECECEC"/>
</g>
<g opacity="0.4">
<path d="M172.862 14.3796L136.181 0.0120621L126.462 24.6356L163.143 39.0032L172.862 14.3796Z" fill="#ECECEC"/>
<path d="M172.853 14.7117C172.853 14.7117 172.711 14.7822 172.392 14.8881C172.038 15.0292 171.578 15.1703 171.011 15.382C169.772 15.8053 168.036 16.4051 165.947 17.1107C161.626 18.5572 155.676 20.5681 149.125 22.7555L148.983 22.7908L148.912 22.6496C148.841 22.5438 148.806 22.438 148.735 22.3321C145.264 16.264 142.112 10.7956 139.81 6.77372C138.712 4.79805 137.792 3.17518 137.154 2.04622C136.871 1.51703 136.623 1.09367 136.446 0.740872C136.304 0.458633 136.198 0.282234 136.233 0.282234C136.233 0.282234 136.34 0.423353 136.517 0.705592C136.694 1.02311 136.977 1.44647 137.296 1.97566C137.969 3.10462 138.925 4.69221 140.058 6.66788C142.396 10.6545 145.583 16.1229 149.089 22.191C149.16 22.2968 149.195 22.4027 149.266 22.5085L149.054 22.438C155.641 20.2859 161.555 18.3102 165.911 16.899C168.036 16.2287 169.772 15.6642 171.011 15.2762C171.578 15.0998 172.038 14.9586 172.392 14.8528C172.676 14.747 172.853 14.7117 172.853 14.7117Z" fill="#E1E1E1"/>
<path d="M126.459 24.9781C126.424 24.9075 130.497 22.5791 135.596 19.8625C140.696 17.1107 144.84 14.9586 144.911 15.0645C144.946 15.135 140.873 17.4282 135.773 20.18C130.674 22.8966 126.495 25.0487 126.459 24.9781Z" fill="#E1E1E1"/>
<path d="M157.199 19.5097C157.305 19.4744 158.687 23.8844 160.316 29.3881C161.945 34.8564 163.184 39.337 163.114 39.3723C163.007 39.4075 161.626 34.9976 159.997 29.4939C158.368 23.9903 157.128 19.5097 157.199 19.5097Z" fill="#E1E1E1"/>
</g>
<path d="M202 144.718C202 144.753 156.562 144.824 100.5 144.824C44.4377 144.788 -1 144.753 -1 144.718C-1 144.682 44.4377 144.612 100.5 144.612C156.527 144.612 202 144.647 202 144.718Z" fill="#1A2E35"/>
<path d="M9.02247 48.5097L14.0868 46.7105L11.9265 43.8175C11.8911 43.6411 11.7849 42.9708 11.7849 41.8771C11.7849 41.5596 11.8557 41.2068 11.9619 40.8893C12.1036 40.5012 12.2807 40.0073 12.4932 39.7603C12.7411 39.4781 12.4932 39.0195 12.139 39.1253C11.7849 39.2311 11.112 40.0073 10.8286 41.2068C10.5099 42.4063 9.69536 40.6423 9.41204 40.0073C9.0933 39.3723 8.06626 37.4672 7.78294 37.3966C7.39337 37.326 7.21629 37.7141 7.53503 38.3491C7.85377 38.9842 8.70373 40.9246 8.34958 41.0657C7.99543 41.2068 6.47258 37.9611 6.47258 37.9611C6.47258 37.9611 6.26008 37.2202 5.87052 37.3613C5.1268 37.6436 7.03922 40.9951 7.2163 41.2774C7.35796 41.4891 6.96839 41.6655 6.86214 41.4185C6.72048 41.1715 5.41012 38.1375 4.6664 38.4197C4.09976 38.6314 6.18925 41.1715 6.11842 41.9477C6.04759 42.7238 4.73723 39.8662 4.206 40.0779C3.99351 40.1484 3.85185 40.2543 4.87889 41.8066C5.23304 42.3358 5.8351 43.0766 6.47258 43.8881L9.02247 48.5097Z" fill="#FFBF9D"/>
<path d="M54.6018 54.6837C54.6018 54.6837 52.0874 48.8625 50.3874 46.0401C48.7583 43.3942 46.598 42.9355 45.4647 42.865C44.6147 42.618 44.0127 42.5827 44.0127 42.5827L34.6277 42.5122C34.6277 42.5122 31.7236 42.371 29.0321 44.5584C28.6071 44.9112 25.3489 48.6509 21.0636 53.9781L13.5202 45.8637L9.02246 48.5097C9.02246 48.5097 13.9098 65.2676 20.0012 64.1034C23.6135 63.4331 26.4467 60.8929 26.4467 60.8929L31.2278 57.118L31.334 57.753C31.4403 58.5292 31.6882 59.764 31.8653 60.5401C32.4319 62.9392 32.7507 66.0791 31.5111 68.1606C31.5111 68.1606 29.8112 69.4659 31.157 70.8771H48.7937C48.7937 70.8771 51.3082 69.1837 49.0062 67.3139L47.5896 63.7506L48.5104 59.4112L48.8646 57.6825L50.4228 60.3285C50.4228 60.3285 53.504 64.174 56.6913 63.7153C60.5516 63.1509 62.7473 56.1655 59.2766 46.9574L55.0977 48.2275L54.6018 54.6837Z" fill="#25C883"/>
<g opacity="0.4">
<path d="M9.02246 48.5097L9.44744 49.9209L14.441 46.8869L13.4848 45.899L9.02246 48.5097Z" fill="black"/>
</g>
<g opacity="0.2">
<path d="M31.5113 68.1606C33.0342 67.9489 34.3091 67.1022 35.2299 65.8674C36.1507 64.6326 36.5403 63.045 36.2924 61.5633C36.2215 61.0341 36.0091 60.4696 35.5487 60.1874C34.982 59.8346 34.2383 60.0109 33.6362 59.6934C33.1758 59.4465 32.9279 58.9173 32.5738 58.4939C32.255 58.0706 31.7946 57.4002 31.2988 57.6119C31.2988 57.6119 31.9009 60.7165 32.1488 62.0925C32.3967 63.4684 32.5029 65.444 32.0071 66.9258C31.9009 67.3844 31.7238 67.8078 31.5113 68.1606Z" fill="black"/>
</g>
<path d="M20.3197 56.8358C20.2489 56.8358 20.3551 56.1655 20.5676 55.3893C20.7801 54.6131 20.9572 53.9781 21.028 53.9781C21.0988 53.9781 20.9926 54.6484 20.7801 55.4246C20.5322 56.236 20.3551 56.8711 20.3197 56.8358Z" fill="#1A2E35"/>
<path d="M21.1158 55.0668C21.2317 55.6398 21.3723 56.095 21.4298 56.0834C21.4873 56.0719 21.44 55.598 21.3241 55.025C21.2082 54.452 21.0676 53.9968 21.0101 54.0083C20.9526 54.0199 20.9999 54.4938 21.1158 55.0668Z" fill="#1A2E35"/>
<path d="M55.0977 35.5268L48.6875 45.899L53.7519 47.2749L59.3475 38.7019L55.0977 35.5268Z" fill="#375A64"/>
<path d="M54.708 44.3467L54.9205 45.8637L55.8059 46.9927L55.9122 47.9453L59.1349 46.9574L57.8246 42.371C57.8246 42.371 58.0371 41.0304 57.9662 40.5012L57.0809 41.6655L56.833 39.7603L55.0268 38.3139C54.8143 38.1728 54.5664 38.208 54.4247 38.4197C54.2831 38.5961 54.3185 38.8431 54.4601 38.9842L55.9122 40.2543L56.0184 41.8419L54.9559 40.854C54.8497 40.7482 54.708 40.6776 54.6018 40.6776L53.1498 40.3954C52.9373 40.3601 52.7248 40.5012 52.6894 40.7129C52.654 40.8893 52.7956 41.0657 52.9727 41.101L54.3185 41.5243L55.6642 42.865L54.3539 42.371L52.5831 42.618C52.4061 42.6533 52.2998 42.7944 52.2998 42.9708C52.2998 43.1825 52.4769 43.3236 52.654 43.3236L53.7872 43.253L54.4601 43.4647L52.9373 43.8528C52.7956 43.8881 52.6894 44.0292 52.6894 44.1703C52.6894 44.3467 52.8664 44.4878 53.0081 44.4526L54.708 44.3467Z" fill="#FFBF9D"/>
<g opacity="0.4">
<path d="M55.1329 48.1922L54.9912 49.8856L59.8785 48.545L59.3119 46.9221L55.1329 48.1922Z" fill="black"/>
</g>
<path d="M48.6876 45.899C48.6876 45.899 48.2626 45.2993 48.298 45.2287C48.3334 45.1229 54.3894 35.174 54.3894 35.174L55.0977 35.562L48.6876 45.899Z" fill="#1A2E35"/>
<path d="M56.6918 38.1375C56.798 38.0316 57.0105 38.1022 57.0459 38.2433C57.0813 38.3844 56.9397 38.5608 56.798 38.5255C56.6564 38.4903 56.5855 38.2786 56.6918 38.1375Z" fill="#1A2E35"/>
<path d="M52.6892 50.9088C52.6892 50.9088 52.6538 51.0146 52.5122 51.1557C52.3705 51.2968 52.1226 51.4732 51.733 51.5791C51.3435 51.6849 50.8476 51.6849 50.3164 51.5791C49.7852 51.5085 49.1477 51.3321 48.5102 51.5085C47.8374 51.6496 47.2353 52.073 46.5978 52.5669C45.9603 53.0608 45.2875 53.6606 44.4021 53.9428C43.9417 54.0839 43.4813 54.1192 42.9855 54.0487C42.4897 53.9781 42.0293 53.837 41.5689 53.6606C40.6481 53.3078 39.7627 52.7786 38.7711 52.4258C38.2752 52.2494 37.7794 52.1436 37.2836 52.1083C36.7878 52.073 36.292 52.1436 35.7962 52.2494C34.84 52.4611 33.9546 52.7786 33.0338 52.955C31.2276 53.3431 29.5277 52.955 28.2882 52.32C27.0486 51.6849 26.2695 50.8382 25.8091 50.2032C25.3487 49.5681 25.207 49.18 25.207 49.18C25.2424 49.18 25.3841 49.5681 25.8445 50.1679C26.3049 50.7676 27.084 51.5791 28.3236 52.2141C29.5277 52.8139 31.1922 53.2019 32.963 52.8139C33.8483 52.6375 34.7337 52.2847 35.7253 52.073C36.2212 51.9672 36.717 51.8966 37.2482 51.9319C37.7794 51.9672 38.2752 52.1083 38.7711 52.2847C39.7627 52.6375 40.6481 53.1667 41.5689 53.5195C42.0293 53.6959 42.4897 53.837 42.9501 53.9075C43.4104 53.9781 43.8708 53.9428 44.2958 53.8017C45.1458 53.5547 45.8187 52.955 46.4562 52.4964C47.0936 52.0024 47.7311 51.5791 48.4394 51.438C49.1477 51.2968 49.7852 51.4732 50.3164 51.5438C50.8476 51.6496 51.308 51.6496 51.6976 51.5791C52.0872 51.5085 52.3351 51.3321 52.4767 51.2263C52.6184 50.9793 52.6892 50.9088 52.6892 50.9088Z" fill="#FAFAFA"/>
<path d="M54.5402 56.0451C54.5669 56.902 54.6361 57.5952 54.6948 57.5934C54.7534 57.5915 54.7793 56.8954 54.7525 56.0385C54.7258 55.1816 54.6566 54.4885 54.5979 54.4903C54.5393 54.4921 54.5134 55.1882 54.5402 56.0451Z" fill="#1A2E35"/>
<path d="M43.6582 122.491C43.7999 123.091 47.4122 143.271 47.4122 143.271L52.937 142.848L51.9099 122.245L43.6582 122.491Z" fill="#FFBF9D"/>
<path d="M53.1136 143.201V142.636L47.1992 142.742L47.2346 144.647H47.5888C49.2179 144.718 55.8405 144.824 56.903 144.471C58.1425 144.118 53.1136 143.201 53.1136 143.201Z" fill="#25C883"/>
<g opacity="0.3">
<path d="M49.3595 144.577C49.2533 144.118 48.97 143.695 48.5804 143.448C48.1908 143.165 47.695 143.024 47.1992 143.095L47.2346 144.612L49.3595 144.577Z" fill="black"/>
</g>
<g opacity="0.3">
<path d="M55.5579 143.73C55.5579 143.73 57.3287 144.153 57.1162 144.436C56.9037 144.718 50.2102 144.824 47.2354 144.647V144.541L55.0621 144.471C55.0621 144.436 55.2392 143.765 55.5579 143.73Z" fill="black"/>
</g>
<path d="M47.1641 144.506C47.1641 144.506 47.1995 144.506 47.2703 144.506C47.3411 144.506 47.4474 144.506 47.5536 144.506C47.837 144.506 48.1911 144.506 48.6161 144.541C49.5015 144.541 50.7764 144.541 52.1576 144.541C53.5388 144.506 54.7783 144.471 55.6637 144.436C56.0887 144.4 56.4428 144.4 56.7262 144.365C56.8324 144.365 56.9387 144.365 57.0095 144.33C57.0803 144.33 57.1157 144.33 57.1157 144.33C57.1157 144.33 57.0803 144.33 57.0095 144.33C56.9387 144.33 56.8324 144.33 56.7262 144.33C56.4428 144.33 56.0887 144.365 55.6637 144.365C54.7783 144.4 53.5034 144.436 52.1576 144.471C50.7764 144.506 49.5369 144.506 48.6515 144.506C48.2265 144.506 47.8724 144.506 47.589 144.506C47.4828 144.506 47.3766 144.506 47.3057 144.506C47.1995 144.506 47.1641 144.506 47.1641 144.506Z" fill="#1A2E35"/>
<path d="M55.0616 144.541C55.097 144.541 55.097 144.294 55.2386 144.083C55.3803 143.836 55.5928 143.73 55.5928 143.695C55.5928 143.695 55.3449 143.8 55.1678 144.047C55.0261 144.259 55.0616 144.541 55.0616 144.541Z" fill="#1A2E35"/>
<path d="M53.3258 143.73C53.3258 143.73 53.4321 143.659 53.5029 143.518C53.5737 143.377 53.6446 143.271 53.6091 143.271C53.6091 143.271 53.5029 143.342 53.4321 143.483C53.3612 143.624 53.2904 143.73 53.3258 143.73Z" fill="#1A2E35"/>
<path d="M52.8301 143.518C52.8301 143.518 52.9363 143.483 53.0426 143.377C53.1488 143.307 53.2196 143.201 53.1842 143.201C53.1842 143.201 53.078 143.236 52.9717 143.342C52.9009 143.412 52.8301 143.518 52.8301 143.518Z" fill="#1A2E35"/>
<path d="M52.8301 142.954C52.6541 142.955 52.5115 142.972 52.5117 142.992C52.5118 143.011 52.6546 143.026 52.8307 143.025C53.0067 143.023 53.1493 143.006 53.1491 142.987C53.149 142.967 53.0062 142.953 52.8301 142.954Z" fill="#1A2E35"/>
<path d="M52.4053 142.636C52.4053 142.636 52.5469 142.707 52.7594 142.707C52.9719 142.707 53.1136 142.672 53.1136 142.672C53.1136 142.636 52.9719 142.672 52.7594 142.672C52.5823 142.672 52.4053 142.636 52.4053 142.636Z" fill="#1A2E35"/>
<path d="M53.5029 143.271C53.5029 143.271 53.6446 143.307 53.8925 143.271C53.9987 143.271 54.1404 143.236 54.2821 143.165C54.3529 143.13 54.4237 143.13 54.4946 143.06C54.53 143.024 54.5654 142.989 54.6008 142.954C54.6008 142.919 54.6008 142.848 54.53 142.813C54.1758 142.636 53.8217 142.848 53.68 143.024C53.6092 143.13 53.5738 143.201 53.5738 143.271C53.5738 143.342 53.5738 143.377 53.5738 143.377C53.5738 143.377 53.6092 143.236 53.7508 143.06C53.8217 142.989 53.9279 142.918 54.0696 142.848C54.2112 142.813 54.3883 142.813 54.53 142.883C54.6008 142.919 54.5654 142.989 54.4946 143.024C54.4237 143.06 54.3529 143.095 54.2821 143.095C54.1404 143.13 53.9987 143.165 53.8925 143.201C53.6446 143.236 53.5029 143.271 53.5029 143.271Z" fill="#1A2E35"/>
<path d="M53.6097 143.271C53.6097 143.271 53.6806 143.201 53.6451 143.024C53.6451 142.954 53.6097 142.848 53.5389 142.777C53.4681 142.707 53.3972 142.601 53.2202 142.601C53.1493 142.601 53.0785 142.707 53.1139 142.777C53.1139 142.848 53.1493 142.883 53.1847 142.918C53.2556 142.989 53.291 143.06 53.3618 143.13C53.4681 143.236 53.5743 143.271 53.6097 143.271C53.5743 143.271 53.5035 143.201 53.3972 143.095C53.3618 143.024 53.291 142.954 53.2202 142.883C53.1493 142.813 53.1139 142.672 53.2202 142.672C53.3264 142.672 53.3972 142.742 53.4681 142.813C53.5389 142.883 53.5743 142.954 53.5743 143.024C53.6097 143.201 53.5743 143.271 53.6097 143.271Z" fill="#1A2E35"/>
<path d="M47.2354 143.024C47.2354 143.024 47.4124 142.989 47.6603 143.024C47.9082 143.06 48.2978 143.13 48.6165 143.377C48.9353 143.589 49.1478 143.906 49.2186 144.153C49.3249 144.4 49.3249 144.541 49.3249 144.541C49.3249 144.541 49.3249 144.506 49.3249 144.436C49.3249 144.365 49.2894 144.259 49.254 144.153C49.1832 143.906 48.9707 143.589 48.652 143.342C48.2978 143.095 47.9437 143.024 47.6603 142.989C47.5187 142.989 47.4124 142.989 47.3416 142.989C47.2708 143.024 47.2354 143.024 47.2354 143.024Z" fill="#1A2E35"/>
<path d="M50.1035 144.012C50.1035 144.012 50.4931 144.083 50.9535 144.083C51.4139 144.083 51.8034 144.012 51.8034 144.012C51.8034 143.977 51.4139 144.012 50.9535 144.012C50.4931 144.012 50.1035 144.012 50.1035 144.012Z" fill="#1A2E35"/>
<path d="M48.9346 144.047C48.9346 144.047 48.97 144.118 49.0054 144.189C49.0408 144.259 49.0762 144.33 49.0762 144.33C49.1116 144.33 49.1116 144.259 49.0408 144.153C49.0408 144.083 48.97 144.012 48.9346 144.047Z" fill="#1A2E35"/>
<path d="M48.5098 143.554C48.5098 143.554 48.5452 143.624 48.5806 143.695C48.6514 143.765 48.6868 143.8 48.7223 143.765C48.7223 143.765 48.6868 143.695 48.6514 143.624C48.5806 143.554 48.5098 143.518 48.5098 143.554Z" fill="#1A2E35"/>
<path d="M47.8721 143.342C47.8721 143.377 47.9429 143.342 48.0491 143.377C48.12 143.412 48.1908 143.448 48.2262 143.448C48.2262 143.448 48.1908 143.377 48.0846 143.342C47.9429 143.271 47.8721 143.307 47.8721 143.342Z" fill="#1A2E35"/>
<path d="M47.4473 143.236C47.4473 143.236 47.4827 143.271 47.5181 143.307C47.5535 143.307 47.6243 143.307 47.6243 143.307C47.6243 143.307 47.5889 143.271 47.5535 143.236C47.4827 143.201 47.4473 143.201 47.4473 143.236Z" fill="#1A2E35"/>
<path d="M29.563 120.798C29.5276 121.433 27.2256 141.084 27.2256 141.084L32.6441 142.283L37.6377 122.28L29.563 120.798Z" fill="#FFBF9D"/>
<path d="M32.8922 142.813L32.9984 142.248L27.2258 140.978L26.8008 142.848L27.1549 142.954C28.7132 143.377 35.1234 145.071 36.2566 145C37.5316 144.929 32.8922 142.813 32.8922 142.813Z" fill="#25C883"/>
<g opacity="0.3">
<path d="M28.9262 143.236C28.9262 142.777 28.7845 142.319 28.4303 141.931C28.1116 141.578 27.6512 141.331 27.1908 141.26L26.8721 142.742L28.9262 143.236Z" fill="black"/>
</g>
<g opacity="0.3">
<path d="M35.1592 143.906C35.1592 143.906 36.7529 144.753 36.505 144.965C36.2217 145.176 29.7053 143.695 26.8721 142.813L26.9075 142.707L34.5218 144.471C34.4863 144.471 34.8051 143.871 35.1592 143.906Z" fill="black"/>
</g>
<path d="M26.8008 142.672C26.8008 142.672 26.8362 142.672 26.907 142.707C26.9779 142.742 27.0841 142.742 27.1903 142.777C27.4737 142.848 27.8278 142.954 28.2174 143.06C29.1028 143.271 30.3069 143.589 31.6527 143.906C32.9984 144.224 34.2026 144.471 35.0879 144.612C35.5129 144.682 35.8671 144.753 36.1504 144.824C36.2566 144.859 36.3629 144.859 36.4337 144.859C36.5045 144.859 36.54 144.859 36.54 144.859C36.54 144.859 36.5045 144.859 36.4337 144.824C36.3629 144.788 36.2566 144.788 36.1504 144.753C35.8671 144.682 35.5129 144.612 35.0879 144.541C34.2026 144.365 32.9984 144.118 31.6527 143.8C30.3069 143.483 29.1028 143.201 28.2174 142.989C27.7924 142.883 27.4737 142.813 27.1903 142.742C27.0841 142.707 26.9779 142.707 26.907 142.672C26.8362 142.707 26.8008 142.672 26.8008 142.672Z" fill="#1A2E35"/>
<path d="M34.4856 144.577C34.521 144.577 34.5564 144.365 34.7689 144.153C34.9814 143.942 35.2293 143.871 35.1939 143.871C35.1939 143.871 34.9106 143.906 34.6981 144.118C34.4856 144.33 34.4502 144.577 34.4856 144.577Z" fill="#1A2E35"/>
<path d="M32.9629 143.377C32.9629 143.377 33.0691 143.307 33.1754 143.201C33.2816 143.095 33.3525 142.989 33.3525 142.989C33.3525 142.989 33.2462 143.06 33.14 143.165C33.0337 143.271 32.9629 143.377 32.9629 143.377Z" fill="#1A2E35"/>
<path d="M32.5381 143.06C32.5381 143.06 32.6443 143.024 32.7506 142.989C32.8568 142.918 32.9631 142.883 32.9277 142.848C32.9277 142.848 32.8214 142.883 32.7152 142.918C32.6443 142.989 32.5381 143.06 32.5381 143.06Z" fill="#1A2E35"/>
<path d="M32.6612 142.523C32.4899 142.482 32.3474 142.465 32.3429 142.484C32.3384 142.503 32.4736 142.551 32.6449 142.591C32.8162 142.632 32.9587 142.649 32.9632 142.63C32.9678 142.611 32.8325 142.563 32.6612 142.523Z" fill="#1A2E35"/>
<path d="M32.3613 142.107C32.3613 142.107 32.4676 142.213 32.6801 142.283C32.8571 142.354 33.0342 142.319 33.0342 142.319C33.0342 142.283 32.8926 142.283 32.7155 142.213C32.503 142.178 32.3613 142.107 32.3613 142.107Z" fill="#1A2E35"/>
<path d="M33.2461 142.989C33.2461 142.989 33.3878 143.06 33.6002 143.06C33.7065 143.06 33.8482 143.095 34.0252 143.06C34.0961 143.06 34.1669 143.06 34.2731 143.024C34.3086 143.024 34.3794 142.989 34.3794 142.954C34.4148 142.918 34.3794 142.848 34.344 142.813C34.0252 142.566 33.6357 142.672 33.4586 142.813C33.3523 142.883 33.3169 142.954 33.2815 143.024C33.2461 143.095 33.2461 143.13 33.2461 143.13C33.2461 143.13 33.3169 142.989 33.494 142.883C33.5648 142.813 33.7065 142.777 33.8482 142.777C33.9898 142.777 34.1669 142.813 34.2731 142.918C34.3086 142.989 34.2731 143.024 34.2023 143.06C34.1315 143.095 34.0606 143.095 33.9898 143.095C33.8482 143.095 33.7065 143.095 33.6002 143.095C33.4232 142.989 33.2815 142.954 33.2461 142.989Z" fill="#1A2E35"/>
<path d="M33.3522 143.024C33.3522 143.024 33.423 142.954 33.4584 142.813C33.4584 142.742 33.4584 142.636 33.423 142.53C33.3876 142.425 33.3168 142.319 33.1397 142.283C33.0689 142.283 32.998 142.354 32.998 142.425C32.998 142.495 32.998 142.53 33.0335 142.601C33.0689 142.707 33.1043 142.777 33.1751 142.848C33.246 142.954 33.3168 142.989 33.3522 143.024C33.3168 142.989 33.246 142.918 33.1751 142.813C33.1397 142.742 33.1043 142.672 33.0689 142.566C33.0335 142.495 33.0335 142.354 33.1397 142.354C33.246 142.354 33.3168 142.46 33.3522 142.566C33.3876 142.636 33.423 142.742 33.423 142.813C33.3876 142.918 33.3522 142.989 33.3522 143.024Z" fill="#1A2E35"/>
<path d="M27.2256 141.26C27.2256 141.26 27.4027 141.296 27.6506 141.366C27.8985 141.437 28.2526 141.613 28.5005 141.931C28.7484 142.213 28.8901 142.566 28.9255 142.813C28.9609 143.06 28.9255 143.201 28.9609 143.201C28.9609 143.201 28.9609 143.165 28.9963 143.095C28.9963 143.024 28.9963 142.918 28.9963 142.777C28.9609 142.53 28.8547 142.178 28.6068 141.86C28.3235 141.543 27.9693 141.366 27.7214 141.296C27.5797 141.26 27.4735 141.225 27.4027 141.225C27.261 141.26 27.2256 141.26 27.2256 141.26Z" fill="#1A2E35"/>
<path d="M29.7754 142.883C29.7754 142.883 30.1295 143.024 30.5899 143.165C31.0503 143.271 31.4399 143.307 31.4399 143.307C31.4399 143.271 31.0503 143.236 30.5899 143.13C30.1295 142.989 29.7754 142.883 29.7754 142.883Z" fill="#1A2E35"/>
<path d="M28.6426 142.636C28.6426 142.636 28.6426 142.707 28.678 142.813C28.7134 142.883 28.7134 142.989 28.7134 142.989C28.7488 142.989 28.7488 142.918 28.7488 142.813C28.7134 142.707 28.678 142.636 28.6426 142.636Z" fill="#1A2E35"/>
<path d="M28.3232 142.072C28.3232 142.072 28.3232 142.142 28.3941 142.213C28.4295 142.283 28.5003 142.319 28.5003 142.319C28.5003 142.319 28.5003 142.248 28.4295 142.178C28.3941 142.107 28.3587 142.036 28.3232 142.072Z" fill="#1A2E35"/>
<path d="M27.792 141.684C27.792 141.719 27.8628 141.719 27.9337 141.754C28.0045 141.79 28.0753 141.86 28.0753 141.86C28.0753 141.86 28.0753 141.754 27.9691 141.719C27.8628 141.684 27.792 141.684 27.792 141.684Z" fill="#1A2E35"/>
<path d="M27.3672 141.507C27.3672 141.507 27.3672 141.543 27.438 141.578C27.4734 141.613 27.5088 141.613 27.5443 141.613C27.5443 141.613 27.5443 141.578 27.4734 141.543C27.438 141.507 27.3672 141.472 27.3672 141.507Z" fill="#1A2E35"/>
<path d="M49.8921 33.3041C49.7504 32.8808 49.3963 32.5633 49.2192 32.1752C48.9713 31.5754 49.1484 30.8698 49.2192 30.1995C49.29 29.5292 49.1483 28.753 48.5463 28.4708C48.2984 28.365 48.0151 28.365 47.7672 28.2238C47.3068 27.9416 47.3068 27.2713 47.2713 26.7068C47.2359 26.354 47.1651 25.9659 46.988 25.6484C47.0234 25.6484 47.0589 25.6131 47.0943 25.6131C47.8734 25.4015 48.688 25.8601 48.9004 26.4951C49.0067 26.8127 49.0067 27.1655 48.8296 27.3771C48.6525 27.6241 48.3338 27.6946 48.1567 27.5888C47.9442 27.483 47.838 27.236 47.9088 27.0596C47.9442 26.8832 48.1567 26.8127 48.2984 26.8479C48.44 26.8479 48.5463 26.9538 48.5817 26.9891C48.6171 27.0596 48.6171 27.0949 48.6525 27.0949C48.6525 27.0949 48.6525 27.0596 48.6525 26.9538C48.6171 26.8832 48.5109 26.7774 48.3692 26.7421C48.2984 26.7421 48.1921 26.7421 48.0859 26.7774C47.9797 26.8127 47.8734 26.8832 47.838 27.0243C47.7672 27.2713 47.8734 27.5888 48.1213 27.7299C48.4046 27.871 48.7942 27.7652 49.0067 27.483C49.2546 27.2007 49.2546 26.7774 49.1129 26.4246C48.865 25.7543 48.0859 25.2603 47.2359 25.3662C47.413 25.0839 47.4484 24.7311 47.3422 24.4136C47.2005 23.9903 46.8818 23.7433 46.5276 23.6022C46.1735 23.4611 45.8193 23.4611 45.5006 23.5316C45.1818 23.6022 44.8985 23.7433 44.686 23.8844C44.4735 24.0255 44.2965 24.2019 44.1194 24.3078C43.9423 24.4136 43.8007 24.4842 43.659 24.4842C43.3757 24.5195 43.234 24.3783 43.234 24.3783C43.234 24.3783 43.3403 24.5547 43.659 24.5547C43.8007 24.5547 44.0131 24.4842 44.1902 24.3783C44.3673 24.2725 44.5798 24.0961 44.7923 23.9903C45.2173 23.7433 45.8547 23.4964 46.4922 23.7433C46.8109 23.8492 47.0943 24.0961 47.1651 24.4489C47.2713 24.7664 47.2005 25.1545 46.9172 25.4015C46.7401 25.0839 46.4922 24.8017 46.1381 24.6253C45.4298 24.2372 44.3673 24.4136 44.0131 25.1545L38.205 23.1788C37.4967 22.5438 36.4343 22.3674 35.5489 22.6496C35.5135 22.6496 35.4781 22.6496 35.4427 22.6144C35.1593 22.5791 34.8052 22.6144 34.451 22.7908C34.0969 22.9672 33.7782 23.2847 33.4594 23.6375C33.2823 23.8139 33.1053 23.9903 32.8928 24.0961C32.8574 24.1314 32.8219 24.1314 32.7865 24.1314C32.5386 24.1667 32.2553 24.1667 32.0074 24.1667C31.5116 24.0608 31.0158 23.7786 30.4137 23.708C30.095 23.6727 29.7408 23.6728 29.4221 23.7786C29.1033 23.8844 28.7846 24.0608 28.5367 24.3431C28.2888 24.6253 28.1471 24.9781 28.1471 25.3662C28.1471 25.6484 28.218 25.8954 28.2888 26.1776C28.1471 26.5304 28.1117 26.8832 28.1117 27.2713C28.1471 27.7652 28.2888 28.2591 28.2888 28.753C28.1471 28.8589 28.0055 28.9294 27.8284 29C27.5097 29.1058 27.1909 29.1411 26.8722 29.247C26.2347 29.4939 25.8097 30.0231 25.6326 30.5876C25.4556 31.0815 25.491 31.6813 25.7743 32.0341C25.6326 32.6691 25.7743 33.3747 26.1993 33.9039C26.4826 34.2567 26.8722 34.5037 27.1201 34.8917C27.5097 35.4915 27.4388 36.2324 27.5451 36.938C27.6513 37.6436 28.0409 38.4197 28.7492 38.455C29.3158 38.4903 29.8116 38.0316 30.3783 38.0669C31.1574 38.1375 31.5116 39.09 31.972 39.7251C32.5386 40.5365 33.6011 40.9951 34.5927 40.854C35.301 40.7482 36.0447 40.3601 36.753 40.5718C37.6384 40.7835 38.1696 41.8419 39.0904 41.9477C39.7633 42.0535 40.4008 41.5949 40.8966 41.1363C41.3924 40.6776 41.9236 40.1484 42.5965 40.0426C43.4111 39.9015 44.1902 40.3954 45.0048 40.5012C46.0672 40.6423 47.1651 40.0779 47.6963 39.1606C48.1567 38.3491 48.1567 37.3613 48.5463 36.5499C48.8296 35.9854 49.29 35.562 49.6087 35.0328C49.8567 34.5389 50.1046 33.9039 49.8921 33.3041ZM26.5889 30.6934C26.4472 30.6582 26.3764 30.6934 26.3764 30.6934C26.3764 30.6934 26.4472 30.6934 26.518 30.7287C26.4826 30.764 26.4472 30.764 26.4118 30.7993C26.093 31.0815 25.8451 31.4343 25.7389 31.8577C25.5618 31.5401 25.5618 31.0815 25.7035 30.6582C25.8806 30.1642 26.3055 29.6703 26.8722 29.4586C27.1555 29.3528 27.4742 29.3175 27.793 29.2117C27.9346 29.1764 28.0763 29.1058 28.1825 29.0353C28.1471 29.2117 28.1117 29.4234 28.0055 29.5645C27.7576 30.129 27.1201 30.3406 26.5889 30.6934ZM30.5554 24.2019C29.5992 24.3431 28.7846 25.0134 28.3596 25.8601C28.3242 25.6837 28.2888 25.5426 28.2888 25.3662C28.2888 25.0134 28.395 24.6959 28.6075 24.4842C29.0325 23.9903 29.7408 23.8139 30.3429 23.9197C30.6616 23.955 30.9803 24.0608 31.2991 24.1667C31.0866 24.1667 30.8033 24.1667 30.5554 24.2019ZM33.4948 23.955C33.424 23.9903 33.3532 24.0255 33.2823 24.0255C33.3886 23.9197 33.4948 23.8139 33.5657 23.7433C33.8844 23.3905 34.1677 23.0377 34.4865 22.8966C34.8052 22.7555 35.0885 22.7202 35.3364 22.7202C35.1948 22.7908 35.0531 22.8613 34.9114 22.9319C34.4156 23.2494 34.0261 23.708 33.4948 23.955Z" fill="#1A2E35"/>
<path d="M46.0673 36.0912C46.3506 34.3625 46.2444 31.5049 46.1027 29.1764C45.961 27.0949 44.1194 25.5073 42.0299 25.719L35.9385 26.354C35.3011 26.4246 34.8052 26.9538 34.8407 27.5888L35.4781 42.4769C34.6282 42.4769 34.0615 42.4769 34.0615 42.4769V45.1582C34.0615 48.2275 36.576 50.7324 39.6571 50.7324C42.7383 50.7324 45.2527 48.2275 45.2527 45.1582V42.8297C45.2527 42.8297 43.8007 42.371 42.9153 42.4063C42.8799 42.4063 42.7737 42.4063 42.7028 42.4063C42.7028 41.0304 42.8091 39.972 42.8091 39.972C42.8091 39.972 45.536 39.5839 46.0673 36.0912Z" fill="#FFBF9D"/>
<path d="M45.2174 31.4343C45.2174 31.6813 45.0403 31.8577 44.7924 31.8929C44.5445 31.8929 44.332 31.7165 44.332 31.5049C44.332 31.2579 44.5091 31.0815 44.757 31.0462C45.0049 31.011 45.2174 31.1874 45.2174 31.4343Z" fill="#1A2E35"/>
<path d="M45.5005 30.6582C45.4297 30.7287 45.1109 30.4818 44.6151 30.4818C44.1193 30.4818 43.7651 30.7287 43.7297 30.6582C43.6943 30.6229 43.7651 30.517 43.9068 30.4112C44.0485 30.3054 44.3318 30.1995 44.6151 30.1995C44.9338 30.1995 45.1818 30.3054 45.3234 30.4112C45.4651 30.517 45.5359 30.6229 45.5005 30.6582Z" fill="#1A2E35"/>
<path d="M40.4723 31.4343C40.4723 31.6813 40.2952 31.8577 40.0473 31.8929C39.7994 31.8929 39.5869 31.7165 39.5869 31.5049C39.5869 31.2579 39.764 31.0815 40.0119 31.0462C40.2598 31.0109 40.4723 31.1873 40.4723 31.4343Z" fill="#1A2E35"/>
<path d="M40.7554 30.7287C40.6845 30.7993 40.3658 30.5523 39.87 30.5523C39.3742 30.5523 39.02 30.7993 38.9846 30.7287C38.9492 30.6934 39.02 30.5876 39.1617 30.4818C39.3033 30.3759 39.5867 30.2701 39.87 30.2701C40.1887 30.2701 40.4366 30.3759 40.5783 30.4818C40.72 30.6229 40.7554 30.7287 40.7554 30.7287Z" fill="#1A2E35"/>
<path d="M42.4904 34.3273C42.4904 34.292 42.7737 34.2567 43.2695 34.1861C43.3757 34.1861 43.5174 34.1509 43.5174 34.0803C43.5528 33.9745 43.482 33.8686 43.4466 33.7275C43.3403 33.4453 43.1987 33.1277 43.0924 32.7749C42.5966 31.4343 42.207 30.3406 42.2779 30.3054C42.3487 30.2701 42.7737 31.3637 43.3049 32.7044C43.4112 33.0219 43.5528 33.3394 43.6591 33.6569C43.6945 33.7981 43.8007 33.9392 43.7299 34.1509C43.6945 34.2567 43.5882 34.3273 43.5174 34.3273C43.4466 34.3625 43.3757 34.3625 43.3049 34.3625C42.8091 34.3625 42.4904 34.3625 42.4904 34.3273Z" fill="#1A2E35"/>
<path d="M42.844 40.0426C42.844 40.0426 40.4712 40.1837 38.1338 38.8078C38.1338 38.8078 39.2671 41.2068 42.7732 40.8893L42.844 40.0426Z" fill="#FF9A6C"/>
<path d="M42.2782 35.4915C42.1011 35.2445 41.7824 35.1387 41.4991 35.174C41.2866 35.2092 41.0741 35.2798 40.9324 35.4562C40.7908 35.6326 40.7908 35.8796 40.897 36.0207C41.0387 36.1971 41.2866 36.2324 41.5345 36.1971C41.7824 36.1265 41.9595 35.9854 42.1366 35.8443C42.172 35.809 42.2428 35.7737 42.2782 35.7032C42.349 35.6326 42.349 35.562 42.2782 35.4915Z" fill="#FF9A6C"/>
<path d="M41.0736 34.6448C41.1445 34.6448 41.1445 35.174 41.6049 35.5268C42.0653 35.9148 42.6319 35.8443 42.6319 35.9148C42.6319 35.9501 42.4903 36.0207 42.2778 36.0207C42.0299 36.0207 41.7111 35.9501 41.4278 35.7384C41.1445 35.5268 41.0382 35.2092 41.0028 34.9976C40.9674 34.7859 41.0382 34.6448 41.0736 34.6448Z" fill="#1A2E35"/>
<path d="M40.9671 29.882C40.9317 30.0231 40.4359 29.9525 39.8693 30.0231C39.3026 30.0937 38.8422 30.2348 38.7714 30.1289C38.736 30.0584 38.8068 29.9525 39.0193 29.8114C39.1964 29.6703 39.4797 29.5645 39.8338 29.5292C40.188 29.4939 40.4713 29.5292 40.6838 29.635C40.8609 29.7409 40.9671 29.8467 40.9671 29.882Z" fill="#1A2E35"/>
<path d="M45.3237 29.6703C45.2528 29.7762 44.8987 29.6703 44.5091 29.6703C44.1196 29.635 43.7654 29.7409 43.6946 29.635C43.6592 29.5645 43.73 29.4586 43.8716 29.3528C44.0133 29.247 44.2612 29.1764 44.5445 29.1764C44.8279 29.1764 45.0758 29.2822 45.182 29.3881C45.3237 29.4939 45.3591 29.5998 45.3237 29.6703Z" fill="#1A2E35"/>
<path d="M47.4135 26.0365C47.1656 25.1192 46.4573 24.2372 45.5011 24.0608C44.899 23.955 44.2615 24.1314 43.6241 24.0961C43.0928 24.0608 42.9158 23.6375 42.42 23.4963C41.6054 23.2141 40.9679 22.3321 39.1972 22.5085C38.7368 22.5438 38.0993 23.1083 37.6743 23.7433C37.0014 23.4611 36.116 23.7786 35.6202 23.9903C34.5932 24.4489 33.9557 25.5779 33.7786 26.7421C33.5661 27.9063 33.7432 29.1058 33.9203 30.2348C33.9911 30.764 34.062 31.2932 34.1328 31.8224C34.1682 32.1752 34.239 32.528 34.4161 32.8455L33.6016 40.3248C35.1952 40.9246 37.2139 39.8309 37.5681 38.1375C37.8868 36.6557 37.0723 35.174 37.1785 33.6569C37.2493 32.7749 37.7451 31.9282 37.7451 31.0462C37.7451 30.764 37.7097 30.4818 37.6035 30.1642C39.0201 29 39.4097 28.0827 39.3388 26.9891C39.7638 27.2713 40.295 27.483 40.8263 27.483C41.57 27.483 42.3491 27.2007 43.0574 27.483C43.5532 27.6594 43.9074 28.118 44.297 28.5061C44.6865 28.8942 45.1823 29.247 45.7136 29.1764C45.9615 29.1411 46.2094 29 46.4573 28.9294C46.7052 28.8236 46.9885 28.7883 47.201 28.9294C47.5197 27.9769 47.6614 26.9891 47.4135 26.0365Z" fill="#1A2E35"/>
<path d="M26.4473 33.6922C26.4473 33.6569 26.8014 34.0097 27.616 34.3625C28.0055 34.5389 28.5368 34.68 29.1388 34.68C29.7409 34.68 30.4492 34.5389 31.0867 34.1156C31.6887 33.6922 32.2554 32.9513 32.3262 32.0693C32.3616 31.646 32.2908 31.1521 32.0783 30.764C31.8658 30.3759 31.4054 30.0584 30.9096 30.0584C30.6617 30.0584 30.4492 30.129 30.2367 30.2701C30.0596 30.4112 29.918 30.6229 29.8117 30.8698C29.67 31.3637 29.7409 31.9282 30.095 32.3163C30.4138 32.7397 30.945 32.9866 31.4762 33.1277C32.0075 33.2689 32.6095 33.2689 33.1762 33.163C33.7428 33.0572 34.274 32.8102 34.7344 32.4574C35.1948 32.1046 35.5136 31.646 35.6906 31.1521C35.8677 30.6582 35.9031 30.0937 35.8323 29.5998C35.7969 29.3528 35.6906 29.1058 35.5844 28.8942C35.4427 28.6825 35.3011 28.4708 35.124 28.3297C34.9469 28.1886 34.699 28.0827 34.4865 28.0827C34.274 28.0827 34.0615 28.1886 33.9553 28.4002C33.849 28.5766 33.8136 28.8236 33.8845 29.0353C33.9553 29.247 34.0615 29.4234 34.2386 29.5645C34.9115 30.1642 35.7969 30.3406 36.5406 30.2701C37.3197 30.1995 37.9572 29.8467 38.3468 29.4234C38.7718 29 38.9843 28.5061 39.1259 28.0827C39.3384 27.236 39.1967 26.7421 39.2322 26.7774C39.2322 26.7774 39.2676 26.8832 39.303 27.1302C39.3384 27.3418 39.303 27.6946 39.1967 28.118C39.0905 28.5414 38.8426 29.0353 38.4176 29.4939C37.9926 29.9526 37.3197 30.3406 36.5406 30.4112C35.7615 30.517 34.8407 30.3406 34.1324 29.6703C33.9553 29.4939 33.8136 29.3175 33.7428 29.0706C33.672 28.8236 33.7074 28.5414 33.8136 28.2944C33.9553 28.0474 34.2386 27.9063 34.4865 27.9063C34.7698 27.9063 35.0177 28.0122 35.2302 28.1886C35.4427 28.3297 35.6198 28.5766 35.7615 28.7883C35.9031 29.0353 35.974 29.2822 36.0448 29.5645C36.151 30.0937 36.1156 30.6934 35.9031 31.2226C35.7261 31.7518 35.3365 32.2457 34.8761 32.6338C34.4157 32.9866 33.849 33.2336 33.247 33.3747C32.6449 33.4805 32.0429 33.4805 31.4762 33.3394C30.9096 33.1983 30.3429 32.9161 29.9888 32.4574C29.8117 32.2457 29.67 31.9635 29.6346 31.6813C29.5992 31.399 29.5992 31.1168 29.7055 30.8345C29.8117 30.5523 29.9534 30.3054 30.1659 30.129C30.3784 29.9526 30.6617 29.8467 30.945 29.882C31.5116 29.882 31.972 30.2348 32.2199 30.6934C32.4679 31.1521 32.5387 31.646 32.5033 32.1046C32.397 33.0572 31.795 33.7981 31.1575 34.2567C30.52 34.7153 29.7763 34.8564 29.1388 34.8212C28.5013 34.7859 27.9701 34.6448 27.5806 34.4684C27.191 34.292 26.9077 34.1156 26.6952 33.9745C26.5889 33.9039 26.5535 33.8333 26.4827 33.7981C26.4827 33.7275 26.4473 33.7275 26.4473 33.6922Z" fill="#375A64"/>
<path d="M47.6251 27.6241C47.6251 27.6241 47.5897 27.6594 47.448 27.7299C47.3418 27.8005 47.1293 27.871 46.8814 27.9416C46.6335 27.9769 46.3147 28.0122 45.9252 27.9416C45.571 27.871 45.1814 27.6594 44.8273 27.3771C44.4731 27.0596 44.1544 26.6715 43.9419 26.1423C43.8357 25.8954 43.7648 25.5779 43.9065 25.2603C43.9773 25.1192 44.0836 24.9781 44.2252 24.9075C44.3669 24.837 44.5794 24.837 44.721 24.9075C45.0398 25.0839 45.1814 25.472 45.0752 25.7895C44.969 26.1423 44.6856 26.3893 44.3669 26.5304C43.7294 26.8479 42.9857 26.8127 42.3128 26.5657C41.9941 26.4599 41.6753 26.2835 41.3566 26.1071C41.0733 25.9307 40.79 25.7543 40.5421 25.472C40.3296 25.2251 40.2233 24.7664 40.4712 24.4842C40.5775 24.3431 40.79 24.2725 40.967 24.3078C41.1441 24.3431 41.2858 24.4489 41.392 24.59C41.4983 24.7311 41.5691 24.9075 41.5337 25.0839C41.4983 25.2603 41.4274 25.4015 41.3212 25.5073C41.1087 25.7543 40.8254 25.8601 40.5421 25.8954C40.2587 25.9307 39.9754 25.8601 39.7629 25.7895C39.515 25.719 39.3025 25.6131 39.09 25.5426C38.665 25.3662 38.3109 25.0839 38.0984 24.8017C37.8859 24.4842 37.8151 24.1667 37.8505 23.8844C37.8859 23.6375 37.9567 23.4258 38.063 23.32C38.1692 23.2141 38.2046 23.1788 38.2046 23.1788C38.2401 23.1788 37.9567 23.3552 37.9213 23.8844C37.9213 24.1314 37.9922 24.4489 38.2046 24.7311C38.4171 25.0134 38.7359 25.2603 39.1609 25.4367C39.5858 25.6131 40.0462 25.8248 40.5421 25.7543C40.79 25.719 41.0379 25.6131 41.2149 25.4015C41.392 25.1898 41.4274 24.9075 41.2504 24.6959C41.1087 24.4842 40.7545 24.3783 40.5775 24.6253C40.5066 24.7311 40.4712 24.8723 40.4712 25.0134C40.4712 25.1545 40.542 25.2956 40.6483 25.4015C40.8254 25.6484 41.1441 25.8248 41.392 26.0012C41.6753 26.1776 41.9941 26.3187 42.3128 26.4246C42.9503 26.6363 43.6586 26.6715 44.2252 26.4246C44.5086 26.2835 44.7565 26.0718 44.8273 25.7895C44.9335 25.5426 44.7919 25.2251 44.544 25.0839C44.3315 24.9428 44.0482 25.1192 43.9419 25.3309C43.8357 25.5426 43.8711 25.8248 43.9773 26.0718C44.1544 26.5657 44.4731 26.9538 44.7919 27.2713C45.1106 27.5535 45.5002 27.7652 45.8189 27.8358C46.1731 27.9063 46.4918 27.9063 46.7397 27.871C47.3772 27.8005 47.6251 27.6241 47.6251 27.6241Z" fill="#375A64"/>
<path d="M37.3908 35.8443C37.3908 35.8443 37.3554 35.8796 37.2491 35.9501C37.1429 36.0207 36.9658 36.0912 36.7179 36.1618C36.47 36.1971 36.1867 36.2324 35.8325 36.0912C35.5138 35.9854 35.1242 35.7737 34.9471 35.3151C34.8763 35.1034 34.8763 34.8212 35.0888 34.6095C35.3013 34.4331 35.62 34.4331 35.8679 34.6095C36.3283 34.927 36.5054 35.5268 36.3992 36.1265C36.3283 36.691 35.9742 37.2908 35.3721 37.573C34.7701 37.8552 34.0618 37.7847 33.4597 37.4319C33.1764 37.2555 32.9285 37.0438 32.716 36.7616C32.5389 36.4793 32.4681 36.1265 32.5389 35.809C32.5743 35.6326 32.6452 35.4915 32.7868 35.3856C32.8931 35.2798 33.0701 35.2092 33.2472 35.2092C33.6014 35.2092 33.8493 35.4562 33.9909 35.7032C34.1326 35.9854 34.2034 36.2676 34.2034 36.5146C34.2034 36.7968 34.2034 37.0438 34.1326 37.2908C33.9909 37.7847 33.743 38.208 33.4243 38.5255C33.1056 38.8431 32.716 38.9842 32.3618 38.9842C32.0077 39.0195 31.7244 38.9489 31.4765 38.8431C31.264 38.7372 31.1223 38.6314 31.0161 38.5255C30.9452 38.4197 30.8744 38.3844 30.9098 38.3844C30.9098 38.3491 31.0869 38.5961 31.5119 38.7725C31.7244 38.8431 32.0077 38.9136 32.3264 38.8783C32.6452 38.8431 32.9993 38.7019 33.318 38.4197C33.6014 38.1375 33.8493 37.7141 33.9555 37.2555C34.0263 37.0085 34.0264 36.7616 34.0264 36.5146C34.0264 36.2676 33.9555 35.9854 33.8493 35.7737C33.743 35.562 33.4951 35.3856 33.2472 35.3504C32.9993 35.3504 32.7868 35.562 32.716 35.8443C32.6452 36.1265 32.716 36.4088 32.8576 36.6557C32.9993 36.9027 33.2472 37.1144 33.5305 37.2555C34.0618 37.573 34.7347 37.6436 35.2659 37.3966C35.7971 37.1496 36.1158 36.6204 36.1867 36.0912C36.2575 35.562 36.1158 35.0328 35.7263 34.7506C35.5492 34.6095 35.3013 34.6095 35.1596 34.7506C35.018 34.8564 34.9826 35.1034 35.0534 35.2798C35.1951 35.6679 35.5492 35.8796 35.8325 35.9854C36.1513 36.0912 36.4346 36.0912 36.6471 36.056C37.1783 36.0207 37.3908 35.809 37.3908 35.8443Z" fill="#375A64"/>
<path d="M22.7637 121.609C22.7637 121.609 25.1365 126.196 31.2987 123.973C31.2987 123.973 37.3547 127.254 43.1274 123.585C43.1274 123.585 50.6354 124.573 54.7082 122.633L49.4667 77.6156L48.7939 70.7007H32.2904C32.2904 70.7007 27.3677 72.9234 26.5885 83.7895C25.8094 94.6557 24.074 109.579 24.074 109.579L22.7637 121.609Z" fill="#1A2E35"/>
<path d="M42.8086 123.691C42.8086 123.691 42.8086 123.656 42.7732 123.55C42.7732 123.444 42.7377 123.303 42.7377 123.162C42.7023 122.809 42.6669 122.28 42.6315 121.609C42.5253 120.269 42.3836 118.328 42.2419 115.965C41.9586 111.202 41.6399 104.569 41.4982 97.2664C41.3566 89.9635 41.3566 83.3309 41.4274 78.5681C41.4628 76.1691 41.4982 74.2287 41.569 72.8881C41.6045 72.2178 41.6045 71.7238 41.6045 71.3358C41.6045 71.1594 41.6045 71.0183 41.6399 70.9477C41.6399 70.8419 41.6399 70.8066 41.6399 70.8066C41.6399 70.8066 41.6399 70.8419 41.6399 70.9477C41.6399 71.0535 41.6399 71.1946 41.6399 71.3358C41.6399 71.6886 41.6399 72.2178 41.6045 72.8881C41.6045 74.2287 41.569 76.1691 41.5336 78.5681C41.4982 83.3662 41.4982 89.9635 41.6399 97.2664C41.817 104.569 42.1003 111.167 42.3482 115.965C42.4898 118.364 42.5961 120.269 42.6669 121.609C42.7023 122.28 42.7377 122.774 42.7377 123.162C42.7377 123.338 42.7377 123.479 42.7377 123.55C42.8086 123.656 42.8086 123.691 42.8086 123.691Z" fill="#375A64"/>
<path d="M44.2607 110.814C44.2607 110.814 44.2961 110.779 44.4024 110.743C44.5086 110.708 44.6503 110.708 44.792 110.779C44.9336 110.849 45.1107 110.99 45.1815 111.237C45.2524 111.484 45.0753 111.766 44.8274 111.908C44.5795 112.049 44.2607 112.049 44.0837 111.872C43.9066 111.696 43.8357 111.484 43.8712 111.308C43.8712 111.131 43.9774 110.99 44.0482 110.955C44.1191 110.884 44.1545 110.884 44.1899 110.884C44.2253 110.92 44.0128 111.026 44.0128 111.343C44.0128 111.484 44.0836 111.661 44.2253 111.766C44.367 111.872 44.5795 111.872 44.7565 111.766C44.9336 111.661 45.0399 111.449 45.0399 111.308C45.0044 111.131 44.8982 110.99 44.7565 110.92C44.4732 110.743 44.2607 110.849 44.2607 110.814Z" fill="#375A64"/>
<path d="M43.8711 97.4428C43.8711 97.4428 43.9065 97.4075 44.0127 97.3723C44.119 97.337 44.2606 97.337 44.4023 97.4075C44.544 97.4781 44.721 97.6192 44.7919 97.8662C44.8627 98.1131 44.6856 98.3954 44.4377 98.5365C44.1898 98.6776 43.8711 98.6776 43.694 98.5012C43.5169 98.3248 43.4461 98.1131 43.4815 97.9367C43.4815 97.7603 43.5878 97.6192 43.6586 97.5839C43.7294 97.5134 43.7648 97.5134 43.8002 97.5134C43.8357 97.5487 43.6232 97.6545 43.6232 97.972C43.6232 98.1131 43.694 98.2895 43.8357 98.3954C43.9773 98.5012 44.1898 98.5012 44.3669 98.3954C44.544 98.2895 44.6502 98.0779 44.6502 97.9367C44.6148 97.7603 44.5086 97.6192 44.3669 97.5487C44.0836 97.3723 43.9065 97.4781 43.8711 97.4428Z" fill="#375A64"/>
<path d="M43.6582 85.6241C43.6582 85.6241 43.6936 85.5888 43.7998 85.5535C43.9061 85.5182 44.0478 85.5182 44.1894 85.5888C44.3311 85.6594 44.5082 85.8005 44.579 86.0474C44.6498 86.2944 44.4727 86.5766 44.2248 86.7178C43.9769 86.8589 43.6582 86.8589 43.4811 86.6825C43.304 86.5061 43.2332 86.2944 43.2686 86.118C43.2686 85.9416 43.3749 85.8005 43.4457 85.7652C43.5165 85.6946 43.5519 85.6946 43.5874 85.6946C43.6228 85.7299 43.4103 85.8358 43.4103 86.1533C43.4103 86.2944 43.4811 86.4708 43.6228 86.5766C43.7644 86.6825 43.9769 86.6825 44.154 86.5766C44.3311 86.4708 44.4373 86.2591 44.4373 86.118C44.4019 85.9416 44.2957 85.8005 44.154 85.7299C43.8707 85.5535 43.6582 85.6594 43.6582 85.6241Z" fill="#375A64"/>
<path d="M43.2334 72.9586C43.2334 72.9586 43.2688 72.9234 43.375 72.8881C43.4813 72.8528 43.6229 72.8528 43.7646 72.9234C43.9063 72.9939 44.0833 73.135 44.1542 73.382C44.225 73.6289 44.0479 73.9112 43.8 74.0523C43.5521 74.1934 43.2334 74.1934 43.0563 74.017C42.8792 73.8406 42.8084 73.6289 42.8438 73.4525C42.8438 73.2761 42.9501 73.135 43.0209 73.0997C43.0917 73.0292 43.1271 73.0292 43.1625 73.0292C43.198 73.0645 42.9855 73.1703 42.9855 73.4878C42.9855 73.6289 43.0563 73.8053 43.198 73.9112C43.3396 74.017 43.5521 74.017 43.7292 73.9112C43.9063 73.8053 44.0125 73.5937 44.0125 73.4525C43.9771 73.2761 43.8709 73.135 43.7292 73.0645C43.4459 72.8881 43.2688 72.9939 43.2334 72.9586Z" fill="#375A64"/>
<path d="M64.8015 59.2701L148.346 58.6703L150.683 115.224L64.1641 114.448L64.8015 59.2701Z" fill="#25C883"/>
<path d="M64.8018 59.2701L104.325 27.4124C105.99 26.0718 108.398 26.0718 110.062 27.4477L148.311 58.7056" fill="#25C883"/>
<g opacity="0.3">
<path d="M64.8018 59.2701L104.325 27.4124C105.99 26.0718 108.398 26.0718 110.062 27.4477L148.311 58.7056" fill="black"/>
</g>
<path d="M64.1643 114.448C64.0581 114.342 70.7516 107.074 79.1096 98.219C87.4675 89.3285 94.3027 82.2372 94.4089 82.3431C94.5152 82.4489 87.8217 89.7165 79.4637 98.5718C71.1411 107.427 64.2706 114.554 64.1643 114.448Z" fill="#1A2E35"/>
<path d="M150.684 115.224C150.578 115.33 144.061 108.203 136.128 99.3127C128.195 90.4221 121.856 83.1545 121.962 83.0487C122.068 82.9428 128.585 90.0693 136.518 98.9599C144.451 107.85 150.79 115.153 150.684 115.224Z" fill="#1A2E35"/>
<g opacity="0.5">
<path d="M148.346 58.6703L106.379 92.045L64.8018 59.2701" fill="black"/>
</g>
<path d="M69.0157 62.3747L68.874 36.3735L142.042 35.4915L142.856 62.8686L106.379 91.6217L69.0157 62.3747Z" fill="#FAFAFA"/>
<path d="M69.0159 62.3747C69.0159 62.3747 69.2639 62.5511 69.6888 62.9039C70.1492 63.2567 70.8221 63.7859 71.6721 64.4562C73.4074 65.7968 75.9573 67.8078 79.2155 70.3479C85.7319 75.4282 95.0815 82.7312 106.414 91.5864H106.308C116.862 83.2603 129.293 73.4173 142.786 62.7981L142.75 62.8686C142.609 57.6472 142.432 52.1788 142.255 46.6046C142.148 42.865 142.042 39.1606 141.936 35.5268L142.042 35.6326C112.577 35.9501 86.5465 36.2676 68.9097 36.444L68.9805 36.3735C69.0159 44.5584 69.0159 51.0499 69.0514 55.4951C69.0514 57.7178 69.0514 59.4465 69.0514 60.6107C69.0514 61.1752 69.0514 61.6338 69.0514 61.9161C69.0159 62.1983 69.0159 62.3747 69.0159 62.3747C69.0159 62.3747 69.0159 62.2336 69.0159 61.9161C69.0159 61.6338 69.0159 61.1752 69.0159 60.6107C69.0159 59.4465 68.9805 57.753 68.9805 55.5304C68.9451 51.0852 68.9097 44.5584 68.8389 36.3735V36.3029H68.9097C86.5819 36.0912 112.577 35.7737 142.042 35.4209H142.148V35.5268C142.255 39.1606 142.361 42.865 142.467 46.6046C142.644 52.1788 142.786 57.6472 142.963 62.8686V62.9039L142.927 62.9392C129.434 73.5584 116.968 83.4015 106.45 91.6922L106.414 91.7275L106.379 91.6922C95.0461 82.8017 85.6965 75.4635 79.1801 70.3832C75.9219 67.8431 73.4074 65.8321 71.6721 64.4915C70.8221 63.8212 70.1492 63.292 69.7242 62.9392C69.2284 62.5511 69.0159 62.3747 69.0159 62.3747Z" fill="#1A2E35"/>
<path d="M130.462 64.3856C130.462 64.4209 119.271 64.562 105.494 64.6326C91.6822 64.7032 80.5264 64.7384 80.5264 64.7032C80.5264 64.6679 91.7176 64.5268 105.494 64.4562C119.271 64.3856 130.462 64.3504 130.462 64.3856Z" fill="#1A2E35"/>
<path d="M130.462 72.8528C130.462 72.8881 119.802 72.9939 106.627 73.0998C93.4529 73.1703 82.793 73.2056 82.793 73.135C82.793 73.0998 93.4529 72.9939 106.627 72.8881C119.802 72.8175 130.462 72.8175 130.462 72.8528Z" fill="#1A2E35"/>
<path d="M121.112 80.2968C121.112 80.2968 121.006 80.2968 120.829 80.3321C120.616 80.3321 120.333 80.3321 119.979 80.3674C119.235 80.3674 118.173 80.4027 116.898 80.4027C114.277 80.438 110.665 80.5085 106.698 80.5438C102.732 80.6144 99.1193 80.6496 96.4986 80.6496C95.2236 80.6496 94.1612 80.6496 93.4175 80.6496C93.0633 80.6496 92.78 80.6496 92.5675 80.6496C92.3904 80.6496 92.2842 80.6496 92.2842 80.6496C92.2842 80.6496 92.3904 80.6496 92.5675 80.6144C92.78 80.6144 93.0633 80.6144 93.4175 80.5791C94.1612 80.5791 95.2236 80.5438 96.4986 80.5438C99.1193 80.5085 102.732 80.438 106.698 80.4027C110.665 80.3321 114.277 80.2968 116.898 80.2968C118.173 80.2968 119.235 80.2968 119.979 80.2968C120.333 80.2968 120.616 80.2968 120.829 80.2968C121.006 80.2616 121.112 80.2616 121.112 80.2968Z" fill="#1A2E35"/>
<path d="M106.38 87.5292C109.314 87.5292 111.692 87.4818 111.692 87.4234C111.692 87.3649 109.314 87.3175 106.38 87.3175C103.446 87.3175 101.067 87.3649 101.067 87.4234C101.067 87.4818 103.446 87.5292 106.38 87.5292Z" fill="#1A2E35"/>
<path d="M136.305 81.6375C141.175 81.6375 145.123 77.7044 145.123 72.8528C145.123 68.0012 141.175 64.0681 136.305 64.0681C131.434 64.0681 127.486 68.0012 127.486 72.8528C127.486 77.7044 131.434 81.6375 136.305 81.6375Z" fill="#B98600"/>
<path d="M134.003 81.6375C138.873 81.6375 142.821 77.7044 142.821 72.8528C142.821 68.0012 138.873 64.0681 134.003 64.0681C129.133 64.0681 125.185 68.0012 125.185 72.8528C125.185 77.7044 129.133 81.6375 134.003 81.6375Z" fill="#FFCC47"/>
<path d="M135.137 68.7603V76.0633H133.756V69.8893H132.197V68.7603H135.137Z" fill="#ECECEC"/>
<path d="M69.582 24.4842H77.6567L76.5588 23.2494V20.2506C76.5588 18.6277 75.2485 17.3224 73.6194 17.3224C71.9903 17.3224 70.6799 18.6277 70.6799 20.2506V23.1083L69.582 24.4842Z" fill="#FFCC47"/>
<path d="M72.4863 24.0961C72.5217 24.5548 72.8051 25.0134 73.2655 25.1898C73.6904 25.3662 74.2217 25.2956 74.5758 24.9781C74.93 24.6606 75.0716 24.1314 74.93 23.6728" fill="#FFCC47"/>
<path d="M74.0448 16.0876H73.2656V17.781H74.0448V16.0876Z" fill="#FFCC47"/>
<path d="M85.4127 18.9805C85.4127 18.9805 85.3773 18.91 85.3419 18.7689C85.3065 18.6277 85.2711 18.4161 85.2002 18.1338C85.1648 17.8516 85.0586 17.5341 84.9169 17.146C84.8461 16.9696 84.8107 16.7226 84.7044 16.511C84.5982 16.2993 84.4919 16.0523 84.4211 15.8406C83.9607 14.8881 83.2878 13.7591 82.2962 12.7007C81.2692 11.6071 79.9234 10.6192 78.2235 9.91363C77.3735 9.52556 76.4527 9.31388 75.4965 9.13748C74.5049 9.03164 73.4778 8.96108 72.4154 9.1022C71.8841 9.13748 71.3529 9.2786 70.8217 9.38444C70.5384 9.455 70.2904 9.56084 70.0425 9.6314C69.7592 9.70196 69.5113 9.8078 69.2634 9.91363C68.2009 10.3017 67.2093 10.9367 66.2531 11.7129C64.3761 13.2299 62.8887 15.4878 62.2512 18.0985C61.9325 19.4039 61.8616 20.8151 62.0033 22.191C62.1449 23.6022 62.5699 24.9781 63.2074 26.2482L63.4199 26.6363L63.4553 26.6715V26.7068C62.8178 28.8589 62.1449 30.9404 61.5429 32.9513L61.3658 32.8102C63.1012 31.893 64.8011 31.011 66.4302 30.1995L66.501 30.1642L66.5718 30.1995C68.2009 31.4343 70.078 32.2105 71.8841 32.4927C73.7257 32.7749 75.5319 32.5985 77.1256 32.1399C78.7193 31.6813 80.1359 30.8698 81.2692 29.9173C82.4024 28.9647 83.2878 27.9063 83.9253 26.8127C84.5628 25.719 84.9523 24.6606 85.2002 23.6728C85.4127 22.6849 85.519 21.8382 85.5544 21.1326C85.5544 20.7798 85.5544 20.4623 85.5544 20.2153C85.519 19.9684 85.519 19.7214 85.4836 19.545C85.4836 19.3686 85.4482 19.2275 85.4482 19.1217C85.4127 19.0511 85.4127 18.9805 85.4127 18.9805C85.4127 18.9805 85.4127 19.0158 85.4482 19.1217C85.4482 19.2275 85.4836 19.3686 85.4836 19.545C85.519 19.7214 85.519 19.9684 85.5544 20.2153C85.5544 20.4976 85.5544 20.8151 85.5544 21.1326C85.5544 21.8382 85.4482 22.6849 85.2357 23.6728C84.9878 24.6606 84.5982 25.7543 83.9607 26.8479C83.3232 27.9416 82.4379 29.0353 81.2692 30.0231C80.1359 30.9757 78.7193 31.7871 77.0902 32.281C75.4611 32.7749 73.6549 32.9513 71.7779 32.6691C69.9009 32.3869 68.0239 31.6107 66.3594 30.3406H66.4656C64.8365 31.1874 63.1366 32.0694 61.4012 32.9866L61.1533 33.1277L61.2241 32.8455C61.8262 30.7993 62.4991 28.7178 63.1366 26.601V26.7068L62.9241 26.3187C62.2512 25.0134 61.8262 23.6022 61.6845 22.191C61.5075 20.7798 61.5783 19.3333 61.9325 17.9927C62.6053 15.3114 64.0928 13.0183 66.0406 11.5012C66.9968 10.7251 68.0239 10.09 69.0863 9.70196C69.3342 9.56084 69.6176 9.49028 69.9009 9.41972C70.1842 9.34916 70.4321 9.24332 70.7154 9.17276C71.2467 9.06692 71.7779 8.9258 72.3445 8.89052C73.407 8.7494 74.4694 8.81996 75.4611 8.96108C76.4527 9.13748 77.4089 9.38444 78.2235 9.77252C79.9234 10.4781 81.3046 11.5365 82.3316 12.6302C83.3587 13.7239 84.0315 14.8881 84.4565 15.8406C84.5628 16.0876 84.669 16.3346 84.7399 16.5462C84.8461 16.7579 84.8815 16.9696 84.9523 17.1813C85.0586 17.5694 85.1648 17.9222 85.2357 18.1691C85.2711 18.4513 85.3419 18.6277 85.3419 18.8041C85.4127 18.91 85.4127 18.9805 85.4127 18.9805Z" fill="#1A2E35"/>
<path d="M91.2434 58.1893L89.7394 55.6104L83.8906 56.7566L83.4713 59.7124L81.0179 60.1932L83.3107 45.4776L86.0192 44.9468L93.6771 57.7123L91.2434 58.1893ZM84.221 54.4908L88.5782 53.6369L85.1842 47.8618L84.221 54.4908ZM101.359 48.0343L101.752 50.0362L98.4347 50.6862L99.0847 54.0031L97.0828 54.3955L96.4328 51.0786L93.1159 51.7286L92.7236 49.7267L96.0405 49.0766L95.3904 45.7597L97.3924 45.3674L98.0424 48.6843L101.359 48.0343Z" fill="#FFCC47"/>
</g>
<defs>
<clipPath id="clip0_39_384">
<rect width="203" height="145" fill="white"/>
</clipPath>
</defs>
</svg>
