<svg width="60" height="66" viewBox="0 0 60 66" fill="none" xmlns="http://www.w3.org/2000/svg">
<path d="M59.4567 11.4761C59.3074 9.80218 57.9275 8.53985 56.2469 8.53985H47.9095V7.31116H48.0718C49.2624 7.31116 50.2309 6.3426 50.2309 5.15219V2.15897C50.2309 0.968566 49.2624 0 48.0718 0H23.5329C22.999 0 22.5661 0.432722 22.5661 0.966761C22.5661 1.5008 22.999 1.93352 23.5329 1.93352H48.0718C48.1962 1.93352 48.2974 2.03458 48.2974 2.15897V5.15219C48.2974 5.27658 48.1962 5.37764 48.0718 5.37764H11.9271C11.8027 5.37764 11.7015 5.27658 11.7015 5.15219V2.15897C11.7015 2.03458 11.8027 1.93352 11.9271 1.93352H19C19.534 1.93352 19.9668 1.5008 19.9668 0.966761C19.9668 0.432722 19.534 0 19 0H11.9271C10.7366 0 9.76799 0.968566 9.76799 2.15897V5.15219C9.76799 6.3426 10.7366 7.31116 11.9271 7.31116H12.0894V8.53985H3.75203C2.07141 8.53985 0.691524 9.80218 0.542257 11.4761C0.522664 11.695 0.0882657 16.9056 2.22197 22.6765C4.17418 27.9565 8.653 34.6983 18.9148 37.3442C20.5668 38.6494 22.4532 39.6708 24.4998 40.3327L24.9864 41.1359C25.9061 42.6543 26.3922 44.4492 26.3922 46.3267C26.3922 47.4735 26.2094 48.5939 25.849 49.6564L25.1733 51.6477H22.9251C20.618 51.6477 18.741 53.5248 18.741 55.832V57.8572H15.2225C14.2295 57.8572 13.4217 58.6651 13.4217 59.658V64.1992C13.4217 65.1922 14.2295 66 15.2225 66H44.7766C45.7695 66 46.5774 65.1922 46.5774 64.1992V59.658C46.5774 58.6651 45.7695 57.8572 44.7766 57.8572H41.2581V55.832C41.2581 53.5248 39.381 51.6477 37.074 51.6477H34.8258L34.1501 49.6564C33.7896 48.594 33.6068 47.4736 33.6068 46.3267C33.6068 44.4493 34.0929 42.6544 35.0126 41.1359L35.4992 40.3327C37.5457 39.6708 39.432 38.6496 41.0841 37.3442C51.3459 34.6983 55.8247 27.9565 57.777 22.6765C59.9107 16.9056 59.4763 11.6951 59.4567 11.4761ZM12.4473 26.8571C10.6448 25.1696 9.26386 23.0761 8.3194 20.5809C7.66316 18.8472 7.23366 16.9648 7.0425 14.9849H12.0894V23.2877C12.0894 24.5097 12.213 25.7033 12.4473 26.8571ZM4.03562 22.0061C2.05118 16.6389 2.45026 11.8491 2.46817 11.6479C2.52785 10.9784 3.07981 10.4735 3.75203 10.4735H12.0894V13.0515H6.96245C6.44014 13.0515 5.93897 13.2729 5.58733 13.6588C5.2353 14.0452 5.06128 14.5655 5.10988 15.0862C5.31342 17.2676 5.78481 19.3467 6.51104 21.2655C7.94533 25.055 10.267 28.0139 13.4449 30.1204C14.0702 31.6296 14.8961 33.0354 15.8894 34.3044C8.88515 31.4012 5.58643 26.2003 4.03562 22.0061ZM44.6438 59.7907V64.0665H15.3551V59.7907H44.6438ZM37.074 53.5812C38.3149 53.5812 39.3246 54.5909 39.3246 55.832V57.8572H20.6745V55.832C20.6745 54.5909 21.6842 53.5812 22.9251 53.5812H37.074ZM32.3192 50.2778L32.784 51.6477H27.2148L27.6798 50.2776C28.1082 49.0145 28.3255 47.6853 28.3255 46.3267C28.3255 44.425 27.9006 42.589 27.0923 40.9606C28.0389 41.1158 29.0096 41.1978 29.9995 41.1978C30.9892 41.1978 31.9601 41.1158 32.9065 40.9606C32.0982 42.589 31.6732 44.425 31.6732 46.3267C31.6734 47.6854 31.8906 49.0146 32.3192 50.2778ZM29.9995 39.2642C21.19 39.2642 14.0229 32.0971 14.0229 23.2877V7.31116H45.976V23.2877C45.976 32.0972 38.809 39.2642 29.9995 39.2642ZM55.9634 22.0061C54.4126 26.2004 51.1138 31.4018 44.1091 34.3051C45.1043 33.0337 45.9314 31.6252 46.5572 30.1129C49.286 28.301 51.3874 25.8606 52.8345 22.8049C53.063 22.3224 52.857 21.7458 52.3746 21.5174C51.8922 21.289 51.3158 21.4947 51.0871 21.9773C50.1912 23.8692 49.0097 25.4992 47.5508 26.8631C47.7859 25.7075 47.9098 24.5119 47.9098 23.2879V14.9851H52.9567C52.8605 15.9798 52.7007 16.9663 52.4814 17.9186C52.3617 18.439 52.6864 18.9579 53.2068 19.0775C53.7266 19.1979 54.246 18.8727 54.3657 18.3523C54.6098 17.2916 54.7859 16.1927 54.8893 15.0862C54.9379 14.5655 54.7639 14.0452 54.4119 13.6588C54.0602 13.2729 53.559 13.0515 53.0367 13.0515H47.9098V10.4735H56.2472C56.9194 10.4735 57.4713 10.9784 57.531 11.6481C57.5487 11.8491 57.9478 16.6389 55.9634 22.0061Z" fill="#25C883"/>
<path d="M36.3568 18.7761L33.5847 18.3733C33.4639 18.3557 33.3596 18.2799 33.3056 18.1706L32.0658 15.6585C31.6749 14.8663 30.8832 14.3741 29.9997 14.3741C29.1162 14.3741 28.3245 14.8663 27.9335 15.6585L26.6937 18.1706C26.6397 18.28 26.5354 18.3558 26.4147 18.3733L23.6425 18.7761C22.7682 18.9031 22.0555 19.5039 21.7825 20.3442C21.5095 21.1845 21.7328 22.0895 22.3655 22.7063L24.3715 24.6615C24.4588 24.7467 24.4987 24.8693 24.4781 24.9897L24.0045 27.7508C23.8551 28.6215 24.2063 29.4849 24.9211 30.0042C25.6357 30.5233 26.5656 30.5907 27.3478 30.1797L29.8272 28.8761C29.9352 28.8192 30.0641 28.8192 30.1721 28.8761L32.6517 30.1797C32.9919 30.3584 33.3599 30.4467 33.726 30.4467C34.2017 30.4467 34.6744 30.2976 35.0783 30.0041C35.793 29.4847 36.1443 28.6212 35.9949 27.7506L35.5213 24.9896C35.5007 24.8692 35.5405 24.7466 35.6279 24.6615L37.634 22.7061C38.2666 22.0894 38.49 21.1843 38.217 20.3441C37.944 19.5039 37.231 18.9031 36.3568 18.7761ZM36.2843 21.3217L34.2782 23.2771C33.7351 23.8065 33.4874 24.5688 33.6155 25.3165L34.0891 28.0775C34.123 28.2751 34.0112 28.3895 33.9416 28.4401C33.8721 28.4908 33.7288 28.5619 33.5513 28.4684L31.0717 27.1648C30.7361 26.9883 30.3678 26.9 29.9995 26.9C29.6313 26.9 29.263 26.9883 28.9273 27.1648L26.4479 28.4684C26.2706 28.5618 26.1272 28.4907 26.0575 28.4401C25.9879 28.3895 25.8762 28.2753 25.91 28.0775L26.3836 25.3165C26.5119 24.5688 26.2641 23.8065 25.7209 23.277L23.715 21.3218C23.5714 21.1818 23.5944 21.0237 23.6211 20.9418C23.6477 20.86 23.7219 20.7184 23.9203 20.6895L26.6925 20.2867C27.4432 20.1775 28.0917 19.7064 28.4273 19.0263L29.6671 16.5143C29.7558 16.3345 29.9134 16.3077 29.9994 16.3077C30.0854 16.3077 30.243 16.3345 30.3317 16.5143L31.5715 19.0263C31.9072 19.7064 32.5557 20.1777 33.3064 20.2867L36.0787 20.6895C36.277 20.7184 36.3513 20.86 36.3778 20.9418C36.4047 21.0237 36.4277 21.1818 36.2843 21.3217Z" fill="#25C883"/>
</svg>
