<svg width="66" height="66" viewBox="0 0 66 66" fill="none" xmlns="http://www.w3.org/2000/svg">
<path d="M33.3572 23.3972H8.60925C8.07532 23.3972 7.64258 23.8301 7.64258 24.3639C7.64258 24.8978 8.07532 25.3306 8.60925 25.3306H33.3573C33.8912 25.3306 34.324 24.8977 34.324 24.3639C34.324 23.8301 33.8912 23.3972 33.3572 23.3972Z" fill="#25C883"/>
<path d="M33.3572 30.1901H8.60925C8.07532 30.1901 7.64258 30.6229 7.64258 31.1567C7.64258 31.6905 8.07532 32.1234 8.60925 32.1234H33.3573C33.8912 32.1234 34.324 31.6905 34.324 31.1567C34.324 30.6229 33.8912 30.1901 33.3572 30.1901Z" fill="#25C883"/>
<path d="M33.3572 36.9828H8.60925C8.07532 36.9828 7.64258 37.4157 7.64258 37.9495C7.64258 38.4833 8.07532 38.9161 8.60925 38.9161H33.3573C33.8912 38.9161 34.324 38.4833 34.324 37.9495C34.324 37.4157 33.8912 36.9828 33.3572 36.9828Z" fill="#25C883"/>
<path d="M34.324 44.7424C34.324 44.2085 33.8912 43.7758 33.3573 43.7758H8.60925C8.07532 43.7758 7.64258 44.2086 7.64258 44.7424C7.64258 45.2762 8.07532 45.7091 8.60925 45.7091H33.3573C33.8912 45.7091 34.324 45.2764 34.324 44.7424Z" fill="#25C883"/>
<path d="M8.60925 53.7308C8.07532 53.7308 7.64258 54.1637 7.64258 54.6975C7.64258 55.2313 8.07532 55.6642 8.60925 55.6642H21.0149C21.5489 55.6642 21.9816 55.2313 21.9816 54.6975C21.9816 54.1637 21.5489 53.7308 21.0149 53.7308H8.60925Z" fill="#25C883"/>
<path d="M44.4979 11.9694V8.83258C44.4979 7.63762 43.5258 6.66541 42.3308 6.66541H22.4834C21.2885 6.66541 20.3164 7.63762 20.3164 8.83258V11.9694C20.3164 13.1643 21.2885 14.1364 22.4834 14.1364H24.1595C24.6934 14.1364 25.1262 13.7036 25.1262 13.1698C25.1262 12.6358 24.6934 12.2031 24.1595 12.2031H22.4834C22.3547 12.2031 22.2499 12.0983 22.2499 11.9695V8.83258C22.2499 8.7038 22.3547 8.59887 22.4834 8.59887H42.3308C42.4597 8.59887 42.5645 8.70367 42.5645 8.83258V11.9694C42.5645 12.0982 42.4597 12.203 42.3308 12.203H28.6789C28.145 12.203 27.7123 12.6358 27.7123 13.1696C27.7123 13.7036 28.145 14.1363 28.6789 14.1363H42.3309C43.5258 14.1366 44.4979 13.1643 44.4979 11.9694Z" fill="#25C883"/>
<path d="M51.7261 58.9483C51.1922 58.9483 50.7595 59.3812 50.7595 59.915V61.2168C50.7595 62.788 49.4811 64.0665 47.9096 64.0665H5.14342C3.57218 64.0665 2.29369 62.7882 2.29369 61.2168V14.7505C2.29369 14.5413 2.31818 14.3361 2.36188 14.1364H11.164C13.0017 14.1364 14.4967 12.6413 14.4967 10.8036V2.00166C14.6964 1.95796 14.9015 1.93346 15.1107 1.93346H47.9095C49.4809 1.93346 50.7593 3.21183 50.7593 4.7832V17.6535C50.7593 18.1874 51.1921 18.6201 51.726 18.6201C52.2599 18.6201 52.6927 18.1873 52.6927 17.6535V4.78307C52.6928 2.14577 50.547 0 47.9096 0H15.1108C13.8332 0 12.632 0.497578 11.7286 1.40095L1.76118 11.3684C0.857801 12.2717 0.360352 13.4729 0.360352 14.7506V61.2169C0.360352 63.8544 2.506 66 5.14342 66H47.9096C50.547 66 52.6928 63.8542 52.6928 61.2169V59.9151C52.6928 59.3812 52.2601 58.9483 51.7261 58.9483ZM12.5634 3.30052V10.8036C12.5634 11.5753 11.9356 12.203 11.164 12.203H3.66087L12.5634 3.30052Z" fill="#25C883"/>
<path d="M64.9668 34.5467C65.6454 33.5506 65.8209 32.322 65.4485 31.1758C65.0761 30.0296 64.2118 29.1388 63.0774 28.732C62.3249 28.4621 61.8228 27.7711 61.7988 26.9719C61.7623 25.7673 61.1821 24.67 60.2069 23.9616C59.232 23.2532 58.009 23.0407 56.8524 23.3781C56.0844 23.6022 55.2727 23.3382 54.7833 22.7059C54.0459 21.7526 52.9316 21.2059 51.7263 21.2059C50.5212 21.2059 49.4068 21.7526 48.6692 22.7059C48.1799 23.3383 47.3676 23.6019 46.6002 23.3781C45.4436 23.0404 44.2206 23.2532 43.2455 23.9616C42.2704 24.67 41.6905 25.7671 41.6538 26.9718C41.6297 27.771 41.1278 28.4618 40.3751 28.7319C39.2407 29.1387 38.3764 30.0296 38.0041 31.1757C37.6317 32.3219 37.8073 33.5506 38.4858 34.5466C38.936 35.2075 38.936 36.0613 38.4858 36.7221C37.8073 37.7182 37.6317 38.9468 38.0041 40.093C38.3764 41.2393 39.2407 42.13 40.3751 42.537C41.1278 42.807 41.6299 43.4978 41.6538 44.297C41.6875 45.4051 42.1953 46.4463 43.0473 47.1533C43.6095 47.62 44.2848 47.912 44.9916 48.0095V56.811C44.9916 57.5536 45.3944 58.2401 46.0427 58.6021C46.6902 58.964 47.4862 58.9479 48.119 58.5582L51.6646 56.3756C51.7223 56.3398 51.7567 56.356 51.7886 56.3756L55.3339 58.5582C55.9664 58.9475 56.7622 58.9642 57.4103 58.602C58.0587 58.2398 58.4614 57.5534 58.4614 56.8109V48.0093C59.168 47.9118 59.8433 47.6199 60.4055 47.1533C61.2577 46.4463 61.7655 45.4052 61.7992 44.2969C61.8232 43.4977 62.3253 42.8068 63.0778 42.5368C64.2123 42.13 65.0766 41.2391 65.4489 40.0929C65.8213 38.9467 65.6457 37.718 64.9672 36.722C64.5165 36.0615 64.5165 35.2076 64.9668 34.5467ZM56.3472 56.9118L52.8018 54.7292C52.1427 54.3235 51.3105 54.3229 50.6507 54.7292L47.1053 56.9117C47.0246 56.9608 46.925 56.9042 46.925 56.8109V47.826C47.5896 47.749 48.2486 48.0195 48.6692 48.5631C49.4069 49.5162 50.5212 50.0629 51.7265 50.0629C52.9316 50.0629 54.0459 49.5162 54.7833 48.5631C55.2041 48.0193 55.8632 47.749 56.5277 47.826V56.8109C56.5277 56.9048 56.4268 56.9609 56.3472 56.9118ZM63.369 37.811C63.7083 38.3088 63.7959 38.9228 63.6098 39.4957C63.4237 40.0685 62.9917 40.5138 62.4246 40.7172C60.9188 41.2573 59.9146 42.6396 59.8662 44.2386C59.8491 44.8008 59.602 45.3075 59.1705 45.6656C58.6855 46.0682 58.0285 46.2201 57.3941 46.035C55.8584 45.5869 54.2333 46.1149 53.2541 47.38C52.8856 47.8563 52.3286 48.1295 51.7262 48.1295C51.1239 48.1295 50.5669 47.8564 50.1981 47.38C49.4506 46.4137 48.3264 45.8774 47.153 45.8774C46.7897 45.8774 46.4216 45.9289 46.0586 46.0348C45.4179 46.2215 44.7629 46.065 44.2817 45.6655C43.8503 45.3074 43.6032 44.8007 43.5863 44.2386C43.5378 42.6396 42.5336 41.2573 41.0276 40.7171C40.4607 40.5136 40.0289 40.0685 39.8426 39.4957C39.6564 38.9228 39.7441 38.3087 40.0834 37.8109C40.984 36.4887 40.984 34.7803 40.0834 33.4581C39.7441 32.9602 39.6564 32.3461 39.8426 31.7732C40.0287 31.2003 40.4607 30.755 41.0276 30.5518C42.5336 30.0115 43.5378 28.6293 43.5863 27.0302C43.6045 26.4281 43.8942 25.8797 44.3816 25.5257C44.8688 25.1716 45.4798 25.0654 46.0584 25.234C47.5937 25.6822 49.2192 25.1541 50.1981 23.889C50.5668 23.4125 51.1237 23.1393 51.7262 23.1393C52.3286 23.1393 52.8854 23.4124 53.2541 23.8889C54.2332 25.1541 55.8579 25.6821 57.3939 25.234C57.9722 25.0651 58.5832 25.1715 59.0706 25.5256C59.558 25.8796 59.8481 26.4281 59.8661 27.03C59.9146 28.6291 60.9188 30.0115 62.4246 30.5516C62.9917 30.7549 63.4235 31.2002 63.6098 31.773C63.7959 32.3459 63.7083 32.9601 63.369 33.4578C62.4681 34.7801 62.4681 36.4888 63.369 37.811Z" fill="#25C883"/>
<path d="M51.7263 27.5322C47.2587 27.5322 43.624 31.1669 43.624 35.6345C43.624 40.1021 47.2587 43.7368 51.7263 43.7368C56.1938 43.7368 59.8284 40.1021 59.8284 35.6345C59.8284 31.1669 56.1938 27.5322 51.7263 27.5322ZM51.7263 41.8034C48.3247 41.8034 45.5574 39.0361 45.5574 35.6346C45.5574 32.2332 48.3247 29.4657 51.7263 29.4657C55.1279 29.4657 57.8951 32.2331 57.8951 35.6346C57.8951 39.0362 55.1277 41.8034 51.7263 41.8034Z" fill="#25C883"/>
</svg>
