<svg width="66" height="66" viewBox="0 0 66 66" fill="none" xmlns="http://www.w3.org/2000/svg">
<path d="M52.1453 6.9286C51.9534 4.92566 51.026 3.12356 49.5338 1.85397C47.763 0.347703 45.3722 -0.271818 42.8023 0.11C39.9625 0.53178 36.9814 2.16991 34.1815 4.84742C33.7955 5.21647 33.7819 5.82839 34.1508 6.21433C34.5199 6.60028 35.1319 6.61394 35.5177 6.24501C41.145 0.864485 45.9101 1.31037 48.2809 3.32697C50.704 5.38818 50.9082 8.99367 48.7776 12.0948C48.2881 12.8071 47.7983 13.551 47.3107 14.3159L45.0264 13.2211C44.5447 12.9901 43.9675 13.1937 43.7367 13.675C43.5059 14.1565 43.7092 14.734 44.1906 14.9647L46.2804 15.9664C45.9365 16.5291 45.5948 17.0994 45.2558 17.6737L44.3414 17.2778C43.8512 17.0656 43.2822 17.2909 43.07 17.7809C42.8579 18.2709 43.0832 18.8401 43.5732 19.0523L44.2766 19.3569C43.1796 21.2685 42.1246 23.1885 41.1461 24.994C40.8917 25.4634 41.0659 26.0502 41.5354 26.3045C41.6819 26.384 41.8396 26.4216 41.9952 26.4216C42.3386 26.4216 42.6711 26.2383 42.8461 25.9153C45.0961 21.7638 47.7497 17.0055 50.3713 13.1897C51.7342 11.2059 52.3476 9.04085 52.1453 6.9286Z" fill="#25C883"/>
<path d="M45.3131 5.70099C44.9477 5.31157 44.3358 5.29223 43.9465 5.65755C37.9301 11.3035 33.318 19.6518 30.238 30.4707C29.018 34.7561 28.2422 38.7591 27.7536 41.9327C27.4663 41.2848 27.1858 40.5037 26.9662 39.5857C26.5048 37.6566 25.8749 32.8253 26.441 26.9547C26.5267 26.0651 26.6467 25.1032 26.8116 24.0907L28.5551 24.4887C28.6276 24.5052 28.6999 24.5131 28.7712 24.5131C29.2122 24.5131 29.6105 24.2094 29.7128 23.7613C29.8317 23.2407 29.5061 22.7224 28.9854 22.6036L27.1663 22.1883C28.0282 18.0896 29.6619 13.4255 32.7267 9.37609C33.0488 8.95032 32.965 8.34407 32.5391 8.02181C32.1133 7.69955 31.507 7.78346 31.1848 8.20937C22.6799 19.4471 23.9649 35.3505 25.0855 40.0357C25.6946 42.5822 26.7211 44.2439 27.3251 45.056C27.1992 46.1068 27.114 46.9751 27.0583 47.6186H21.4055C20.8716 47.6186 20.4387 48.0514 20.4387 48.5854V51.3995C20.4387 51.9334 20.8716 52.3663 21.4055 52.3663H25.2562V54.741H25.0497C21.5911 54.741 18.3713 56.2948 16.2159 59.0043C14.8568 60.7146 14.0289 62.7676 13.8217 64.9414C13.7959 65.2125 13.8857 65.4819 14.0688 65.6835C14.252 65.8851 14.5119 66 14.7841 66H33.0848C33.6187 66 34.0516 65.5671 34.0516 65.0332C34.0516 64.4993 33.6187 64.0664 33.0848 64.0664H15.9091C16.1765 62.8088 16.7014 61.622 17.4548 60.5729H38.7536C39.5072 61.6221 40.032 62.8089 40.2994 64.0664H37.4266C36.8926 64.0664 36.4598 64.4993 36.4598 65.0332C36.4598 65.5671 36.8926 66 37.4266 66H41.4241C41.6964 66 41.9562 65.8851 42.1394 65.6835C42.3225 65.4819 42.4122 65.2125 42.3865 64.9414C42.1794 62.7673 41.3515 60.7144 39.9922 59.0038C37.8369 56.2947 34.6171 54.7409 31.1587 54.7409H30.9521V52.3662H34.8028C35.3367 52.3662 35.7696 51.9333 35.7696 51.3994V48.5852C35.7696 48.0513 35.3367 47.6184 34.8028 47.6184H28.999C29.0458 47.0867 29.1093 46.4377 29.1941 45.6883C30.101 45.1868 33.0886 43.3589 35.0635 40.0725C36.8141 37.1591 38.702 33.6349 40.7008 29.9038C40.9529 29.4332 40.7758 28.8472 40.305 28.595C39.8344 28.3429 39.2485 28.52 38.9962 28.9908C38.4255 30.0563 37.8641 31.1041 37.3124 32.1256L34.7162 31.2266C34.2119 31.0517 33.661 31.3192 33.4863 31.8239C33.3116 32.3284 33.579 32.8791 34.0835 33.0538L36.377 33.8479C35.3459 35.7337 34.3532 37.5005 33.4061 39.0767C32.2491 41.0022 30.6572 42.3727 29.5133 43.1906C30.7957 34.1393 34.5584 17.1195 45.2698 7.06778C45.6591 6.70233 45.6785 6.09042 45.3131 5.70099ZM31.1585 56.6744C33.2692 56.6744 35.2724 57.3738 36.8952 58.6388H19.3135C20.9364 57.3738 22.9394 56.6744 25.0501 56.6744H31.1585ZM27.19 54.7409V52.3662H29.0184V54.7409H27.19ZM33.836 49.5519V50.4324H22.3726V49.5519H33.836Z" fill="#25C883"/>
<path d="M25.3223 61.3297C24.7883 61.3297 24.3555 61.7626 24.3555 62.2965V62.3421C24.3555 62.8761 24.7883 63.3089 25.3223 63.3089C25.8562 63.3089 26.2891 62.8761 26.2891 62.3421V62.2965C26.2891 61.7626 25.8562 61.3297 25.3223 61.3297Z" fill="#25C883"/>
<path d="M28.1582 61.3297C27.6243 61.3297 27.1914 61.7626 27.1914 62.2965V62.3421C27.1914 62.8761 27.6243 63.3089 28.1582 63.3089C28.6921 63.3089 29.125 62.8761 29.125 62.3421V62.2965C29.125 61.7626 28.6921 61.3297 28.1582 61.3297Z" fill="#25C883"/>
<path d="M30.9941 61.3297C30.4602 61.3297 30.0273 61.7626 30.0273 62.2965V62.3421C30.0273 62.8761 30.4602 63.3089 30.9941 63.3089C31.5281 63.3089 31.9609 62.8761 31.9609 62.3421V62.2965C31.9609 61.7626 31.5281 61.3297 30.9941 61.3297Z" fill="#25C883"/>
</svg>
