<svg width="66" height="66" viewBox="0 0 66 66" fill="none" xmlns="http://www.w3.org/2000/svg">
<path d="M15.0786 12.1778C15.6125 12.1778 16.0453 11.7449 16.0453 11.211C16.0453 10.6771 15.6125 10.2442 15.0786 10.2442C14.5446 10.2442 14.1118 10.6771 14.1118 11.211C14.1118 11.7449 14.5445 12.1778 15.0786 12.1778ZM7.34418 12.1778C7.87811 12.1778 8.31097 11.7449 8.31097 11.211C8.31097 10.6771 7.87811 10.2442 7.34418 10.2442C6.81025 10.2442 6.37738 10.6771 6.37738 11.211C6.37738 11.7449 6.81012 12.1778 7.34418 12.1778ZM11.2114 12.1778C11.7453 12.1778 12.1782 11.7449 12.1782 11.211C12.1782 10.6771 11.7453 10.2442 11.2114 10.2442C10.6774 10.2442 10.2446 10.6771 10.2446 11.211C10.2446 11.7449 10.6773 12.1778 11.2114 12.1778ZM10.9993 22.4198C11.0052 22.4199 11.0112 22.4199 11.0171 22.4199L19.7581 22.4221H19.7586C20.3625 22.4221 20.8752 22.0309 21.0347 21.4485C21.1943 20.8658 20.952 20.2678 20.4323 19.9604L19.1029 19.1738C21.2396 17.056 22.4414 14.1664 22.4223 11.1389C22.3841 5.08448 17.4286 0.0882005 11.376 0.0010599C5.10404 -0.0890456 0 4.98432 0 11.2113C0 17.1826 4.92009 22.2905 10.9993 22.4198ZM4.69863 4.60353C6.48141 2.84628 8.83781 1.89946 11.3483 1.9344C16.3567 2.00645 20.457 6.14099 20.4887 11.1511C20.5059 13.8541 19.3468 16.4246 17.3085 18.2033C16.9677 18.5005 16.7891 18.9467 16.8304 19.3967C16.8716 19.8464 17.1285 20.2522 17.5172 20.4821L17.5269 20.4877L11.0266 20.4862C6.00162 20.3898 1.93359 16.2501 1.93359 11.2113C1.93359 8.70777 2.9156 6.36117 4.69863 4.60353ZM65.0332 64.0663H64.0664V49.6688C64.0664 45.8967 61.8375 42.4714 58.3771 40.9376L53.282 38.7538C54.5218 38.3625 55.6419 37.6649 56.5532 36.6972C57.9283 35.2373 58.7168 33.2564 58.7168 31.2624C58.7168 29.4301 58.0766 27.7007 56.8653 26.2607C55.3502 24.4615 54.5157 22.175 54.5157 19.8219V15.1891C54.5157 11.1313 52.9355 7.31726 50.0663 4.44949C47.1971 1.58003 43.3826 -0.000100255 39.3254 -0.000100255C30.9501 -0.000100255 24.1364 6.81363 24.1364 15.1889V19.671C24.1369 22.1058 23.1801 24.4298 21.6252 26.3032C19.6683 28.6609 19.2617 31.8486 20.5643 34.6223C21.5311 36.6812 23.2749 38.1604 25.3626 38.7865L20.303 40.9867C16.7533 42.4804 14.4595 45.934 14.4595 49.7849V61.166C14.4595 61.7 14.8923 62.1328 15.4263 62.1328C15.9604 62.1328 16.3931 61.7 16.3931 61.166V49.7849C16.3931 46.7141 18.2222 43.96 21.0635 42.7644L27.4055 40.0066V45.8261H24.4918C23.6707 45.8261 22.8847 46.1762 22.3355 46.7867C21.7863 47.3972 21.521 48.2156 21.6077 49.0321L23.2013 64.0663H0.966797C0.432738 64.0663 0 64.4992 0 65.0331C0 65.567 0.432738 65.9999 0.966797 65.9999H65.0332C65.5673 65.9999 66 65.567 66 65.0331C66 64.4992 65.5673 64.0663 65.0332 64.0663ZM55.386 27.5057C56.3001 28.5923 56.7832 29.8913 56.7832 31.2622C56.7832 32.7688 56.1864 34.2664 55.1457 35.3714C54.0438 36.5412 52.5301 37.1855 50.8833 37.1855H49.6234L47.9683 36.4761C46.5227 35.8561 45.5337 34.5269 45.3316 32.9969C48.3146 31.3908 50.347 28.2385 50.347 24.6197V17.3516C50.63 17.3708 50.9127 17.3812 51.1946 17.3812C51.6596 17.3812 52.1227 17.3548 52.5823 17.3027V19.8218C52.5821 22.6299 53.5781 25.3589 55.386 27.5057ZM39.5604 42.7683C36.1017 42.8295 32.6691 42.3912 29.3391 41.4676V39.1657L29.6187 39.0442C29.6209 39.0433 29.623 39.0423 29.6254 39.0414L31.3501 38.2914C33.2701 37.4567 34.6268 35.7472 35.0381 33.7494C35.88 33.9942 36.7686 34.128 37.6884 34.128H40.8388C41.7621 34.128 42.654 33.9931 43.4988 33.7465C43.9236 35.7352 45.2855 37.4294 47.2064 38.2533L49.0472 39.0423C49.0483 39.0428 49.0495 39.0433 49.0506 39.0437L49.187 39.1021V41.2776C46.0581 42.2099 42.8233 42.7113 39.5604 42.7683ZM49.1868 43.2906V45.8262H29.3391V43.4698C32.4733 44.2916 35.6913 44.7074 38.9311 44.7074C39.1521 44.7074 39.3731 44.7055 39.5942 44.7016C42.8413 44.6449 46.0619 44.1704 49.1868 43.2906ZM52.5821 15.3531C49.9191 15.7129 46.9172 14.9996 44.8491 13.3971C44.4272 13.0702 43.8199 13.147 43.4927 13.5692C43.1657 13.9913 43.2428 14.5985 43.6648 14.9256C45.0169 15.9731 46.6477 16.7109 48.4135 17.0829V22.3463C47.9489 23.4051 47.4317 24.2857 46.2657 25.2476C45.7749 25.6526 45.2376 25.9889 44.6621 26.2558C44.1923 25.3389 43.238 24.7096 42.1389 24.7096H39.8733C38.3106 24.7096 37.0393 25.981 37.0393 27.5436C37.0393 29.1062 38.3106 30.3776 39.8733 30.3776H42.1389C43.454 30.3776 44.5626 29.477 44.8809 28.2604C46.1742 27.7676 48.283 26.0096 48.2835 26.0089C47.6288 29.5238 44.5407 32.1938 40.8389 32.1938H37.6883C33.5118 32.1938 30.1138 28.796 30.1138 24.6193V17.1461C33.3974 16.6314 36.4995 15.5202 39.3445 13.8375C43.6763 11.2752 46.4548 7.92699 48.1317 5.2817C51.0007 7.83701 52.6328 11.5004 52.5821 15.3531ZM43.0391 27.5463C43.0377 28.0416 42.6345 28.4442 42.1388 28.4442H39.8732C39.3766 28.4442 38.9727 28.0402 38.9727 27.5438C38.9727 27.0474 39.3767 26.6434 39.8732 26.6434H42.1388C42.6343 26.6434 43.0374 27.0457 43.0391 27.5408V27.5463ZM26.07 15.1889C26.07 7.87981 32.0163 1.93349 39.3254 1.93349C41.9467 1.93349 44.4516 2.69017 46.5921 4.09886C45.049 6.57244 42.4517 9.75333 38.3601 12.1737C35.5531 13.834 32.4742 14.894 29.2085 15.3243H29.1482C29.1478 15.3243 29.1474 15.3243 29.1469 15.3243C29.1463 15.3243 29.1461 15.3243 29.1456 15.3243H26.0699V15.1889H26.07ZM22.3143 33.8004C21.334 31.7124 21.64 29.3128 23.1119 27.5396C24.9587 25.3145 26.0721 22.5652 26.07 19.671V17.2579H28.1802V24.6197C28.1802 28.2406 30.2152 31.3944 33.201 32.9996C33.0142 34.5412 32.0282 35.8879 30.579 36.518L29.044 37.1855H27.6427C25.3365 37.1855 23.2949 35.8884 22.3143 33.8004ZM55.9701 48.8284L54.3547 64.0663H25.1457L23.5304 48.8284C23.5012 48.5522 23.5873 48.2864 23.773 48.08C23.9588 47.8735 24.2141 47.7598 24.4918 47.7598H55.0087C55.2863 47.7598 55.5417 47.8735 55.7275 48.08C55.9132 48.2864 55.9993 48.5522 55.9701 48.8284ZM62.1328 64.0663H56.2992L57.8928 49.0324C57.9795 48.2157 57.714 47.3973 57.165 46.7868C56.6158 46.1763 55.8299 45.8262 55.0087 45.8262H51.1204V39.9309L57.6045 42.71C60.3553 43.9295 62.1328 46.6609 62.1328 49.6688V64.0663ZM39.7502 52.2392C37.7244 52.2392 36.0763 53.8872 36.0763 55.913C36.0763 57.9387 37.7244 59.5868 39.7502 59.5868C41.7759 59.5868 43.424 57.9387 43.424 55.913C43.424 53.8872 41.7759 52.2392 39.7502 52.2392ZM39.7502 57.6532C38.7906 57.6532 38.0099 56.8726 38.0099 55.913C38.0099 54.9534 38.7906 54.1728 39.7502 54.1728C40.7098 54.1728 41.4904 54.9534 41.4904 55.913C41.4904 56.8726 40.7099 57.6532 39.7502 57.6532Z" fill="#25C883"/>
</svg>
