<svg width="814" height="430" viewBox="0 0 814 430" fill="none" xmlns="http://www.w3.org/2000/svg">
<g clip-path="url(#clip0_39_16)">
<path d="M793.707 157.522C793.707 157.522 778.097 74.9133 690.438 28.7388C602.78 -17.4357 495.908 -5.29082 451.479 45.6935C407.049 96.6779 410.652 186.622 363.82 184.217C316.989 181.812 298.977 117.36 234.134 158.725C169.291 200.089 202.913 255.884 198.11 291.236C193.307 326.468 138.07 271.756 93.6403 286.426C49.2107 300.976 28.7971 342.341 33.6003 366.63C38.4035 390.92 16.7891 421.342 16.7891 421.342H800.912C800.912 421.222 812.92 263.339 793.707 157.522Z" fill="#CFF7EC"/>
<path d="M0 421.783L813.087 421.784" stroke="#263238" stroke-miterlimit="10" stroke-linecap="round" stroke-linejoin="round"/>
<path d="M118.136 290.034C121.619 291.597 130.264 291.356 130.264 291.356C130.384 291.356 128.463 285.705 128.223 285.344C126.302 281.376 120.418 274.883 115.494 275.484C112.012 275.965 110.091 279.452 110.811 282.819C111.652 286.306 115.134 288.831 118.136 290.034Z" fill="#FFCC47"/>
<path d="M121.018 315.045C124.62 315.526 132.305 313.361 132.906 313.121C134.107 317.45 135.668 321.778 137.589 325.987C138.67 328.392 139.75 330.917 140.951 333.322C140.231 332.24 139.63 331.398 139.51 331.278C136.628 327.911 129.183 323.221 124.62 325.145C121.378 326.468 120.417 330.436 122.099 333.442C123.78 336.448 127.742 338.012 130.984 338.493C134.227 338.974 140.831 337.17 142.632 336.689C143.113 337.651 143.593 338.493 143.953 339.455C146.235 343.904 148.396 348.353 150.437 352.682C151.158 354.245 151.878 355.808 152.479 357.371C151.878 356.409 151.278 355.688 151.278 355.568C148.396 352.201 140.951 347.511 136.388 349.435C133.146 350.758 132.185 354.726 133.866 357.732C135.548 360.738 139.51 362.301 142.752 362.782C145.874 363.263 151.998 361.7 154.04 361.099C154.64 362.662 155.361 364.346 155.841 365.909C156.201 366.991 156.562 368.073 156.922 369.155C157.282 370.238 157.522 371.32 157.882 372.402C158.363 374.446 158.963 376.611 159.323 378.655C159.684 380.098 159.924 381.421 160.164 382.863C159.443 381.3 158.002 378.294 157.882 378.054C155.601 374.326 148.876 368.554 144.073 369.757C140.711 370.598 139.15 374.326 140.231 377.573C141.431 380.819 145.154 382.864 148.276 383.825C151.758 384.908 159.323 383.946 160.284 383.825C160.764 386.11 161.125 388.275 161.485 390.439C162.325 395.129 162.926 399.217 163.406 402.704H166.648C166.048 399.097 165.327 394.768 164.367 389.838C163.886 387.553 163.406 385.028 162.806 382.503C163.406 382.262 166.648 380.94 169.53 379.376C172.052 382.142 178.416 385.268 179.257 385.629C178.416 387.794 177.455 389.838 176.615 391.882C174.814 395.97 173.133 399.578 171.692 402.704H175.174C176.495 399.818 177.816 396.572 179.377 392.964C180.217 390.8 181.178 388.395 182.139 385.99C183.099 386.23 190.544 387.673 194.147 386.952C197.389 386.23 201.231 384.427 202.672 381.3C204.113 378.174 202.792 374.446 199.43 373.244C194.747 371.681 187.662 376.971 185.141 380.459C185.021 380.699 183.58 383.104 182.739 384.667C183.099 383.705 183.459 382.743 183.82 381.661C184.54 379.617 185.261 377.573 185.981 375.408C186.341 374.326 186.582 373.244 186.942 372.162C187.302 371.079 187.542 369.877 187.782 368.795C188.383 366.149 188.983 363.384 189.343 360.618C191.145 361.219 197.389 363.504 200.751 363.263C203.993 363.023 208.076 361.82 209.997 358.935C211.798 356.049 211.198 352.08 208.076 350.517C203.753 348.233 195.948 352.441 192.826 355.447C192.586 355.688 190.664 358.093 189.584 359.536C189.824 357.852 190.064 356.169 190.304 354.485C190.904 349.676 191.385 344.625 191.865 339.695C191.985 338.132 192.225 336.689 192.345 335.126C192.946 335.366 200.391 338.132 204.113 337.891C207.355 337.651 211.438 336.449 213.359 333.563C215.161 330.677 214.56 326.709 211.438 325.145C207.115 322.861 199.31 327.069 196.188 330.075C195.948 330.316 193.066 333.923 192.465 334.765C192.826 331.398 193.186 328.152 193.666 324.905C194.387 320.456 195.227 316.127 196.548 311.918C196.788 312.039 204.594 314.924 208.316 314.684C211.558 314.443 215.641 313.241 217.562 310.355C219.363 307.469 218.763 303.501 215.641 301.938C211.318 299.653 203.513 303.862 200.391 306.868C200.151 307.108 197.149 310.956 196.548 311.678C196.668 311.437 196.668 311.197 196.788 310.956C198.109 306.507 200.031 302.419 201.952 298.691C203.033 296.527 204.233 294.483 205.434 292.559C206.875 293.28 213.239 296.407 216.602 296.527C219.844 296.647 224.047 295.926 226.208 293.28C228.369 290.635 228.129 286.667 225.247 284.743C221.165 281.977 212.999 285.344 209.517 287.989C209.277 288.11 207.596 289.913 206.395 291.116C206.995 290.274 207.475 289.312 208.076 288.47C210.117 285.344 212.159 282.699 214.08 280.294C215.161 278.971 216.121 277.768 217.082 276.686C218.763 276.686 225.728 276.446 228.73 275.003C231.732 273.56 235.094 271.035 235.814 267.668C236.535 264.301 234.493 260.934 231.011 260.573C226.088 260.092 220.324 266.706 218.523 270.794C218.403 271.155 216.602 276.806 216.722 276.806H216.842C215.881 277.889 214.92 278.971 213.96 280.294C212.039 282.578 209.877 285.344 207.836 288.35C205.674 291.356 203.513 294.723 201.471 298.571C199.43 302.299 197.509 306.387 196.068 310.836V310.956C196.068 309.513 196.068 305.545 195.948 305.185C195.347 300.856 191.745 292.799 186.942 291.837C183.459 291.236 180.578 293.881 180.217 297.248C179.977 300.735 182.379 304.102 184.9 306.387C187.662 308.792 195.227 311.197 195.828 311.437C194.507 315.646 193.426 320.215 192.586 324.785C192.105 327.43 191.745 330.075 191.385 332.721C191.385 331.518 191.385 330.316 191.265 330.196C190.664 325.867 187.062 317.81 182.259 316.848C178.776 316.247 175.894 318.893 175.534 322.259C175.294 325.747 177.696 329.114 180.217 331.398C182.739 333.563 189.103 335.727 190.904 336.328C190.784 337.41 190.664 338.372 190.544 339.455C189.944 344.385 189.343 349.315 188.743 354.125C188.503 355.808 188.143 357.492 187.902 359.175C187.902 358.093 187.902 357.131 187.902 357.011C187.302 352.682 183.7 344.625 178.896 343.663C175.414 343.062 172.532 345.707 172.172 349.074C171.932 352.561 174.333 355.928 176.855 358.213C179.257 360.377 185.141 362.422 187.182 363.023C186.822 364.706 186.461 366.39 186.101 368.073C185.741 369.155 185.621 370.238 185.141 371.32C184.78 372.402 184.42 373.484 184.06 374.567C183.339 376.611 182.619 378.655 181.778 380.699C181.298 382.022 180.698 383.344 180.217 384.667C180.457 382.984 180.938 379.737 180.938 379.376C181.058 376.49 179.977 371.681 177.936 368.434C177.936 367.953 177.936 367.592 177.816 367.111C177.335 363.744 174.093 361.219 170.731 362.181C166.048 363.384 163.046 371.801 162.806 376.13C162.806 376.37 162.926 379.256 163.046 380.94C162.806 379.857 162.566 378.895 162.325 377.813C161.845 375.769 161.245 373.605 160.644 371.44C160.284 370.358 160.044 369.276 159.684 368.193C159.323 367.111 158.963 366.029 158.483 364.827C157.522 362.301 156.441 359.656 155.361 357.131C157.162 356.65 163.646 355.087 166.288 353.042C168.93 350.998 171.572 347.752 171.572 344.385C171.572 341.018 168.81 338.012 165.327 338.493C160.404 338.974 156.201 346.79 155.361 351.119C155.361 351.359 155 354.485 154.88 356.289C154.16 354.726 153.439 353.283 152.719 351.72C150.558 347.271 148.156 342.942 145.874 338.613C145.154 337.29 144.433 335.968 143.833 334.645C144.433 334.525 152.239 332.721 155.121 330.436C157.762 328.392 160.404 325.145 160.404 321.778C160.404 318.412 157.642 315.405 154.16 315.886C149.237 316.367 145.034 324.183 144.193 328.512C144.073 328.873 143.713 333.322 143.713 334.525C142.152 331.518 140.711 328.632 139.27 325.626C137.349 321.538 135.788 317.329 134.467 313.241C134.827 313.121 142.872 311.317 145.874 309.032C148.516 306.988 151.158 303.742 151.158 300.375C151.158 297.008 148.396 294.002 144.914 294.483C139.99 294.964 135.788 302.78 134.947 307.108C134.827 307.469 134.467 312.279 134.467 313.241C134.347 313.001 134.227 312.76 134.227 312.52C132.906 308.07 132.185 303.621 131.705 299.413C131.465 297.008 131.345 294.603 131.225 292.318C132.786 292.078 139.87 291.236 142.752 289.432C145.514 287.749 148.636 284.743 148.996 281.376C149.357 278.009 146.955 274.762 143.473 274.762C138.55 274.762 133.506 281.977 132.185 286.186C132.065 286.426 131.585 288.831 131.345 290.515C131.345 289.432 131.345 288.47 131.345 287.388C131.345 283.66 131.585 280.294 131.825 277.287C131.945 275.604 132.185 274.041 132.305 272.598C133.746 271.636 139.39 267.668 141.191 264.782C142.872 262.016 144.313 257.928 142.992 254.681C141.792 251.555 138.189 249.751 135.067 251.435C130.744 253.719 129.544 262.497 130.264 266.826C130.384 267.187 131.945 272.959 132.065 272.838H132.185C131.945 274.281 131.825 275.724 131.585 277.287C131.345 280.294 130.984 283.66 130.864 287.388C130.744 291.116 130.744 295.204 131.105 299.413C131.465 303.742 132.065 308.191 133.386 312.64V312.76C132.666 311.558 130.384 308.191 130.144 307.95C127.262 304.583 119.817 299.894 115.254 301.818C112.012 303.14 111.051 307.108 112.732 310.115C113.813 313.001 117.776 314.564 121.018 315.045Z" fill="#FFCC47"/>
<path d="M205.074 291.957C205.194 291.957 206.635 286.186 206.635 285.825C207.235 281.496 205.914 272.718 201.471 270.554C198.349 268.99 194.747 270.914 193.546 274.041C192.345 277.287 193.906 281.256 195.588 284.021C197.749 287.388 205.074 291.957 205.074 291.957Z" fill="#FFCC47"/>
<path d="M736.308 354.004C738.47 354.966 743.513 354.846 743.513 354.846C743.513 354.846 742.432 351.479 742.312 351.239C741.232 348.834 737.629 344.986 734.747 345.347C732.706 345.587 731.505 347.752 731.985 349.675C732.466 351.72 734.627 353.163 736.308 354.004Z" fill="#FFCC47"/>
<path d="M738.109 368.915C740.27 369.276 744.833 367.953 745.194 367.833C745.914 370.358 746.875 373.003 747.956 375.528C748.556 376.971 749.276 378.414 749.997 379.857C749.637 379.256 749.156 378.655 749.156 378.655C747.475 376.731 743.032 373.845 740.27 375.047C738.349 375.889 737.749 378.174 738.709 379.978C739.67 381.781 742.072 382.743 743.993 382.984C745.914 383.224 749.877 382.262 750.958 381.901C751.198 382.503 751.558 382.984 751.798 383.585C753.119 386.23 754.44 388.876 755.641 391.521C756.121 392.483 756.481 393.325 756.842 394.287C756.481 393.686 756.121 393.325 756.121 393.205C754.44 391.281 749.997 388.395 747.235 389.597C745.314 390.439 744.713 392.724 745.674 394.527C746.635 396.331 749.036 397.293 750.958 397.533C752.879 397.774 756.481 396.812 757.682 396.571C758.042 397.533 758.403 398.495 758.763 399.457C759.003 400.059 759.243 400.78 759.363 401.381C759.603 401.983 759.723 402.704 759.964 403.305C760.324 404.508 760.564 405.83 760.804 407.033C761.044 407.875 761.164 408.716 761.284 409.558C760.804 408.596 759.964 406.792 759.964 406.672C758.523 404.508 754.56 401.021 751.798 401.742C749.757 402.223 748.796 404.508 749.517 406.432C750.237 408.356 752.399 409.678 754.32 410.159C756.361 410.761 760.924 410.159 761.525 410.159C761.765 411.482 762.005 412.805 762.245 414.127C762.725 416.893 763.086 419.418 763.326 421.462H765.247C764.887 419.298 764.527 416.653 763.926 413.767C763.686 412.324 763.326 410.881 762.966 409.438C763.326 409.318 765.247 408.476 766.928 407.514C768.369 409.197 772.212 411.001 772.812 411.242C772.332 412.564 771.731 413.767 771.251 414.969C770.17 417.374 769.21 419.539 768.249 421.462H770.29C771.011 419.779 771.852 417.855 772.812 415.691C773.292 414.368 773.893 412.925 774.493 411.482C775.094 411.602 779.537 412.564 781.698 412.083C783.619 411.602 785.901 410.52 786.741 408.716C787.582 406.913 786.862 404.628 784.82 403.907C782.058 402.945 777.856 406.071 776.294 408.235C776.174 408.356 775.334 409.799 774.854 410.761C775.094 410.159 775.334 409.558 775.574 408.957C776.054 407.754 776.415 406.552 776.895 405.229C777.135 404.628 777.255 403.907 777.495 403.305C777.735 402.704 777.856 401.983 777.976 401.261C778.336 399.698 778.696 398.014 778.936 396.451C780.017 396.812 783.739 398.135 785.781 398.014C787.702 397.894 790.224 397.173 791.304 395.369C792.385 393.686 792.025 391.281 790.104 390.319C787.462 388.996 782.779 391.401 780.978 393.325C780.858 393.445 779.657 394.888 779.056 395.73C779.176 394.768 779.417 393.806 779.537 392.724C779.897 389.838 780.137 386.832 780.497 383.946C780.617 382.984 780.737 382.142 780.737 381.3C781.098 381.421 785.541 383.104 787.822 382.984C789.743 382.863 792.265 382.142 793.346 380.338C794.427 378.655 794.066 376.25 792.145 375.288C789.503 373.965 784.82 376.37 783.019 378.294C782.899 378.414 781.218 380.579 780.737 381.18C780.978 379.256 781.218 377.212 781.458 375.288C781.818 372.643 782.419 369.997 783.139 367.592C783.259 367.712 787.942 369.396 790.224 369.276C792.145 369.155 794.667 368.434 795.747 366.63C796.828 364.947 796.468 362.542 794.547 361.58C791.905 360.257 787.222 362.662 785.421 364.586C785.3 364.706 783.499 366.991 783.139 367.472C783.139 367.352 783.259 367.111 783.259 366.991C784.1 364.346 785.18 361.941 786.381 359.656C787.102 358.333 787.702 357.131 788.423 355.928C789.263 356.289 793.106 358.213 795.147 358.333C797.068 358.453 799.59 357.973 800.911 356.409C802.232 354.846 802.112 352.441 800.311 351.239C797.909 349.676 792.986 351.599 790.944 353.163C790.824 353.283 789.743 354.245 789.023 355.087C789.383 354.606 789.743 354.004 789.984 353.523C791.184 351.72 792.505 350.036 793.586 348.593C794.186 347.752 794.787 347.03 795.387 346.429C796.468 346.429 800.551 346.309 802.352 345.467C804.153 344.625 806.194 343.062 806.555 341.018C806.915 338.974 805.714 336.929 803.673 336.689C800.791 336.328 797.308 340.417 796.228 342.822C796.108 343.062 795.027 346.429 795.147 346.429C795.147 346.429 795.147 346.429 795.267 346.429C794.667 347.03 794.186 347.752 793.466 348.473C792.385 349.916 791.064 351.479 789.743 353.283C788.423 355.087 787.102 357.131 785.901 359.415C784.7 361.7 783.499 364.105 782.659 366.75V366.871C782.659 366.029 782.659 363.624 782.659 363.384C782.298 360.738 780.137 355.928 777.255 355.447C775.214 355.087 773.413 356.65 773.292 358.694C773.172 360.738 774.613 362.782 776.054 364.105C777.735 365.548 782.298 366.991 782.659 367.111C781.818 369.636 781.218 372.282 780.737 375.047C780.497 376.611 780.257 378.174 780.017 379.857C780.017 379.136 780.017 378.414 780.017 378.414C779.657 375.769 777.495 370.959 774.613 370.478C772.572 370.117 770.771 371.681 770.651 373.725C770.531 375.769 771.972 377.813 773.413 379.136C774.854 380.459 778.816 381.781 779.777 382.022C779.657 382.623 779.657 383.224 779.537 383.825C779.176 386.711 778.816 389.717 778.456 392.603C778.336 393.565 778.096 394.648 777.976 395.61C777.976 395.008 777.976 394.407 777.976 394.287C777.615 391.641 775.454 386.832 772.572 386.351C770.531 385.99 768.729 387.553 768.609 389.597C768.489 391.641 769.93 393.686 771.371 395.008C772.812 396.211 776.294 397.533 777.615 397.894C777.375 398.856 777.135 399.938 776.895 400.9C776.655 401.502 776.535 402.223 776.294 402.824C776.054 403.426 775.934 404.147 775.694 404.748C775.214 405.951 774.854 407.153 774.373 408.356C774.013 409.197 773.773 409.919 773.413 410.761C773.533 409.799 773.893 407.754 773.893 407.634C773.893 405.951 773.292 403.065 772.092 401.021C772.092 400.78 772.092 400.54 772.092 400.299C771.731 398.255 769.93 396.812 767.889 397.413C765.007 398.135 763.206 403.185 763.086 405.71C763.086 405.83 763.206 407.514 763.206 408.596C763.086 407.995 762.966 407.394 762.725 406.792C762.485 405.59 762.125 404.267 761.765 402.945C761.525 402.343 761.405 401.622 761.164 401.021C760.924 400.419 760.684 399.698 760.444 399.097C759.844 397.533 759.243 396.091 758.523 394.527C759.603 394.287 763.446 393.325 765.007 392.122C766.568 390.92 768.249 388.996 768.129 386.952C768.129 384.908 766.448 383.224 764.407 383.344C761.525 383.705 759.003 388.275 758.403 390.92C758.403 391.04 758.162 392.964 758.162 394.046C757.802 393.084 757.322 392.243 756.842 391.281C755.521 388.635 754.2 385.99 752.759 383.465C752.279 382.623 751.918 381.901 751.558 381.06C751.918 380.94 756.601 379.857 758.282 378.535C759.844 377.332 761.525 375.408 761.405 373.364C761.405 371.32 759.723 369.636 757.682 369.757C754.8 370.117 752.278 374.687 751.678 377.332C751.678 377.573 751.438 380.218 751.318 380.939C750.357 379.136 749.517 377.452 748.676 375.649C747.595 373.244 746.635 370.719 745.794 368.193C746.034 368.193 750.838 366.991 752.639 365.668C754.2 364.466 755.881 362.542 755.761 360.498C755.761 358.453 754.08 356.77 752.038 356.89C749.156 357.251 746.635 361.82 746.034 364.466C746.034 364.706 745.674 367.592 745.674 368.073C745.674 367.953 745.554 367.833 745.554 367.592C744.713 364.947 744.353 362.301 744.113 359.776C743.993 358.333 743.873 356.89 743.873 355.568C744.834 355.447 749.036 354.846 750.717 353.884C752.399 352.922 754.2 351.118 754.44 349.074C754.68 347.03 753.239 345.106 751.078 345.106C748.196 345.106 745.074 349.435 744.353 351.96C744.353 352.08 743.993 353.523 743.873 354.606C743.873 354.004 743.873 353.403 743.873 352.802C743.873 350.637 743.993 348.593 744.113 346.79C744.233 345.707 744.353 344.866 744.353 344.024C745.194 343.423 748.556 341.018 749.637 339.334C750.597 337.651 751.438 335.246 750.717 333.322C749.997 331.398 747.836 330.436 745.914 331.398C743.272 332.721 742.672 338.012 743.032 340.537C743.032 340.777 744.113 344.144 744.113 344.144C743.993 344.986 743.873 345.828 743.753 346.79C743.633 348.593 743.393 350.637 743.393 352.802C743.393 355.087 743.393 357.492 743.513 360.017C743.753 362.542 744.113 365.308 744.834 367.953V368.073C744.353 367.352 743.032 365.308 742.912 365.187C741.231 363.263 736.788 360.377 734.026 361.58C732.105 362.422 731.505 364.706 732.465 366.51C733.786 367.712 736.188 368.554 738.109 368.915Z" fill="#FFCC47"/>
<path d="M788.423 355.087C788.423 355.087 789.384 351.72 789.384 351.479C789.744 348.834 788.904 343.663 786.262 342.341C784.34 341.379 782.179 342.581 781.579 344.385C780.858 346.309 781.819 348.714 782.78 350.397C783.98 352.321 788.423 355.087 788.423 355.087Z" fill="#FFCC47"/>
<path d="M489.544 359.416C489.544 359.416 509.718 356.41 531.212 356.049C552.707 355.688 559.791 357.131 565.075 358.935C570.358 360.738 575.162 375.529 568.197 389.718C561.232 403.907 536.856 415.571 503.714 412.685C470.572 409.799 446.796 403.185 434.188 393.566C421.459 384.066 432.747 378.655 446.916 370.959C460.965 363.143 480.058 358.935 489.544 359.416Z" fill="#263238" stroke="#263238" stroke-miterlimit="10" stroke-linecap="round" stroke-linejoin="round"/>
<path d="M461.926 392.123C461.926 392.123 511.399 364.827 528.69 359.897C545.982 354.966 565.795 353.884 574.921 359.897C584.047 365.909 582.006 385.389 577.803 392.844C573.6 400.299 539.257 415.811 520.285 421.463C501.192 427.114 426.622 426.753 406.209 428.557C385.675 430.361 336.322 429.279 329.238 425.431C322.153 421.583 326.356 417.254 336.682 414.849C346.889 412.324 380.872 412.324 396.722 407.755C412.573 403.065 450.278 398.135 461.926 392.123Z" fill="white" stroke="#263238" stroke-miterlimit="10" stroke-linecap="round" stroke-linejoin="round"/>
<path d="M577.803 392.844C579.845 389.237 581.406 382.743 581.406 376.37C568.557 386.471 548.624 398.616 521.126 408.476C494.948 417.855 420.979 426.152 390.358 429.399C396.482 429.279 401.886 429.038 406.209 428.677C426.743 426.874 501.192 427.234 520.285 421.583C539.378 415.811 573.601 400.299 577.803 392.844Z" fill="#263238" stroke="#263238" stroke-miterlimit="10" stroke-linecap="round" stroke-linejoin="round"/>
<path d="M542.86 413.045C548.143 410.761 553.307 408.356 558.11 405.951C559.191 400.78 560.392 385.509 549.224 356.049C542.5 356.65 535.415 357.973 528.69 359.897C528.69 359.897 549.704 383.946 542.86 413.045Z" fill="#263238" stroke="#263238" stroke-miterlimit="10" stroke-linecap="round" stroke-linejoin="round"/>
<path d="M413.654 403.786C407.049 405.109 401.045 406.432 396.602 407.634C380.752 412.204 346.769 412.204 336.562 414.729C326.355 417.254 322.033 421.463 329.117 425.311C336.202 429.158 385.675 430.241 406.089 428.437C408.49 428.196 411.732 428.076 415.455 427.836C407.289 419.058 411.012 408.717 413.654 403.786Z" fill="white" stroke="#263238" stroke-miterlimit="10" stroke-linecap="round" stroke-linejoin="round"/>
<path d="M381.472 347.511C381.472 347.511 349.291 351.359 333.08 352.802C316.869 354.245 287.569 367.352 281.565 380.098C275.561 392.844 293.573 407.995 303.78 411.242C313.987 414.368 344.727 421.463 361.659 420.38C378.59 419.298 428.783 404.508 437.549 401.622C446.435 398.736 461.926 392.123 461.926 392.123C461.926 392.123 447.036 392.123 422.059 379.376C396.962 366.63 393.12 353.524 381.472 347.511Z" fill="white" stroke="#263238" stroke-miterlimit="10" stroke-linecap="round" stroke-linejoin="round"/>
<path d="M312.426 357.612C312.426 357.612 337.763 354.967 349.41 363.384C361.058 371.801 368.383 397.774 368.383 397.774L422.059 379.256C422.059 379.256 418.096 374.927 408.009 362.783C397.923 350.638 368.383 343.784 350.971 347.391C333.56 351.359 312.426 357.612 312.426 357.612Z" fill="#263238" stroke="#263238" stroke-miterlimit="10" stroke-linecap="round" stroke-linejoin="round"/>
<path d="M435.028 402.464C436.109 402.103 436.949 401.862 437.55 401.622C446.436 398.736 461.926 392.123 461.926 392.123C461.926 392.123 450.518 392.123 430.825 383.585C433.707 388.275 436.469 395.129 435.028 402.464Z" fill="white" stroke="#263238" stroke-miterlimit="10" stroke-linecap="round" stroke-linejoin="round"/>
<path d="M454.121 395.369C440.552 397.053 417.016 400.78 390.238 408.356C359.738 417.013 322.873 413.887 304.981 411.602C316.389 414.969 345.328 421.463 361.539 420.38C378.47 419.298 428.664 404.508 437.43 401.622C442.353 400.179 448.957 397.534 454.121 395.369Z" fill="#263238" stroke="#263238" stroke-miterlimit="10" stroke-linecap="round" stroke-linejoin="round"/>
<path d="M487.622 244.701L480.417 316.247C480.417 316.247 483.899 333.442 486.181 340.296C488.462 347.15 490.744 358.213 489.663 359.416C488.462 360.618 487.742 359.776 479.697 362.061C471.651 364.346 462.165 378.174 449.917 383.465C437.669 388.876 427.822 386.11 416.294 381.541C404.887 376.972 383.513 349.074 378.829 348.233C374.266 347.511 360.457 345.227 354.813 343.303C349.05 341.379 342.205 333.322 342.205 333.322C342.205 333.322 341.004 333.322 341.004 329.114C341.004 324.905 341.364 324.544 341.364 324.544C341.364 324.544 338.362 321.899 337.522 318.412C336.801 314.925 344.727 296.647 344.727 285.104C344.727 273.68 350.491 230.392 350.491 225.101C350.491 219.69 358.536 218.607 366.942 215.12C375.347 211.633 419.657 195.28 420.377 190.71C421.098 186.141 424.22 154.035 424.22 154.035C424.22 154.035 447.996 179.527 450.998 181.572C454.84 184.217 456.761 186.983 456.761 186.983L454.12 199.609C454.12 199.609 465.527 208.026 473.212 212.595C480.897 217.164 491.104 221.373 491.585 224.499" fill="white"/>
<path d="M487.622 244.701L480.417 316.247C480.417 316.247 483.899 333.442 486.181 340.296C488.462 347.15 490.744 358.213 489.663 359.416C488.462 360.618 487.742 359.776 479.697 362.061C471.651 364.346 462.165 378.174 449.917 383.465C437.669 388.876 427.822 386.11 416.294 381.541C404.887 376.972 383.513 349.074 378.829 348.233C374.266 347.511 360.457 345.227 354.813 343.303C349.05 341.379 342.205 333.322 342.205 333.322C342.205 333.322 341.004 333.322 341.004 329.114C341.004 324.905 341.364 324.544 341.364 324.544C341.364 324.544 338.362 321.899 337.522 318.412C336.801 314.925 344.727 296.647 344.727 285.104C344.727 273.68 350.491 230.392 350.491 225.101C350.491 219.69 358.536 218.607 366.942 215.12C375.347 211.633 419.657 195.28 420.377 190.71C421.098 186.141 424.22 154.035 424.22 154.035C424.22 154.035 447.996 179.527 450.998 181.572C454.84 184.217 456.761 186.983 456.761 186.983L454.12 199.609C454.12 199.609 465.527 208.026 473.212 212.595C480.897 217.164 491.104 221.373 491.585 224.499" stroke="#263238" stroke-miterlimit="10" stroke-linecap="round" stroke-linejoin="round"/>
<path d="M367.662 328.873C369.463 330.196 371.144 331.999 372.705 334.284" stroke="#263238" stroke-miterlimit="10" stroke-linecap="round" stroke-linejoin="round"/>
<path d="M341.005 329.234C341.005 329.234 351.932 321.658 362.98 326.107" stroke="#263238" stroke-miterlimit="10" stroke-linecap="round" stroke-linejoin="round"/>
<path d="M460.844 204.539C456.881 201.773 454 199.609 454 199.609L456.641 186.983C456.641 186.983 454.72 184.337 450.877 181.572C447.875 179.527 424.1 154.035 424.1 154.035C424.1 154.035 421.098 186.141 420.257 190.71C420.017 192.153 415.214 194.919 408.489 198.045C409.69 205.38 413.893 217.766 428.663 222.455C443.673 227.265 455.08 213.677 460.844 204.539Z" fill="white" stroke="#263238" stroke-miterlimit="10" stroke-linecap="round" stroke-linejoin="round"/>
<path d="M454.12 199.729C454 199.609 454.12 199.609 454.12 199.729L456.642 186.983C456.642 186.983 454.721 184.337 450.878 181.572C449.197 180.369 440.791 171.711 433.827 164.376L432.025 172.794C432.266 172.794 432.266 196.843 454.12 199.729Z" fill="#263238"/>
<path d="M430.104 75.2741C430.104 75.2741 429.024 66.1353 421.699 64.3317C414.374 62.528 397.683 63.6102 391.799 74.5526C385.915 85.495 390.358 93.9122 392.519 95.3552C394.681 96.7981 396.482 97.5196 396.482 97.5196L398.283 88.3809C398.283 88.3809 399.004 96.4374 404.167 98.2411C409.331 100.045 419.898 98.2411 419.898 98.2411C419.898 98.2411 429.024 91.7478 430.104 75.2741Z" fill="#263238" stroke="#263238" stroke-miterlimit="10" stroke-linecap="round" stroke-linejoin="round"/>
<path d="M497.589 107.861C497.589 107.861 510.558 116.278 510.558 124.695C510.558 133.112 494.467 136.119 494.467 136.119L497.589 107.861Z" fill="#263238" stroke="#263238" stroke-miterlimit="10" stroke-linecap="round" stroke-linejoin="round"/>
<path d="M500.471 109.544C500.471 109.544 499.03 127.1 497.589 136.96C496.148 146.821 489.904 154.877 489.544 161.37C489.183 167.984 474.654 183.977 467.329 189.508C460.004 195.039 449.077 193.115 443.673 188.786C438.149 184.458 429.143 173.876 424.7 162.453C420.377 151.149 423.62 134.676 424.7 129.625C425.781 124.455 453.159 104.374 473.933 104.374C494.707 104.374 500.471 109.544 500.471 109.544Z" fill="white" stroke="#263238" stroke-miterlimit="10" stroke-linecap="round" stroke-linejoin="round"/>
<path d="M477.536 150.428C477.536 150.428 478.977 163.535 478.977 164.617C478.977 165.699 475.735 168.946 470.211 165.699" stroke="#263238" stroke-miterlimit="10" stroke-linecap="round" stroke-linejoin="round"/>
<path d="M455.681 165.819C455.681 165.819 461.565 173.154 471.051 172.794" stroke="#263238" stroke-miterlimit="10" stroke-linecap="round" stroke-linejoin="round"/>
<path d="M475.375 138.764C475.375 138.764 463.367 131.429 447.996 133.593C447.996 133.593 443.673 133.593 446.195 136.84C446.195 136.84 445.114 147.782 447.636 151.029C450.158 154.276 456.042 156.921 461.806 156.921C467.689 157.041 473.573 150.067 475.375 138.764Z" stroke="#263238" stroke-width="2" stroke-miterlimit="10" stroke-linecap="round" stroke-linejoin="round"/>
<path d="M445.834 134.074L422.179 132.631" stroke="#263238" stroke-width="2" stroke-miterlimit="10" stroke-linecap="round" stroke-linejoin="round"/>
<path d="M475.374 138.764L481.618 140.568C481.618 140.568 479.097 154.035 480.537 157.763C481.498 160.168 483.539 161.851 485.941 162.573C487.982 163.054 490.384 163.655 491.825 163.655C494.707 163.655 500.951 157.763 502.392 147.542C502.392 147.542 504.193 146.821 503.473 145.738C502.752 144.656 493.986 139.486 481.858 140.688" stroke="#263238" stroke-width="2" stroke-miterlimit="10" stroke-linecap="round" stroke-linejoin="round"/>
<path d="M475.014 142.131C475.014 142.131 479.697 142.492 481.018 144.175" stroke="#263238" stroke-width="2" stroke-miterlimit="10" stroke-linecap="round" stroke-linejoin="round"/>
<path d="M459.697 150.251C460.742 150.435 461.934 148.623 462.36 146.203C462.786 143.783 462.284 141.672 461.239 141.488C460.194 141.303 459.002 143.115 458.576 145.535C458.15 147.955 458.652 150.066 459.697 150.251Z" fill="#263238"/>
<path d="M486.292 156.069C487.186 156.318 488.386 154.808 488.972 152.696C489.558 150.585 489.307 148.671 488.413 148.423C487.518 148.174 486.318 149.684 485.733 151.795C485.147 153.907 485.397 155.82 486.292 156.069Z" fill="#263238"/>
<path d="M454.841 137.682C454.841 137.682 463.967 134.676 468.17 139.606" stroke="#263238" stroke-width="2" stroke-miterlimit="10" stroke-linecap="round" stroke-linejoin="round"/>
<path d="M484.98 144.536C484.98 144.536 489.183 140.688 492.666 146.099" stroke="#263238" stroke-width="2" stroke-miterlimit="10" stroke-linecap="round" stroke-linejoin="round"/>
<path d="M437.43 130.347C437.43 130.347 457.123 119.765 473.934 116.518C490.745 113.272 503.474 114.715 506.356 104.855C509.238 94.9944 489.544 78.5207 469.131 72.7489C448.717 66.8568 424.341 73.1096 414.494 87.6594C404.648 102.209 407.89 119.765 410.892 126.379C413.774 132.992 416.055 138.043 421.459 138.764C426.863 139.485 437.43 130.347 437.43 130.347Z" fill="#263238" stroke="#263238" stroke-miterlimit="10" stroke-linecap="round" stroke-linejoin="round"/>
<path d="M423.14 118.803C420.979 120.126 419.177 121.569 417.856 123.252" stroke="white" stroke-miterlimit="10" stroke-linecap="round" stroke-linejoin="round"/>
<path d="M491.706 93.9122C491.706 93.9122 496.99 97.1589 481.619 103.532C470.452 108.222 447.757 109.424 431.906 114.835" stroke="white" stroke-miterlimit="10" stroke-linecap="round" stroke-linejoin="round"/>
<path d="M471.292 90.1846C472.613 88.7416 473.574 87.1784 474.174 85.3748" stroke="white" stroke-miterlimit="10" stroke-linecap="round" stroke-linejoin="round"/>
<path d="M414.134 116.879C414.134 116.879 409.331 109.905 425.782 105.215C437.67 101.728 454.841 100.526 465.408 94.7539" stroke="white" stroke-miterlimit="10" stroke-linecap="round" stroke-linejoin="round"/>
<path d="M427.222 144.295C427.222 144.295 424.34 130.106 418.096 130.106C411.852 130.106 411.011 136.72 413.533 144.656C416.055 152.712 420.137 155.238 423.86 152.712" fill="white"/>
<path d="M427.222 144.295C427.222 144.295 424.34 130.106 418.096 130.106C411.852 130.106 411.011 136.72 413.533 144.656C416.055 152.712 420.137 155.238 423.86 152.712" stroke="#263238" stroke-miterlimit="10" stroke-linecap="round" stroke-linejoin="round"/>
<path d="M378.829 348.353C378.829 348.353 380.39 346.429 380.39 340.296C380.39 334.164 376.188 313.963 374.266 299.774C372.345 285.584 370.424 258.529 370.424 246.985" stroke="#263238" stroke-miterlimit="10" stroke-linecap="round" stroke-linejoin="round"/>
<path d="M417.255 304.102C418.216 305.786 419.296 307.229 420.377 308.551" stroke="#263238" stroke-miterlimit="10" stroke-linecap="round" stroke-linejoin="round"/>
<path d="M396.001 233.638C396.001 233.638 402.846 275.845 414.613 299.172" stroke="#263238" stroke-miterlimit="10" stroke-linecap="round" stroke-linejoin="round"/>
<path d="M420.018 269.592C421.579 272.478 423.14 275.243 424.701 277.648" stroke="#263238" stroke-miterlimit="10" stroke-linecap="round" stroke-linejoin="round"/>
<path d="M400.564 221.854C400.564 221.854 408.25 245.542 417.256 264.421" stroke="#263238" stroke-miterlimit="10" stroke-linecap="round" stroke-linejoin="round"/>
<path d="M318.549 331.879C318.549 331.879 322.752 335.366 331.158 335.366C339.563 335.366 346.768 331.158 357.455 333.803C368.142 336.449 368.142 347.15 366.942 350.277C365.741 353.403 355.534 355.207 345.928 354.125C336.441 352.922 316.868 351.119 316.868 351.119C316.868 351.119 319.99 339.936 318.549 331.879Z" fill="white" stroke="#263238" stroke-miterlimit="10" stroke-linecap="round" stroke-linejoin="round"/>
<path d="M310.744 322.139C310.744 322.139 311.585 326.107 316.508 328.753C321.311 331.398 323.112 338.493 323.112 342.461C323.112 346.429 322.272 348.593 322.272 348.593C322.272 348.593 320.951 353.884 316.508 354.726C312.065 355.568 309.423 358.213 304.14 352.922C298.856 347.631 291.291 330.797 291.291 330.797L292.132 328.151C292.132 328.151 296.575 328.151 300.057 326.348C303.539 324.544 310.744 322.139 310.744 322.139Z" fill="white" stroke="#263238" stroke-miterlimit="10" stroke-linecap="round" stroke-linejoin="round"/>
<path d="M286.008 304.102L316.388 354.966" stroke="#263238" stroke-width="3" stroke-miterlimit="10" stroke-linecap="round" stroke-linejoin="round"/>
<path d="M295.254 354.485C295.254 354.485 298.736 357.973 304.98 357.973C311.225 357.973 317.349 354.004 314.227 352.682C311.104 351.359 308.943 350.036 306.662 350.878C304.5 351.84 295.254 354.485 295.254 354.485Z" fill="white" stroke="#263238" stroke-miterlimit="10" stroke-linecap="round" stroke-linejoin="round"/>
<path d="M290.811 347.872C290.811 347.872 293.452 355.447 295.614 356.289C297.775 357.131 307.141 354.966 309.783 353.163C312.425 351.359 307.982 348.353 304.019 348.353C300.057 348.353 290.811 347.872 290.811 347.872Z" fill="white" stroke="#263238" stroke-miterlimit="10" stroke-linecap="round" stroke-linejoin="round"/>
<path d="M289.01 336.328C289.01 336.328 287.209 345.587 290.811 347.872C294.293 350.036 307.983 350.998 309.423 348.353C310.744 345.707 305.941 344.385 301.018 342.22C296.095 339.936 289.01 336.328 289.01 336.328Z" fill="white" stroke="#263238" stroke-miterlimit="10" stroke-linecap="round" stroke-linejoin="round"/>
<path d="M302.699 323.582C302.699 323.582 303.18 340.777 304.861 342.581C306.662 344.385 310.624 344.745 311.465 343.423C312.306 342.1 313.266 327.069 310.625 322.139C308.103 317.329 302.699 323.582 302.699 323.582Z" fill="white" stroke="#263238" stroke-miterlimit="10" stroke-linecap="round" stroke-linejoin="round"/>
<path d="M292.132 328.392C292.132 328.392 286.368 327.069 286.368 332.841C286.368 338.613 294.293 342.1 297.896 342.581C301.378 343.062 305.461 341.739 302.339 339.094C299.217 336.328 294.774 330.556 292.132 328.392Z" fill="white" stroke="#263238" stroke-miterlimit="10" stroke-linecap="round" stroke-linejoin="round"/>
<path d="M335.481 356.409L360.217 352.922C360.217 352.922 357.095 348.353 348.93 348.353C340.764 348.353 335.841 352.201 334.76 353.644C333.8 354.966 335.481 356.409 335.481 356.409Z" fill="#263238" stroke="#263238" stroke-miterlimit="10" stroke-linecap="round" stroke-linejoin="round"/>
<path d="M385.314 385.749L424.821 371.921C424.821 371.921 415.334 351.72 397.322 344.625C379.31 337.531 352.533 339.334 341.245 343.663L345.328 348.233C345.328 348.233 353.493 348.593 362.259 358.814C371.145 369.035 379.911 385.389 379.911 385.389L385.314 385.749Z" fill="white" stroke="#263238" stroke-miterlimit="10" stroke-linecap="round" stroke-linejoin="round"/>
<path d="M360.577 345.587C360.577 345.587 376.308 343.302 392.759 378.535" stroke="#FFCC47" stroke-miterlimit="10" stroke-linecap="round" stroke-linejoin="round"/>
<path d="M368.383 344.024C368.383 344.024 384.113 341.739 400.564 376.971" stroke="#FFCC47" stroke-miterlimit="10" stroke-linecap="round" stroke-linejoin="round"/>
<path d="M374.866 342.821C374.866 342.821 390.597 340.537 407.048 375.769" stroke="#FFCC47" stroke-miterlimit="10" stroke-linecap="round" stroke-linejoin="round"/>
<path d="M280.004 381.18C280.004 381.18 297.656 354.966 330.558 357.131L335.481 356.409C335.481 356.409 338.603 348.954 347.849 350.758C356.975 352.561 380.751 388.996 380.751 388.996L385.314 385.87C385.314 385.87 372.826 364.706 363.339 352.682C353.853 340.657 341.365 341.018 337.402 345.467C335.001 348.112 331.638 354.245 331.638 354.245C331.638 354.245 327.916 348.714 317.109 351.239C303.78 354.245 296.455 360.257 292.612 364.346C287.089 370.358 275.921 378.414 277.002 377.813L280.004 381.18Z" fill="white" stroke="#263238" stroke-miterlimit="10" stroke-linecap="round" stroke-linejoin="round"/>
<path d="M380.751 388.876L422.779 374.446L424.82 371.921L385.314 385.749L380.751 388.876Z" fill="white" stroke="#263238" stroke-miterlimit="10" stroke-linecap="round" stroke-linejoin="round"/>
<path d="M484.38 218.968C484.38 218.968 499.51 224.259 501.791 232.195C504.073 240.252 515.48 284.141 518.482 290.635C521.484 297.128 528.449 300.976 528.449 305.906C528.449 310.836 528.809 314.684 528.809 314.684C528.809 314.684 536.855 315.045 537.575 321.538C538.296 328.031 539.857 336.448 539.857 336.448L570.357 383.825C570.357 383.825 588.609 385.268 592.812 384.908C597.015 384.547 609.503 385.268 614.066 387.673C615.867 388.635 619.35 391.641 622.112 401.381C623.432 406.191 626.555 415.57 624.633 415.21C622.712 414.849 620.43 409.558 619.59 408.356C618.869 407.153 616.588 400.66 616.588 400.66C616.588 400.66 618.149 411.722 618.509 414.007C618.869 416.292 617.789 418.577 617.789 418.577L617.669 418.697C615.747 419.418 613.706 419.538 611.785 419.057L610.224 418.577C608.783 419.418 606.981 419.538 605.42 419.057L603.739 418.577C603.739 418.577 601.218 410.76 598.936 407.634C596.655 404.628 589.45 401.261 589.45 401.261C589.45 401.261 597.255 410.159 596.895 415.931C596.775 418.216 597.255 420.14 595.334 418.937C593.412 417.735 591.131 412.083 586.928 410.159C582.725 408.235 572.759 405.59 569.036 403.305C565.194 401.021 559.07 392.603 559.07 392.603L508.996 347.511C508.996 347.511 504.073 342.581 503.232 339.815C502.512 337.17 502.512 337.17 502.512 337.17C502.512 337.17 495.667 332.961 493.746 330.677C491.825 328.392 491.104 323.462 491.104 323.462L480.777 311.557L487.622 246.144" fill="white"/>
<path d="M484.38 218.968C484.38 218.968 499.51 224.259 501.791 232.195C504.073 240.252 515.48 284.141 518.482 290.635C521.484 297.128 528.449 300.976 528.449 305.906C528.449 310.836 528.809 314.684 528.809 314.684C528.809 314.684 536.855 315.045 537.575 321.538C538.296 328.031 539.857 336.448 539.857 336.448L570.357 383.825C570.357 383.825 588.609 385.268 592.812 384.908C597.015 384.547 609.503 385.268 614.066 387.673C615.867 388.635 619.35 391.641 622.112 401.381C623.432 406.191 626.555 415.57 624.633 415.21C622.712 414.849 620.43 409.558 619.59 408.356C618.869 407.153 616.588 400.66 616.588 400.66C616.588 400.66 618.149 411.722 618.509 414.007C618.869 416.292 617.789 418.577 617.789 418.577L617.669 418.697C615.747 419.418 613.706 419.538 611.785 419.057L610.224 418.577C608.783 419.418 606.981 419.538 605.42 419.057L603.739 418.577C603.739 418.577 601.218 410.761 598.936 407.634C596.655 404.628 589.45 401.261 589.45 401.261C589.45 401.261 597.255 410.159 596.895 415.931C596.775 418.216 597.255 420.14 595.334 418.937C593.412 417.735 591.131 412.083 586.928 410.159C582.725 408.235 572.759 405.59 569.036 403.305C565.194 401.021 559.07 392.603 559.07 392.603L508.996 347.511C508.996 347.511 504.073 342.581 503.232 339.815C502.512 337.17 502.512 337.17 502.512 337.17C502.512 337.17 495.667 332.961 493.746 330.677C491.825 328.392 491.104 323.462 491.104 323.462L480.777 311.557L487.622 246.144" stroke="#263238" stroke-miterlimit="10" stroke-linecap="round" stroke-linejoin="round"/>
<path d="M483.779 261.415L480.777 311.678L491.104 323.582C491.104 323.582 491.825 328.512 493.746 330.797C495.667 333.082 502.512 337.29 502.512 337.29C502.512 337.29 502.512 337.29 503.232 339.936C503.953 342.581 508.996 347.631 508.996 347.631L516.441 354.365C519.443 348.473 526.768 337.771 539.737 335.967C539.376 334.043 538.176 327.189 537.575 321.538C536.855 315.045 528.809 314.684 528.809 314.684C528.809 314.684 528.449 310.836 528.449 305.906C528.449 300.976 521.605 297.128 518.482 290.635C515.48 284.141 504.073 240.252 501.791 232.195C499.51 224.139 484.38 218.968 484.38 218.968" fill="white"/>
<path d="M483.779 261.415L480.777 311.678L491.104 323.582C491.104 323.582 491.825 328.512 493.746 330.797C495.667 333.082 502.512 337.29 502.512 337.29C502.512 337.29 502.512 337.29 503.232 339.936C503.953 342.581 508.996 347.631 508.996 347.631L516.441 354.365C519.443 348.473 526.768 337.771 539.737 335.967C539.376 334.043 538.176 327.189 537.575 321.538C536.855 315.045 528.809 314.684 528.809 314.684C528.809 314.684 528.449 310.836 528.449 305.906C528.449 300.976 521.605 297.128 518.482 290.635C515.48 284.141 504.073 240.252 501.791 232.195C499.51 224.139 484.38 218.968 484.38 218.968" stroke="#263238" stroke-miterlimit="10" stroke-linecap="round" stroke-linejoin="round"/>
<path d="M483.179 276.566L488.222 319.614L480.777 311.678L483.179 276.566Z" fill="#263238"/>
<path d="M518.603 321.418C519.683 320.696 520.764 319.975 521.965 319.253" stroke="#263238" stroke-miterlimit="10" stroke-linecap="round" stroke-linejoin="round"/>
<path d="M506.354 335.366C506.354 335.366 508.756 329.955 514.76 324.544" stroke="#263238" stroke-miterlimit="10" stroke-linecap="round" stroke-linejoin="round"/>
<path d="M514.64 314.684C516.201 314.443 517.882 314.323 519.683 314.323" stroke="#263238" stroke-miterlimit="10" stroke-linecap="round" stroke-linejoin="round"/>
<path d="M496.027 323.943C496.027 323.943 501.071 319.013 508.756 316.247" stroke="#263238" stroke-miterlimit="10" stroke-linecap="round" stroke-linejoin="round"/>
<path d="M591.491 404.147C591.491 404.147 587.288 398.375 581.524 398.014" stroke="#263238" stroke-miterlimit="10" stroke-linecap="round" stroke-linejoin="round"/>
<path d="M593.412 391.521C593.412 391.521 597.975 392.724 603.739 399.938C609.503 407.153 610.944 417.855 610.944 417.855" stroke="#263238" stroke-miterlimit="10" stroke-linecap="round" stroke-linejoin="round"/>
<path d="M604.34 390.078C604.34 390.078 612.866 396.932 614.427 403.426C615.988 409.919 617.909 418.697 617.909 418.697" stroke="#263238" stroke-miterlimit="10" stroke-linecap="round" stroke-linejoin="round"/>
<path d="M616.708 400.78C616.708 400.78 615.147 393.926 611.305 388.515" stroke="#263238" stroke-miterlimit="10" stroke-linecap="round" stroke-linejoin="round"/>
<path d="M732.345 416.051H627.035L655.974 319.614H761.405L732.345 416.051Z" fill="white" stroke="#263238" stroke-miterlimit="10" stroke-linecap="round" stroke-linejoin="round"/>
<path d="M732.346 416.051L756.962 334.404C725.861 338.252 707.489 363.865 678.79 392.122C660.658 409.799 648.049 414.969 640.725 416.051H732.346Z" fill="#263238" stroke="#263238" stroke-miterlimit="10" stroke-linecap="round" stroke-linejoin="round"/>
<path d="M698.363 371.32C702.939 371.32 706.648 367.713 706.648 363.263C706.648 358.814 702.939 355.207 698.363 355.207C693.787 355.207 690.077 358.814 690.077 363.263C690.077 367.713 693.787 371.32 698.363 371.32Z" fill="white" stroke="#263238" stroke-miterlimit="10" stroke-linecap="round" stroke-linejoin="round"/>
<path d="M733.546 415.57H536.495V421.703H733.546V415.57Z" fill="white" stroke="#263238" stroke-miterlimit="10" stroke-linecap="round" stroke-linejoin="round"/>
<path d="M733.427 415.57H632.68V421.703H733.427V415.57Z" fill="#263238" stroke="#263238" stroke-miterlimit="10" stroke-linecap="round" stroke-linejoin="round"/>
<path d="M279.884 399.217H200.871C193.906 399.217 188.263 404.869 188.263 411.843V413.286C188.263 420.26 193.906 425.912 200.871 425.912H279.884C279.884 425.912 275.681 419.539 275.681 412.324C275.681 405.109 279.884 399.217 279.884 399.217Z" fill="white" stroke="#263238" stroke-miterlimit="10" stroke-linecap="round" stroke-linejoin="round"/>
<path d="M242.419 399.217H163.406C156.442 399.217 150.798 404.869 150.798 411.843V413.286C150.798 420.26 156.442 425.912 163.406 425.912H242.419C242.419 425.912 238.216 419.539 238.216 412.324C238.216 405.109 242.419 399.217 242.419 399.217Z" fill="white" stroke="#263238" stroke-miterlimit="10" stroke-linecap="round" stroke-linejoin="round"/>
<path d="M150.798 411.843V413.286C150.798 418.336 153.8 422.785 158.123 424.83L159.804 424.95V401.261L158.723 400.179C154.04 401.863 150.798 406.432 150.798 411.843Z" fill="white" stroke="#263238" stroke-miterlimit="10" stroke-linecap="round" stroke-linejoin="round"/>
<path d="M279.884 399.217H163.406C156.442 399.217 150.798 404.869 150.798 411.843V413.286C150.798 420.26 156.442 425.912 163.406 425.912H279.884" stroke="#263238" stroke-width="3" stroke-miterlimit="10" stroke-linecap="round" stroke-linejoin="round"/>
<path d="M160.164 405.109H198.83" stroke="#263238" stroke-miterlimit="10" stroke-linecap="round" stroke-linejoin="round"/>
<path d="M204.354 408.596H210.237" stroke="#263238" stroke-miterlimit="10" stroke-linecap="round" stroke-linejoin="round"/>
<path d="M167.729 408.596H199.19" stroke="#263238" stroke-miterlimit="10" stroke-linecap="round" stroke-linejoin="round"/>
<path d="M160.164 416.533H179.857" stroke="#263238" stroke-miterlimit="10" stroke-linecap="round" stroke-linejoin="round"/>
<path d="M219.363 420.861H223.686" stroke="#263238" stroke-miterlimit="10" stroke-linecap="round" stroke-linejoin="round"/>
<path d="M191.745 420.861H215.761" stroke="#263238" stroke-miterlimit="10" stroke-linecap="round" stroke-linejoin="round"/>
<path d="M167.729 420.861H184.661" stroke="#263238" stroke-miterlimit="10" stroke-linecap="round" stroke-linejoin="round"/>
<path d="M201.712 399.217H91.1182C84.1535 399.217 78.5098 404.869 78.5098 411.843V413.286C78.5098 420.26 84.1535 425.912 91.1182 425.912H201.712C201.712 425.912 197.509 419.539 197.509 412.324C197.509 405.109 201.712 399.217 201.712 399.217Z" fill="white" stroke="#263238" stroke-miterlimit="10" stroke-linecap="round" stroke-linejoin="round"/>
<path d="M134.347 403.426V422.545" stroke="#263238" stroke-miterlimit="10" stroke-linecap="round" stroke-linejoin="round"/>
<path d="M134.947 406.312H166.648" stroke="#263238" stroke-miterlimit="10" stroke-linecap="round" stroke-linejoin="round"/>
<path d="M134.947 411.121H178.656" stroke="#263238" stroke-miterlimit="10" stroke-linecap="round" stroke-linejoin="round"/>
<path d="M148.396 416.533H159.804" stroke="#263238" stroke-miterlimit="10" stroke-linecap="round" stroke-linejoin="round"/>
<path d="M174.093 420.14H140.11" stroke="#263238" stroke-miterlimit="10" stroke-linecap="round" stroke-linejoin="round"/>
<path d="M128.943 413.286V411.843C128.943 404.869 134.587 399.217 141.552 399.217H91.1182C84.1535 399.217 78.5098 404.869 78.5098 411.843V413.286C78.5098 420.26 84.1535 425.912 91.1182 425.912H141.672C134.587 425.912 128.943 420.26 128.943 413.286Z" fill="#263238" stroke="#263238" stroke-miterlimit="10" stroke-linecap="round" stroke-linejoin="round"/>
<path d="M195.828 399.217H91.1182C84.1535 399.217 78.5098 404.869 78.5098 411.843V413.286C78.5098 420.26 84.1535 425.912 91.1182 425.912H195.948" stroke="#263238" stroke-width="3" stroke-miterlimit="10" stroke-linecap="round" stroke-linejoin="round"/>
<path d="M203.993 399.217H141.792C134.827 399.217 129.184 404.869 129.184 411.843V413.286C129.184 420.26 134.827 425.912 141.792 425.912H203.993" stroke="#263238" stroke-width="3" stroke-miterlimit="10" stroke-linecap="round" stroke-linejoin="round"/>
<path d="M267.275 372.763H188.263C181.298 372.763 175.654 378.415 175.654 385.389V386.832C175.654 393.806 181.298 399.458 188.263 399.458H267.275C267.275 399.458 263.073 393.085 263.073 385.87C263.073 378.775 267.275 372.763 267.275 372.763Z" fill="white" stroke="#263238" stroke-miterlimit="10" stroke-linecap="round" stroke-linejoin="round"/>
<path d="M229.811 372.763H150.798C143.833 372.763 138.189 378.415 138.189 385.389V386.832C138.189 393.806 143.833 399.458 150.798 399.458H229.811C229.811 399.458 225.608 393.085 225.608 385.87C225.608 378.775 229.811 372.763 229.811 372.763Z" fill="white" stroke="#263238" stroke-miterlimit="10" stroke-linecap="round" stroke-linejoin="round"/>
<path d="M138.189 385.509V386.952C138.189 392.002 141.191 396.451 145.514 398.496L147.195 398.616V374.927L146.115 373.845C141.552 375.529 138.189 380.098 138.189 385.509Z" fill="white" stroke="#263238" stroke-miterlimit="10" stroke-linecap="round" stroke-linejoin="round"/>
<path d="M267.275 372.763H150.798C143.833 372.763 138.189 378.415 138.189 385.389V386.832C138.189 393.806 143.833 399.458 150.798 399.458H267.275" stroke="#263238" stroke-width="3" stroke-miterlimit="10" stroke-linecap="round" stroke-linejoin="round"/>
<path d="M147.676 378.775H186.221" stroke="#263238" stroke-miterlimit="10" stroke-linecap="round" stroke-linejoin="round"/>
<path d="M191.745 382.262H197.749" stroke="#263238" stroke-miterlimit="10" stroke-linecap="round" stroke-linejoin="round"/>
<path d="M155.121 382.262H186.702" stroke="#263238" stroke-miterlimit="10" stroke-linecap="round" stroke-linejoin="round"/>
<path d="M147.676 390.199H167.369" stroke="#263238" stroke-miterlimit="10" stroke-linecap="round" stroke-linejoin="round"/>
<path d="M206.755 394.527H211.078" stroke="#263238" stroke-miterlimit="10" stroke-linecap="round" stroke-linejoin="round"/>
<path d="M179.137 394.528H203.273" stroke="#263238" stroke-miterlimit="10" stroke-linecap="round" stroke-linejoin="round"/>
<path d="M155.121 394.527H172.052" stroke="#263238" stroke-miterlimit="10" stroke-linecap="round" stroke-linejoin="round"/>
<path d="M579.364 301.818H552.346C551.145 301.818 550.305 300.856 550.305 299.774V291.958C550.305 290.755 551.265 289.913 552.346 289.913H588.49C589.691 289.913 590.532 290.875 590.532 291.958V295.084" stroke="#263238" stroke-miterlimit="10" stroke-linecap="round" stroke-linejoin="round"/>
<path d="M579.124 314.564V297.729C579.124 296.286 580.325 295.084 581.766 295.084H617.55C618.991 295.084 620.191 296.286 620.191 297.729V317.81" stroke="#263238" stroke-miterlimit="10" stroke-linecap="round" stroke-linejoin="round"/>
<path d="M620.311 334.525V355.447C620.311 356.89 619.111 358.093 617.67 358.093H581.766C580.325 358.093 579.124 356.89 579.124 355.447V318.652" stroke="#263238" stroke-miterlimit="10" stroke-linecap="round" stroke-linejoin="round"/>
<path d="M581.646 304.944H617.67" stroke="#263238" stroke-miterlimit="10" stroke-linecap="round" stroke-linejoin="round"/>
<path d="M598.817 315.886H617.67" stroke="#263238" stroke-miterlimit="10" stroke-linecap="round" stroke-linejoin="round"/>
<path d="M581.646 315.886H595.935" stroke="#263238" stroke-miterlimit="10" stroke-linecap="round" stroke-linejoin="round"/>
<path d="M581.646 326.709H617.67" stroke="#263238" stroke-miterlimit="10" stroke-linecap="round" stroke-linejoin="round"/>
<path d="M611.306 337.651H617.67" stroke="#263238" stroke-miterlimit="10" stroke-linecap="round" stroke-linejoin="round"/>
<path d="M581.646 337.651H608.063" stroke="#263238" stroke-miterlimit="10" stroke-linecap="round" stroke-linejoin="round"/>
<path d="M581.646 348.593H617.67" stroke="#263238" stroke-miterlimit="10" stroke-linecap="round" stroke-linejoin="round"/>
<path d="M557.51 295.565H577.203" stroke="#263238" stroke-miterlimit="10" stroke-linecap="round" stroke-linejoin="round"/>
<path d="M299.338 88.2607H265.955C264.514 88.2607 263.434 87.0583 263.434 85.7356V75.9956C263.434 74.5527 264.634 73.4705 265.955 73.4705H310.625C312.066 73.4705 313.147 74.6729 313.147 75.9956V79.8435" stroke="#263238" stroke-miterlimit="10" stroke-linecap="round" stroke-linejoin="round"/>
<path d="M298.978 104.133V83.3306C298.978 81.5269 300.418 79.9637 302.34 79.9637H346.529C348.33 79.9637 349.891 81.4067 349.891 83.3306V108.222" stroke="#263238" stroke-miterlimit="10" stroke-linecap="round" stroke-linejoin="round"/>
<path d="M349.891 128.663V154.516C349.891 156.32 348.451 157.883 346.529 157.883H302.34C300.539 157.883 298.978 156.44 298.978 154.516V109.063" stroke="#263238" stroke-miterlimit="10" stroke-linecap="round" stroke-linejoin="round"/>
<path d="M302.1 92.1086H346.649" stroke="#263238" stroke-miterlimit="10" stroke-linecap="round" stroke-linejoin="round"/>
<path d="M323.474 105.576H346.649" stroke="#263238" stroke-miterlimit="10" stroke-linecap="round" stroke-linejoin="round"/>
<path d="M302.1 105.576H319.751" stroke="#263238" stroke-miterlimit="10" stroke-linecap="round" stroke-linejoin="round"/>
<path d="M302.1 119.044H346.649" stroke="#263238" stroke-miterlimit="10" stroke-linecap="round" stroke-linejoin="round"/>
<path d="M338.724 132.511H346.649" stroke="#263238" stroke-miterlimit="10" stroke-linecap="round" stroke-linejoin="round"/>
<path d="M302.1 132.511H334.641" stroke="#263238" stroke-miterlimit="10" stroke-linecap="round" stroke-linejoin="round"/>
<path d="M302.1 145.979H346.649" stroke="#263238" stroke-miterlimit="10" stroke-linecap="round" stroke-linejoin="round"/>
<path d="M272.439 80.5649H296.696" stroke="#263238" stroke-miterlimit="10" stroke-linecap="round" stroke-linejoin="round"/>
<path d="M356.495 129.986C354.694 129.986 352.773 129.265 351.332 127.942L346.529 123.252C345.928 122.651 345.808 121.809 346.288 121.088C346.529 120.607 347.009 120.366 347.489 120.246C347.97 120.126 348.45 120.366 348.93 120.727L349.891 121.569L345.088 111.709C344.847 111.228 344.847 110.627 344.968 110.146C345.208 109.665 345.568 109.184 346.048 108.943C347.009 108.462 348.21 108.943 348.69 109.905L350.491 113.392C350.851 113.031 351.332 112.671 351.812 112.671C352.533 112.55 353.253 112.911 353.733 113.272C354.094 112.791 354.574 112.55 355.054 112.43C355.655 112.31 356.255 112.55 356.615 112.791C356.855 112.19 357.336 111.949 358.056 111.949C358.657 111.949 359.257 112.43 359.617 112.911L362.98 119.164C364.661 122.411 363.7 126.379 360.698 128.423C359.497 129.505 357.936 129.986 356.495 129.986ZM347.849 120.968H347.729C347.489 120.968 347.249 121.208 347.009 121.449C346.769 121.809 346.769 122.29 347.129 122.651L351.812 127.341C354.094 129.625 357.696 129.866 360.218 127.942C362.859 126.018 363.7 122.531 362.259 119.645L358.897 113.392C358.657 113.031 358.296 112.791 357.936 112.791C357.576 112.791 357.336 112.791 357.216 113.512V114.234L356.735 113.753C356.735 113.753 356.015 113.152 355.294 113.272C354.934 113.272 354.574 113.633 354.214 114.114L353.974 114.474L353.613 114.114C353.613 114.114 352.773 113.392 352.052 113.512C351.572 113.633 351.212 113.873 350.972 114.474L350.611 115.076L348.21 110.386C347.97 109.785 347.249 109.544 346.529 109.785C346.168 109.905 345.928 110.146 345.808 110.506C345.688 110.867 345.688 111.228 345.808 111.468L352.292 124.936L348.45 121.328C348.33 121.088 348.09 120.968 347.849 120.968Z" fill="#263238"/>
<path d="M352.293 118.803C352.172 118.803 352.052 118.683 351.932 118.563L350.131 114.354C350.011 114.114 350.131 113.993 350.371 113.873C350.611 113.753 350.732 113.873 350.852 114.114L352.653 118.322C352.773 118.563 352.653 118.683 352.413 118.803C352.413 118.803 352.413 118.803 352.293 118.803Z" fill="#263238"/>
<path d="M355.415 117.841C355.295 117.841 355.175 117.721 355.054 117.601L353.493 113.993C353.373 113.753 353.493 113.633 353.734 113.512C353.974 113.392 354.094 113.512 354.214 113.753L355.775 117.36C355.895 117.601 355.775 117.721 355.535 117.841H355.415Z" fill="#263238"/>
<path d="M358.417 117.12C358.297 117.12 358.177 117 358.056 116.879L356.615 113.633C356.495 113.392 356.615 113.272 356.856 113.152C357.096 113.031 357.216 113.152 357.336 113.392L358.777 116.639C358.897 116.879 358.777 117 358.537 117.12C358.537 117.12 358.537 117.12 358.417 117.12Z" fill="#263238"/>
<path d="M327.26 64.8364L323.1 69.0027L327.26 73.169L331.421 69.0027L327.26 64.8364Z" stroke="#263238" stroke-miterlimit="10" stroke-linecap="round" stroke-linejoin="round"/>
<path d="M288.53 105.937C290.255 105.937 291.652 104.537 291.652 102.81C291.652 101.084 290.255 99.6841 288.53 99.6841C286.806 99.6841 285.408 101.084 285.408 102.81C285.408 104.537 286.806 105.937 288.53 105.937Z" stroke="#263238" stroke-miterlimit="10" stroke-linecap="round" stroke-linejoin="round"/>
<path d="M709.205 2.42986L697.317 14.3335L709.205 26.2371L721.092 14.3335L709.205 2.42986Z" stroke="#263238" stroke-miterlimit="10" stroke-linecap="round" stroke-linejoin="round"/>
<path d="M299.323 329.316L287.436 341.219L299.323 353.123L311.21 341.219L299.323 329.316Z" stroke="#263238" stroke-miterlimit="10" stroke-linecap="round" stroke-linejoin="round"/>
<path d="M247.457 306.176L235.569 318.08L247.457 329.983L259.344 318.08L247.457 306.176Z" stroke="#263238" stroke-miterlimit="10" stroke-linecap="round" stroke-linejoin="round"/>
<path d="M687.067 24.2429L680.614 30.7048L687.067 37.1668L693.52 30.7049L687.067 24.2429Z" stroke="#263238" stroke-miterlimit="10" stroke-linecap="round" stroke-linejoin="round"/>
<path d="M689.237 298.331C691.89 298.331 694.04 296.177 694.04 293.521C694.04 290.864 691.89 288.711 689.237 288.711C686.584 288.711 684.434 290.864 684.434 293.521C684.434 296.177 686.584 298.331 689.237 298.331Z" stroke="#263238" stroke-miterlimit="10" stroke-linecap="round" stroke-linejoin="round"/>
<path d="M290.811 256.605C293.464 256.605 295.614 254.452 295.614 251.795C295.614 249.139 293.464 246.985 290.811 246.985C288.158 246.985 286.008 249.139 286.008 251.795C286.008 254.452 288.158 256.605 290.811 256.605Z" stroke="#263238" stroke-miterlimit="10" stroke-linecap="round" stroke-linejoin="round"/>
<path d="M502.632 28.7388C505.285 28.7388 507.436 26.5854 507.436 23.929C507.436 21.2726 505.285 19.1191 502.632 19.1191C499.98 19.1191 497.829 21.2726 497.829 23.929C497.829 26.5854 499.98 28.7388 502.632 28.7388Z" stroke="#263238" stroke-miterlimit="10" stroke-linecap="round" stroke-linejoin="round"/>
<path d="M760.084 67.4581H527.129V277.889H760.084V67.4581Z" fill="#FFCC47"/>
<path d="M775.094 56.636H540.338V268.029H775.094V56.636Z" fill="white" stroke="#263238" stroke-miterlimit="10" stroke-linecap="round" stroke-linejoin="round"/>
<path d="M775.094 56.636H602.179V85.2546H775.094V56.636Z" fill="#263238" stroke="#263238" stroke-miterlimit="10" stroke-linecap="round" stroke-linejoin="round"/>
<path d="M775.094 56.636H540.338V71.5465H775.094V56.636Z" fill="white" stroke="#263238" stroke-miterlimit="10" stroke-linecap="round" stroke-linejoin="round"/>
<path d="M693.8 105.937H550.665V197.685H693.8V105.937Z" fill="#263238" stroke="#263238" stroke-miterlimit="10" stroke-linecap="round" stroke-linejoin="round"/>
<path d="M693.8 187.464H550.665V197.685H693.8V187.464Z" fill="white" stroke="#263238" stroke-miterlimit="10" stroke-linecap="round" stroke-linejoin="round"/>
<path d="M693.8 191.071H550.665V194.077H693.8V191.071Z" fill="white" stroke="#263238" stroke-miterlimit="10" stroke-linecap="round" stroke-linejoin="round"/>
<path d="M619.711 172.553C631.383 172.553 640.845 163.078 640.845 151.39C640.845 139.702 631.383 130.227 619.711 130.227C608.039 130.227 598.577 139.702 598.577 151.39C598.577 163.078 608.039 172.553 619.711 172.553Z" fill="#25C883"/>
<path d="M631.959 151.871L613.587 141.289V162.453L631.959 151.871Z" fill="white"/>
<path d="M763.206 105.937H706.648V142.131H763.206V105.937Z" fill="#263238" stroke="#263238" stroke-miterlimit="10" stroke-linecap="round" stroke-linejoin="round"/>
<path d="M763.206 138.163H706.648V142.251H763.206V138.163Z" fill="white" stroke="#263238" stroke-miterlimit="10" stroke-linecap="round" stroke-linejoin="round"/>
<path d="M763.206 139.606H706.648V140.808H763.206V139.606Z" fill="white" stroke="#263238" stroke-miterlimit="10" stroke-linecap="round" stroke-linejoin="round"/>
<path d="M733.907 132.15C738.483 132.15 742.192 128.436 742.192 123.854C742.192 119.271 738.483 115.557 733.907 115.557C729.331 115.557 725.621 119.271 725.621 123.854C725.621 128.436 729.331 132.15 733.907 132.15Z" fill="#25C883"/>
<path d="M738.71 124.094L731.505 119.885V128.303L738.71 124.094Z" fill="white"/>
<path d="M763.206 145.738H706.648V181.932H763.206V145.738Z" fill="#263238" stroke="#263238" stroke-miterlimit="10" stroke-linecap="round" stroke-linejoin="round"/>
<path d="M763.206 177.964H706.648V182.053H763.206V177.964Z" fill="white" stroke="#263238" stroke-miterlimit="10" stroke-linecap="round" stroke-linejoin="round"/>
<path d="M763.206 179.407H706.648V180.61H763.206V179.407Z" fill="white" stroke="#263238" stroke-miterlimit="10" stroke-linecap="round" stroke-linejoin="round"/>
<path d="M733.907 172.072C738.483 172.072 742.192 168.358 742.192 163.775C742.192 159.193 738.483 155.478 733.907 155.478C729.331 155.478 725.621 159.193 725.621 163.775C725.621 168.358 729.331 172.072 733.907 172.072Z" fill="#25C883"/>
<path d="M738.71 163.896L731.505 159.687V168.104L738.71 163.896Z" fill="white"/>
<path d="M763.206 185.54H706.648V221.734H763.206V185.54Z" fill="#263238" stroke="#263238" stroke-miterlimit="10" stroke-linecap="round" stroke-linejoin="round"/>
<path d="M763.206 217.766H706.648V221.854H763.206V217.766Z" fill="white" stroke="#263238" stroke-miterlimit="10" stroke-linecap="round" stroke-linejoin="round"/>
<path d="M763.206 219.209H706.648V220.411H763.206V219.209Z" fill="white" stroke="#263238" stroke-miterlimit="10" stroke-linecap="round" stroke-linejoin="round"/>
<path d="M733.907 211.874C738.483 211.874 742.192 208.159 742.192 203.577C742.192 198.994 738.483 195.28 733.907 195.28C729.331 195.28 725.621 198.994 725.621 203.577C725.621 208.159 729.331 211.874 733.907 211.874Z" fill="#25C883"/>
<path d="M738.71 203.697L731.505 199.488V207.906L738.71 203.697Z" fill="white"/>
<path d="M763.206 225.461H706.648V261.656H763.206V225.461Z" fill="#263238" stroke="#263238" stroke-miterlimit="10" stroke-linecap="round" stroke-linejoin="round"/>
<path d="M763.206 257.567H706.648V261.656H763.206V257.567Z" fill="white" stroke="#263238" stroke-miterlimit="10" stroke-linecap="round" stroke-linejoin="round"/>
<path d="M763.206 259.01H706.648V260.213H763.206V259.01Z" fill="white" stroke="#263238" stroke-miterlimit="10" stroke-linecap="round" stroke-linejoin="round"/>
<path d="M733.907 251.675C738.483 251.675 742.192 247.96 742.192 243.378C742.192 238.796 738.483 235.081 733.907 235.081C729.331 235.081 725.621 238.796 725.621 243.378C725.621 247.96 729.331 251.675 733.907 251.675Z" fill="#25C883"/>
<path d="M738.71 243.498L731.505 239.29V247.707L738.71 243.498Z" fill="white"/>
<path d="M551.745 207.425H661.378" stroke="#263238" stroke-miterlimit="10" stroke-linecap="round" stroke-linejoin="round"/>
<path d="M551.745 233.398H616.829" stroke="#263238" stroke-miterlimit="10" stroke-linecap="round" stroke-linejoin="round"/>
<path d="M551.745 243.619H616.829" stroke="#263238" stroke-miterlimit="10" stroke-linecap="round" stroke-linejoin="round"/>
<path d="M551.745 253.839H616.829" stroke="#263238" stroke-miterlimit="10" stroke-linecap="round" stroke-linejoin="round"/>
<path d="M629.317 233.398H694.521" stroke="#263238" stroke-miterlimit="10" stroke-linecap="round" stroke-linejoin="round"/>
<path d="M629.317 243.619H694.521" stroke="#263238" stroke-miterlimit="10" stroke-linecap="round" stroke-linejoin="round"/>
<path d="M629.317 253.839H694.521" stroke="#263238" stroke-miterlimit="10" stroke-linecap="round" stroke-linejoin="round"/>
<path d="M551.745 215.842H690.318" stroke="#263238" stroke-miterlimit="10" stroke-linecap="round" stroke-linejoin="round"/>
<path d="M772.212 106.057H766.568V262.978H772.212V106.057Z" fill="#A2A7A9"/>
<path d="M772.212 144.055H766.568V164.136H772.212V144.055Z" fill="#263238"/>
<path d="M714.454 268.269V319.975" stroke="#263238" stroke-miterlimit="10" stroke-linecap="round" stroke-linejoin="round"/>
<path d="M632.679 415.57L633.039 415.931H633.88C633.159 415.811 632.679 415.57 632.679 415.57Z" fill="#263238" stroke="#263238" stroke-miterlimit="10" stroke-linecap="round" stroke-linejoin="round"/>
</g>
<defs>
<clipPath id="clip0_39_16">
<rect width="814" height="430" fill="white"/>
</clipPath>
</defs>
</svg>
