<svg width="212" height="58" viewBox="0 0 212 58" fill="none" xmlns="http://www.w3.org/2000/svg">
<path d="M81.7173 27.579V24.5754H73.393V21.3738H80.6272V18.3702H73.393V15.2676H81.6182V12.2641H70.0566V27.579H81.7173ZM99.6543 19.9215V19.8885C99.6543 18.7993 99.4561 17.8091 99.0597 16.885C98.6633 15.9608 98.1018 15.1686 97.375 14.4755C96.6483 13.7823 95.7894 13.2542 94.7984 12.8582C93.8075 12.4621 92.6843 12.2641 91.4951 12.2641H85.5161V27.579H91.4951C92.6843 27.579 93.7744 27.381 94.7984 26.9849C95.7894 26.5888 96.6483 26.0607 97.375 25.3676C98.1018 24.6745 98.6633 23.8823 99.0597 22.9251C99.4561 22.0009 99.6543 21.0107 99.6543 19.9215ZM96.1198 19.9876C96.1198 20.6807 96.0207 21.3078 95.7894 21.8359C95.5582 22.397 95.2609 22.8591 94.8315 23.2882C94.4351 23.6843 93.9396 24.0143 93.378 24.2124C92.8165 24.4434 92.1888 24.5424 91.4951 24.5424H88.8855V15.3006H91.4951C92.1888 15.3006 92.8165 15.3997 93.378 15.6307C93.9396 15.8617 94.4351 16.1588 94.8315 16.5879C95.2279 16.984 95.5582 17.4791 95.7894 18.0402C96.0207 18.6013 96.1198 19.2284 96.1198 19.8885V19.9876ZM116.567 20.9117V12.2641H113.198V21.0438C113.198 22.265 112.901 23.1892 112.306 23.8163C111.711 24.4434 110.919 24.7405 109.862 24.7405C108.838 24.7405 108.012 24.4104 107.417 23.7833C106.823 23.1562 106.525 22.199 106.525 20.9447V12.2971H103.156V21.0438C103.156 23.2882 103.75 25.0045 104.94 26.1267C106.129 27.249 107.747 27.8431 109.795 27.8431C110.82 27.8431 111.744 27.711 112.57 27.414C113.396 27.1169 114.123 26.6879 114.684 26.1267C115.279 25.5656 115.708 24.8395 116.039 23.9813C116.402 23.0902 116.567 22.067 116.567 20.9117ZM134.273 25.1035L132.126 22.9251C131.531 23.4862 130.937 23.9153 130.309 24.2454C129.714 24.5754 128.955 24.7405 128.096 24.7405C127.435 24.7405 126.841 24.6085 126.279 24.3444C125.717 24.0803 125.255 23.7503 124.892 23.3212C124.495 22.8921 124.198 22.364 124 21.8029C123.768 21.2088 123.669 20.6147 123.669 19.9545V19.9215C123.669 19.2614 123.768 18.6343 124 18.0732C124.231 17.5121 124.528 16.984 124.925 16.5549C125.321 16.1258 125.784 15.7627 126.345 15.5317C126.907 15.2676 127.501 15.1686 128.129 15.1686C128.889 15.1686 129.615 15.3336 130.21 15.6307C130.838 15.9278 131.432 16.3569 132.027 16.885L134.174 14.4095C133.811 14.0464 133.447 13.7493 133.051 13.4523C132.654 13.1552 132.192 12.9242 131.729 12.6931C131.234 12.4951 130.705 12.3301 130.111 12.198C129.516 12.066 128.856 12.033 128.162 12.033C126.973 12.033 125.916 12.231 124.925 12.6601C123.934 13.0892 123.108 13.6503 122.414 14.3765C121.72 15.1026 121.159 15.9278 120.762 16.885C120.366 17.8421 120.168 18.8653 120.168 19.9545V19.9876C120.168 21.0768 120.366 22.1 120.762 23.0571C121.159 24.0143 121.687 24.8395 122.414 25.5656C123.108 26.2588 123.934 26.8199 124.925 27.249C125.883 27.645 126.94 27.8761 128.063 27.8761C128.823 27.8761 129.483 27.8101 130.078 27.678C130.672 27.546 131.234 27.381 131.729 27.1169C132.225 26.8859 132.687 26.5888 133.117 26.2588C133.447 25.9287 133.877 25.5326 134.273 25.1035ZM152.672 27.579L146.099 12.165H142.994L136.453 27.579H139.889L141.276 24.1464H147.751L149.138 27.579H152.672ZM146.561 21.1758H142.498L144.546 16.2248L146.561 21.1758ZM167.438 15.3667V12.2641H154.754V15.3667H159.411V27.579H162.781V15.3667H167.438ZM174.342 27.579V12.2641H170.973V27.579H174.342ZM194.592 19.9215V19.8885C194.592 18.7993 194.393 17.7761 193.997 16.8189C193.601 15.8618 193.039 15.0366 192.312 14.3104C191.585 13.6173 190.727 13.0562 189.736 12.6271C188.745 12.198 187.655 12 186.465 12C185.276 12 184.186 12.198 183.195 12.6271C182.204 13.0562 181.345 13.6173 180.618 14.3435C179.892 15.0696 179.33 15.8948 178.934 16.8519C178.537 17.8091 178.306 18.8323 178.306 19.9215V19.9545C178.306 21.0438 178.504 22.067 178.901 23.0241C179.297 23.9813 179.859 24.8065 180.585 25.5326C181.312 26.2258 182.171 26.7869 183.162 27.216C184.153 27.645 185.243 27.8431 186.432 27.8431C187.622 27.8431 188.712 27.645 189.703 27.216C190.694 26.7869 191.552 26.2258 192.279 25.4996C193.006 24.7735 193.567 23.9483 193.964 22.9911C194.393 22.034 194.592 21.0107 194.592 19.9215ZM191.09 19.9876C191.09 20.6477 190.991 21.2748 190.76 21.8359C190.528 22.397 190.231 22.9251 189.835 23.3542C189.438 23.7833 188.943 24.1464 188.381 24.3774C187.82 24.6414 187.192 24.7405 186.531 24.7405C185.838 24.7405 185.21 24.6085 184.649 24.3444C184.087 24.0803 183.591 23.7503 183.195 23.3212C182.766 22.8921 182.468 22.364 182.237 21.8029C182.006 21.2088 181.907 20.6147 181.907 19.9545V19.9215C181.907 19.2614 182.006 18.6343 182.237 18.0732C182.468 17.5121 182.766 16.984 183.195 16.5549C183.591 16.1258 184.087 15.7627 184.649 15.5317C185.21 15.2676 185.838 15.1686 186.531 15.1686C187.192 15.1686 187.82 15.3006 188.381 15.5647C188.943 15.8287 189.438 16.1588 189.868 16.5879C190.297 17.017 190.594 17.5451 190.826 18.1062C191.057 18.7003 191.156 19.2944 191.156 19.9545V19.9876H191.09ZM212 27.579V12.2641H208.664V21.7039L201.495 12.2641H198.39V27.579H201.727V17.8421L209.159 27.579H212Z" fill="#05162C"/>
<path d="M71.2789 39.1642C71.2789 38.9661 71.3119 38.8011 71.411 38.6361C71.4771 38.471 71.6092 38.339 71.7744 38.207C71.9395 38.108 72.1047 38.0089 72.3029 37.9429C72.5011 37.8769 72.7654 37.8439 73.0296 37.8439C73.4591 37.8439 73.8554 37.9099 74.2188 38.0419C74.6152 38.174 74.9786 38.405 75.3419 38.7021L75.8705 38.0089C75.441 37.6789 75.0116 37.4478 74.5822 37.2828C74.1527 37.1178 73.6242 37.0518 73.0296 37.0518C72.6332 37.0518 72.3029 37.1178 71.9726 37.2168C71.6422 37.3158 71.378 37.4808 71.1137 37.6789C70.8825 37.8769 70.6843 38.108 70.5521 38.372C70.42 38.6361 70.3539 38.9331 70.3539 39.2632C70.3539 39.5932 70.42 39.8903 70.5191 40.1544C70.6182 40.4184 70.7834 40.6164 71.0146 40.8145C71.2458 41.0125 71.5101 41.1445 71.8735 41.2766C72.2038 41.4086 72.6332 41.5406 73.0957 41.6396C73.5251 41.7387 73.8554 41.8377 74.1527 41.9367C74.417 42.0357 74.6482 42.1347 74.7804 42.2668C74.9455 42.3988 75.0446 42.5308 75.1107 42.6628C75.1768 42.8279 75.2098 42.9929 75.2098 43.1909C75.2098 43.62 75.0446 43.9501 74.7143 44.2141C74.384 44.4782 73.9545 44.6102 73.393 44.6102C72.8314 44.6102 72.3359 44.5112 71.9065 44.3132C71.4771 44.1151 71.0476 43.8511 70.6182 43.455L70.0566 44.1151C70.5521 44.5442 71.0476 44.8743 71.5762 45.0723C72.1047 45.2703 72.6993 45.4024 73.36 45.4024C73.7563 45.4024 74.1197 45.3364 74.4831 45.2373C74.8134 45.1383 75.1107 44.9733 75.3419 44.7753C75.5732 44.5772 75.7714 44.3462 75.9035 44.0491C76.0356 43.7521 76.1017 43.455 76.1017 43.0919C76.1017 42.4648 75.9035 41.9697 75.4741 41.6066C75.0446 41.2436 74.384 40.9795 73.4921 40.7815C73.0296 40.6825 72.6663 40.5834 72.402 40.4844C72.1047 40.3854 71.9065 40.2534 71.7413 40.1544C71.5762 40.0223 71.4771 39.8903 71.411 39.7253C71.3119 39.5272 71.2789 39.3622 71.2789 39.1642ZM82.0146 45.2373H87.4981V44.4122H82.9396V37.1508H82.0146V45.2373ZM100.612 41.1776C100.612 40.6164 100.513 40.0883 100.315 39.5932C100.117 39.0981 99.8525 38.6361 99.4892 38.273C99.1258 37.8769 98.6964 37.5799 98.2009 37.3818C97.7054 37.1508 97.1438 37.0518 96.5162 37.0518C95.8885 37.0518 95.327 37.1508 94.8315 37.3818C94.336 37.6129 93.8735 37.9099 93.5102 38.306C93.1468 38.7021 92.8825 39.1312 92.6513 39.6263C92.4531 40.1213 92.354 40.6494 92.354 41.2106C92.354 41.7717 92.4531 42.2998 92.6513 42.7949C92.8495 43.29 93.1138 43.7521 93.4771 44.1151C93.8405 44.5112 94.2699 44.8083 94.7654 45.0063C95.2609 45.2373 95.8225 45.3364 96.4501 45.3364C97.0777 45.3364 97.6393 45.2373 98.1348 45.0063C98.6303 44.7752 99.0928 44.4782 99.4561 44.0821C99.8195 43.686 100.084 43.257 100.315 42.7619C100.513 42.2998 100.612 41.7387 100.612 41.1776ZM99.6873 41.2106C99.6873 41.6726 99.6213 42.1017 99.4561 42.4978C99.2909 42.8939 99.0928 43.257 98.7955 43.554C98.5312 43.8511 98.2009 44.0821 97.8045 44.2802C97.4081 44.4452 96.9786 44.5442 96.5162 44.5442C96.0537 44.5442 95.6243 44.4452 95.2279 44.2802C94.8315 44.1151 94.5012 43.8511 94.2039 43.554C93.9066 43.257 93.7084 42.8939 93.5432 42.4978C93.378 42.1017 93.312 41.6396 93.312 41.1776C93.312 40.7155 93.378 40.2864 93.5432 39.8903C93.7084 39.4942 93.9066 39.1312 94.2039 38.8341C94.4681 38.537 94.7984 38.306 95.1948 38.108C95.5912 37.9429 96.0207 37.8439 96.4831 37.8439C96.9456 37.8439 97.375 37.9429 97.7714 38.108C98.1678 38.273 98.4982 38.537 98.7955 38.8341C99.0928 39.1312 99.2909 39.4942 99.4561 39.8903C99.5882 40.3194 99.6873 40.7485 99.6873 41.2106ZM113.594 44.1481V40.9465H110.258V41.7717H112.735V43.7851C112.471 44.0161 112.108 44.2141 111.711 44.3462C111.315 44.5112 110.853 44.5772 110.39 44.5772C109.895 44.5772 109.465 44.4782 109.069 44.3132C108.672 44.1481 108.342 43.9171 108.078 43.62C107.813 43.323 107.582 42.9599 107.45 42.5638C107.285 42.1677 107.219 41.7057 107.219 41.2106C107.219 40.7485 107.285 40.3194 107.45 39.9233C107.615 39.5272 107.813 39.1642 108.078 38.8671C108.342 38.5701 108.672 38.339 109.036 38.141C109.399 37.9759 109.829 37.8769 110.258 37.8769C110.555 37.8769 110.82 37.9099 111.051 37.9429C111.282 37.9759 111.513 38.0419 111.711 38.141C111.91 38.207 112.075 38.306 112.273 38.438C112.438 38.537 112.603 38.6691 112.768 38.8011L113.363 38.108C113.165 37.9429 112.967 37.7779 112.735 37.6459C112.537 37.5138 112.306 37.3818 112.042 37.3158C111.811 37.2168 111.546 37.1508 111.249 37.1178C110.952 37.0848 110.654 37.0518 110.324 37.0518C109.729 37.0518 109.168 37.1508 108.672 37.3818C108.177 37.6129 107.747 37.9099 107.384 38.306C107.021 38.7021 106.756 39.1312 106.558 39.6593C106.36 40.1544 106.261 40.7155 106.261 41.2436C106.261 41.8377 106.36 42.3658 106.558 42.8609C106.756 43.356 107.021 43.8181 107.384 44.1811C107.747 44.5442 108.177 44.8413 108.672 45.0723C109.168 45.3034 109.762 45.4024 110.39 45.4024C111.084 45.4024 111.678 45.2703 112.24 45.0393C112.735 44.7752 113.198 44.4782 113.594 44.1481ZM123.504 37.0848H122.645L118.946 45.2373H119.871L120.829 43.0919H125.222L126.18 45.2373H127.171L123.504 37.0848ZM124.925 42.2998H121.225L123.075 38.174L124.925 42.2998ZM138.799 43.653L133.678 37.1508H132.82V45.2373H133.711V38.6031L138.931 45.2373H139.657V37.1508H138.766V43.653H138.799Z" fill="#05162C"/>
<g clip-path="url(#clip0_39_255)">
<path fill-rule="evenodd" clip-rule="evenodd" d="M11.6055 21.4729H43.4898V12.1929L27.5476 16.936L11.6055 12.1671V21.4729Z" fill="#25C883"/>
<path fill-rule="evenodd" clip-rule="evenodd" d="M54.9922 6.70222L27.5478 14.9769L-0.0263672 6.70222L27.5478 0L54.9922 6.70222Z" fill="#25C883"/>
<path fill-rule="evenodd" clip-rule="evenodd" d="M4.02441 25.2106H8.62011L6.8026 20.648L6.90646 8.11996L5.89385 7.86218V20.648L4.02441 25.2106Z" fill="#25C883"/>
<path fill-rule="evenodd" clip-rule="evenodd" d="M6.33458 18.4827C7.00966 18.4827 7.55491 19.024 7.55491 19.6942C7.55491 20.3644 7.00966 20.9058 6.33458 20.9058C5.65951 20.9058 5.11426 20.3644 5.11426 19.6942C5.11426 19.024 5.65951 18.4827 6.33458 18.4827Z" fill="#25C883"/>
<path fill-rule="evenodd" clip-rule="evenodd" d="M18.2003 29.7991C19.2129 28.8195 20.2255 28.8195 21.1343 29.8248C21.7314 28.4586 20.7708 27.5822 19.7841 27.4791C18.6936 27.3759 17.5252 28.5102 18.2003 29.7991Z" fill="#25C883"/>
<path fill-rule="evenodd" clip-rule="evenodd" d="M34.1944 29.8507C35.207 28.8711 36.2196 28.8711 37.1284 29.8765C37.7256 28.5103 36.7649 27.6338 35.7783 27.5307C34.6878 27.4276 33.5194 28.5618 34.1944 29.8507Z" fill="#25C883"/>
<path fill-rule="evenodd" clip-rule="evenodd" d="M27.8595 42.7653C23.0821 42.7653 19.1614 39.1307 18.746 34.4907H20.3039C23.5494 34.4907 26.2238 31.8613 26.2238 28.6133V26.2933H28.8462V28.6649C28.8462 31.8871 31.4945 34.5422 34.766 34.5422H36.999C36.5576 39.1307 32.637 42.7653 27.8595 42.7653ZM17.2401 34.5165C17.4737 37.6871 19.1355 40.4711 21.5761 42.2498L28.0413 57.9742L34.1948 42.224C36.6355 40.4453 38.2712 37.6613 38.5049 34.4907C38.4789 34.4907 38.453 34.4907 38.427 34.4907C40.3484 34.2845 41.8803 32.6605 41.8803 30.7013V25.7262C41.8803 24.3085 40.7119 23.1227 39.2579 23.1227H31.4426C30.4819 23.1227 29.6511 23.6382 29.1837 24.4116H25.8343C25.3929 23.6382 24.5361 23.1227 23.5754 23.1227H15.7601C14.3321 23.1227 13.1377 24.2827 13.1377 25.7262V30.6756C13.1377 32.7893 14.8773 34.4907 16.9804 34.4907H17.2401V34.5165ZM38.427 34.4907C38.3751 34.4907 38.3491 34.4907 38.3232 34.4907C38.2972 34.4907 38.2712 34.4907 38.2193 34.4907C38.1933 34.4907 38.1414 34.4907 38.1154 34.4907C38.0895 34.4907 38.0376 34.4907 38.0116 34.4907C38.0376 34.4907 38.0895 34.4907 38.1154 34.4907H38.427ZM31.4426 25.056H39.2579C39.6474 25.056 39.933 25.3653 39.933 25.7262V30.6756C39.933 31.7325 39.0761 32.5831 38.0116 32.5831H34.7401C32.5591 32.5831 30.7675 30.8045 30.7675 28.6391V25.7262C30.7675 25.3396 31.0791 25.056 31.4426 25.056ZM15.7861 25.056H23.6013C23.9908 25.056 24.2764 25.3653 24.2764 25.7262V28.6391C24.2764 30.8045 22.4849 32.5831 20.3039 32.5831H17.0324C15.9678 32.5831 15.111 31.7325 15.111 30.6756V25.7262C15.111 25.3396 15.4226 25.056 15.7861 25.056Z" fill="#25C883"/>
<path fill-rule="evenodd" clip-rule="evenodd" d="M27.8597 39.2596C29.7811 39.2596 31.3909 38.0222 31.9881 36.3209C32.066 36.1147 32.1179 35.8827 32.1698 35.6507C32.0919 35.4444 31.8842 35.3156 31.6505 35.3156C31.4688 35.3156 31.313 35.3929 31.2091 35.5218C31.1832 35.6764 31.1312 35.8311 31.1053 35.96C30.6639 37.3004 29.3916 38.28 27.8597 38.28C26.4317 38.28 25.2114 37.4036 24.6921 36.1662C24.6401 36.0373 24.5882 35.8827 24.5622 35.728C24.4584 35.5991 24.3026 35.5218 24.1209 35.5218C23.8872 35.5218 23.7054 35.6507 23.6016 35.8569C23.6535 36.1147 23.7314 36.3724 23.8612 36.6044C24.5103 38.2027 26.0682 39.2596 27.8597 39.2596Z" fill="#25C883"/>
</g>
<defs>
<clipPath id="clip0_39_255">
<rect width="55.0445" height="58" fill="white"/>
</clipPath>
</defs>
</svg>
