<svg width="597" height="385" viewBox="0 0 597 385" fill="none" xmlns="http://www.w3.org/2000/svg">
<g clip-path="url(#clip0_39_14794)">
<path d="M4.63574 318.473V354.228H57.0318H114.764V318.473H4.63574Z" fill="#F5F5F5"/>
<path d="M0 308.42V318.473H118.613V308.42H57.0321H0Z" fill="#E1E1E1"/>
<path d="M59.3065 354.228H114.764V318.473H118.613V308.42H57.0322V317.511L59.3065 354.228Z" fill="#E1E1E1"/>
<path d="M42.3367 324.243H20.0312V329.663H42.3367V324.243Z" fill="#E1E1E1"/>
<path d="M45.8355 336.307H17.1445V347.672H45.8355V336.307Z" fill="white"/>
<path d="M21.6055 272.665V308.507H73.914H131.733V272.665H21.6055Z" fill="#F5F5F5"/>
<path d="M16.9697 262.699V272.665H135.582V262.699H73.9143H16.9697Z" fill="#E1E1E1"/>
<path d="M76.2758 308.507H131.733V272.665H135.582V262.699H73.9141V271.79L76.2758 308.507Z" fill="#E1E1E1"/>
<path d="M59.3065 278.434H37.001V283.854H59.3065V278.434Z" fill="#E1E1E1"/>
<path d="M62.8053 290.586H34.1143V301.951H62.8053V290.586Z" fill="white"/>
<path d="M89.3095 0H7.78516V118.105H89.3095V0Z" fill="#E1E1E1"/>
<path d="M85.1982 0H3.67383V118.105H85.1982V0Z" fill="#F5F5F5"/>
<path d="M75.1395 12.7634H13.8213V105.342H75.1395V12.7634Z" fill="white"/>
<path d="M75.0518 105.342C75.0518 105.342 75.0518 105.167 75.0518 104.905C75.0518 104.642 75.0518 104.205 75.0518 103.593C75.0518 102.457 75.0518 100.709 75.0518 98.523C75.0518 94.0646 75.0518 87.5955 74.9643 79.4653C74.9643 63.1177 74.8768 40.0387 74.8768 12.8509L75.0518 13.0257C56.3327 13.0257 35.6017 13.0257 13.7335 13.0257L13.996 12.7635C13.996 47.6443 13.996 79.9024 13.9085 105.342L13.7335 105.167C32.3652 105.167 47.6729 105.254 58.3445 105.254C63.6804 105.254 67.7916 105.254 70.6782 105.342C72.0777 105.342 73.2149 105.342 73.9146 105.342C74.7019 105.342 75.0518 105.342 75.0518 105.342C75.0518 105.342 74.7019 105.342 74.0021 105.342C73.3023 105.342 72.1652 105.342 70.7656 105.342C67.9665 105.342 63.7678 105.342 58.5195 105.429C47.8478 105.429 32.5401 105.517 13.821 105.517H13.6461V105.342C13.6461 79.9024 13.6461 47.7317 13.5586 12.7635V12.5012H13.821C35.6017 12.5012 56.4201 12.5012 75.1393 12.5012H75.3142V12.6761C75.2267 40.0387 75.2267 63.2051 75.2267 79.5528C75.2267 87.6829 75.2267 94.152 75.1393 98.6104C75.1393 100.796 75.1393 102.457 75.1393 103.681C75.1393 104.205 75.1393 104.642 75.1393 104.992C75.0518 105.167 75.0518 105.342 75.0518 105.342Z" fill="#E1E1E1"/>
<path d="M85.4606 0C85.5481 0 84.9358 0.874205 83.9736 2.09809C83.0114 3.32198 81.6993 5.07039 80.1248 6.90622C78.5503 8.74205 77.1507 10.403 76.101 11.6269C75.0514 12.7634 74.3516 13.4628 74.2641 13.4628C74.1767 13.4628 74.789 12.676 75.8386 11.4521C76.9758 10.1408 78.2879 8.47979 79.7749 6.73138C81.2619 4.89555 82.574 3.32198 83.7112 2.01067C84.7608 0.699364 85.3731 0 85.4606 0Z" fill="#E1E1E1"/>
<path d="M75.4014 105.08C78.4629 109.888 82.0493 114.434 86.073 118.455L75.4014 105.08Z" fill="white"/>
<path d="M86.0733 118.455C86.0733 118.455 85.286 117.843 84.2363 116.794C83.0992 115.657 81.6996 114.084 80.2126 112.248C78.7256 110.412 77.501 108.664 76.6262 107.353C75.7515 106.041 75.3141 105.167 75.4016 105.167C75.4891 105.167 76.0139 105.954 76.8886 107.178C77.7634 108.402 79.0755 110.15 80.5625 111.986C82.0495 113.822 83.4491 115.483 84.4988 116.619C85.461 117.668 86.1607 118.367 86.0733 118.455Z" fill="#E1E1E1"/>
<path d="M3.67383 118.018C7.2602 113.647 10.7591 109.276 14.3455 104.817L3.67383 118.018Z" fill="white"/>
<path d="M9.20573 111.619C12.1565 107.98 14.4573 104.957 14.3448 104.866C14.2322 104.775 11.7488 107.65 8.79798 111.289C5.84718 114.927 3.54636 117.95 3.65895 118.042C3.77155 118.133 6.25492 115.257 9.20573 111.619Z" fill="#E1E1E1"/>
<path d="M8.85533 6.20709C6.09841 2.72334 3.77133 -0.0279574 3.65767 0.0618887C3.544 0.151735 5.68678 3.0487 8.4437 6.53245C11.2006 10.0162 13.5277 12.7675 13.6414 12.6777C13.755 12.5878 11.6122 9.69084 8.85533 6.20709Z" fill="#E1E1E1"/>
<path d="M55.9828 31.5588H35.4268V89.7809H55.9828V31.5588Z" fill="#E1E1E1"/>
<path d="M529.384 341.727C527.46 340.066 523.173 334.821 526.497 328.701C527.722 326.428 530.259 325.379 532.62 324.418C534.982 323.456 537.431 322.582 539.356 320.921C543.03 317.861 543.992 312.703 546.441 308.507C549.24 303.786 554.401 300.202 559.912 300.464C566.21 300.727 571.458 305.885 573.82 311.742C576.182 317.599 576.269 324.068 576.357 330.362C576.357 333.859 576.269 337.793 573.645 340.153C571.283 342.339 567.697 342.339 564.548 342.251C553.089 341.902 541.63 341.552 530.259 341.202" fill="#F5F5F5"/>
<path d="M594.988 247.4H504.717L520.987 344.262C521.686 348.458 524.748 351.78 528.684 352.917C528.772 352.917 528.859 353.004 529.034 353.004C529.297 353.092 529.559 353.179 529.821 353.179C530.434 353.266 531.046 353.354 531.658 353.354V353.441L532.096 353.354H572.333C573.12 353.354 573.82 353.266 574.52 353.092C579.243 352.392 583.092 348.546 583.617 343.65L591.49 276.861L591.839 274.238L594.901 247.837L594.988 247.4ZM577.931 309.206H568.659L569.621 281.057H580.381L577.931 309.206ZM581.255 281.057H590.09L586.766 309.206H578.806L581.255 281.057ZM554.839 340.416L554.314 316.025H567.61L566.822 340.416H554.839ZM540.406 315.938H553.352L553.876 340.328H542.33L540.406 315.938ZM541.368 340.416H530.521C529.472 333.859 528.159 325.292 526.672 316.025H539.443L541.368 340.416ZM539.881 309.206L537.694 281.057H552.564L553.177 309.206H539.881ZM554.051 309.206L553.439 281.057H568.747L567.784 309.206H554.051ZM553.264 274.326L552.652 248.274H569.796L568.922 274.326H553.264ZM552.389 274.326H537.169L535.157 248.274H551.777L552.389 274.326ZM536.294 274.326H520.199C519.587 270.741 519.062 267.332 518.625 264.272C516.963 253.782 516.351 249.761 516.001 248.274H534.37L536.294 274.326ZM536.819 281.057L539.006 309.206H525.71C525.273 306.322 524.835 303.437 524.311 300.552C523.261 293.908 522.211 287.264 521.249 281.057H536.819ZM524.748 309.206H516.001L511.277 281.057H520.287C521.686 289.799 523.174 299.415 524.748 309.206ZM525.798 315.938C527.11 324.418 528.422 332.723 529.646 340.328H521.249L517.138 315.938H525.798ZM567.697 340.416L568.484 316.025H577.406L575.307 340.416H567.697ZM569.884 274.326L570.759 248.274H583.18L580.993 274.326H569.884ZM515.039 248.274C515.388 250.198 517.05 260.426 519.237 274.326H510.14L505.766 248.274H515.039ZM583.18 340.416H576.182L578.281 316.025H586.066L583.18 340.416ZM590.965 274.326H581.868L584.054 248.274H593.939L590.965 274.326Z" fill="#E1E1E1"/>
<path d="M597 6.29443V85.6723H483.023L478.912 6.90638L597 6.29443Z" fill="#E1E1E1"/>
<path d="M592.889 6.90625H478.912V85.4973H592.889V6.90625Z" fill="white"/>
<path d="M593.414 86.0219H478.388V6.38184H593.502V86.0219H593.414ZM479.437 84.9729H592.364V7.43088H479.437V84.9729Z" fill="#E1E1E1"/>
<path d="M580.556 16.6975H491.246V75.7938H580.556V16.6975Z" fill="white"/>
<path d="M580.556 16.6976C580.556 16.6976 580.381 16.6976 580.118 16.6976C579.856 16.6976 579.419 16.6976 578.806 16.6976C577.669 16.6976 576.007 16.6976 573.908 16.6976C569.622 16.6976 563.411 16.6976 555.539 16.785C539.794 16.785 517.488 16.8724 491.246 16.8724L491.509 16.6101C491.509 34.6188 491.509 54.6381 491.509 75.7064L491.246 75.4442C524.923 75.4442 555.976 75.4442 580.556 75.5316L580.293 75.7938C580.381 57.7852 580.381 43.0986 580.381 32.7829C580.381 27.6251 580.468 23.6038 580.468 20.8938C580.468 19.495 580.468 18.5334 580.468 17.7466C580.556 17.0472 580.556 16.6976 580.556 16.6976C580.556 16.6976 580.556 17.0472 580.556 17.7466C580.556 18.446 580.556 19.495 580.556 20.8063C580.556 23.5164 580.556 27.5377 580.643 32.6081C580.643 42.9237 580.731 57.6978 580.731 75.7064V75.9687H580.468C555.889 75.9687 524.836 75.9687 491.159 76.0561H490.896V75.7938C490.896 54.8129 490.896 34.7936 490.896 16.6976V16.4353H491.159C517.488 16.5227 539.794 16.5227 555.626 16.5227C563.499 16.5227 569.709 16.6101 573.995 16.6101C576.095 16.6101 577.757 16.6101 578.806 16.6101C579.331 16.6101 579.769 16.6101 580.031 16.6101C580.381 16.6101 580.556 16.6976 580.556 16.6976Z" fill="#E1E1E1"/>
<path d="M478.912 6.64423C479 6.55681 479.699 7.08133 480.837 7.95554C481.974 8.82974 483.548 9.96621 485.298 11.3649C487.047 12.7637 488.534 14.075 489.584 15.0366C490.634 15.9982 491.246 16.6102 491.246 16.6976C491.158 16.785 488.359 14.5995 484.948 11.802C481.536 9.092 478.825 6.81907 478.912 6.64423Z" fill="#E1E1E1"/>
<path d="M586.916 11.9655C590.325 9.26882 593.015 6.99065 592.926 6.87708C592.836 6.76351 589.999 8.85754 586.59 11.5542C583.181 14.2509 580.49 16.5291 580.58 16.6427C580.67 16.7562 583.506 14.6622 586.916 11.9655Z" fill="#E1E1E1"/>
<path d="M592.802 85.4975C588.603 82.0881 584.317 78.5913 580.118 75.1819L592.802 85.4975Z" fill="white"/>
<path d="M586.619 80.1711C583.091 77.3132 580.157 75.0877 580.066 75.2003C579.975 75.3128 582.761 77.7207 586.289 80.5786C589.817 83.4364 592.751 85.6619 592.842 85.5494C592.933 85.4369 590.147 83.0289 586.619 80.1711Z" fill="#E1E1E1"/>
<path d="M484.82 80.458C481.447 83.1235 478.787 85.3763 478.877 85.4899C478.966 85.6035 481.773 83.5349 485.145 80.8694C488.517 78.204 491.178 75.9511 491.088 75.8375C490.998 75.7239 488.192 77.7926 484.82 80.458Z" fill="#E1E1E1"/>
<path d="M565.51 35.0557H509.353V54.8127H565.51V35.0557Z" fill="#E1E1E1"/>
<path d="M594.988 354.228C594.988 354.315 463.517 354.49 301.343 354.49C139.081 354.49 7.69727 354.403 7.69727 354.228C7.69727 354.053 139.081 354.053 301.343 354.053C463.517 354.053 594.988 354.141 594.988 354.228Z" fill="#1A2E35"/>
<path d="M518.1 351.168H85.8979C78.9001 351.168 73.127 345.486 73.127 338.405V55.4245C73.127 51.6654 76.1885 48.6057 79.9498 48.6057H525.01C528.247 48.6057 530.871 51.2283 530.871 54.4629V338.317C530.783 345.398 525.098 351.168 518.1 351.168Z" fill="#375A64"/>
<path d="M537.869 355.19H65.9544C59.3065 355.19 53.9707 349.857 53.9707 343.213V328.701H549.852V343.213C549.852 349.857 544.517 355.19 537.869 355.19Z" fill="#375A64"/>
<path d="M517.225 60.6699H85.373V316.113H517.225V60.6699Z" fill="#F5F5F5"/>
<path d="M256.819 328.789L263.03 338.58H349.628L355.313 328.789H256.819Z" fill="#1A2E35"/>
<path d="M530.959 328.701H73.2148V330.187H530.959V328.701Z" fill="#1A2E35"/>
<path d="M207.66 48.6059H160.075V31.9086C160.075 20.1068 169.61 10.1409 181.506 10.1409L207.66 10.578V48.6059Z" fill="#E1E1E1"/>
<path d="M180.544 10.0533C180.544 10.0533 207.573 7.60556 207.573 42.836C207.573 78.0665 207.573 317.249 207.573 317.249H419.956V32.8701C419.956 20.0193 409.46 9.52881 396.601 9.52881L180.544 10.0533Z" fill="white"/>
<path d="M180.544 10.0534C181.769 10.0534 240.638 9.87853 337.645 9.52884C349.803 9.52884 362.487 9.44142 375.695 9.44142C382.343 9.44142 389.078 9.44142 395.901 9.354C399.313 9.354 402.899 9.87853 406.136 11.3647C409.372 12.7634 412.259 14.9489 414.62 17.7464C416.982 20.4564 418.644 23.7784 419.519 27.3626C419.781 28.2368 419.869 29.1985 420.044 30.0727C420.131 30.9469 420.131 31.9085 420.219 32.7827C420.219 34.6185 420.219 36.4544 420.219 38.2902C420.219 45.6335 420.219 53.1517 420.219 60.7573C420.219 75.9684 420.219 91.6167 420.219 107.615C420.219 171.694 420.219 242.242 420.219 316.2C420.219 316.55 420.219 316.899 420.219 317.249V317.511H419.956C344.38 317.511 272.478 317.511 207.573 317.511H207.398V317.336C207.398 222.31 207.485 141.709 207.485 84.7979C207.485 70.5484 207.485 57.785 207.485 46.6826C207.485 43.8851 207.485 41.2625 207.311 38.6399C207.223 36.1047 206.786 33.6569 206.261 31.2966C205.736 29.0236 205.036 26.8381 204.162 24.9149C203.287 22.9916 202.237 21.2432 201.1 19.6696C198.738 16.6099 196.027 14.4244 193.402 13.1131C190.778 11.7144 188.416 11.015 186.405 10.6653C184.48 10.3156 182.906 10.1408 181.944 10.1408C180.981 10.0534 180.544 10.0534 180.544 10.0534C180.544 10.0534 181.069 9.96595 182.118 9.96595C183.168 9.96595 184.655 10.0534 186.667 10.4031C188.591 10.7527 191.041 11.4521 193.665 12.8508C196.289 14.1621 199.088 16.3476 201.362 19.4074C202.5 20.9809 203.549 22.7293 204.424 24.6526C205.299 26.6633 205.998 28.7614 206.523 31.1217C206.961 33.3946 207.398 35.8424 207.573 38.465C207.748 41.0002 207.748 43.7103 207.748 46.5077C207.748 57.6101 207.748 70.3735 207.748 84.6231C207.748 141.534 207.835 222.223 207.835 317.162L207.66 316.987C272.565 316.987 344.467 316.987 420.044 316.987L419.781 317.249C419.781 316.899 419.781 316.55 419.781 316.2C419.781 242.242 419.781 171.694 419.781 107.615C419.781 91.6167 419.781 75.9684 419.781 60.7573C419.781 53.1517 419.781 45.7209 419.781 38.2902C419.694 34.6185 420.044 30.9469 419.082 27.4501C418.207 23.9532 416.632 20.7187 414.271 18.0086C411.996 15.2986 409.11 13.2005 405.961 11.7144C402.812 10.2282 399.313 9.70369 395.901 9.70369C388.991 9.70369 382.256 9.70369 375.608 9.70369C362.312 9.70369 349.628 9.70369 337.47 9.79111C240.55 9.96595 181.769 10.0534 180.544 10.0534Z" fill="#1A2E35"/>
<path d="M298.456 43.3653C298.456 43.4527 285.511 43.6275 269.591 43.6275C253.671 43.6275 240.725 43.5401 240.725 43.3653C240.725 43.2779 253.671 43.103 269.591 43.103C285.598 43.103 298.456 43.1905 298.456 43.3653Z" fill="#1A2E35"/>
<path d="M311.402 50.2713C311.402 50.3587 295.57 50.5336 276.064 50.5336C256.557 50.5336 240.725 50.4461 240.725 50.2713C240.725 50.1839 256.557 50.009 276.064 50.009C295.57 50.009 311.402 50.0964 311.402 50.2713Z" fill="#1A2E35"/>
<path d="M316.038 77.3716C316.038 77.4591 299.681 77.6339 279.562 77.6339C259.443 77.6339 243.086 77.5465 243.086 77.3716C243.086 77.2842 259.443 77.1094 279.562 77.1094C299.681 77.1094 316.038 77.2842 316.038 77.3716Z" fill="#1A2E35"/>
<path d="M346.001 123.86C346.001 123.948 322.673 124.122 293.888 124.122C265.102 124.122 241.774 124.035 241.774 123.86C241.774 123.773 265.102 123.598 293.888 123.598C322.673 123.598 346.001 123.685 346.001 123.86Z" fill="#1A2E35"/>
<path d="M346.001 131.728C346.001 131.816 322.673 131.99 293.888 131.99C265.102 131.99 241.774 131.903 241.774 131.728C241.774 131.553 265.102 131.466 293.888 131.466C322.673 131.466 346.001 131.553 346.001 131.728Z" fill="#1A2E35"/>
<path d="M346.001 139.596C346.001 139.683 322.673 139.858 293.888 139.858C265.102 139.858 241.774 139.771 241.774 139.596C241.774 139.508 265.102 139.333 293.888 139.333C322.673 139.421 346.001 139.508 346.001 139.596Z" fill="#1A2E35"/>
<path d="M346.001 147.464C346.001 147.551 322.673 147.726 293.888 147.726C265.102 147.726 241.774 147.639 241.774 147.464C241.774 147.376 265.102 147.201 293.888 147.201C322.673 147.289 346.001 147.376 346.001 147.464Z" fill="#1A2E35"/>
<path d="M346.001 155.419C346.001 155.506 322.673 155.681 293.888 155.681C265.102 155.681 241.774 155.594 241.774 155.419C241.774 155.244 265.102 155.157 293.888 155.157C322.673 155.157 346.001 155.244 346.001 155.419Z" fill="#1A2E35"/>
<path d="M281.252 163.287C281.252 163.374 272.429 163.549 261.513 163.549C250.597 163.549 241.774 163.462 241.774 163.287C241.774 163.112 250.597 163.024 261.513 163.024C272.429 163.024 281.252 163.199 281.252 163.287Z" fill="#1A2E35"/>
<path d="M385.492 152.724L363.799 203.078C363.362 204.127 364.411 205.176 365.461 204.739L382.168 197.396C382.868 197.133 383.655 197.483 383.918 198.182L389.516 215.142C389.866 216.278 391.528 216.278 391.878 215.229L412.259 160.941L385.492 152.724Z" fill="#25C883"/>
<path d="M413.746 161.116L424.155 214.967C424.418 216.104 425.905 216.366 426.517 215.404L436.227 199.931C436.664 199.319 437.451 199.144 438.063 199.581L452.234 210.421C453.196 211.121 454.508 210.246 454.246 209.11L440.513 152.724L413.746 161.116Z" fill="#25C883"/>
<g opacity="0.3">
<path d="M385.492 152.724L363.799 203.078C363.362 204.127 364.411 205.176 365.461 204.739L382.168 197.396C382.868 197.133 383.655 197.483 383.918 198.182L389.516 215.142C389.866 216.278 391.528 216.278 391.878 215.229L412.259 160.941L385.492 152.724Z" fill="black"/>
</g>
<g opacity="0.3">
<path d="M413.746 161.116L424.155 214.967C424.418 216.104 425.905 216.366 426.517 215.404L436.227 199.931C436.664 199.319 437.451 199.144 438.063 199.581L452.234 210.421C453.196 211.121 454.508 210.246 454.246 209.11L440.513 152.724L413.746 161.116Z" fill="black"/>
</g>
<path d="M414.795 64.4288L421.881 59.1836L427.479 66.0024L435.701 62.7678L439.375 70.7231L448.21 69.5866L449.785 78.3287L458.532 79.3777L457.919 88.1198L466.142 91.3544L463.43 99.7467L470.603 104.905L465.792 112.335L471.478 119.067L465.005 125.099L468.766 133.054L461.068 137.25L462.73 145.992L454.158 148.09L453.633 156.92L444.799 156.832L442.174 165.312L433.602 163.039L428.879 170.557L421.181 166.186L414.795 172.306L408.41 166.186L400.625 170.557L395.989 163.039L387.417 165.312L384.705 156.832L375.87 156.92L375.433 148.09L366.861 145.992L368.523 137.25L360.737 133.054L364.586 125.099L358.113 119.067L363.799 112.335L358.988 104.905L366.161 99.7467L363.362 91.3544L371.584 88.1198L370.972 79.3777L379.806 78.3287L381.381 69.5866L390.128 70.7231L393.89 62.7678L402.112 66.0024L407.623 59.1836L414.795 64.4288Z" fill="#25C883"/>
<path d="M414.795 155.696C436.873 155.696 454.77 137.809 454.77 115.745C454.77 93.6802 436.873 75.7935 414.795 75.7935C392.718 75.7935 374.82 93.6802 374.82 115.745C374.82 137.809 392.718 155.696 414.795 155.696Z" fill="white"/>
<path d="M423.542 106.303L434.301 107.877C436.051 108.139 436.751 110.325 435.526 111.549L427.741 119.154C427.216 119.679 427.041 120.378 427.129 121.077L428.966 131.743C429.228 133.491 427.391 134.802 425.817 134.016L416.195 128.945C415.582 128.596 414.795 128.596 414.183 128.945L404.561 134.016C402.986 134.802 401.149 133.491 401.412 131.743L403.249 121.077C403.336 120.378 403.161 119.679 402.636 119.154L394.851 111.549C393.539 110.325 394.327 108.139 396.076 107.877L406.835 106.303C407.535 106.216 408.147 105.779 408.497 105.167L413.308 95.4631C414.095 93.8896 416.37 93.8896 417.157 95.4631L421.968 105.167C422.23 105.779 422.843 106.216 423.542 106.303Z" fill="#25C883"/>
<path d="M381.556 226.594C381.556 226.681 369.485 226.856 354.527 226.856C339.569 226.856 327.498 226.769 327.498 226.594C327.498 226.419 339.569 226.332 354.527 226.332C369.397 226.419 381.556 226.507 381.556 226.594Z" fill="#1A2E35"/>
<path d="M381.556 234.2C381.556 234.287 369.485 234.462 354.527 234.462C339.569 234.462 327.498 234.374 327.498 234.2C327.498 234.025 339.569 233.937 354.527 233.937C369.397 234.025 381.556 234.112 381.556 234.2Z" fill="#1A2E35"/>
<path d="M377.969 267.332C377.969 267.332 377.969 267.245 377.969 266.982C377.969 266.72 377.881 266.37 377.881 265.846C377.881 265.584 377.881 265.321 377.794 265.059C377.794 264.797 377.706 264.447 377.619 264.097C377.531 263.398 377.357 262.611 377.094 261.65C376.657 259.814 375.87 257.716 374.47 255.443C373.158 253.17 371.146 250.81 368.522 248.886C365.898 246.876 362.574 245.215 358.725 244.515C354.876 243.903 350.59 243.991 346.479 245.564C345.429 245.914 344.467 246.439 343.417 246.876C342.455 247.488 341.493 248.012 340.531 248.711C339.568 249.323 338.781 250.198 337.906 250.984C337.119 251.859 336.332 252.733 335.632 253.694C334.233 255.618 333.008 257.716 332.308 260.076C331.521 262.436 331.171 264.884 331.084 267.419C331.084 269.955 331.521 272.402 332.308 274.763C333.008 277.123 334.233 279.221 335.632 281.144C336.332 282.106 337.119 282.98 337.906 283.855C338.781 284.641 339.568 285.428 340.531 286.127C341.405 286.827 342.455 287.351 343.417 287.963C344.467 288.488 345.429 288.925 346.479 289.275C350.59 290.848 354.876 290.936 358.725 290.324C362.574 289.624 365.898 287.963 368.522 285.953C371.146 283.942 373.07 281.582 374.47 279.396C375.782 277.123 376.657 275.025 377.094 273.189C377.357 272.315 377.444 271.441 377.619 270.741C377.706 270.392 377.706 270.042 377.794 269.78C377.794 269.518 377.794 269.168 377.881 268.993C377.881 268.556 377.969 268.119 377.969 267.857C377.881 267.507 377.969 267.332 377.969 267.332C377.969 267.332 377.969 267.419 377.969 267.682C377.969 267.944 377.969 268.294 377.969 268.818C377.969 269.08 377.969 269.343 377.969 269.605C377.969 269.867 377.881 270.217 377.881 270.567C377.794 271.266 377.706 272.14 377.444 273.014C377.094 274.85 376.219 277.036 374.907 279.309C373.595 281.582 371.583 284.029 368.959 286.04C366.335 288.051 362.924 289.799 359.075 290.498C355.226 291.198 350.852 291.11 346.654 289.537C345.604 289.187 344.554 288.663 343.592 288.226C342.63 287.614 341.58 287.089 340.706 286.39C339.743 285.69 338.869 284.904 337.994 284.117C337.207 283.243 336.332 282.368 335.632 281.407C334.233 279.483 333.008 277.298 332.221 274.85C331.433 272.49 330.996 269.955 330.996 267.419C330.996 264.884 331.433 262.349 332.221 259.989C333.008 257.628 334.233 255.443 335.632 253.432C336.332 252.471 337.119 251.596 337.994 250.722C338.869 249.935 339.743 249.061 340.706 248.449C341.58 247.75 342.63 247.138 343.592 246.613C344.642 246.089 345.604 245.564 346.654 245.302C350.852 243.728 355.226 243.641 359.075 244.34C363.011 245.04 366.335 246.788 368.959 248.799C371.583 250.81 373.595 253.257 374.907 255.53C376.219 257.803 377.094 259.989 377.444 261.825C377.706 262.699 377.794 263.573 377.881 264.272C377.969 264.622 377.969 264.972 377.969 265.234C377.969 265.496 377.969 265.846 377.969 266.021C377.969 266.458 377.969 266.895 377.969 267.157C377.969 267.245 377.969 267.332 377.969 267.332Z" fill="#25C883"/>
<path d="M354.526 282.368C362.835 282.368 369.571 275.636 369.571 267.332C369.571 259.028 362.835 252.296 354.526 252.296C346.216 252.296 339.48 259.028 339.48 267.332C339.48 275.636 346.216 282.368 354.526 282.368Z" fill="#25C883"/>
<path d="M388.029 254.394C388.029 254.394 387.854 254.481 387.417 254.743C386.979 255.006 386.367 255.268 385.492 255.705C383.83 256.579 381.381 257.891 378.232 259.464C375.083 261.125 371.234 263.048 366.773 265.409C365.636 265.933 364.411 266.458 363.012 266.633C361.7 266.808 360.125 266.37 359.076 265.409C358.551 264.884 358.113 264.272 357.938 263.486C357.763 262.786 357.851 261.825 358.463 261.3C358.988 260.688 359.775 260.338 360.563 260.251C361.35 260.164 362.312 260.601 362.662 261.387C362.749 263.835 361.787 266.283 360.125 268.294C358.463 270.304 355.927 271.703 353.127 271.79C350.416 271.965 347.442 271.004 345.342 268.993C344.293 268.031 343.418 266.72 343.068 265.234C342.981 264.447 342.981 263.66 343.33 262.961C343.68 262.262 344.293 261.65 344.992 261.387C345.78 261.038 346.654 261.213 347.354 261.737C348.054 262.262 348.404 262.961 348.666 263.66C348.929 264.447 349.016 265.234 349.016 266.021C349.016 266.37 349.016 266.808 349.016 267.157C349.016 267.507 348.929 267.944 348.841 268.294C348.316 271.441 346.479 274.326 343.943 276.336C341.406 278.347 337.995 279.571 334.671 278.959C331.347 278.434 328.285 276.511 326.186 273.801C324.961 272.228 324.087 270.479 323.737 268.556C323.387 266.633 323.387 264.622 324.174 262.874C324.524 261.999 325.224 261.213 326.011 260.688C326.886 260.164 327.848 259.989 328.81 260.164C329.772 260.338 330.647 261.125 331.084 261.912C331.522 262.786 331.784 263.66 332.047 264.535C332.834 268.119 332.659 271.878 331.434 275.2C330.21 278.522 327.935 281.407 325.049 283.068C322.162 284.816 318.751 285.516 315.602 285.166C314.027 284.991 312.453 284.466 311.141 283.68C309.741 282.893 308.604 281.931 307.642 280.707C305.717 278.347 304.668 275.462 304.755 272.665C304.755 271.266 305.105 269.867 305.63 268.643C306.155 267.419 307.029 266.283 308.341 265.846C308.954 265.671 309.654 265.584 310.266 265.758C310.878 265.933 311.403 266.283 311.84 266.72C312.715 267.594 313.327 268.643 313.677 269.78C314.027 270.829 314.29 271.965 314.29 273.102C314.29 273.626 314.29 274.151 314.29 274.675C314.29 275.2 314.29 275.724 314.202 276.249C313.852 280.27 312.54 283.592 311.228 286.04C309.916 288.575 308.516 290.236 307.467 291.373C306.942 291.897 306.592 292.334 306.242 292.597C305.98 292.859 305.805 292.946 305.805 292.946C305.805 292.946 305.892 292.771 306.242 292.509C306.505 292.247 306.942 291.81 307.379 291.285C308.341 290.149 309.741 288.488 311.053 285.953C312.365 283.505 313.59 280.183 313.94 276.162C314.027 275.637 314.027 275.2 314.027 274.675C314.027 274.151 314.027 273.626 314.027 273.102C314.027 272.053 313.852 271.004 313.415 269.867C313.065 268.818 312.453 267.769 311.665 266.982C311.228 266.633 310.703 266.283 310.178 266.108C309.654 265.933 309.041 266.021 308.429 266.196C307.292 266.545 306.417 267.682 305.892 268.818C305.367 270.042 305.105 271.353 305.105 272.665C305.105 275.375 306.067 278.172 307.904 280.445C308.866 281.582 310.003 282.543 311.316 283.33C312.628 284.029 314.115 284.554 315.689 284.729C318.751 285.078 322.075 284.379 324.874 282.718C327.673 281.057 329.947 278.26 331.084 275.025C332.309 271.79 332.484 268.119 331.697 264.622C331.522 263.748 331.259 262.874 330.822 262.087C330.385 261.3 329.685 260.688 328.897 260.513C328.023 260.338 327.148 260.513 326.361 261.038C325.574 261.475 325.049 262.174 324.699 263.048C323.999 264.709 323.999 266.633 324.261 268.469C324.611 270.304 325.486 272.053 326.623 273.539C328.635 276.162 331.609 278.085 334.846 278.522C338.082 279.046 341.319 277.91 343.768 275.987C346.217 274.063 347.966 271.179 348.491 268.206C348.579 267.857 348.579 267.419 348.666 267.07C348.666 266.72 348.754 266.283 348.666 265.933C348.666 265.147 348.579 264.447 348.316 263.748C348.054 263.048 347.704 262.436 347.179 261.999C346.654 261.562 345.867 261.475 345.255 261.737C344.643 261.999 344.118 262.524 343.768 263.136C343.418 263.748 343.418 264.447 343.505 265.147C343.768 266.545 344.643 267.769 345.605 268.643C347.617 270.567 350.416 271.528 353.04 271.353C355.664 271.266 358.113 269.955 359.775 268.031C361.437 266.108 362.312 263.748 362.225 261.387V261.475C361.962 260.776 361.262 260.426 360.475 260.513C359.775 260.601 359.076 260.863 358.638 261.387C358.113 261.912 358.026 262.611 358.201 263.311C358.376 264.01 358.726 264.535 359.25 265.059C360.3 265.933 361.7 266.37 362.924 266.196C364.236 266.108 365.461 265.584 366.598 265.059C371.059 262.786 374.908 260.863 378.057 259.202C381.206 257.628 383.655 256.404 385.317 255.53C386.105 255.093 386.804 254.831 387.242 254.569C387.767 254.481 388.029 254.394 388.029 254.394Z" fill="#1A2E35"/>
<path d="M570.234 147.566C570.234 147.566 559.825 190.227 513.114 180.436C513.114 180.436 526.673 137.163 570.234 147.566Z" fill="#FFCC47"/>
<path d="M547.666 212.17C547.666 212.17 526.235 244.078 490.809 222.048C490.896 222.048 515.038 190.577 547.666 212.17Z" fill="#FFCC47"/>
<path d="M513.552 260.863C513.552 260.863 482.324 287.439 452.321 254.481C452.321 254.569 486.261 229.217 513.552 260.863Z" fill="#FFCC47"/>
<path d="M480.487 157.619C480.487 157.619 515.127 174.229 498.332 212.432C498.332 212.432 463.693 193.024 480.487 157.619Z" fill="#FFCC47"/>
<path d="M472.877 203.603C472.877 203.603 490.197 226.944 464.393 246.963C464.48 246.963 448.21 221.873 472.877 203.603Z" fill="#FFCC47"/>
<path d="M553.089 97.5615C553.089 97.5615 557.025 132.18 519.674 137.688C519.674 137.775 517.925 101.933 553.089 97.5615Z" fill="#FFCC47"/>
<path d="M499.468 62.5933C499.468 62.5933 529.734 75.1818 516.613 110.675C516.613 110.675 486.26 95.5508 499.468 62.5933Z" fill="#FFCC47"/>
<path d="M481.274 113.122C481.274 113.122 521.336 117.668 517.837 161.204C517.75 161.291 476.9 153.948 481.274 113.122Z" fill="#FFCC47"/>
<path d="M424.242 265.234C424.242 265.234 424.417 265.147 424.767 265.059C425.117 264.972 425.642 264.797 426.254 264.622C427.566 264.272 429.491 263.835 432.027 263.048C436.926 261.562 444.011 258.94 452.146 254.569C460.281 250.198 469.378 243.816 478.3 235.424C482.761 231.227 487.047 226.507 491.246 221.261C492.208 219.95 493.258 218.551 494.22 217.24C494.745 216.541 495.27 215.841 495.707 215.229C496.232 214.53 496.669 213.831 497.107 213.131C498.069 211.733 499.031 210.246 499.906 208.76C500.781 207.274 501.655 205.701 502.53 204.214C502.967 203.428 503.405 202.641 503.842 201.941C504.192 201.155 504.629 200.368 504.979 199.581C505.767 198.008 506.554 196.434 507.254 194.948C507.953 193.374 508.566 191.801 509.265 190.227C509.615 189.44 509.965 188.654 510.228 187.867C510.49 187.08 510.753 186.293 511.102 185.506C511.627 183.933 512.24 182.359 512.764 180.873C513.202 179.3 513.727 177.726 514.164 176.24C514.426 175.453 514.601 174.754 514.864 173.967C515.126 173.18 515.214 172.393 515.389 171.694C515.738 170.208 516.088 168.634 516.438 167.148C519.062 155.171 519.675 144.157 519.412 134.89C519.237 125.623 517.838 118.28 516.963 113.122C516.438 110.587 515.913 108.664 515.651 107.352C515.476 106.741 515.389 106.216 515.301 105.866C515.214 105.517 515.214 105.342 515.214 105.342C515.214 105.342 515.301 105.517 515.389 105.866C515.476 106.216 515.563 106.741 515.738 107.352C516.088 108.664 516.613 110.587 517.138 113.122C518.1 118.193 519.5 125.623 519.762 134.89C520.025 144.157 519.5 155.259 516.876 167.236C516.526 168.722 516.176 170.208 515.826 171.781C515.651 172.568 515.476 173.355 515.301 174.054C515.039 174.841 514.864 175.54 514.601 176.327C514.164 177.901 513.727 179.387 513.202 180.961C512.677 182.534 512.065 184.02 511.54 185.594C511.277 186.381 511.015 187.167 510.665 187.954C510.403 188.741 510.053 189.528 509.703 190.315C509.003 191.888 508.391 193.462 507.691 195.035C506.991 196.609 506.204 198.182 505.417 199.669C505.067 200.455 504.629 201.242 504.28 202.029C503.842 202.816 503.405 203.602 502.967 204.302C502.093 205.875 501.218 207.362 500.343 208.848C499.381 210.334 498.419 211.733 497.457 213.219C497.019 213.918 496.494 214.705 496.057 215.404C495.532 216.104 495.007 216.803 494.57 217.415C493.52 218.814 492.558 220.125 491.596 221.436C487.485 226.681 483.111 231.402 478.65 235.598C469.728 243.991 460.543 250.372 452.408 254.743C444.186 259.114 437.101 261.65 432.115 263.136C429.665 263.923 427.654 264.36 426.342 264.709C425.729 264.884 425.204 264.972 424.855 265.059C424.417 265.147 424.242 265.234 424.242 265.234Z" fill="#FFCC47"/>
<path d="M469.203 222.398C469.203 222.398 469.203 222.748 469.203 223.36C469.116 223.972 469.028 224.933 468.941 225.982C468.678 228.255 468.241 231.315 467.541 234.637C466.841 237.959 466.141 241.019 465.529 243.204C465.267 244.253 465.004 245.127 464.829 245.739C464.654 246.351 464.479 246.701 464.479 246.613C464.479 246.613 464.48 246.264 464.654 245.652C464.829 244.952 465.004 244.078 465.267 243.029C465.792 240.844 466.491 237.784 467.104 234.462C467.716 231.14 468.241 228.08 468.591 225.807C468.766 224.758 468.941 223.884 469.028 223.185C469.028 222.748 469.116 222.398 469.203 222.398Z" fill="#375A64"/>
<path d="M477.688 257.104C477.688 257.104 477.338 257.104 476.726 257.016C476.026 256.929 475.151 256.754 474.102 256.667C471.827 256.317 468.766 255.88 465.354 255.53C461.943 255.093 458.794 254.831 456.52 254.656C455.47 254.569 454.595 254.481 453.808 254.394C453.196 254.306 452.846 254.306 452.846 254.219C452.846 254.219 453.196 254.219 453.808 254.219C454.42 254.219 455.382 254.219 456.52 254.306C458.794 254.394 461.943 254.656 465.354 255.093C468.766 255.53 471.915 255.967 474.102 256.405C475.239 256.579 476.113 256.754 476.726 256.929C477.338 256.929 477.688 257.016 477.688 257.104Z" fill="#375A64"/>
<path d="M519.85 214.705C519.85 214.705 519.412 214.793 518.712 214.967C517.838 215.142 516.788 215.317 515.563 215.579C512.852 216.104 509.178 216.891 505.154 217.852C501.13 218.814 497.457 219.863 494.832 220.562C493.608 220.912 492.558 221.262 491.771 221.436C491.071 221.611 490.634 221.786 490.634 221.699C490.634 221.699 490.984 221.524 491.771 221.262C492.471 220.999 493.52 220.65 494.832 220.213C497.457 219.338 501.043 218.289 505.067 217.328C509.09 216.366 512.852 215.667 515.476 215.142C516.788 214.88 517.925 214.793 518.712 214.618C519.412 214.705 519.85 214.705 519.85 214.705Z" fill="#375A64"/>
<path d="M489.234 182.01C489.234 182.01 489.497 182.359 489.934 183.059C490.372 183.758 490.984 184.807 491.596 186.119C492.996 188.741 494.57 192.5 495.795 196.784C497.019 201.067 497.632 205.176 497.894 208.061C497.982 209.547 498.069 210.684 498.069 211.558C498.069 212.345 498.069 212.869 498.069 212.869C498.069 212.869 497.982 212.432 497.894 211.558C497.807 210.771 497.719 209.547 497.544 208.149C497.194 205.264 496.582 201.242 495.357 196.959C494.133 192.675 492.558 188.916 491.246 186.293C490.634 184.982 490.109 183.933 489.672 183.234C489.409 182.447 489.234 182.01 489.234 182.01Z" fill="#375A64"/>
<path d="M535.682 162.078C535.682 162.078 535.332 162.34 534.72 162.69C534.02 163.127 533.146 163.739 532.183 164.351C529.997 165.75 527.11 167.848 524.048 170.295C520.987 172.743 518.363 175.191 516.526 177.027C515.651 177.901 514.951 178.6 514.339 179.212C513.814 179.737 513.552 179.999 513.552 179.999C513.552 179.999 513.814 179.649 514.252 179.125C514.689 178.6 515.389 177.814 516.351 176.852C518.1 175.016 520.725 172.481 523.786 170.033C526.848 167.585 529.822 165.487 532.008 164.176C533.146 163.477 534.02 162.952 534.633 162.602C535.332 162.253 535.682 162.078 535.682 162.078Z" fill="#375A64"/>
<path d="M491.946 130.519C491.946 130.519 492.034 130.606 492.296 130.781C492.559 130.956 492.821 131.218 493.171 131.568C493.958 132.267 495.008 133.316 496.32 134.54C498.944 137.076 502.443 140.747 506.117 145.031C509.791 149.314 512.852 153.336 514.952 156.308C516.001 157.794 516.876 159.018 517.401 159.892C517.663 160.329 517.838 160.592 518.013 160.854C518.188 161.116 518.188 161.204 518.188 161.204C518.188 161.204 518.101 161.116 517.926 160.854C517.751 160.592 517.488 160.242 517.226 159.892C516.614 159.018 515.739 157.794 514.689 156.396C512.502 153.423 509.441 149.489 505.767 145.206C502.181 140.922 498.682 137.25 496.145 134.628C494.92 133.404 493.871 132.355 493.083 131.568C492.734 131.218 492.471 130.956 492.296 130.694C492.034 130.606 491.946 130.519 491.946 130.519Z" fill="#375A64"/>
<path d="M540.143 108.839C540.143 108.839 539.881 109.276 539.269 109.888C538.656 110.587 537.869 111.549 536.819 112.773C534.808 115.22 532.008 118.63 529.209 122.564C526.41 126.498 524.048 130.169 522.386 132.879C521.599 134.191 520.987 135.24 520.462 136.114C520.025 136.901 519.762 137.25 519.675 137.25C519.675 137.25 519.85 136.813 520.287 136.026C520.724 135.24 521.337 134.103 522.124 132.704C523.699 129.907 526.06 126.235 528.859 122.301C531.659 118.367 534.458 114.958 536.557 112.598C537.607 111.374 538.481 110.5 539.094 109.8C539.793 109.188 540.143 108.839 540.143 108.839Z" fill="#375A64"/>
<path d="M503.93 75.9685C503.93 75.9685 504.192 76.4056 504.542 77.2798C504.892 78.0666 505.417 79.2905 506.117 80.7766C507.429 83.7489 509.091 87.9451 510.753 92.5784C512.502 97.2117 513.902 101.495 514.951 104.642C515.476 106.216 515.826 107.44 516.088 108.314C516.351 109.188 516.438 109.713 516.438 109.713C516.438 109.713 516.263 109.276 515.913 108.402C515.564 107.44 515.126 106.216 514.689 104.73C513.639 101.67 512.152 97.3865 510.403 92.7532C508.653 88.12 507.079 83.9238 505.854 80.8641C505.242 79.3779 504.804 78.2414 504.455 77.2798C504.105 76.493 503.93 75.9685 503.93 75.9685Z" fill="#375A64"/>
<path d="M46.4482 138.037C46.4482 138.037 56.3326 178.338 100.419 169.159C100.419 169.159 87.6478 128.246 46.4482 138.037Z" fill="#FFCC47"/>
<path d="M67.792 199.144C67.792 199.144 88.0856 229.304 121.5 208.41C121.5 208.41 98.6698 178.687 67.792 199.144Z" fill="#FFCC47"/>
<path d="M100.069 245.127C100.069 245.127 129.635 270.217 157.889 239.095C157.889 239.095 125.874 215.229 100.069 245.127Z" fill="#FFCC47"/>
<path d="M131.384 147.566C131.384 147.566 98.5823 163.302 114.502 199.406C114.502 199.319 147.13 181.048 131.384 147.566Z" fill="#FFCC47"/>
<path d="M138.469 191.014C138.469 191.014 122.112 213.044 146.517 232.014C146.429 232.014 161.737 208.236 138.469 191.014Z" fill="#FFCC47"/>
<path d="M62.6305 90.8298C62.6305 90.8298 58.8692 123.525 94.2081 128.77C94.2081 128.77 95.9575 94.9386 62.6305 90.8298Z" fill="#FFCC47"/>
<path d="M113.365 57.7849C113.365 57.7849 84.7616 69.6741 97.1827 103.156C97.1827 103.156 125.786 88.9066 113.365 57.7849Z" fill="#FFCC47"/>
<path d="M130.597 105.517C130.597 105.517 92.7216 109.8 96.0455 150.975C96.0455 150.975 134.708 144.069 130.597 105.517Z" fill="#FFCC47"/>
<path d="M192.703 252.033C192.703 252.033 192.528 252.034 192.178 251.946C191.828 251.859 191.303 251.771 190.691 251.596C189.379 251.334 187.454 250.897 185.005 250.198C180.107 248.799 173.021 246.526 164.711 242.592C160.6 240.669 156.139 238.221 151.591 235.424C147.042 232.626 142.318 229.217 137.682 225.283C133.046 221.436 128.41 216.978 124.124 211.995C123.075 210.771 122.025 209.46 120.975 208.148C119.926 206.837 118.963 205.438 117.914 204.127C117.389 203.428 116.864 202.728 116.427 202.029C115.989 201.33 115.464 200.63 115.027 199.843C114.065 198.357 113.103 196.959 112.228 195.472C110.478 192.413 108.729 189.44 107.329 186.381C105.755 183.321 104.53 180.261 103.218 177.202C100.857 171.082 98.8446 164.963 97.5326 159.105C94.7334 147.304 93.9462 136.376 94.2086 127.197C94.471 118.018 95.6956 110.675 96.6578 105.692C97.1827 103.156 97.7075 101.233 98.0574 100.009C98.2323 99.3973 98.3198 98.8727 98.4073 98.5231C98.4948 98.1734 98.5822 97.9985 98.5822 97.9985C98.5822 97.9985 98.5822 98.1734 98.4948 98.5231C98.4073 98.8727 98.3198 99.3973 98.1449 100.009C97.8824 101.321 97.3576 103.244 96.8328 105.779C95.9581 110.762 94.7334 118.105 94.5585 127.284C94.3835 136.376 95.2583 147.304 97.9699 159.105C99.282 164.963 101.294 170.995 103.656 177.114C104.968 180.174 106.192 183.234 107.767 186.206C109.166 189.266 111.003 192.238 112.665 195.298C113.54 196.784 114.59 198.182 115.464 199.669C115.902 200.368 116.427 201.067 116.864 201.854C117.389 202.553 117.914 203.253 118.351 203.865C119.401 205.176 120.363 206.575 121.413 207.886C122.462 209.197 123.512 210.421 124.562 211.733C128.848 216.716 133.484 221.087 138.032 224.933C142.668 228.78 147.304 232.189 151.853 235.074C156.402 237.959 160.775 240.319 164.886 242.33C173.109 246.264 180.194 248.624 185.093 250.023C187.542 250.81 189.466 251.247 190.778 251.509C191.391 251.684 191.915 251.771 192.265 251.859C192.615 251.946 192.703 252.033 192.703 252.033Z" fill="#FFCC47"/>
<path d="M141.968 208.848C141.968 208.848 142.055 209.197 142.143 209.722C142.23 210.421 142.405 211.208 142.58 212.17C142.93 214.268 143.367 217.153 143.98 220.3C144.592 223.447 145.204 226.332 145.729 228.43C145.904 229.391 146.166 230.178 146.254 230.878C146.341 231.49 146.429 231.752 146.429 231.752C146.429 231.752 146.254 231.49 146.079 230.878C145.904 230.353 145.642 229.479 145.379 228.43C144.854 226.419 144.155 223.534 143.542 220.387C142.93 217.24 142.493 214.268 142.23 212.17C142.143 211.121 142.055 210.246 141.968 209.634C141.968 209.11 141.968 208.848 141.968 208.848Z" fill="#375A64"/>
<path d="M133.921 241.543C133.921 241.543 134.271 241.455 134.796 241.281C135.408 241.106 136.195 240.931 137.245 240.756C139.344 240.319 142.318 239.882 145.555 239.532C148.791 239.182 151.765 238.92 153.952 238.833C155.002 238.745 155.876 238.745 156.489 238.745C157.101 238.745 157.451 238.745 157.451 238.745C157.451 238.745 157.101 238.833 156.489 238.92C155.789 239.008 154.914 239.095 153.952 239.182C151.853 239.357 148.879 239.62 145.642 240.057C142.406 240.406 139.432 240.843 137.332 241.193C136.37 241.368 135.495 241.455 134.796 241.543C134.271 241.543 133.921 241.63 133.921 241.543Z" fill="#375A64"/>
<path d="M94.1211 201.504C94.1211 201.504 94.5585 201.504 95.2582 201.592C95.958 201.679 97.0077 201.854 98.3198 202.029C100.856 202.466 104.355 203.165 108.204 204.039C112.053 205.001 115.464 205.963 117.914 206.749C119.138 207.186 120.1 207.449 120.8 207.711C121.5 207.973 121.85 208.148 121.85 208.148C121.85 208.148 121.413 208.061 120.8 207.886C120.013 207.624 119.051 207.361 117.826 207.012C115.377 206.312 111.878 205.351 108.117 204.389C104.268 203.427 100.856 202.728 98.3198 202.204C97.0952 201.941 96.133 201.766 95.3457 201.592C94.471 201.679 94.1211 201.592 94.1211 201.504Z" fill="#375A64"/>
<path d="M123.075 170.645C123.075 170.645 122.9 171.082 122.55 171.694C122.2 172.393 121.675 173.355 121.063 174.579C119.838 177.027 118.351 180.611 117.214 184.632C116.077 188.654 115.465 192.5 115.115 195.21C114.94 196.609 114.852 197.658 114.852 198.445C114.765 199.231 114.765 199.668 114.678 199.668C114.678 199.668 114.59 199.231 114.678 198.445C114.678 197.658 114.765 196.521 114.852 195.123C115.115 192.325 115.64 188.566 116.864 184.457C118.002 180.349 119.576 176.852 120.888 174.404C121.5 173.18 122.113 172.218 122.463 171.519C122.812 170.907 122.987 170.557 123.075 170.645Z" fill="#375A64"/>
<path d="M79.1631 151.762C79.1631 151.762 79.513 151.937 80.1253 152.199C80.7376 152.549 81.6123 152.986 82.662 153.685C84.7613 154.997 87.5604 156.92 90.447 159.28C93.3336 161.64 95.7829 164.001 97.5323 165.749C98.407 166.623 99.0193 167.41 99.4567 167.935C99.8941 168.459 100.156 168.722 100.069 168.809C100.069 168.809 99.8066 168.547 99.2818 168.11C98.7569 167.585 98.0571 166.886 97.2699 166.099C95.5204 164.351 93.0712 162.078 90.1846 159.717C87.298 157.357 84.4989 155.434 82.487 154.122C81.5248 153.51 80.7376 152.986 80.0378 152.549C79.4255 152.024 79.1631 151.849 79.1631 151.762Z" fill="#375A64"/>
<path d="M120.45 121.952C120.45 121.952 120.1 122.389 119.4 123.088C118.7 123.875 117.738 124.837 116.513 125.973C114.064 128.421 110.828 131.918 107.416 135.939C104.005 139.96 101.031 143.719 99.0188 146.517C98.0566 147.828 97.1819 148.965 96.5696 149.839C95.9573 150.626 95.6949 151.063 95.6074 151.063C95.6074 151.063 95.8698 150.626 96.3947 149.751C96.9195 148.965 97.7068 147.741 98.7564 146.342C100.768 143.545 103.655 139.698 107.066 135.677C110.478 131.655 113.802 128.159 116.251 125.798C117.476 124.574 118.525 123.613 119.225 123.001C120.012 122.301 120.45 121.952 120.45 121.952Z" fill="#375A64"/>
<path d="M74.877 101.495C74.877 101.495 75.2268 101.757 75.8391 102.369C76.4515 102.981 77.2387 103.855 78.2009 104.992C80.2128 107.265 82.837 110.499 85.4611 114.171C88.0853 117.93 90.3596 121.427 91.8466 124.05C92.6339 125.361 93.1587 126.41 93.5086 127.197C93.8585 127.984 94.1209 128.333 94.0334 128.421C94.0334 128.421 93.771 128.071 93.3337 127.284C92.8963 126.497 92.284 125.448 91.4967 124.224C89.9222 121.689 87.7354 118.192 85.0238 114.433C82.3996 110.674 79.7754 107.44 77.851 105.167C76.8888 104.03 76.189 103.156 75.5767 102.457C75.1394 101.845 74.877 101.495 74.877 101.495Z" fill="#375A64"/>
<path d="M109.078 70.4609C109.078 70.4609 108.991 70.898 108.641 71.6848C108.291 72.559 107.854 73.6955 107.329 75.0942C106.192 77.9791 104.705 81.913 103.043 86.2841C101.381 90.6551 99.9812 94.6764 99.019 97.5613C98.4941 98.96 98.1443 100.097 97.7944 100.971C97.532 101.757 97.357 102.195 97.2695 102.195C97.2695 102.195 97.357 101.757 97.6194 100.883C97.8818 100.097 98.2317 98.8726 98.6691 97.3865C99.6313 94.4142 100.943 90.3928 102.605 86.0218C104.267 81.6508 105.842 77.7168 107.066 74.832C107.679 73.4332 108.204 72.2968 108.553 71.51C108.903 70.8106 109.078 70.4609 109.078 70.4609Z" fill="#375A64"/>
<path d="M192.701 111.549C199.087 112.335 200.049 118.892 202.411 124.399C204.773 129.907 209.321 134.802 212.733 139.698C214.57 142.321 217.106 144.594 217.719 147.741C218.418 150.975 216.931 154.297 216.232 157.532C215.532 160.854 216.057 164.788 219.206 166.274C218.506 167.061 217.369 167.585 216.319 167.498C216.319 168.984 214.832 170.295 213.257 170.732C211.683 171.169 210.021 170.907 208.359 170.645C208.796 171.606 207.834 172.83 206.784 173.267C205.647 173.705 204.423 173.442 203.286 173.267C202.148 173.005 200.924 172.743 199.787 173.005C197.162 173.53 195.588 176.502 192.964 176.852C189.377 177.376 186.753 172.743 183.254 173.53C181.592 173.879 180.455 175.366 179.056 176.327C177.656 177.289 175.382 177.027 174.682 175.628C172.758 177.988 169.784 180.349 166.722 180.96C167.159 179.911 166.897 178.6 166.11 177.813C164.448 179.212 162.348 180.086 160.162 180.436C161.474 179.212 162.261 177.376 162.173 175.715C160.774 176.852 158.675 177.289 156.925 176.852C160.162 175.016 160.424 170.732 159.287 167.585C158.15 164.438 155.963 161.553 155.526 158.144C155.088 154.472 159.374 149.839 158.5 146.255C157.188 140.747 157.275 137.338 157.537 132.18C157.712 128.77 159.199 125.798 160.686 122.651C162.611 118.63 165.148 115.745 169.171 113.472C172.583 111.549 177.394 109.8 181.33 109.713C188.24 109.538 191.039 109.363 196.55 113.035" fill="#1A2E35"/>
<path d="M171.446 156.745C169.259 152.287 167.16 147.741 165.848 143.02C164.536 138.299 164.011 133.142 165.06 128.333C165.235 127.634 166.81 122.651 167.597 122.564C168.122 122.564 167.335 127.11 167.685 127.547C170.834 131.568 172.233 136.726 172.496 141.884C172.67 146.954 172.233 151.675 171.446 156.745Z" fill="#1A2E35"/>
<path d="M201.624 198.62C194.014 199.494 175.645 191.451 174.595 183.846L168.385 138.037C166.373 125.798 171.709 114.434 184.042 112.685L185.179 112.598C196.726 111.636 207.048 119.766 208.885 131.218C210.634 141.796 212.383 153.598 212.733 159.368C213.521 171.257 201.799 174.055 201.799 174.055C201.799 174.055 202.062 176.765 202.499 180.261C203.549 188.042 202.324 196.522 201.624 198.62Z" fill="#FFBF9D"/>
<path d="M201.886 173.967C201.886 173.967 194.451 175.016 186.054 170.645C186.054 170.645 190.515 179.3 202.236 177.289L201.886 173.967Z" fill="#FF9A6C"/>
<path d="M204.511 141.534C204.598 142.408 203.986 143.282 203.024 143.37C202.062 143.457 201.274 142.845 201.187 141.971C201.1 141.097 201.712 140.223 202.674 140.135C203.549 140.048 204.423 140.66 204.511 141.534Z" fill="#1A2E35"/>
<path d="M206.785 136.638C206.61 136.901 205.211 136.026 203.374 136.201C201.537 136.289 200.312 137.338 200.05 137.163C199.962 137.075 200.137 136.638 200.662 136.201C201.187 135.764 202.149 135.24 203.286 135.152C204.423 135.065 205.386 135.415 205.998 135.764C206.698 136.114 206.873 136.551 206.785 136.638Z" fill="#1A2E35"/>
<path d="M187.366 142.845C187.454 143.719 186.842 144.594 185.879 144.681C184.917 144.769 184.13 144.157 184.042 143.282C183.955 142.408 184.567 141.534 185.53 141.447C186.404 141.359 187.191 141.971 187.366 142.845Z" fill="#1A2E35"/>
<path d="M188.94 138.474C188.766 138.737 187.366 137.862 185.529 138.037C183.692 138.125 182.467 139.174 182.205 138.999C182.118 138.911 182.293 138.474 182.817 138.037C183.342 137.6 184.304 137.076 185.442 136.988C186.579 136.901 187.541 137.25 188.153 137.6C188.853 138.037 189.028 138.387 188.94 138.474Z" fill="#1A2E35"/>
<path d="M196.638 152.024C196.638 151.937 197.775 151.675 199.525 151.238C199.962 151.15 200.4 151.063 200.487 150.713C200.575 150.363 200.312 149.839 200.05 149.314C199.525 148.265 199 147.041 198.388 145.905C196.026 141.009 194.364 136.988 194.539 136.901C194.714 136.813 196.813 140.747 199.088 145.643C199.612 146.867 200.225 148.003 200.662 149.139C200.924 149.664 201.274 150.189 201.012 150.975C200.924 151.325 200.575 151.587 200.312 151.675C200.05 151.762 199.787 151.85 199.525 151.85C197.775 152.024 196.638 152.112 196.638 152.024Z" fill="#1A2E35"/>
<path d="M188.241 131.656C188.066 132.18 186.229 131.83 184.042 131.918C181.855 132.005 180.106 132.53 179.843 132.093C179.756 131.83 180.018 131.393 180.805 130.956C181.505 130.519 182.642 130.169 183.954 130.082C185.267 129.995 186.404 130.257 187.191 130.694C187.978 131.044 188.328 131.481 188.241 131.656Z" fill="#1A2E35"/>
<path d="M206.086 132.442C205.736 132.879 204.249 132.617 202.412 132.792C200.663 132.879 199.175 133.404 198.738 132.967C198.563 132.792 198.738 132.355 199.35 131.918C199.963 131.481 201.012 131.044 202.237 130.956C203.462 130.869 204.599 131.131 205.211 131.481C205.911 131.743 206.173 132.18 206.086 132.442Z" fill="#1A2E35"/>
<path d="M170.047 146.779C169.872 146.692 161.649 145.031 162.611 153.161C163.486 161.291 171.446 158.668 171.446 158.406C171.446 158.144 170.047 146.779 170.047 146.779Z" fill="#FFBF9D"/>
<path d="M168.647 155.609C168.647 155.609 168.56 155.696 168.297 155.871C168.035 156.046 167.685 156.133 167.248 156.046C166.373 155.871 165.498 154.56 165.236 153.074C165.148 152.374 165.236 151.587 165.411 150.975C165.586 150.364 165.936 149.926 166.373 149.752C166.81 149.577 167.16 149.839 167.248 150.014C167.423 150.189 167.335 150.364 167.423 150.364C167.423 150.364 167.598 150.189 167.51 149.839C167.423 149.664 167.335 149.489 167.16 149.402C166.985 149.227 166.635 149.227 166.373 149.315C165.761 149.402 165.236 150.101 165.061 150.713C164.798 151.413 164.711 152.199 164.798 152.986C165.061 154.647 166.023 156.046 167.248 156.221C167.86 156.308 168.297 156.046 168.472 155.871C168.647 155.784 168.735 155.609 168.647 155.609Z" fill="#FF9A6C"/>
<path d="M202.062 118.455C203.286 117.581 198.825 113.822 195.414 112.773C190.253 111.199 182.73 110.675 178.356 112.51C173.108 114.696 168.997 117.93 166.898 123.176C164.798 128.421 164.448 134.278 165.323 139.873C165.585 141.621 165.935 143.37 167.073 144.681C168.385 146.342 170.746 147.216 170.921 149.664C171.009 150.538 171.359 151.412 172.058 152.024C173.72 153.423 175.382 151.762 175.995 150.101C177.394 146.692 177.132 142.933 176.869 139.261C176.694 136.638 176.432 134.016 175.382 131.655C174.858 130.344 174.07 129.12 173.545 127.809C173.021 126.498 172.933 124.924 173.633 123.7C173.72 123.525 173.983 123.263 174.245 122.913C176.257 120.64 179.406 119.679 182.468 120.291C187.191 121.34 195.326 122.826 197.163 120.99C199.787 118.455 200.312 116.881 200.312 116.881L202.062 118.455Z" fill="#1A2E35"/>
<path d="M191.74 153.598C191.653 153.598 191.653 154.035 191.828 154.735C192.09 155.434 192.615 156.308 193.577 156.92C194.539 157.532 195.414 157.882 196.114 157.969C196.813 158.144 197.251 158.144 197.251 158.056C197.251 157.969 196.901 157.707 196.289 157.445C195.676 157.182 194.802 156.745 194.014 156.221C192.44 155.172 192.002 153.511 191.74 153.598Z" fill="#1A2E35"/>
<path d="M170.31 147.828C170.397 148.003 170.485 148.09 170.485 148.265C170.572 148.265 170.485 148.09 170.31 147.828Z" fill="#25C883"/>
<path d="M167.598 146.604C167.598 146.604 168.997 144.856 170.397 147.828C168.735 143.894 157.451 115.133 188.241 111.374C188.241 111.374 177.132 109.451 170.397 114.958C170.397 114.958 156.751 123.088 167.598 146.604Z" fill="#375A64"/>
<path d="M226.379 291.46L154.826 292.422C154.826 292.422 134.795 284.029 129.284 283.854C123.773 283.592 112.839 284.292 107.853 292.422C102.605 300.814 101.905 315.588 118 326.341C133.658 336.831 205.21 346.535 215.007 345.573L233.114 321.27C233.114 321.27 233.289 301.426 233.114 300.464C232.939 299.503 229.878 291.023 229.878 291.023L226.379 291.46Z" fill="#1A2E35"/>
<path d="M183.605 325.03L146.517 338.755L163.399 384.913C167.685 382.989 167.86 355.889 167.86 355.889L192.002 348.021L183.605 325.03Z" fill="#25C883"/>
<g opacity="0.6">
<path d="M164.623 340.94C164.011 340.153 162.786 339.891 161.999 340.415C161.212 340.94 160.949 342.164 161.474 343.038C161.999 343.825 163.486 344.175 164.273 343.563C165.061 342.951 165.236 341.465 164.536 340.765" fill="white"/>
</g>
<path d="M146.517 338.842L150.278 337.443L165.148 382.29C165.148 382.29 164.973 384.65 163.486 385L146.517 338.842Z" fill="#1A2E35"/>
<path d="M168.385 356.676C168.122 356.763 167.685 355.627 166.548 354.84C165.411 353.966 164.273 353.791 164.273 353.529C164.273 353.266 165.673 353.179 167.073 354.228C168.385 355.19 168.56 356.588 168.385 356.676Z" fill="#1A2E35"/>
<path d="M168.122 362.183C167.947 362.358 167.16 361.484 165.936 361.047C164.711 360.61 163.574 360.785 163.574 360.522C163.486 360.347 164.711 359.648 166.285 360.26C167.772 360.872 168.385 362.096 168.122 362.183Z" fill="#1A2E35"/>
<path d="M163.311 367.079C163.224 366.904 164.186 366.205 165.673 366.292C167.16 366.379 168.035 367.254 167.86 367.428C167.685 367.603 166.81 367.166 165.585 367.079C164.448 366.991 163.486 367.341 163.311 367.079Z" fill="#1A2E35"/>
<path d="M173.633 354.228C173.371 354.228 173.284 353.092 172.759 351.78C172.234 350.556 171.447 349.682 171.622 349.507C171.709 349.332 172.934 349.944 173.546 351.431C174.246 353.004 173.896 354.315 173.633 354.228Z" fill="#1A2E35"/>
<path d="M178.707 351.168C178.619 351.168 178.182 350.382 177.832 348.808C177.657 348.021 177.657 347.147 177.657 346.098C177.657 345.573 177.745 345.049 177.92 344.524C178.007 344.262 178.007 344 178.182 343.65C178.357 343.3 178.882 342.951 179.319 343.126C179.757 343.213 180.106 343.563 180.194 343.912C180.369 344.262 180.369 344.524 180.369 344.787C180.456 345.311 180.456 345.923 180.369 346.448C180.281 347.497 180.019 348.371 179.757 349.07C179.144 350.469 178.444 351.168 178.357 351.081C178.27 350.993 178.794 350.207 179.144 348.808C179.319 348.109 179.494 347.234 179.582 346.36C179.582 345.923 179.582 345.399 179.494 344.874C179.407 344.349 179.319 343.912 179.057 343.912C178.969 343.912 178.882 343.912 178.794 344.087C178.707 344.262 178.619 344.524 178.619 344.787C178.532 345.311 178.444 345.748 178.357 346.273C178.27 347.234 178.27 348.109 178.357 348.808C178.619 350.207 178.882 351.081 178.707 351.168Z" fill="#1A2E35"/>
<path d="M178.357 350.993C178.269 350.906 178.969 350.207 180.369 349.595C181.069 349.332 181.943 349.07 182.993 348.983C183.518 348.983 184.043 348.983 184.655 349.07C185.18 349.157 185.967 349.245 186.404 350.119C186.579 350.556 186.404 351.081 186.142 351.343C185.88 351.605 185.617 351.78 185.355 351.868C184.83 352.13 184.305 352.305 183.78 352.479C182.731 352.654 181.768 352.567 181.069 352.392C179.582 351.955 178.969 351.081 178.969 351.081C179.057 350.993 179.756 351.605 181.156 351.868C181.856 352.042 182.731 352.042 183.605 351.78C184.043 351.693 184.48 351.518 184.917 351.256C185.355 350.993 185.705 350.644 185.617 350.469C185.53 350.207 185.005 349.944 184.567 349.944C184.043 349.857 183.605 349.857 183.08 349.857C182.118 349.857 181.331 350.032 180.631 350.294C179.144 350.556 178.357 351.081 178.357 350.993Z" fill="#1A2E35"/>
<path d="M214.132 319.347L249.996 335.957L229.527 380.629C225.416 378.443 227.428 351.343 227.428 351.343L203.985 341.639L214.132 319.347Z" fill="#25C883"/>
<g opacity="0.6">
<path d="M231.801 336.744C232.413 335.957 233.638 335.87 234.425 336.394C235.213 337.006 235.388 338.23 234.775 339.017C234.163 339.803 232.676 339.978 231.976 339.366C231.276 338.667 231.189 337.181 231.976 336.569" fill="white"/>
</g>
<path d="M249.996 335.957L246.41 334.296L228.128 377.832C228.128 377.832 228.04 380.192 229.615 380.629L249.996 335.957Z" fill="#1A2E35"/>
<path d="M226.903 352.042C227.165 352.13 227.69 351.081 228.915 350.294C230.052 349.507 231.277 349.42 231.277 349.158C231.364 348.895 229.877 348.633 228.478 349.595C226.991 350.556 226.641 351.955 226.903 352.042Z" fill="#1A2E35"/>
<path d="M226.641 357.637C226.816 357.812 227.604 357.025 228.916 356.676C230.14 356.326 231.278 356.588 231.365 356.326C231.452 356.151 230.315 355.365 228.741 355.802C227.166 356.239 226.467 357.55 226.641 357.637Z" fill="#1A2E35"/>
<path d="M231.015 362.795C231.189 362.62 230.227 361.833 228.74 361.833C227.253 361.833 226.378 362.62 226.466 362.795C226.553 362.97 227.516 362.62 228.74 362.62C229.965 362.708 230.927 363.057 231.015 362.795Z" fill="#1A2E35"/>
<path d="M221.743 349.245C222.005 349.245 222.18 348.109 222.792 346.885C223.405 345.661 224.279 344.874 224.104 344.699C224.017 344.524 222.792 345.049 222.005 346.448C221.305 347.934 221.568 349.245 221.743 349.245Z" fill="#1A2E35"/>
<path d="M216.931 345.748C217.018 345.836 217.543 344.961 217.98 343.475C218.155 342.776 218.33 341.814 218.33 340.765C218.33 340.241 218.33 339.716 218.243 339.192C218.243 338.929 218.155 338.58 218.068 338.318C217.98 337.968 217.456 337.531 216.931 337.706C216.493 337.793 216.144 338.143 215.969 338.405C215.794 338.755 215.794 339.017 215.706 339.279C215.619 339.804 215.531 340.416 215.531 340.853C215.531 341.902 215.706 342.776 215.969 343.563C216.493 345.049 217.106 345.748 217.193 345.748C217.281 345.661 216.843 344.874 216.581 343.475C216.406 342.776 216.319 341.902 216.406 340.94C216.406 340.503 216.493 339.979 216.581 339.454C216.668 338.929 216.843 338.492 217.106 338.492C217.193 338.492 217.281 338.492 217.368 338.667C217.456 338.842 217.456 339.104 217.543 339.367C217.631 339.891 217.631 340.416 217.718 340.853C217.718 341.814 217.631 342.689 217.543 343.388C217.193 344.787 216.843 345.661 216.931 345.748Z" fill="#1A2E35"/>
<path d="M217.369 345.573C217.456 345.486 216.844 344.699 215.444 344C214.745 343.65 213.87 343.3 212.82 343.213C212.295 343.125 211.771 343.125 211.158 343.125C210.633 343.213 209.846 343.213 209.409 344C209.146 344.437 209.409 344.961 209.584 345.224C209.846 345.486 210.109 345.661 210.284 345.836C210.808 346.185 211.246 346.36 211.771 346.535C212.82 346.797 213.782 346.797 214.482 346.622C216.057 346.273 216.757 345.486 216.669 345.398C216.582 345.311 215.794 345.836 214.395 346.01C213.695 346.098 212.82 346.01 211.946 345.748C211.508 345.573 211.071 345.398 210.633 345.136C210.196 344.874 209.846 344.524 210.021 344.349C210.109 344.087 210.633 343.912 211.071 343.912C211.596 343.825 212.033 343.912 212.558 343.912C213.52 344 214.307 344.262 215.007 344.524C216.582 345.049 217.281 345.661 217.369 345.573Z" fill="#1A2E35"/>
<path d="M229.965 291.11C229.965 291.11 260.843 279.571 272.215 281.057C278.6 281.931 288.484 286.739 289.272 294.869C290.059 302.999 288.047 313.927 277.026 319.172C266.004 324.505 222.18 344.175 211.771 347.147C201.362 350.207 175.382 357.288 175.382 357.288L165.498 329.138C165.498 329.138 219.381 310.518 222.18 308.42C224.979 306.321 232.24 303.524 232.24 303.524L229.965 291.11Z" fill="#1A2E35"/>
<path d="M122.637 294.957C122.637 294.957 122.724 294.957 122.812 294.869C122.987 294.782 123.162 294.782 123.424 294.695C123.949 294.52 124.736 294.257 125.786 294.083C126.835 293.82 128.147 293.558 129.635 293.383C131.122 293.208 132.871 293.208 134.795 293.383C136.72 293.558 138.819 293.908 141.006 294.52C142.056 294.869 143.193 295.219 144.242 295.831C145.292 296.356 146.429 296.88 147.566 297.492C152.202 299.678 157.363 301.95 162.874 304.136C173.896 308.507 184.48 310.605 192.002 312.353C195.764 313.228 198.825 313.84 200.925 314.364C201.974 314.626 202.762 314.801 203.374 314.976C203.636 315.064 203.811 315.064 203.986 315.151C204.161 315.151 204.161 315.151 204.161 315.151C204.161 315.151 204.074 315.151 203.986 315.064C203.811 314.976 203.636 314.976 203.374 314.889C202.849 314.714 201.974 314.539 200.925 314.277C198.825 313.752 195.764 313.053 192.002 312.179C184.48 310.43 173.983 308.245 162.962 303.874C157.451 301.688 152.29 299.415 147.654 297.23C146.517 296.705 145.38 296.093 144.33 295.569C143.193 295.044 142.143 294.607 141.006 294.257C138.819 293.558 136.72 293.296 134.795 293.121C132.871 292.946 131.122 293.034 129.547 293.121C127.973 293.296 126.748 293.558 125.698 293.82C124.649 294.083 123.861 294.345 123.337 294.52C123.074 294.607 122.899 294.695 122.724 294.782C122.637 294.869 122.637 294.957 122.637 294.957Z" fill="#375A64"/>
<path d="M124.211 290.848C124.211 290.936 125.173 290.761 126.66 290.586C128.147 290.411 130.247 290.324 132.608 290.411C134.883 290.498 136.982 290.848 138.469 291.198C139.956 291.548 140.831 291.81 140.918 291.722C140.918 291.722 140.743 291.635 140.306 291.46C139.869 291.285 139.344 291.11 138.556 290.936C137.069 290.586 134.97 290.149 132.608 290.061C130.247 289.974 128.147 290.149 126.66 290.324C125.873 290.411 125.261 290.586 124.911 290.673C124.473 290.761 124.211 290.848 124.211 290.848Z" fill="#375A64"/>
<path d="M242.998 299.24C242.998 299.328 243.873 298.628 245.36 297.667C246.847 296.793 248.946 295.656 251.483 294.694C254.02 293.82 256.381 293.383 258.043 293.121C259.793 292.946 260.842 292.859 260.842 292.859C260.842 292.859 260.58 292.859 260.055 292.859C259.53 292.859 258.831 292.859 257.956 292.946C256.206 293.121 253.845 293.558 251.308 294.432C248.771 295.306 246.672 296.53 245.185 297.492C244.485 298.016 243.873 298.366 243.523 298.716C243.173 299.066 242.998 299.24 242.998 299.24Z" fill="#375A64"/>
<path d="M227.428 341.202C227.428 341.202 227.341 341.202 227.166 341.29C226.991 341.377 226.728 341.465 226.466 341.552C225.854 341.814 224.979 342.251 223.754 342.688C221.393 343.65 217.806 344.961 213.258 346.448C204.16 349.42 191.04 353.266 175.295 357.2L175.469 357.288C172.583 349.158 169.346 340.241 165.935 330.799L165.848 330.974C169.609 329.401 173.633 327.827 177.656 326.166C203.723 315.413 227.166 305.797 243.086 299.24C245.71 296.443 248.159 293.908 250.521 291.897C252.795 289.886 254.895 288.313 256.731 287.176C258.568 286.04 259.968 285.341 261.018 284.816C261.542 284.554 261.892 284.379 262.155 284.292C262.417 284.204 262.505 284.117 262.505 284.117C262.505 284.117 262.33 284.204 262.067 284.292C261.805 284.379 261.455 284.554 260.93 284.816C259.968 285.341 258.481 286.04 256.644 287.176C254.807 288.313 252.708 289.799 250.346 291.81C248.072 293.82 245.535 296.268 242.911 299.066C226.991 305.622 203.548 315.238 177.394 325.904C173.37 327.565 169.346 329.226 165.585 330.799L165.41 330.887L165.498 331.062C168.909 340.503 172.146 349.42 175.032 357.55L175.12 357.637H175.295C190.952 353.616 204.073 349.857 213.17 346.797C217.719 345.311 221.305 343.912 223.667 342.951C224.891 342.514 225.766 341.989 226.378 341.727C226.641 341.552 226.903 341.465 227.078 341.377C227.428 341.29 227.428 341.202 227.428 341.202Z" fill="#375A64"/>
<path d="M151.152 192.762C151.152 192.762 142.23 197.92 140.48 203.865C139.343 207.537 131.121 254.219 129.809 263.486C128.497 272.752 131.296 279.484 135.232 282.543C139.168 285.603 151.065 289.712 151.065 289.712L167.859 295.132L172.67 282.893L156.575 259.989L158.15 244.515L151.152 192.762Z" fill="#25C883"/>
<path d="M168.647 184.632L174.157 180.524C174.157 180.524 181.418 187.954 189.728 187.08C198.037 186.206 202.936 179.824 202.936 179.824L227.691 184.895C229.353 185.244 232.414 186.293 235.301 190.402C238.537 195.035 253.845 215.492 253.845 215.492H264.604C267.578 215.492 270.29 217.153 271.689 219.775C273.526 223.272 275.713 227.906 275.538 229.829C275.188 233.063 275.8 242.068 271.427 244.865C270.027 245.739 265.041 248.449 261.193 248.274C255.507 248.012 248.859 245.04 245.098 242.417C241.861 240.144 234.339 232.364 231.452 229.304V229.392L229.615 294.258L164.71 292.422L151.24 192.85C151.152 192.762 167.947 184.632 168.647 184.632Z" fill="#25C883"/>
<path d="M231.543 219.99C231.66 210.046 231.677 201.983 231.58 201.982C231.484 201.98 231.31 210.041 231.193 219.986C231.076 229.931 231.059 237.994 231.155 237.995C231.252 237.996 231.425 229.935 231.543 219.99Z" fill="#1A2E35"/>
<path d="M143.279 254.481C143.279 254.481 143.804 254.569 144.854 254.743C145.816 254.918 147.216 255.268 148.878 256.055C150.54 256.754 152.376 257.891 154.213 259.289C156.05 260.688 157.975 262.524 159.812 264.535C161.649 266.545 163.398 268.556 164.972 270.304C166.547 272.053 168.034 273.626 169.434 274.763C170.746 275.987 171.883 276.861 172.758 277.385C173.195 277.648 173.545 277.91 173.72 277.997C173.982 278.172 174.07 278.172 174.07 278.172C174.07 278.172 173.982 278.085 173.72 277.91C173.545 277.735 173.195 277.56 172.758 277.211C171.97 276.599 170.833 275.724 169.521 274.501C168.209 273.277 166.722 271.703 165.147 269.955C163.573 268.206 161.911 266.196 159.987 264.185C158.15 262.174 156.225 260.426 154.301 258.94C152.376 257.541 150.54 256.404 148.878 255.705C147.216 255.006 145.816 254.656 144.766 254.481C144.241 254.394 143.892 254.394 143.629 254.306C143.367 254.481 143.279 254.481 143.279 254.481Z" fill="#1A2E35"/>
<path d="M141.793 250.11C141.793 250.198 142.755 250.285 144.33 250.722C145.904 251.159 148.004 251.946 150.103 253.17C152.202 254.394 153.864 255.88 155.001 257.017C156.138 258.153 156.663 258.94 156.751 258.94C156.751 258.94 156.663 258.678 156.401 258.328C156.138 257.978 155.701 257.454 155.176 256.842C154.127 255.618 152.377 254.132 150.278 252.82C148.178 251.597 145.992 250.81 144.417 250.46C143.63 250.285 143.018 250.198 142.493 250.11C142.055 250.11 141.793 250.11 141.793 250.11Z" fill="#1A2E35"/>
<g opacity="0.3">
<path d="M262.592 238.746C259.181 239.707 255.069 234.724 251.92 231.665C250.258 230.091 248.596 228.343 247.984 226.157C247.459 224.321 247.809 222.398 248.509 220.65C249.209 218.901 249.734 217.765 250.783 216.191C250.521 218.814 249.821 222.923 250.696 226.332C251.483 229.129 253.232 231.315 255.069 233.5C257.169 235.599 259.531 237.959 262.592 238.746Z" fill="black"/>
</g>
<path d="M247.897 235.861C247.985 235.861 247.547 234.724 247.285 232.889C247.11 231.927 247.022 230.878 246.935 229.567C246.935 228.343 247.022 226.944 247.197 225.545C247.46 224.146 247.81 222.835 248.159 221.611C248.597 220.475 249.034 219.426 249.472 218.552C250.346 216.891 251.046 215.929 251.046 215.929C251.046 215.929 250.871 216.104 250.521 216.541C250.346 216.716 250.171 216.978 249.996 217.328C249.821 217.677 249.559 218.027 249.297 218.464C248.859 219.251 248.334 220.3 247.897 221.524C247.46 222.748 247.11 224.059 246.847 225.545C246.585 227.031 246.585 228.343 246.585 229.654C246.672 230.878 246.76 232.014 246.935 232.976C247.022 233.413 247.11 233.85 247.197 234.2C247.285 234.55 247.372 234.899 247.46 235.161C247.81 235.599 247.897 235.861 247.897 235.861Z" fill="#1A2E35"/>
<path d="M200.224 182.359C200.137 182.447 200.924 182.884 201.711 183.583C202.499 184.283 203.024 184.982 203.111 184.982C203.199 184.982 202.761 184.108 201.886 183.408C201.099 182.622 200.224 182.272 200.224 182.359Z" fill="#1A2E35"/>
<path d="M193.401 186.293C193.314 186.381 194.013 187.08 194.538 188.129C195.063 189.178 195.238 190.14 195.325 190.052C195.413 190.052 195.325 189.003 194.801 187.954C194.276 186.818 193.488 186.206 193.401 186.293Z" fill="#1A2E35"/>
<path d="M181.855 190.315C181.943 190.315 182.205 189.441 182.555 188.392C182.905 187.342 183.342 186.468 183.255 186.468C183.167 186.468 182.643 187.255 182.293 188.304C181.943 189.353 181.768 190.315 181.855 190.315Z" fill="#1A2E35"/>
<path d="M174.42 186.818C174.507 186.818 174.77 185.681 175.47 184.545C176.169 183.321 177.044 182.622 177.044 182.534C177.044 182.447 175.994 183.146 175.207 184.37C174.42 185.594 174.332 186.818 174.42 186.818Z" fill="#1A2E35"/>
<path d="M155.877 227.581C154.432 216.667 153.182 207.831 153.087 207.843C152.991 207.856 154.085 216.713 155.53 227.627C156.975 238.54 158.224 247.377 158.32 247.364C158.416 247.352 157.322 238.494 155.877 227.581Z" fill="#1A2E35"/>
<path d="M250.347 222.223C250.347 222.223 250.347 222.573 250.347 223.097C250.347 223.36 250.434 223.709 250.522 224.146C250.522 224.321 250.609 224.584 250.609 224.846C250.697 225.108 250.697 225.283 250.784 225.545C251.046 226.594 251.484 227.731 252.096 229.042C252.708 230.266 253.496 231.665 254.458 232.888C255.42 234.2 256.557 235.249 257.607 236.123C258.744 236.997 259.794 237.697 260.756 238.046C261.018 238.134 261.193 238.221 261.456 238.309C261.718 238.396 261.893 238.396 262.068 238.483C262.243 238.571 262.418 238.571 262.593 238.658C262.768 238.658 262.943 238.746 263.118 238.746C263.73 238.833 263.992 238.833 263.992 238.833C263.992 238.746 262.68 238.746 260.756 237.871C259.794 237.434 258.744 236.735 257.694 235.948C256.645 235.074 255.595 233.938 254.633 232.714C253.671 231.49 252.883 230.178 252.271 228.955C251.659 227.731 251.221 226.594 250.959 225.545C250.434 223.534 250.434 222.223 250.347 222.223Z" fill="#1A2E35"/>
<g opacity="0.3">
<path d="M155.176 296.356C152.465 295.044 151.765 291.46 151.502 288.4C150.715 279.483 149.84 270.566 149.053 261.65C148.703 257.453 148.441 252.645 151.415 249.673C154.126 246.963 158.413 246.788 162.261 246.788C186.054 246.876 206.96 247.575 230.752 247.575L229.528 289.1L155.176 296.356Z" fill="black"/>
</g>
<path d="M240.987 254.131L238.45 302.3C238.363 304.136 236.788 305.622 234.951 305.622L158.238 305.797C156.314 305.797 154.827 304.311 154.739 302.475L151.853 255.093C151.765 253.17 153.165 250.547 155.176 250.46H237.576C239.413 250.372 241.074 252.121 240.987 254.131Z" fill="#E1E1E1"/>
<path d="M240.987 254.131C240.987 254.131 240.987 254.044 240.987 253.957C240.987 253.869 240.987 253.694 240.987 253.432C240.9 252.995 240.725 252.208 240.112 251.596C239.763 251.247 239.325 250.897 238.8 250.722C238.276 250.46 237.576 250.46 236.963 250.46C235.651 250.46 234.077 250.46 232.327 250.46C225.33 250.46 215.183 250.46 202.587 250.372C189.991 250.372 175.12 250.372 158.501 250.372C157.451 250.372 156.401 250.372 155.352 250.372C154.827 250.372 154.214 250.46 153.777 250.809C153.34 251.072 152.902 251.509 152.64 251.946C152.028 252.82 151.678 253.957 151.678 255.093C151.765 256.142 151.765 257.279 151.853 258.328C152.115 262.699 152.378 267.07 152.64 271.616C153.165 280.62 153.777 289.974 154.389 299.503L154.477 301.251C154.564 301.863 154.477 302.388 154.652 303.087C154.914 304.311 155.789 305.36 156.926 305.797C157.538 306.059 158.151 306.059 158.763 306.059H160.512C161.65 306.059 162.874 306.059 164.011 306.059C168.647 306.059 173.283 306.059 177.832 306.059C186.842 306.059 195.589 306.059 203.899 305.972C212.209 305.972 220.081 305.972 227.429 305.884C229.266 305.884 231.103 305.884 232.852 305.884C233.29 305.884 233.727 305.884 234.164 305.884C234.602 305.884 235.039 305.884 235.476 305.884C236.351 305.797 237.226 305.272 237.751 304.573C238.363 303.874 238.625 303 238.625 302.125C238.625 301.251 238.713 300.464 238.713 299.678C238.8 298.017 238.888 296.443 238.975 294.869C239.588 282.368 240.112 272.227 240.462 265.146C240.637 261.65 240.725 258.94 240.812 257.104C240.812 256.23 240.9 255.443 240.9 255.006C240.987 254.394 240.987 254.131 240.987 254.131C240.987 254.131 240.987 254.394 240.9 254.831C240.9 255.268 240.812 256.055 240.812 256.929C240.725 258.765 240.55 261.475 240.375 264.972C240.025 271.965 239.413 282.106 238.8 294.607C238.713 296.181 238.625 297.754 238.538 299.415C238.451 300.202 238.45 301.076 238.363 301.863C238.363 302.65 238.101 303.524 237.576 304.136C237.051 304.748 236.264 305.185 235.476 305.272C235.039 305.36 234.602 305.272 234.164 305.272C233.727 305.272 233.29 305.272 232.852 305.272C231.103 305.272 229.266 305.272 227.429 305.272C220.081 305.272 212.121 305.272 203.899 305.272C195.589 305.272 186.842 305.272 177.832 305.272C173.283 305.272 168.735 305.272 164.011 305.272C162.874 305.272 161.65 305.272 160.512 305.272H158.763C158.151 305.272 157.626 305.272 157.101 305.01C156.051 304.66 155.177 303.699 155.002 302.562C154.914 302.038 154.914 301.426 154.827 300.814L154.739 299.066C154.127 289.537 153.602 280.183 152.99 271.178C152.727 266.633 152.465 262.262 152.203 257.891C152.115 256.841 152.115 255.705 152.028 254.656C152.028 253.607 152.378 252.558 152.902 251.771C153.427 250.897 154.389 250.285 155.439 250.372C156.489 250.372 157.538 250.372 158.588 250.372C175.208 250.372 190.166 250.372 202.674 250.372C215.183 250.372 225.417 250.372 232.415 250.285C234.164 250.285 235.739 250.285 237.051 250.285C237.751 250.285 238.363 250.285 238.888 250.547C239.413 250.722 239.85 251.072 240.112 251.421C240.725 252.121 240.987 252.82 241.075 253.257C240.987 253.869 240.9 254.131 240.987 254.131Z" fill="#1A2E35"/>
<path d="M195.763 282.106C198.276 282.106 200.312 280.071 200.312 277.56C200.312 275.05 198.276 273.014 195.763 273.014C193.251 273.014 191.215 275.05 191.215 277.56C191.215 280.071 193.251 282.106 195.763 282.106Z" fill="white"/>
<path d="M191.215 277.56C191.215 277.56 191.215 277.123 191.39 276.511C191.565 275.812 192.002 274.85 193.052 274.063C193.577 273.714 194.189 273.364 194.889 273.277C195.588 273.189 196.376 273.189 197.163 273.451C197.95 273.714 198.65 274.238 199.175 274.938C199.7 275.637 200.05 276.599 200.05 277.473C200.05 278.434 199.7 279.309 199.175 280.008C198.65 280.707 197.95 281.232 197.163 281.494C196.376 281.756 195.588 281.844 194.889 281.669C194.189 281.582 193.577 281.232 193.052 280.882C192.002 280.095 191.565 279.134 191.39 278.434C191.215 277.997 191.302 277.56 191.215 277.56C191.215 277.56 191.215 277.648 191.215 277.822C191.215 277.997 191.215 278.26 191.302 278.609C191.477 279.309 191.915 280.358 192.964 281.144C193.489 281.582 194.101 281.931 194.889 282.019C195.676 282.193 196.551 282.106 197.338 281.844C198.125 281.582 198.912 280.97 199.525 280.183C200.137 279.396 200.399 278.434 200.399 277.385C200.399 276.336 200.05 275.375 199.525 274.588C199 273.801 198.213 273.277 197.338 272.927C196.551 272.577 195.676 272.577 194.889 272.752C194.101 272.927 193.489 273.277 192.964 273.626C191.915 274.413 191.477 275.462 191.302 276.161C191.215 276.511 191.215 276.773 191.215 276.948C191.215 277.473 191.215 277.56 191.215 277.56Z" fill="#1A2E35"/>
<path d="M237.908 277.554C238.283 267.567 238.508 259.468 238.412 259.464C238.315 259.46 237.933 267.554 237.558 277.541C237.184 287.528 236.958 295.627 237.055 295.631C237.151 295.634 237.533 287.541 237.908 277.554Z" fill="#1A2E35"/>
<path d="M261.456 196.609C261.893 196.259 259.969 188.654 259.969 188.654C259.969 188.654 265.217 180.174 265.305 177.464C265.479 174.754 263.293 169.071 263.293 169.071L248.335 165.225C248.335 165.225 243.524 174.142 242.562 177.289C241.599 180.436 244.224 191.101 244.224 191.101L246.76 196.609C246.673 196.609 254.283 202.641 261.456 196.609Z" fill="#FFBF9D"/>
<path d="M265.217 179.037C265.217 179.037 265.829 177.901 266.791 175.715C267.753 173.442 268.89 171.257 266.791 170.033C265.566 169.334 264.517 169.683 264.517 169.683C264.517 169.683 264.867 167.76 263.73 167.061C262.592 166.361 261.543 166.886 261.543 166.886C261.543 166.886 261.893 164.263 260.318 163.127C258.306 161.728 256.207 163.039 256.207 163.039C256.207 163.039 257.519 151.412 257.606 150.8C258.044 148.527 257.169 146.517 254.895 147.129C254.108 147.304 253.583 148.178 252.621 152.024C251.658 155.783 250.084 162.253 250.084 162.253C250.084 162.253 247.46 166.798 246.235 169.246C245.01 171.694 242.561 177.376 242.386 178.862C241.861 182.709 244.136 187.779 244.136 187.779L260.056 188.741C259.881 188.653 264.604 180.174 265.217 179.037Z" fill="#FFBF9D"/>
<path d="M264.255 170.208C264.255 170.208 263.73 170.82 263.03 171.956C262.68 172.568 262.243 173.18 261.806 173.879C261.543 174.229 261.281 174.666 261.106 175.103C260.931 175.54 260.756 176.065 260.931 176.589C261.018 177.114 261.368 177.639 261.893 177.726C262.418 177.901 262.943 177.726 263.293 177.551C263.73 177.376 264.08 177.114 264.342 176.939C264.692 176.677 264.955 176.502 265.217 176.327C265.742 175.89 266.092 175.54 266.442 175.366C266.704 175.103 266.879 174.928 266.792 174.928C266.792 174.928 266.092 175.366 265.042 176.152C264.517 176.502 263.905 177.027 263.118 177.376C262.768 177.551 262.33 177.639 261.893 177.551C261.456 177.464 261.193 177.027 261.106 176.589C261.018 176.152 261.106 175.715 261.281 175.278C261.456 174.841 261.718 174.491 261.893 174.142C262.33 173.442 262.768 172.743 263.118 172.218C263.905 170.907 264.255 170.208 264.255 170.208Z" fill="#FF9A6C"/>
<path d="M251.221 171.607C251.308 171.607 251.396 170.47 251.046 169.071C250.696 167.673 250.171 166.711 250.084 166.798C249.996 166.798 250.433 167.848 250.783 169.159C251.046 170.47 251.133 171.607 251.221 171.607Z" fill="#FF9A6C"/>
<path d="M244.923 175.016C246.322 173.53 248.247 172.656 250.259 172.218C252.271 171.781 254.282 171.781 256.294 171.956C257.869 172.131 259.793 172.481 260.493 173.967C261.28 175.453 260.318 177.376 258.918 178.25C257.519 179.125 255.682 179.125 254.02 178.95C252.358 178.775 250.696 178.513 249.034 178.775" fill="#FFBF9D"/>
<path d="M249.034 178.775C249.034 178.775 249.471 178.775 250.259 178.775C251.046 178.775 252.183 178.95 253.67 179.125C254.37 179.212 255.157 179.299 256.032 179.212C256.907 179.125 257.869 179.037 258.743 178.513C259.618 178.076 260.405 177.201 260.755 176.24C260.93 175.715 261.018 175.191 260.843 174.579C260.668 174.054 260.405 173.53 259.968 173.093C259.093 172.306 257.956 172.044 256.907 171.869C255.857 171.781 254.895 171.694 253.933 171.694C252.008 171.694 250.259 171.956 248.859 172.481C247.46 172.918 246.497 173.617 245.798 174.142C245.448 174.404 245.273 174.579 245.098 174.754C244.923 174.928 244.923 175.016 244.923 175.016C244.923 175.016 245.273 174.754 245.885 174.229C246.497 173.792 247.547 173.18 248.947 172.743C250.346 172.306 252.008 172.044 253.933 172.044C254.895 172.044 255.857 172.131 256.907 172.218C257.869 172.393 259.006 172.655 259.793 173.355C260.231 173.705 260.493 174.142 260.58 174.666C260.668 175.191 260.668 175.715 260.493 176.152C260.143 177.114 259.443 177.901 258.656 178.25C257.869 178.687 256.907 178.862 256.119 178.95C255.245 179.037 254.457 178.95 253.758 178.862C252.358 178.688 251.133 178.6 250.346 178.687C249.909 178.687 249.646 178.775 249.384 178.775C249.122 178.775 249.034 178.775 249.034 178.775Z" fill="#FF9A6C"/>
<path d="M264.166 170.382C262.504 172.918 261.017 175.715 259.618 178.425C259.18 179.212 258.743 179.999 258.043 180.523C257.431 180.873 255.944 180.261 255.244 179.999L259.793 169.596" fill="#FFBF9D"/>
<path d="M259.793 169.508C259.793 169.508 259.618 169.771 259.356 170.295C259.093 170.82 258.743 171.606 258.306 172.481C257.431 174.316 256.294 176.939 254.982 179.911L254.895 180.086L255.069 180.174C255.594 180.348 256.119 180.611 256.644 180.698C256.906 180.786 257.081 180.786 257.344 180.786C257.431 180.786 257.606 180.786 257.694 180.786C257.781 180.786 257.956 180.698 258.044 180.611C258.393 180.348 258.743 179.999 259.006 179.649C259.443 178.95 259.793 178.163 260.143 177.464C260.843 176.065 261.542 174.841 262.067 173.792C262.68 172.743 263.117 171.956 263.467 171.344C263.817 170.732 263.992 170.47 263.992 170.47C263.992 170.47 263.729 170.732 263.379 171.257C263.029 171.781 262.505 172.655 261.892 173.617C261.28 174.666 260.58 175.89 259.88 177.289C259.531 177.988 259.181 178.687 258.743 179.387C258.481 179.737 258.218 180.086 257.869 180.261C257.606 180.523 257.169 180.436 256.731 180.348C256.207 180.174 255.682 179.999 255.157 179.824L255.244 180.086C256.557 177.114 257.694 174.491 258.481 172.655C258.831 171.781 259.181 170.994 259.443 170.47C259.706 169.858 259.793 169.508 259.793 169.508Z" fill="#FF9A6C"/>
<path d="M261.018 166.449C259.53 170.12 258.043 173.879 256.556 177.551C256.207 178.338 255.944 179.125 255.332 179.737C254.807 180.349 253.932 180.873 253.145 180.698C252.008 180.523 251.221 179.299 251.221 178.163C251.133 177.027 251.658 175.89 252.008 174.841C253.32 171.432 254.37 168.022 255.157 164.438" fill="#FFBF9D"/>
<path d="M255.245 164.438C255.245 164.438 255.157 164.525 255.157 164.788C255.07 165.05 254.982 165.4 254.895 165.749C254.632 166.624 254.37 167.847 253.845 169.334C253.408 170.82 252.795 172.568 252.008 174.579C251.658 175.54 251.133 176.589 251.046 177.726C251.046 178.338 251.133 178.95 251.396 179.474C251.658 179.999 252.096 180.523 252.708 180.786C253.32 181.048 254.02 180.96 254.545 180.611C255.07 180.349 255.507 179.911 255.857 179.387C256.469 178.425 256.819 177.289 257.169 176.415C257.956 174.491 258.569 172.743 259.181 171.257C259.706 169.858 260.143 168.634 260.493 167.76C260.668 167.41 260.755 167.061 260.843 166.798C260.93 166.536 260.93 166.449 260.93 166.449C260.93 166.449 260.843 166.536 260.755 166.798C260.668 167.061 260.493 167.323 260.318 167.76C259.968 168.634 259.443 169.771 258.918 171.169C258.306 172.656 257.606 174.404 256.819 176.327C256.382 177.289 256.119 178.338 255.507 179.299C255.245 179.737 254.807 180.174 254.282 180.436C253.758 180.698 253.233 180.786 252.708 180.611C252.183 180.436 251.833 179.999 251.571 179.474C251.308 178.95 251.221 178.425 251.308 177.901C251.396 176.764 251.833 175.803 252.183 174.841C252.97 172.918 253.495 171.082 253.932 169.596C254.37 168.11 254.632 166.798 254.895 166.012C254.982 165.574 255.07 165.225 255.07 165.05C255.245 164.525 255.245 164.438 255.245 164.438Z" fill="#FF9A6C"/>
<path d="M271.252 223.709C270.814 222.223 260.755 192.413 260.755 192.413L244.048 190.402L250.871 216.103C250.871 216.103 249.821 222.66 250.871 226.507C251.92 230.353 260.493 240.931 264.866 238.396C269.24 235.861 271.602 225.195 271.252 223.709Z" fill="#FFBF9D"/>
<path d="M250.783 187.779C250.783 187.779 251.133 187.779 251.745 187.692C252.358 187.517 253.057 187.167 253.757 186.555C254.457 185.943 254.894 185.244 255.069 184.632C255.244 184.108 255.332 183.67 255.244 183.67C255.157 183.67 254.807 185.069 253.495 186.293C252.27 187.429 250.783 187.692 250.783 187.779Z" fill="#FF9A6C"/>
</g>
<defs>
<clipPath id="clip0_39_14794">
<rect width="597" height="385" fill="white"/>
</clipPath>
</defs>
</svg>
