<svg width="19" height="19" viewBox="0 0 19 19" fill="none" xmlns="http://www.w3.org/2000/svg">
<path d="M17.8745 9.19557L13.5564 4.87745C13.4013 4.69632 13.1287 4.6752 12.9475 4.83036C12.7664 4.98547 12.7453 5.25807 12.9005 5.4392C12.9149 5.45608 12.9307 5.47185 12.9475 5.48629L16.5272 9.07032H1.5C1.26154 9.07032 1 9.26366 1 9.50216C1 9.74065 1.26154 9.93396 1.5 9.93396H16.5272L12.9475 13.5136C12.7664 13.6688 12.7453 13.9414 12.9005 14.1225C13.0556 14.3036 13.3282 14.3247 13.5093 14.1696C13.5262 14.1551 13.542 14.1394 13.5564 14.1225L17.8745 9.80437C18.0419 9.63601 18.0419 9.364 17.8745 9.19557Z" fill="#25C883"/>
</svg>
