<svg width="14" height="14" viewBox="0 0 14 14" fill="none" xmlns="http://www.w3.org/2000/svg">
<g clip-path="url(#clip0_39_9)">
<path d="M7.00114 0C5.00112 0 3.36621 1.63431 3.36621 3.63359C3.36621 5.63287 5.00112 7.26719 7.00114 7.26719C9.00115 7.26719 10.6361 5.63287 10.6361 3.63359C10.6361 1.63431 9.00115 0 7.00114 0Z" fill="#25C883"/>
<path d="M13.2393 10.1709C13.1441 9.93285 13.0171 9.71072 12.8742 9.50444C12.1441 8.42545 11.0171 7.71143 9.74726 7.53689C9.58854 7.52104 9.41393 7.55275 9.28694 7.64796C8.62027 8.13985 7.82663 8.39372 7.00121 8.39372C6.17579 8.39372 5.38216 8.13985 4.71549 7.64796C4.58849 7.55275 4.41388 7.50516 4.25517 7.53689C2.98532 7.71143 1.84247 8.42545 1.12819 9.50444C0.985338 9.71072 0.858342 9.94873 0.763125 10.1709C0.715516 10.2661 0.731376 10.3771 0.778984 10.4724C0.905981 10.6945 1.0647 10.9167 1.20755 11.107C1.42977 11.4085 1.66787 11.6783 1.93772 11.9321C2.15994 12.1543 2.4139 12.3605 2.66789 12.5668C3.92185 13.503 5.4298 13.9949 6.98535 13.9949C8.54091 13.9949 10.0489 13.503 11.3028 12.5668C11.5568 12.3764 11.8107 12.1543 12.033 11.9321C12.2869 11.6783 12.5409 11.4085 12.7632 11.107C12.9219 10.9008 13.0648 10.6945 13.1917 10.4724C13.271 10.3771 13.2869 10.266 13.2393 10.1709Z" fill="#25C883"/>
</g>
<defs>
<clipPath id="clip0_39_9">
<rect width="14" height="13.9949" fill="white"/>
</clipPath>
</defs>
</svg>
